<svg width="100" height="100" fill="none" xmlns="http://www.w3.org/2000/svg"><path d="M11.084 71.972a1.562 1.562 0 01-.178-3.116c1.369-.16 3.344-.512 5.775-.95 2.656-.472 5.84-1.043 9.381-1.568a2.238 2.238 0 001.807-1.563l3.05-10.153a1.56 1.56 0 012.87-.292 1.563 1.563 0 01.12 1.189l-3.047 10.153a5.355 5.355 0 01-4.34 3.753c-3.506.522-6.663 1.088-9.29 1.556-2.513.454-4.55.816-5.966.978-.06.01-.121.013-.182.013z" fill="#292A29"/><path d="M5.57 66.463a1.563 1.563 0 01-.178-3.116c1.368-.16 3.343-.513 5.774-.95 2.657-.472 5.841-1.044 9.382-1.569a2.238 2.238 0 001.806-1.562l3.05-10.153a1.562 1.562 0 012.99.897l-3.046 10.153a5.357 5.357 0 01-4.34 3.753c-3.507.522-6.663 1.087-9.291 1.556-2.513.453-4.55.816-5.966.978-.06.009-.12.013-.181.013z" fill="#292A29"/><path fill-rule="evenodd" clip-rule="evenodd" d="M11.088 71.472a.74.74 0 00.105-.007l.008-.001.008-.001c1.396-.16 3.415-.52 5.933-.974l.197-.035c2.588-.461 5.682-1.013 9.11-1.523a4.857 4.857 0 003.935-3.403l3.046-10.153a1.062 1.062 0 00-2.032-.61l-3.05 10.155a2.738 2.738 0 01-2.21 1.912h-.002c-3.348.497-6.376 1.035-8.945 1.492l-.422.075c-2.424.436-4.417.792-5.805.954h-.003a1.063 1.063 0 00.12 2.119h.007zm5.593-3.566l.423-.075c2.569-.457 5.604-.996 8.958-1.493a2.238 2.238 0 001.807-1.563l3.05-10.153a1.56 1.56 0 012.87-.292 1.563 1.563 0 01.12 1.189l-3.047 10.153a5.355 5.355 0 01-4.34 3.753c-3.42.51-6.508 1.06-9.096 1.522l-.195.034c-2.512.454-4.55.816-5.966.978a1.562 1.562 0 11-.36-3.103c1.37-.16 3.345-.512 5.776-.95z" fill="#fff"/><path fill-rule="evenodd" clip-rule="evenodd" d="M5.574 65.963c.035 0 .07-.002.104-.007l.008-.002h.008c1.396-.16 3.415-.52 5.934-.974l.197-.035c2.588-.462 5.681-1.014 9.108-1.524a4.856 4.856 0 003.936-3.402l3.047-10.153a1.061 1.061 0 10-2.033-.61l-3.05 10.155a2.738 2.738 0 01-2.21 1.912h-.002c-3.347.496-6.375 1.035-8.945 1.491l-.422.075c-2.424.436-4.417.793-5.805.955h-.003a1.062 1.062 0 00.121 2.119h.007zm5.592-3.566l.424-.075c2.568-.457 5.603-.996 8.958-1.494a2.238 2.238 0 001.806-1.562l3.05-10.153a1.562 1.562 0 012.99.897l-3.046 10.153a5.357 5.357 0 01-4.34 3.753c-3.421.509-6.508 1.06-9.097 1.521l-.194.035c-2.513.453-4.55.816-5.966.978a1.563 1.563 0 11-.36-3.103c1.37-.16 3.344-.512 5.775-.95z" fill="#fff"/><path d="M34.372 18.76a7.847 7.847 0 01-7.806-7.35 7.887 7.887 0 017.365-8.282l.447-.012a7.844 7.844 0 017.806 7.35 7.89 7.89 0 01-7.365 8.281l-.447.012zm.006-12.52c-2.884.173-4.837 2.36-4.694 4.988a4.713 4.713 0 004.688 4.406l.262-.006a4.7 4.7 0 00-.256-9.387z" fill="#292A29"/><path fill-rule="evenodd" clip-rule="evenodd" d="M34.367 5.74h.02a5.2 5.2 0 01.283 10.387h-.012l-.286.008c-2.737 0-5.014-2.147-5.187-4.875v-.005c-.16-2.92 2.022-5.326 5.163-5.513l.02-.002zm-.001 12.52l.43-.013a7.39 7.39 0 006.89-7.753 7.344 7.344 0 00-7.302-6.878l-.43.012a7.388 7.388 0 00-6.89 7.753 7.347 7.347 0 007.302 6.878zm-7.8-6.85a7.848 7.848 0 007.806 7.35l.447-.013a7.891 7.891 0 007.365-8.281 7.844 7.844 0 00-7.806-7.35l-.447.012a7.888 7.888 0 00-7.365 8.281zm7.812-5.17c-2.884.173-4.837 2.36-4.694 4.988a4.713 4.713 0 004.688 4.406l.262-.006a4.7 4.7 0 00-.256-9.387z" fill="#fff"/><path d="M42.278 81.113a1.563 1.563 0 01-1.54-1.32L38.3 64.45a5.94 5.94 0 00-1.653-2.697l-9.575-10A7.407 7.407 0 0125 46.6V33.353l-5.8 1.944-1.56 7.397c-.29 1.8-1.89 3.244-3.787 3.353-.294.01-.575 0-.869-.04a4.115 4.115 0 01-3.41-4.694l1.957-10.2c.197-1.232 1.01-2.344 2.156-2.935l11.063-5.697c.61-.318 1.256-.447 1.987-.456l12.094-.134a7.5 7.5 0 014.131 1.175l6.9 4.387 5.725-3.56a4.088 4.088 0 016.204 4.291 4.06 4.06 0 01-1.77 2.582l-8.05 5.047a4.122 4.122 0 01-4.634-.15l-2.468-1.278a1.564 1.564 0 01-.299-2.607 1.562 1.562 0 011.752-.16l2.669 1.4c.521.363.971.379 1.306.157l8.047-5.044a.947.947 0 00.26-1.312.96.96 0 00-1.335-.284l-6.585 4.093a1.563 1.563 0 01-1.662-.01l-7.728-4.912a4.429 4.429 0 00-2.375-.69h-.05l-12.157.134c-.28.006-.384.031-.528.106l-11.062 5.697a.98.98 0 00-.51.703l-1.956 10.2c-.075.475.284.975.813 1.063.653-.019 1.03-.356 1.106-.797l1.756-8.347a1.556 1.556 0 011.031-1.156l8.71-2.919a1.562 1.562 0 011.41.21 1.588 1.588 0 01.643 1.274v15.42c0 1.118.428 2.18 1.203 2.99l9.519 9.944c1.19 1.115 2.078 2.615 2.512 4.278l2.469 15.493a1.565 1.565 0 01-1.55 1.804z" fill="#292A29"/><path fill-rule="evenodd" clip-rule="evenodd" d="M41.231 79.716a1.062 1.062 0 001.858.526 1.064 1.064 0 00.245-.855v-.002L40.869 63.92c-.413-1.565-1.25-2.973-2.364-4.016l-.01-.01-9.528-9.953a4.807 4.807 0 01-1.342-3.337V31.185a1.087 1.087 0 00-.438-.871 1.062 1.062 0 00-.955-.14h-.001l-8.71 2.919a1.06 1.06 0 00-.7.785l-1.755 8.338c-.128.721-.752 1.179-1.583 1.203l-.048.001-.048-.008c-.782-.13-1.345-.87-1.225-1.634l.002-.008 1.956-10.203a1.478 1.478 0 01.77-1.056l.003-.002 11.06-5.696h.001c.1-.053.206-.097.341-.125a2.24 2.24 0 01.406-.038h.006l12.162-.134h.05c.936 0 1.853.266 2.643.768l7.728 4.913a1.063 1.063 0 001.13.006l6.58-4.09a1.459 1.459 0 012.021.432 1.447 1.447 0 01-.399 2.002l-.006.004-8.049 5.045c-.55.361-1.216.272-1.835-.148l-2.653-1.392a1.06 1.06 0 00-1.575.838 1.062 1.062 0 00.587 1.043l.008.004 2.502 1.295.03.023a3.622 3.622 0 004.073.131l.002-.001 8.044-5.043.003-.002a3.559 3.559 0 001.548-2.261v-.002a3.587 3.587 0 00-5.444-3.766l-.006.004-5.992 3.725-7.165-4.556a7.002 7.002 0 00-3.856-1.097h-.001l-12.093.134c-.674.009-1.24.126-1.762.4l-.003.001-11.063 5.697c-1.01.52-1.72 1.499-1.891 2.569l-.001.007-1.956 10.199a3.616 3.616 0 002.99 4.114c.256.035.505.044.773.035 1.665-.098 3.064-1.372 3.316-2.933l.002-.011 1.62-7.69 6.73-2.255v13.943a6.906 6.906 0 001.933 4.805v.002L37 61.398a6.441 6.441 0 011.781 2.914l.009.03 2.442 15.374zm-4.584-17.963l-9.575-10A7.407 7.407 0 0125 46.6V33.353l-5.8 1.944-1.56 7.397c-.29 1.8-1.89 3.244-3.787 3.353-.294.01-.575 0-.869-.04a4.115 4.115 0 01-3.41-4.694l1.957-10.2c.197-1.232 1.01-2.344 2.156-2.935l11.063-5.697c.61-.318 1.256-.447 1.987-.456l12.094-.134a7.5 7.5 0 014.131 1.175l6.9 4.387 5.725-3.56a4.088 4.088 0 016.204 4.291 4.06 4.06 0 01-1.77 2.582l-8.05 5.047a4.122 4.122 0 01-4.634-.15l-2.468-1.278a1.564 1.564 0 01-.299-2.607 1.562 1.562 0 011.752-.16l2.669 1.4c.521.363.971.379 1.306.157l8.047-5.044a.947.947 0 00.26-1.312.96.96 0 00-1.335-.284l-6.585 4.093a1.563 1.563 0 01-1.662-.01l-7.728-4.912a4.429 4.429 0 00-2.375-.69h-.05l-12.157.134c-.28.006-.384.031-.528.106l-11.062 5.697a.98.98 0 00-.51.703l-1.956 10.2c-.075.475.284.975.813 1.063.653-.019 1.03-.356 1.106-.797l1.756-8.347a1.556 1.556 0 011.031-1.156l8.71-2.919a1.562 1.562 0 011.41.21 1.588 1.588 0 01.643 1.274v15.42c0 1.118.428 2.18 1.203 2.99l9.519 9.944c1.19 1.115 2.078 2.615 2.512 4.278l2.469 15.493a1.565 1.565 0 01-3.09.485L38.3 64.45a5.94 5.94 0 00-1.653-2.697z" fill="#fff"/><path d="M48.434 81.25a1.56 1.56 0 01-1.55-1.403l-1.871-18.325a5.928 5.928 0 00-.829-2.322l-6.434-9.91a1.59 1.59 0 01-.25-.852v-18.75a1.563 1.563 0 013.125 0v18.287l6.2 9.556a9.087 9.087 0 011.29 3.632l1.876 18.368a1.562 1.562 0 01-1.394 1.713l-.163.006z" fill="#292A29"/><path fill-rule="evenodd" clip-rule="evenodd" d="M47.382 79.797a1.06 1.06 0 001.044.953l.134-.005a1.062 1.062 0 00.933-1.163L47.62 61.22a8.588 8.588 0 00-1.217-3.422l-6.277-9.675V29.688a1.062 1.062 0 10-2.125 0v18.749c0 .207.06.409.17.583l.001.002 6.44 9.916c.472.767.778 1.625.897 2.517l.001.008 1.873 18.334zM37.75 49.29a1.59 1.59 0 01-.25-.853v-18.75a1.563 1.563 0 013.125 0v18.287l6.2 9.556a9.087 9.087 0 011.29 3.632l1.876 18.368a1.562 1.562 0 01-1.394 1.713l-.163.006a1.56 1.56 0 01-1.55-1.403l-1.871-18.325a5.928 5.928 0 00-.829-2.322l-6.434-9.91z" fill="#fff"/><path d="M17.547 95.65c-2.735 0-4.631-.197-5.39-.294a1.564 1.564 0 01.39-3.103c3.781.485 37.556 3.628 58.96-32.215l7.596-12.722-5.694-3.4a1.563 1.563 0 01.07-2.722l21.1-11.278a1.562 1.562 0 012.296 1.384v23.881a1.566 1.566 0 01-2.366 1.344l-5.687-3.4-7.597 12.722a1.566 1.566 0 01-2.688-1.6l8.4-14.069a1.571 1.571 0 012.147-.54l4.666 2.787V33.906l-16.362 8.75 4.662 2.785a1.569 1.569 0 01.54 2.143L74.195 61.65c-18.163 30.406-44.988 34-56.647 34z" fill="#292A29"/><path fill-rule="evenodd" clip-rule="evenodd" d="M12.22 94.86c.74.095 2.616.29 5.327.29 11.56 0 38.179-3.557 56.217-33.756L82.16 47.33a1.068 1.068 0 00-.367-1.46l-5.42-3.238 17.877-9.56v20.234l-5.42-3.238a1.073 1.073 0 00-1.463.367l-.001.002-8.392 14.055a1.066 1.066 0 001.828 1.088l7.847-13.14 6.116 3.655a1.066 1.066 0 001.61-.914V31.299a1.063 1.063 0 00-1.562-.942l-21.1 11.279a1.063 1.063 0 00-.047 1.85l6.123 3.657-7.853 13.151C50.378 96.397 16.334 93.242 12.484 92.749a1.064 1.064 0 10-.264 2.111zm.327-2.607a1.563 1.563 0 10-.39 3.103c.759.097 2.655.294 5.39.294 11.66 0 38.484-3.594 56.647-34l8.397-14.066a1.569 1.569 0 00-.541-2.143l-4.662-2.785 16.362-8.75v18.52l-4.666-2.788a1.571 1.571 0 00-2.147.54l-8.4 14.069a1.565 1.565 0 002.688 1.6l7.597-12.722 5.687 3.4a1.566 1.566 0 002.366-1.344v-23.88a1.563 1.563 0 00-2.297-1.385l-21.1 11.278a1.561 1.561 0 00-.069 2.722l5.694 3.4-7.597 12.722c-21.403 35.843-55.178 32.7-58.96 32.215z" fill="#fff"/><path d="M76.503 71.978a1.456 1.456 0 01-1.047-.406c-.61-.61-.719-1.49-.11-2.1l.22-.219a1.562 1.562 0 012.209 2.21c-.34.331-.797.517-1.272.515zm18.81.053c-.863 0-1.563-.544-1.563-1.406v-.313a1.562 1.562 0 113.125 0c0 .863-.7 1.72-1.563 1.72zm0 6.25c-.863 0-1.563-.544-1.563-1.406v-.313a1.562 1.562 0 113.125 0c0 .863-.7 1.72-1.563 1.72zm0 6.25c-.863 0-1.563-.544-1.563-1.406v-.313a1.562 1.562 0 113.125 0c0 .863-.7 1.72-1.563 1.72z" fill="#292A29"/><path fill-rule="evenodd" clip-rule="evenodd" d="M76.497 71.478h.008c.341.001.67-.131.915-.368a1.062 1.062 0 00-1.504-1.5l-.216.215c-.366.367-.355.926.106 1.39a.954.954 0 00.684.263h.007zm-1.04.094c-.61-.61-.72-1.49-.11-2.1l.219-.219a1.562 1.562 0 012.209 2.21c-.34.331-.797.517-1.272.515a1.456 1.456 0 01-1.047-.406zm18.793-.947c0 .52.404.906 1.062.906.26 0 .522-.129.73-.366.209-.238.333-.552.333-.853a1.062 1.062 0 10-2.125 0v.313zm0 6.25c0 .52.404.906 1.062.906.26 0 .522-.129.73-.366.209-.238.333-.552.333-.853a1.062 1.062 0 10-2.125 0v.313zm0 6.25c0 .52.404.906 1.062.906.26 0 .522-.129.73-.366.209-.238.333-.552.333-.853a1.062 1.062 0 10-2.125 0v.313zm-.5-12.5c0 .862.7 1.406 1.562 1.406.863 0 1.563-.856 1.563-1.719a1.563 1.563 0 00-3.125 0v.313zm0 6.25c0 .862.7 1.406 1.562 1.406.863 0 1.563-.856 1.563-1.719a1.563 1.563 0 00-3.125 0v.313zm0 6.25c0 .862.7 1.406 1.562 1.406.863 0 1.563-.856 1.563-1.719a1.563 1.563 0 00-3.125 0v.313z" fill="#292A29"/></svg>