<svg width="116" height="197" fill="none" xmlns="http://www.w3.org/2000/svg"><path d="M1.87 154.128V39.127L0 38.045v115.002l1.87 1.081z" fill="#292A29"/><path d="M1.871 154.128l2.267-1.297V37.813L1.87 39.127v115.001z" fill="#4D4D4D"/><path d="M41.72 131.055V16.053l-1.868-1.08v115.001l1.869 1.081z" fill="#292A29"/><path d="M41.723 131.055l2.266-1.298V14.739l-2.266 1.314v115.002z" fill="#4D4D4D"/><path d="M0 38.045l1.87 1.082 2.266-1.314-1.87-1.082L0 38.045zm39.852-23.073l1.869 1.081 2.266-1.314-1.886-1.081-2.25 1.314z" fill="#4A4A4A"/><path d="M43.261 126.846l-1.538 1.531-38.86-31.059.712-2.279 39.686 31.807z" fill="#4D4D4D"/><path d="M3.176 148.971l.364 2.196L42.63 74.76l-.91-1.347L3.176 148.97z" fill="#4D4D4D"/><path d="M43.261 72.63l-1.538 1.548-38.86-31.059.712-2.279L43.26 72.63z" fill="#4D4D4D"/><path d="M3.176 94.772l.364 2.196 39.09-76.423-.91-1.331L3.176 94.772z" fill="#4D4D4D"/><path d="M42.266 123.086l-39.77 23.207 71.582 41.605 39.852-23.173-71.664-41.639z" fill="#292A29"/><path d="M74.078 190.86v-2.962l39.852-23.173v2.961L74.078 190.86z" fill="#4D4D4D"/><path d="M2.496 146.293v2.961l71.582 41.606v-2.962L2.496 146.293z" fill="#000"/><path d="M47.48 146.692V128.01l14.84-8.633v18.665l-14.84 8.65z" fill="#C8A300"/><path d="M47.477 146.692V128.01l-14.856-8.633v18.665l14.856 8.65z" fill="#DDB400"/><path d="M34.559 136.794v-14.34l-.43-.249v14.905l11.861 6.92v-.565l-11.431-6.671z" fill="#C8A300"/><path d="M45.99 143.465v-14.357l-11.431-6.654v14.34l11.43 6.671z" fill="#C8A300"/><path d="M41.672 139.838l3.176 1.864v-4.825l-3.176-1.863v4.824z" fill="#fff"/><path d="M60.4 136.794v-14.34l.43-.249v14.905l-11.861 6.92v-.565l11.431-6.671z" fill="#C8A300"/><path d="M48.969 143.465v-14.357l11.431-6.654v14.34l-11.431 6.671z" fill="#C8A300"/><path d="M32.621 119.377l14.856 8.634 14.839-8.634-14.84-8.618-14.855 8.618z" fill="#FFD725"/><path d="M59.242 119.56l.497-.283-12.259-7.12-12.242 7.12.48.283 11.762-6.838 11.762 6.838z" fill="#C8A300"/><path d="M59.243 119.56l-11.762-6.837-11.762 6.837 11.762 6.837 11.762-6.837z" fill="#DDB400"/><path d="M57.305 125.748v4.824l2.448-1.43v-4.825l-2.448 1.431zm-3.621 2.063v4.824l2.448-1.414v-4.824l-2.448 1.414z" fill="#4D4D4D"/><path d="M29.098 157.306v-18.682l14.839-8.634v18.665l-14.84 8.651z" fill="#C8A300"/><path d="M29.098 157.306v-18.682l-14.856-8.634v18.665l14.856 8.651z" fill="#DDB400"/><path d="M16.18 147.408v-14.34l-.43-.25v14.922l11.861 6.904v-.566l-11.43-6.67z" fill="#C8A300"/><path d="M27.61 154.079v-14.374l-11.43-6.637v14.34l11.43 6.671z" fill="#C8A300"/><path d="M23.293 150.452l3.176 1.863v-4.824l-3.176-1.864v4.825z" fill="#fff"/><path d="M42.017 147.408v-14.34l.43-.25v14.922l-11.861 6.904v-.565l11.431-6.671z" fill="#C8A300"/><path d="M30.586 154.079v-14.374l11.431-6.637v14.34l-11.431 6.671z" fill="#C8A300"/><path d="M14.242 129.99l14.856 8.634 14.839-8.634-14.84-8.617-14.855 8.617z" fill="#FFD725"/><path d="M40.86 130.173l.496-.283-12.259-7.12-12.242 7.12.48.283 11.762-6.837 11.762 6.837z" fill="#C8A300"/><path d="M40.86 130.173l-11.762-6.837-11.762 6.837 11.762 6.837 11.762-6.837z" fill="#DDB400"/><path d="M38.926 136.361v4.825l2.448-1.431v-4.824l-2.448 1.43zm-3.621 2.063v4.825l2.448-1.431v-4.808l-2.448 1.414z" fill="#4D4D4D"/><path d="M68.274 158.038l-.016-18.682 14.856-8.634v18.665l-14.84 8.651z" fill="#C8A300"/><path d="M68.274 158.038l-.017-18.682-14.839-8.634v18.665l14.856 8.651z" fill="#DDB400"/><path d="M55.336 148.156V133.8l-.43-.25v14.922l11.878 6.904v-.566l-11.448-6.654z" fill="#C8A300"/><path d="M66.784 154.81l-.017-14.356-11.431-6.654v14.356l11.448 6.654z" fill="#C8A300"/><path d="M62.45 151.184l3.192 1.863v-4.824l-3.193-1.864v4.825z" fill="#fff"/><path d="M81.194 148.156V133.8l.43-.25v14.922l-11.878 6.904v-.565l11.448-6.655z" fill="#C8A300"/><path d="M69.746 154.81v-14.356l11.448-6.654v14.356l-11.448 6.654z" fill="#C8A300"/><path d="M53.418 130.722l14.84 8.634 14.855-8.634-14.84-8.617-14.855 8.617z" fill="#FFD725"/><path d="M80.036 130.905l.48-.283-12.242-7.12-12.258 7.12.496.283 11.762-6.837 11.762 6.837z" fill="#C8A300"/><path d="M80.036 130.905l-11.762-6.837-11.762 6.837 11.762 6.837 11.762-6.837z" fill="#DDB400"/><path d="M78.102 137.093v4.825l2.448-1.431v-4.824l-2.448 1.43zm-3.642 2.08v4.808l2.45-1.415v-4.824l-2.45 1.431z" fill="#4D4D4D"/><path d="M49.895 168.651l-.016-18.682 14.856-8.634v18.666l-14.84 8.65z" fill="#C8A300"/><path d="M49.895 168.651l-.017-18.682-14.839-8.633v18.665l14.856 8.65z" fill="#DDB400"/><path d="M36.958 158.77v-14.357l-.43-.249v14.922l11.86 6.903v-.565l-11.43-6.654z" fill="#C8A300"/><path d="M48.388 165.424v-14.357l-11.431-6.654v14.357l11.431 6.654z" fill="#C8A300"/><path d="M44.07 161.797l3.193 1.864v-4.825l-3.193-1.863v4.824z" fill="#fff"/><path d="M62.815 158.77v-14.357l.43-.249v14.922l-11.878 6.903v-.565l11.448-6.654z" fill="#C8A300"/><path d="M51.367 165.424v-14.357l11.448-6.654v14.357l-11.448 6.654z" fill="#C8A300"/><path d="M35.04 141.336l14.838 8.633 14.856-8.633-14.84-8.618-14.855 8.618z" fill="#FFD725"/><path d="M61.657 141.519l.48-.283-12.242-7.12-12.258 7.12.496.283 11.762-6.838 11.762 6.838z" fill="#C8A300"/><path d="M61.657 141.519l-11.762-6.838-11.762 6.838 11.762 6.837 11.762-6.837z" fill="#DDB400"/><path d="M59.719 147.707v4.824l2.448-1.43v-4.825l-2.448 1.431zm-3.637 2.063v4.824l2.448-1.414v-4.824l-2.448 1.414z" fill="#4D4D4D"/><path d="M90.144 170.714v-18.682l14.84-8.634v18.666l-14.84 8.65z" fill="#C8A300"/><path d="M90.145 170.714v-18.682l-14.856-8.634v18.666l14.856 8.65z" fill="#DDB400"/><path d="M77.224 160.816v-14.34l-.447-.266v14.922l11.878 6.92v-.582l-11.431-6.654z" fill="#C8A300"/><path d="M88.654 167.47v-14.356l-11.431-6.638v14.34l11.43 6.654z" fill="#C8A300"/><path d="M84.336 163.86l3.176 1.847v-4.825l-3.176-1.846v4.824z" fill="#fff"/><path d="M103.064 160.816v-14.34l.43-.266v14.922l-11.861 6.92v-.582l11.431-6.654z" fill="#C8A300"/><path d="M91.633 167.47v-14.356l11.431-6.638v14.34l-11.431 6.654z" fill="#C8A300"/><path d="M75.29 143.398l14.855 8.634 14.839-8.634-14.84-8.633-14.855 8.633z" fill="#FFD725"/><path d="M101.907 143.565l.497-.283-12.259-7.12-12.258 7.12.496.283 11.762-6.837 11.762 6.837z" fill="#C8A300"/><path d="M101.907 143.565l-11.762-6.837-11.762 6.837 11.762 6.837 11.762-6.837z" fill="#DDB400"/><path d="M99.969 149.753v4.824l2.448-1.43v-4.808l-2.448 1.414zm-3.637 2.08v4.824l2.448-1.431v-4.824l-2.448 1.431z" fill="#4D4D4D"/><path d="M71.766 181.327v-18.681l14.839-8.634v18.665l-14.84 8.65z" fill="#C8A300"/><path d="M71.762 181.327v-18.681l-14.856-8.634v18.665l14.856 8.65z" fill="#DDB400"/><path d="M58.845 171.429v-14.356l-.447-.25v14.922l11.878 6.921v-.583l-11.43-6.654z" fill="#C8A300"/><path d="M70.275 178.084v-14.357l-11.431-6.654v14.356l11.431 6.655z" fill="#C8A300"/><path d="M65.957 174.474l3.176 1.846v-4.824l-3.176-1.847v4.825z" fill="#fff"/><path d="M84.685 171.429v-14.356l.43-.25v14.922l-11.861 6.921v-.583l11.431-6.654z" fill="#C8A300"/><path d="M73.254 178.084v-14.357l11.431-6.654v14.356l-11.431 6.655z" fill="#C8A300"/><path d="M56.906 154.012l14.856 8.634 14.84-8.634-14.84-8.634-14.856 8.634z" fill="#FFD725"/><path d="M83.528 154.178l.497-.283-12.259-7.12-12.258 7.12.496.283 11.762-6.837 11.762 6.837z" fill="#C8A300"/><path d="M83.528 154.178l-11.762-6.837-11.762 6.837 11.762 6.837 11.762-6.837z" fill="#DDB400"/><path d="M81.59 160.367v4.824l2.448-1.431v-4.807l-2.448 1.414zm-3.64 2.079v4.824l2.448-1.43v-4.825l-2.449 1.431z" fill="#4D4D4D"/><path d="M42.266 71.317L2.496 94.523l71.582 41.606 39.852-23.157-71.664-41.655z" fill="#292A29"/><path d="M74.078 139.09v-2.961l39.852-23.157v2.944L74.078 139.09z" fill="#4D4D4D"/><path d="M2.496 94.523v2.978l71.582 41.589v-2.961L2.496 94.523z" fill="#000"/><path d="M47.543 114.103V97.667l23.723-13.79v16.402l-23.723 13.824z" fill="#C8A300"/><path d="M47.543 114.103V97.668L13.398 77.82v16.42l34.145 19.862z" fill="#DDB400"/><path d="M13.398 77.821l34.145 19.846 23.723-13.79-34.161-19.83L13.398 77.82z" fill="#FFD725"/><path d="M62.434 97.684l-5.278 3.094v-8.717l5.278-3.094v8.717z" fill="#4D4D4D"/><path d="M62.434 88.967L28.322 69.154l-5.31 3.077 34.145 19.83 5.277-3.094z" fill="#4E4E4E"/><path d="M49.316 111.392v-1.548l7.974-4.641v1.564l-7.974 4.625zm0-2.745V107.1l7.974-4.642v1.564l-7.974 4.625zM18.18 89.566v5.54l-3.805-2.213v-5.54l3.805 2.213zm5.195 3.027v5.54l-3.805-2.212v-5.54l3.805 2.212zm5.278 3.045v5.539l-3.805-2.212v-5.54l3.805 2.213z" fill="#4D4D4D"/><path d="M46.5 98.35v7.968l-7.824-4.542v-7.985L46.5 98.35z" fill="#fff"/><path d="M45.545 99.98v-1.298l-6.154-3.576v1.28l6.154 3.594z" fill="#4D4D4D"/><path d="M44.668 91.18v-9.616l15.319-8.916v9.615l-15.319 8.916z" fill="#C8A300"/><path d="M44.665 91.18v-9.616l-22.052-12.81v9.6l22.052 12.825z" fill="#DDB400"/><path d="M22.613 68.771l22.052 12.81 15.32-8.9-22.053-12.81-15.319 8.9z" fill="#FFD725"/><path d="M45.824 89.433v-.998l5.129-2.995v.998l-5.129 2.995zm0-1.78v-.982l5.129-3.01v1.014l-5.129 2.978zM26.436 72.647v4.459l-3.077-1.78V70.85l3.077 1.796zm4.184 2.429v4.475l-3.077-1.78v-4.475l3.077 1.78z" fill="#4D4D4D"/><path d="M43.473 82.579v5.34l-7.825-4.558v-5.34l7.825 4.558z" fill="#fff"/><path d="M42.514 84.21v-1.298l-6.17-3.577v1.28l6.17 3.594zm13.6-4.243l-5.294 3.094v-5.074l5.294-3.077v5.057z" fill="#4D4D4D"/><path d="M56.115 74.91L34.096 62.1l-5.326 3.095 22.051 12.81 5.294-3.095z" fill="#4E4E4E"/><path d="M85.758 117.946v-7.419l10.554-6.106v7.42l-10.554 6.105z" fill="#C8A300"/><path d="M85.76 117.946v-7.419l-12.21-7.104v7.42l12.21 7.103z" fill="#DDB400"/><path d="M73.55 103.423l12.21 7.104 10.554-6.106-12.242-7.12-10.521 6.122z" fill="#FFD725"/><path d="M86.652 116.599v-.766l3.97-2.329v.782l-3.97 2.313zm0-1.365v-.782l3.97-2.312v.782l-3.97 2.312zm-9.575-8.151v3.443l-2.366-1.38v-3.444l2.366 1.381z" fill="#4D4D4D"/><path d="M79.34 107.998v4.076l-4.93-2.862v-4.075l4.93 2.861z" fill="#fff"/><path d="M78.597 108.98v-.766l-3.64-2.112v.765l3.64 2.113zm14.64-2.795l-2.714 1.58v3.909l2.714-1.58v-3.909z" fill="#4D4D4D"/><path d="M93.24 106.185l-12.21-7.103-2.73 1.58 12.226 7.103 2.713-1.58z" fill="#4E4E4E"/><path d="M69.879 127.129v-7.42l10.538-6.105v7.42l-10.538 6.105z" fill="#C8A300"/><path d="M69.878 127.129v-7.42l-12.226-7.103v7.419l12.226 7.104z" fill="#DDB400"/><path d="M57.652 112.606l12.226 7.104 10.538-6.106-12.226-7.12-10.538 6.122z" fill="#FFD725"/><path d="M70.754 125.781v-.765l3.97-2.329v.782l-3.97 2.312zm0-1.38v-.749l3.97-2.329v.782l-3.97 2.296zm-9.56-8.135v3.443l-2.366-1.364v-3.46l2.366 1.381z" fill="#4D4D4D"/><path d="M63.444 117.181v4.075l-4.913-2.861v-4.076l4.913 2.862z" fill="#fff"/><path d="M62.697 118.162v-.765l-3.623-2.113v.766l3.623 2.112zm14.641-2.795l-2.713 1.581v3.909l2.713-1.58v-3.91z" fill="#4D4D4D"/><path d="M77.34 115.367l-12.208-7.103-2.73 1.58 12.226 7.104 2.713-1.581z" fill="#4E4E4E"/><path d="M42.266 19.214L2.496 42.421l71.582 41.605 39.852-23.173-71.664-41.639z" fill="#292A29"/><path d="M74.078 86.987v-2.96l39.852-23.174v2.961L74.078 86.987z" fill="#4D4D4D"/><path d="M2.496 42.42v2.978l71.582 41.59v-2.962L2.496 42.421z" fill="#000"/><path d="M41.309 57.443V27.582L65.03 13.79v29.827L41.31 57.444z" fill="#C8A300"/><path d="M41.309 57.443V27.582L17.586 13.79v29.827l23.723 13.825z" fill="#DDB400"/><path d="M17.586 13.79l23.723 13.792L65.03 13.79 41.31 0 17.586 13.79z" fill="#FFD725"/><path d="M56.216 27.598l-5.294 3.095v-8.717l5.294-3.095v8.717z" fill="#4D4D4D"/><path d="M56.215 18.881L32.525 5.107l-5.31 3.078L50.92 21.992l5.294-3.11z" fill="#4E4E4E"/><path d="M44.453 53.167v-1.53l7.957-4.642v1.547l-7.957 4.625zm0-2.745v-1.53l7.957-4.658v1.564l-7.957 4.624zM59.57 39.243v5.324l3.805-2.213v-5.34l-3.805 2.23zm-36.773-.565v5.556l-3.805-2.213v-5.556l3.805 2.213zm5.195 3.044v5.54l-3.805-2.213v-5.54l3.805 2.213z" fill="#4D4D4D"/><path d="M26.817 22.458v7.985l-7.825-4.558V17.9l7.825 4.558z" fill="#fff"/><path d="M25.857 24.088v-1.297l-6.154-3.56v1.264l6.154 3.593z" fill="#4D4D4D"/><path d="M73.833 76.424l-.017-16.436 23.74-13.791v16.402L73.833 76.424z" fill="#C8A300"/><path d="M73.833 76.424l-.016-16.436-23.723-13.791v16.402l23.74 13.825z" fill="#DDB400"/><path d="M50.094 46.197l23.723 13.774 23.739-13.774-23.723-13.79-23.74 13.79z" fill="#FFD725"/><path d="M88.719 60.004l-5.278 3.078v-8.7l5.278-3.095v8.717z" fill="#4D4D4D"/><path d="M88.722 51.287l-23.69-13.774-5.294 3.078 23.707 13.79 5.277-3.094z" fill="#4E4E4E"/><path d="M76.957 72.148v-1.53l7.974-4.641v1.547l-7.974 4.624zm0-2.744v-1.53l7.974-4.642v1.564l-7.974 4.608zm15.121-11.18v5.324l3.805-2.213v-5.323l-3.805 2.212zm-37.203.333v5.556l-3.805-2.212v-5.54l3.805 2.196zm5.192 3.044v5.54l-3.805-2.213v-5.54l3.805 2.213z" fill="#4D4D4D"/><path d="M72.79 60.67v7.968l-7.825-4.558v-7.968l7.825 4.558z" fill="#fff"/><path d="M71.83 62.3v-1.297l-6.154-3.577v1.28L71.83 62.3z" fill="#4D4D4D"/><path d="M74.078 55.396v-9.615l15.319-8.9v9.615l-15.319 8.9z" fill="#C8A300"/><path d="M74.082 55.396v-9.615L56.2 35.384v9.615l17.883 10.397z" fill="#DDB400"/><path d="M56.2 35.384L74.081 45.78l15.32-8.9-17.884-10.397-15.319 8.9z" fill="#FFD725"/><path d="M75.223 53.633v-.998l5.145-2.994v.998l-5.145 2.994zm0-1.78v-.982l5.145-3.01v1.014l-5.145 2.978zM60.017 39.276v4.475l-3.06-1.78v-4.474l3.06 1.78z" fill="#4D4D4D"/><path d="M72.872 46.78v5.34l-7.825-4.559v-5.34l7.825 4.558z" fill="#fff"/><path d="M71.912 48.41v-1.298l-6.154-3.577v1.281l6.154 3.593zm13.616-4.242l-5.294 3.094v-5.057l5.294-3.095v5.058z" fill="#4D4D4D"/><path d="M85.528 39.11L67.662 28.713l-5.31 3.094 17.883 10.397 5.293-3.094z" fill="#4E4E4E"/><path d="M73.881 196.016V81.015l-1.87-1.098v115.002l1.87 1.097z" fill="#292A29"/><path d="M73.883 196.016l2.266-1.297V79.701l-2.266 1.314v115.001z" fill="#4D4D4D"/><path d="M113.733 172.926V57.942l-1.87-1.098v115.001l1.87 1.081z" fill="#292A29"/><path d="M113.734 172.927l2.267-1.281V56.627l-2.267 1.315v114.985z" fill="#4D4D4D"/><path d="M72.012 79.917l1.87 1.098 2.265-1.314-1.869-1.081-2.266 1.297zm39.851-23.073l1.87 1.098 2.266-1.315-1.869-1.08-2.267 1.297z" fill="#4A4A4A"/><path d="M115.273 168.718l-1.538 1.53-38.86-31.042.711-2.279 39.687 31.791z" fill="#4D4D4D"/><path d="M75.188 190.86l.363 2.196 39.092-76.424-.91-1.331-38.546 75.559z" fill="#4D4D4D"/><path d="M115.273 114.519l-1.538 1.531-38.86-31.059.711-2.28 39.687 31.808z" fill="#4D4D4D"/><path d="M75.188 136.644l.363 2.196 39.092-76.407-.91-1.33-38.546 75.541z" fill="#4D4D4D"/></svg>