<svg width="256" height="51" viewBox="0 0 256 51" fill="none" xmlns="http://www.w3.org/2000/svg">
<g id="Frame" clip-path="url(#clip0_1601_7818)">
<path id="Vector" d="M245.475 42.9428C242.639 43.0961 239.853 42.1455 237.691 40.2867C236.73 39.3579 235.978 38.2309 235.487 36.9825C234.995 35.7341 234.776 34.3935 234.844 33.052V17.9383C234.777 16.5968 234.996 15.2565 235.488 14.0082C235.979 12.7599 236.73 11.6328 237.691 10.7036C239.857 8.85193 242.641 7.90537 245.475 8.05741C252.553 8.05741 255.998 11.7045 255.998 19.2069V20.8223H250.462V19.2465C250.581 17.6297 250.156 16.0195 249.254 14.6777C248.772 14.1455 248.175 13.7314 247.51 13.467C246.845 13.2025 246.129 13.0946 245.416 13.1515C244.734 13.1091 244.05 13.2095 243.409 13.4466C242.767 13.6836 242.18 14.0522 241.686 14.529C240.745 15.6225 240.272 17.0482 240.371 18.4933V32.715C240.324 33.4198 240.416 34.1269 240.642 34.7955C240.868 35.464 241.223 36.0807 241.686 36.6099C242.183 37.0817 242.77 37.4457 243.412 37.6792C244.053 37.9127 244.736 38.0109 245.416 37.9676C248.773 37.9676 250.462 35.9855 250.462 32.1303V30.2473H255.998V32.1303C255.998 35.7378 255.105 38.4929 253.348 40.2966C251.591 42.1004 248.94 42.9428 245.475 42.9428ZM125.804 40.2867C126.765 39.3579 127.517 38.2309 128.008 36.9825C128.5 35.7341 128.719 34.3935 128.651 33.052V17.9383C128.718 16.5968 128.499 15.2565 128.007 14.0082C127.516 12.7599 126.765 11.6328 125.804 10.7036C123.64 8.84836 120.855 7.8982 118.02 8.04749C114.624 8.04749 111.993 8.97912 110.167 10.8027C108.341 12.6262 107.467 15.2922 107.467 18.7312V20.8223H112.896V18.7807C112.801 17.2723 113.278 15.784 114.231 14.6182C114.727 14.113 115.324 13.7214 115.983 13.47C116.642 13.2186 117.347 13.1134 118.049 13.1614C118.74 13.1213 119.432 13.2227 120.083 13.4594C120.734 13.6961 121.332 14.0633 121.839 14.539C122.32 15.0722 122.689 15.6984 122.923 16.3798C123.158 17.0612 123.253 17.7836 123.203 18.5032V23.1314H115.998V28.0372H123.203V32.715C123.245 33.4218 123.145 34.1298 122.911 34.7971C122.676 35.4644 122.312 36.0775 121.839 36.6C121.33 37.0732 120.733 37.4389 120.082 37.6755C119.431 37.9121 118.74 38.0148 118.049 37.9776C117.344 38.0205 116.637 37.909 115.978 37.6507C115.319 37.3924 114.723 36.9934 114.231 36.481C113.28 35.3063 112.804 33.8128 112.896 32.2988V30.2572H107.467V32.2988C107.467 39.5137 110.913 43.032 117.991 43.032C120.849 43.1706 123.649 42.1867 125.804 40.2867ZM204.453 40.2867C205.414 39.3579 206.166 38.2309 206.657 36.9825C207.148 35.7341 207.367 34.3935 207.299 33.052V17.9383C207.367 16.5968 207.147 15.2565 206.656 14.0082C206.165 12.7599 205.413 11.6328 204.453 10.7036C202.287 8.85193 199.502 7.90537 196.668 8.05741C193.272 8.05741 190.641 8.97912 188.815 10.8027C186.989 12.6262 186.116 15.2922 186.116 18.7312V20.8223H191.544V18.7708C191.449 17.2671 191.923 15.7829 192.869 14.6182C193.365 14.1099 193.964 13.7157 194.625 13.4625C195.286 13.2094 195.993 13.1033 196.698 13.1515C197.387 13.111 198.078 13.2122 198.727 13.449C199.377 13.6858 199.972 14.0532 200.477 14.529C200.96 15.0613 201.33 15.6874 201.564 16.3691C201.799 17.0507 201.893 17.7735 201.842 18.4933V23.1216H194.646V28.0273H201.842V32.715C201.885 33.4204 201.786 34.1273 201.551 34.7933C201.317 35.4592 200.951 36.0704 200.477 36.5901C199.971 37.064 199.375 37.4302 198.726 37.6668C198.077 37.9035 197.387 38.0058 196.698 37.9676C195.991 38.012 195.282 37.9013 194.621 37.6429C193.96 37.3846 193.363 36.9848 192.869 36.4711C191.922 35.295 191.449 33.8016 191.544 32.2889V30.2473H186.145V32.2889C186.145 39.5137 189.591 43.022 196.668 43.022C199.515 43.1535 202.302 42.1741 204.453 40.2867ZM181.404 42.4571V8.53313H160.25V42.4571H165.825V13.647H175.917V42.4571H181.404ZM154.978 42.4571V8.53313H134.737V35.0936C134.737 36.8973 133.549 37.6505 131.537 37.6505V42.4571C135.11 42.4571 140.234 41.803 140.234 35.5197V13.7164H149.452V42.5265L154.978 42.4571ZM104.297 32.8538V33.7854C104.362 34.9657 104.172 36.1463 103.739 37.245C103.307 38.3437 102.643 39.3343 101.794 40.148C99.8126 41.78 97.2981 42.6038 94.7455 42.4571H83.172V8.53313H94.1663C96.7024 8.38057 99.205 9.17808 101.195 10.7729C102.036 11.5619 102.695 12.5291 103.122 13.6051C103.55 14.6811 103.736 15.8394 103.668 16.9968V17.9284C103.706 19.4117 103.294 20.8712 102.487 22.1112C101.68 23.3512 100.517 24.3124 99.153 24.8658V25.5496C100.703 25.9986 102.057 26.9658 102.991 28.2928C103.926 29.6199 104.386 31.228 104.297 32.8538ZM88.7084 22.8639H93.489C96.5909 22.8639 98.1714 21.3971 98.1714 18.5131V17.6806C98.2142 17.1031 98.1289 16.5232 97.9217 15.9832C97.7146 15.4431 97.3907 14.9565 96.9738 14.5588C95.9479 13.8191 94.6966 13.4682 93.4399 13.5677H88.7084V22.8639ZM98.7996 32.269C98.8331 31.6614 98.7394 31.0534 98.5246 30.4848C98.3098 29.9162 97.9787 29.3996 97.5529 28.9688C96.5805 28.1474 95.3337 27.7326 94.0681 27.8093H88.7084V37.4523H94.0092C97.1897 37.4523 98.7996 35.9855 98.7996 33.1015V32.269ZM71.7458 42.4571V13.5876H79.0099V8.53313H58.9453V13.5876H66.2094V42.4571H71.7458ZM232.734 9.58366V8.53313H227.236L221.013 23.0423H217.626V8.53313H212.09V42.4571H217.626V27.948H221.032L227.393 42.4571H232.979V41.3967L225.705 25.4406L232.734 9.58366Z" fill="#292A29"/>
<path id="Vector_2" d="M49.6104 14.0727C48.6436 10.9882 46.9608 8.18158 44.7022 5.88656C40.9626 2.118 35.8947 0.00146484 30.6109 0.00146484C25.3271 0.00146484 20.2592 2.118 16.5195 5.88656L5.81975 16.6594C2.0825 20.4338 -0.0165452 25.5526 -0.0156247 30.8896C-0.0147042 36.2266 2.08611 41.3446 5.82467 45.1177C9.56322 48.8909 14.6333 51.0101 19.9195 51.0091C25.2057 51.0082 30.275 48.8872 34.0122 45.1128L44.6728 34.3399C47.2568 31.7432 49.084 28.4793 49.9548 24.9049C50.8256 21.3306 50.7065 17.5833 49.6104 14.0727ZM37.9682 12.6654C36.9309 11.6115 35.6817 10.7945 34.305 10.2696C32.9282 9.74475 31.4559 9.5242 29.9875 9.62288C30.3516 8.82791 30.8461 8.10078 31.4502 7.47226C32.2103 6.70061 33.1144 6.08873 34.1102 5.67197C35.106 5.2552 36.1737 5.0418 37.2516 5.04415C38.8839 5.03813 40.4812 5.52136 41.8412 6.43259C43.2013 7.34383 44.2628 8.64212 44.8914 10.163C45.5201 11.6838 45.6875 13.3588 45.3724 14.9757C45.0574 16.5927 44.2741 18.0789 43.1218 19.2461C42.4965 19.8631 41.7774 20.375 40.9917 20.7624C41.0799 19.4778 40.9335 18.1878 40.5597 16.9567C40.0591 15.3326 39.1689 13.8585 37.9682 12.6654ZM38.6652 21.585C37.7553 21.7385 36.8265 21.7385 35.9166 21.585L35.6221 21.5255C35.416 21.5255 35.2197 21.4363 35.0135 21.3768L34.5718 21.2381L34.081 21.0399C33.9043 20.9705 33.7374 20.8813 33.5607 20.7921L33.1582 20.584C32.9619 20.4651 32.7754 20.3362 32.5889 20.2074L32.2846 19.9894C31.9993 19.7679 31.7272 19.5297 31.4698 19.2758C31.216 19.0181 30.9799 18.7433 30.763 18.4532L30.5765 18.1856C30.4391 17.9775 30.2919 17.7694 30.1642 17.5514L29.9974 17.2144C29.8894 17.0162 29.7912 16.808 29.7029 16.5999L29.5556 16.1936C29.4902 16.002 29.4313 15.8137 29.3789 15.6287C29.3299 15.4602 29.2906 15.3017 29.2513 15.1332C29.2121 14.9647 29.1924 14.8259 29.1728 14.6674C29.1532 14.5088 29.1139 14.2511 29.0943 14.0331C29.099 13.9572 29.099 13.8811 29.0943 13.8052C29.0702 13.1948 29.1097 12.5836 29.2121 11.9816C30.5094 11.7534 31.842 11.8446 33.097 12.2473C34.352 12.6501 35.4922 13.3525 36.4209 14.295C37.3497 15.2375 38.0395 16.3923 38.4319 17.6614C38.8243 18.9305 38.9077 20.2764 38.675 21.585H38.6652ZM43.1218 32.7146C40.9165 34.9275 38.1719 36.5138 35.1651 37.3131C32.1583 38.1124 28.9958 38.0966 25.9971 37.2671C22.9983 36.4377 20.2694 34.824 18.086 32.5891C15.9026 30.3541 14.342 27.5771 13.5618 24.5384C12.7815 21.4997 12.8094 18.3069 13.6424 15.2825C14.4755 12.2581 16.0842 9.50924 18.3063 7.31344C20.5283 5.11764 23.2849 3.55269 26.2976 2.77664C29.3104 2.00059 32.4727 2.04093 35.4651 2.89356H35.5632C33.4126 3.23799 31.424 4.25745 29.8796 5.80728L23.2143 12.5663C22.2291 13.544 21.4454 14.709 20.9084 15.994C20.3714 17.2791 20.0917 18.6588 20.0856 20.0535C20.0794 21.4482 20.3468 22.8304 20.8724 24.1202C21.398 25.41 22.1714 26.582 23.1479 27.5686C24.1244 28.5551 25.2848 29.3367 26.562 29.8682C27.8392 30.3997 29.208 30.6706 30.5895 30.6653C31.9709 30.66 33.3377 30.3786 34.6108 29.8373C35.884 29.296 37.0384 28.5055 38.0075 27.5115L44.7022 20.7723C46.2207 19.2327 47.229 17.2556 47.5882 15.1133C48.4739 18.1821 48.5266 21.4347 47.7409 24.5311C46.9552 27.6274 45.3599 30.4538 43.1218 32.7146Z" fill="#FFD000"/>
</g>
<defs>
<clipPath id="clip0_1601_7818">
<rect width="256" height="51" fill="white"/>
</clipPath>
</defs>
</svg>
