<svg width="20" height="20" viewBox="0 0 20 20" fill="none" xmlns="http://www.w3.org/2000/svg">
<mask id="mask0_1301_31810" style="mask-type:luminance" maskUnits="userSpaceOnUse" x="0" y="0" width="20" height="20">
<mask id="mask1_1301_31810" style="mask-type:luminance" maskUnits="userSpaceOnUse" x="0" y="0" width="20" height="20">
<mask id="mask2_1301_31810" style="mask-type:luminance" maskUnits="userSpaceOnUse" x="0" y="0" width="20" height="20">
<mask id="mask3_1301_31810" style="mask-type:luminance" maskUnits="userSpaceOnUse" x="0" y="0" width="20" height="20">
<path d="M20 0H0V20H20V0Z" fill="white"/>
</mask>
<g mask="url(#mask3_1301_31810)">
<path d="M10 20C11.9778 20 13.9112 19.4135 15.5557 18.3147C17.2002 17.2159 18.4819 15.6541 19.2388 13.8268C19.9957 11.9996 20.1937 9.98892 19.8079 8.04911C19.422 6.1093 18.4696 4.32747 17.0711 2.92894C15.6725 1.53042 13.8907 0.578001 11.9509 0.192149C10.0111 -0.193703 8.00042 0.00434017 6.17316 0.761216C4.3459 1.51809 2.78412 2.79981 1.6853 4.4443C0.586489 6.08879 0 8.0222 0 10C0 12.6522 1.05357 15.1957 2.92893 17.0711C4.80429 18.9464 7.34784 20 10 20Z" fill="white"/>
</g>
</mask>
<g mask="url(#mask2_1301_31810)">
<path d="M-47.4004 -255H152.6V413H-47.4004V-255Z" fill="white"/>
</g>
</mask>
<g mask="url(#mask1_1301_31810)">
<path d="M61.2 -59.2H0V20.0001H61.2V-59.2Z" fill="white"/>
</g>
</mask>
<g mask="url(#mask0_1301_31810)">
<path d="M21 -1H-1V21H21V-1Z" fill="#DF0016"/>
</g>
<mask id="mask4_1301_31810" style="mask-type:luminance" maskUnits="userSpaceOnUse" x="3" y="5" width="7" height="10">
<mask id="mask5_1301_31810" style="mask-type:luminance" maskUnits="userSpaceOnUse" x="0" y="0" width="20" height="20">
<path d="M20 0H0V20H20V0Z" fill="white"/>
</mask>
<g mask="url(#mask5_1301_31810)">
<path d="M5.58752 5.28711V8.68711C6.10452 8.06911 6.72552 7.75811 7.44552 7.75811C7.79051 7.7531 8.13223 7.82554 8.44552 7.97009C8.71371 8.08543 8.94609 8.27052 9.11852 8.5061C9.26979 8.72422 9.37494 8.97092 9.42752 9.2311C9.49407 9.63789 9.52185 10.0501 9.51052 10.4621V14.1001H7.89952V10.8241C7.89952 10.1741 7.87052 9.76211 7.80952 9.58711C7.75163 9.41581 7.63742 9.26916 7.48552 9.17109C7.31269 9.0609 7.11033 9.00611 6.90552 9.01409C6.65315 9.01003 6.40505 9.07952 6.19152 9.21409C5.97343 9.35536 5.81036 9.56713 5.72952 9.81409C5.63152 10.0808 5.58318 10.4748 5.58452 10.9961V14.1021H3.97852V5.28809H5.58752" fill="white"/>
</g>
</mask>
<g mask="url(#mask4_1301_31810)">
<path d="M10.5115 4.28711H2.97852V15.1011H10.5115V4.28711Z" fill="white"/>
</g>
<mask id="mask6_1301_31810" style="mask-type:luminance" maskUnits="userSpaceOnUse" x="10" y="5" width="6" height="10">
<mask id="mask7_1301_31810" style="mask-type:luminance" maskUnits="userSpaceOnUse" x="0" y="0" width="20" height="20">
<path d="M20 0H0V20H20V0Z" fill="white"/>
</mask>
<g mask="url(#mask7_1301_31810)">
<path d="M11.9244 5.28713V8.68713C12.4424 8.06913 13.0617 7.75946 13.7824 7.75813C14.1274 7.75364 14.469 7.82604 14.7824 7.97012C15.0497 8.08601 15.2813 8.27103 15.4534 8.50613C15.6043 8.72447 15.7094 8.97109 15.7624 9.23113C15.8285 9.63797 15.8562 10.0501 15.8454 10.4621V14.1001H14.2404V10.8241C14.2404 10.1741 14.2101 9.7618 14.1494 9.58713C14.0915 9.41584 13.9773 9.26919 13.8254 9.17112C13.6523 9.06078 13.4496 9.006 13.2444 9.01411C12.9924 9.01025 12.7447 9.07973 12.5314 9.21411C12.3141 9.35628 12.1513 9.56773 12.0694 9.81411C11.9734 10.0808 11.9251 10.4748 11.9244 10.9961V14.1001H10.3164V5.28613H11.9244" fill="white"/>
</g>
</mask>
<g mask="url(#mask6_1301_31810)">
<path d="M16.8474 4.28711H9.31641V15.1011H16.8474V4.28711Z" fill="white"/>
</g>
</svg>
