<svg width="199" height="66" viewBox="0 0 199 66" fill="none" xmlns="http://www.w3.org/2000/svg">
<path d="M52.9547 19.6209C51.9244 16.4159 50.131 13.4996 47.7239 11.115C43.7384 7.19921 38.3374 5 32.7063 5C27.0751 5 21.6741 7.19921 17.6886 11.115L6.28539 22.3086C2.30246 26.2305 0.0654256 31.5492 0.0664066 37.0946C0.0673875 42.64 2.30631 47.9579 6.29063 51.8785C10.275 55.799 15.6783 58.001 21.312 58C26.9457 57.999 32.3483 55.7952 36.3312 51.8733L47.6925 40.6797C50.4464 37.9815 52.3938 34.5901 53.3218 30.8762C54.2499 27.1622 54.1229 23.2686 52.9547 19.6209ZM40.5472 18.1586C39.4418 17.0635 38.1105 16.2146 36.6432 15.6692C35.1759 15.1239 33.6069 14.8947 32.0419 14.9972C32.4299 14.1712 32.9569 13.4157 33.6007 12.7626C34.4108 11.9608 35.3744 11.325 36.4356 10.892C37.4968 10.4589 38.6347 10.2372 39.7836 10.2396C41.5231 10.2334 43.2254 10.7355 44.6749 11.6823C46.1243 12.6292 47.2556 13.9781 47.9256 15.5584C48.5955 17.1386 48.7739 18.879 48.4382 20.5592C48.1024 22.2393 47.2677 23.7835 46.0396 24.9963C45.3732 25.6374 44.6068 26.1693 43.7694 26.5718C43.8635 25.2371 43.7075 23.8967 43.3091 22.6175C42.7756 20.93 41.8269 19.3983 40.5472 18.1586ZM41.29 27.4265C40.3203 27.5861 39.3305 27.5861 38.3608 27.4265L38.0469 27.3647C37.8272 27.3647 37.618 27.2721 37.3983 27.2103L36.9275 27.0661L36.4044 26.8602C36.2161 26.7881 36.0383 26.6954 35.85 26.6027L35.4211 26.3865C35.2118 26.2629 35.013 26.129 34.8143 25.9952L34.49 25.7686C34.1859 25.5385 33.896 25.291 33.6216 25.0272C33.3512 24.7594 33.0995 24.4738 32.8684 24.1724L32.6696 23.8944C32.5232 23.6782 32.3662 23.4619 32.2302 23.2354L32.0524 22.8852C31.9373 22.6793 31.8327 22.463 31.7386 22.2468L31.5816 21.8246C31.5119 21.6255 31.4491 21.4298 31.3933 21.2376C31.341 21.0626 31.2992 20.8978 31.2573 20.7227C31.2155 20.5477 31.1945 20.4035 31.1736 20.2387C31.1527 20.074 31.1109 19.8062 31.0899 19.5797C31.0949 19.5008 31.0949 19.4217 31.0899 19.3429C31.0643 18.7087 31.1063 18.0736 31.2155 17.448C32.5981 17.211 34.0183 17.3057 35.3558 17.7242C36.6933 18.1426 37.9084 18.8725 38.8982 19.8518C39.888 20.8312 40.6232 22.0311 41.0414 23.3497C41.4596 24.6684 41.5485 26.0669 41.3005 27.4265H41.29ZM46.0396 38.9909C43.6893 41.2902 40.7643 42.9384 37.5598 43.769C34.3554 44.5996 30.985 44.5831 27.7891 43.7212C24.5932 42.8594 21.6849 41.1827 19.358 38.8605C17.031 36.5382 15.3678 33.6527 14.5363 30.4953C13.7048 27.3379 13.7345 24.0204 14.6223 20.8779C15.5101 17.7354 17.2246 14.8791 19.5927 12.5976C21.9608 10.316 24.8986 8.68993 28.1095 7.88357C31.3203 7.0772 34.6904 7.11912 37.8795 8.00506H37.9841C35.6921 8.36294 33.5728 9.42222 31.9269 11.0326L24.8234 18.0556C23.7734 19.0715 22.9382 20.282 22.3659 21.6172C21.7936 22.9525 21.4956 24.386 21.489 25.8352C21.4824 27.2844 21.7674 28.7206 22.3276 30.0608C22.8877 31.401 23.712 32.6188 24.7527 33.6439C25.7934 34.669 27.03 35.4811 28.3912 36.0333C29.7523 36.5856 31.2112 36.8671 32.6834 36.8616C34.1557 36.8561 35.6123 36.5637 36.9692 36.0012C38.326 35.4388 39.5563 34.6174 40.5891 33.5846L47.7239 26.5821C49.3422 24.9824 50.4168 22.928 50.7996 20.7021C51.7435 23.8907 51.7997 27.2704 50.9624 30.4877C50.125 33.705 48.4248 36.6418 46.0396 38.9909Z" fill="#FFD000"/>
<path d="M189.848 28.6287C187.921 28.7309 186.027 28.0972 184.557 26.858C183.904 26.2387 183.393 25.4874 183.059 24.6552C182.726 23.8229 182.577 22.9292 182.623 22.0348V11.959C182.577 11.0647 182.726 10.1711 183.06 9.33894C183.394 8.50674 183.905 7.75539 184.557 7.13587C186.03 5.90145 187.922 5.27041 189.848 5.37177C194.659 5.37177 197.001 7.80317 197.001 12.8047V13.8817H193.238V12.8312C193.319 11.7533 193.03 10.6798 192.417 9.78529C192.089 9.43048 191.684 9.15445 191.231 8.97814C190.779 8.80183 190.293 8.7299 189.808 8.76782C189.345 8.73953 188.88 8.8065 188.444 8.96455C188.007 9.12259 187.609 9.36829 187.273 9.68619C186.633 10.4152 186.312 11.3656 186.379 12.329V21.8102C186.347 22.28 186.41 22.7514 186.563 23.1971C186.717 23.6428 186.958 24.054 187.273 24.4067C187.611 24.7213 188.01 24.9639 188.446 25.1196C188.882 25.2753 189.346 25.3407 189.808 25.3119C192.09 25.3119 193.238 23.9905 193.238 21.4204V20.165H197.001V21.4204C197.001 23.8253 196.394 25.6621 195.199 26.8646C194.005 28.0671 192.204 28.6287 189.848 28.6287ZM108.51 26.858C109.163 26.2387 109.674 25.4874 110.008 24.6552C110.342 23.8229 110.491 22.9292 110.445 22.0348V11.959C110.49 11.0647 110.341 10.1711 110.007 9.33894C109.673 8.50674 109.163 7.75539 108.51 7.13587C107.039 5.89907 105.146 5.26563 103.219 5.36516C100.91 5.36516 99.1221 5.98624 97.8811 7.20194C96.6401 8.41764 96.0463 10.1949 96.0463 12.4876V13.8817H99.7359V12.5206C99.6712 11.5151 99.9957 10.5228 100.643 9.74565C100.98 9.40882 101.386 9.14776 101.834 8.98018C102.282 8.81259 102.761 8.7424 103.239 8.77441C103.708 8.74769 104.179 8.81528 104.621 8.9731C105.064 9.13092 105.47 9.37573 105.814 9.6928C106.141 10.0483 106.392 10.4658 106.551 10.9201C106.711 11.3743 106.776 11.8559 106.742 12.3356V15.4211H101.844V18.6916H106.742V21.8102C106.77 22.2814 106.702 22.7534 106.543 23.1982C106.384 23.6431 106.136 24.0518 105.814 24.4002C105.468 24.7157 105.062 24.9595 104.62 25.1172C104.178 25.2749 103.708 25.3434 103.239 25.3185C102.759 25.3471 102.279 25.2728 101.831 25.1006C101.383 24.9284 100.978 24.6624 100.643 24.3209C99.9972 23.5377 99.6732 22.542 99.7359 21.5327V20.1716H96.0463V21.5327C96.0463 26.3426 98.3882 28.6881 103.199 28.6881C105.141 28.7805 107.045 28.1247 108.51 26.858ZM161.966 26.858C162.619 26.2387 163.13 25.4874 163.464 24.6552C163.798 23.8229 163.947 22.9292 163.901 22.0348V11.959C163.946 11.0647 163.797 10.1711 163.463 9.33894C163.13 8.50674 162.619 7.75539 161.966 7.13587C160.494 5.90145 158.601 5.27041 156.675 5.37177C154.367 5.37177 152.578 5.98624 151.337 7.20194C150.096 8.41764 149.503 10.1949 149.503 12.4876V13.8817H153.192V12.514C153.127 11.5115 153.449 10.5221 154.093 9.74565C154.43 9.40676 154.837 9.14396 155.286 8.97519C155.735 8.80643 156.216 8.73569 156.695 8.76782C157.164 8.74085 157.633 8.80832 158.075 8.96618C158.516 9.12404 158.921 9.36899 159.264 9.68619C159.592 10.041 159.843 10.4584 160.003 10.9129C160.162 11.3673 160.226 11.8492 160.191 12.329V15.4145H155.301V18.685H160.191V21.8102C160.22 22.2804 160.153 22.7517 159.994 23.1957C159.835 23.6396 159.586 24.0471 159.264 24.3935C158.92 24.7095 158.515 24.9536 158.074 25.1114C157.632 25.2692 157.164 25.3374 156.695 25.3119C156.214 25.3415 155.733 25.2677 155.284 25.0954C154.834 24.9232 154.428 24.6567 154.093 24.3143C153.449 23.5301 153.128 22.5346 153.192 21.5261V20.165H149.523V21.5261C149.523 26.3426 151.865 28.6815 156.675 28.6815C158.61 28.7692 160.504 28.1162 161.966 26.858ZM146.3 28.3049V5.68892H131.922V28.3049H135.712V9.09817H142.57V28.3049H146.3ZM128.339 28.3049V5.68892H114.581V23.3959C114.581 24.5984 113.774 25.1005 112.406 25.1005V28.3049C114.835 28.3049 118.318 27.8688 118.318 23.68V9.1444H124.583V28.3512L128.339 28.3049ZM93.8912 21.9027V22.5237C93.9354 23.3107 93.8061 24.0977 93.5123 24.8302C93.2185 25.5627 92.7672 26.223 92.1898 26.7655C90.8434 27.8535 89.1343 28.4027 87.3993 28.3049H79.533V5.68892H87.0057C88.7294 5.58721 90.4304 6.11888 91.7829 7.1821C92.3548 7.70808 92.8022 8.35287 93.0929 9.07022C93.3836 9.78758 93.5104 10.5598 93.4642 11.3314V11.9524C93.49 12.9413 93.2098 13.9143 92.6612 14.741C92.1127 15.5677 91.3219 16.2084 90.3951 16.5774V17.0333C91.4488 17.3325 92.3686 17.9774 93.0037 18.8621C93.6389 19.7467 93.9518 20.8188 93.8912 21.9027ZM83.296 15.2427H86.5453C88.6537 15.2427 89.7279 14.2649 89.7279 12.3422V11.7872C89.757 11.4022 89.699 11.0156 89.5582 10.6556C89.4174 10.2956 89.1973 9.97117 88.9139 9.70601C88.2166 9.21291 87.3661 8.97897 86.5119 9.0453H83.296V15.2427ZM90.1549 21.5128C90.1777 21.1077 90.114 20.7025 89.968 20.3234C89.822 19.9443 89.5969 19.5999 89.3075 19.3127C88.6466 18.7651 87.7992 18.4885 86.9389 18.5397H83.296V24.9684H86.8989C89.0607 24.9684 90.1549 23.9905 90.1549 22.0679V21.5128ZM71.7667 28.3049V9.05853H76.704V5.68892H63.0664V9.05853H68.0037V28.3049H71.7667ZM181.188 6.38927V5.68892H177.452L173.222 15.3617H170.92V5.68892H167.157V28.3049H170.92V18.6322H173.235L177.559 28.3049H181.355V27.598L176.411 16.9606L181.188 6.38927Z" fill="#292A29"/>
<path d="M67 38L199 38" stroke="#292A29"/>
<path d="M71.8051 53.9073C72.1502 54.0665 72.4157 54.2966 72.6015 54.5975C72.7874 54.8984 72.8803 55.2523 72.8803 55.6594V56.1505C72.8803 56.6018 72.7697 57.0045 72.5484 57.3584C72.336 57.7036 72.0307 57.9735 71.6325 58.1681C71.2432 58.354 70.7919 58.4469 70.2786 58.4469C69.4202 58.4469 68.761 58.2212 68.3008 57.7699C67.8495 57.3186 67.6239 56.6638 67.6239 55.8054V55.3408H68.8583V55.8054C68.8583 56.3275 68.9734 56.7124 69.2034 56.9602C69.4424 57.1992 69.8052 57.3186 70.2919 57.3186C70.6989 57.3186 71.0264 57.1992 71.2741 56.9602C71.5219 56.7213 71.6458 56.4072 71.6458 56.0178V55.6727C71.6458 55.2922 71.5352 55.0001 71.314 54.7966C71.0927 54.5931 70.7742 54.4913 70.3583 54.4913H69.5751V53.3763H70.3981C70.7432 53.3763 71.0175 53.2701 71.2211 53.0577C71.4246 52.8454 71.5263 52.5578 71.5263 52.1949V51.8631C71.5263 51.456 71.4113 51.1375 71.1812 50.9074C70.9512 50.6685 70.6414 50.549 70.2521 50.549C69.8096 50.549 69.4733 50.6817 69.2433 50.9472C69.0132 51.2038 68.8981 51.5799 68.8981 52.0755V52.5268H67.6637V52.0755C67.6637 51.226 67.8849 50.5711 68.3274 50.111C68.7698 49.6508 69.407 49.4207 70.2388 49.4207C70.991 49.4207 71.5971 49.6331 72.0573 50.0579C72.5263 50.4826 72.7608 51.0401 72.7608 51.7304V52.2348C72.7608 52.5976 72.6767 52.925 72.5086 53.217C72.3405 53.5002 72.106 53.7303 71.8051 53.9073ZM79.4357 58.1018V58.2876H78.188L77.7101 56.3496H75.2412L74.7634 58.2876H73.5156V58.1018L75.7589 49.58H77.2057L79.4357 58.1018ZM77.4314 55.2479L76.4757 51.3454L75.52 55.2479H77.4314ZM84.4668 53.8542C84.8473 54.0223 85.1393 54.2745 85.3429 54.6108C85.5552 54.9382 85.6614 55.3364 85.6614 55.8054V56.0709C85.6614 56.7611 85.4446 57.3053 85.011 57.7036C84.5863 58.0929 83.9978 58.2876 83.2456 58.2876H80.5776V49.58H83.0996C83.8606 49.58 84.4535 49.7703 84.8783 50.1508C85.303 50.5225 85.5154 51.049 85.5154 51.7304V51.9958C85.5154 52.4383 85.4225 52.8188 85.2367 53.1374C85.0597 53.4471 84.8031 53.686 84.4668 53.8542ZM81.812 50.695V53.3232H82.9801C83.4049 53.3232 83.7279 53.2215 83.9491 53.0179C84.1792 52.8055 84.2942 52.5002 84.2942 52.102V51.8631C84.2942 51.0844 83.8518 50.695 82.9669 50.695H81.812ZM84.4402 55.6992C84.4402 55.2922 84.3252 54.978 84.0951 54.7568C83.8651 54.5356 83.5421 54.4249 83.1261 54.4249H81.812V57.1726H83.0996C83.5421 57.1726 83.8739 57.0708 84.0951 56.8673C84.3252 56.6549 84.4402 56.3452 84.4402 55.9381V55.6992ZM89.5957 58.4469C88.7905 58.4469 88.1533 58.2257 87.6843 57.7832C87.2153 57.3319 86.9808 56.7169 86.9808 55.9381V51.9295C86.9808 51.1596 87.2153 50.549 87.6843 50.0977C88.1533 49.6464 88.7905 49.4207 89.5957 49.4207C90.401 49.4207 91.0382 49.6464 91.5072 50.0977C91.9762 50.549 92.2107 51.1596 92.2107 51.9295V55.9381C92.2107 56.708 91.9762 57.3186 91.5072 57.7699C91.0382 58.2212 90.401 58.4469 89.5957 58.4469ZM89.5957 57.3186C90.0382 57.3186 90.3789 57.1903 90.6178 56.9337C90.8656 56.6771 90.9895 56.3187 90.9895 55.8585V52.0224C90.9895 51.5534 90.8656 51.1906 90.6178 50.9339C90.3789 50.6773 90.0382 50.549 89.5957 50.549C89.1533 50.549 88.8082 50.6773 88.5604 50.9339C88.3215 51.1906 88.202 51.5534 88.202 52.0224V55.8585C88.202 56.3187 88.3215 56.6771 88.5604 56.9337C88.8082 57.1903 89.1533 57.3186 89.5957 57.3186ZM99.5959 57.1593V60.053H98.3747V58.2876H94.074V60.053H92.8395V57.1593H93.5828C93.928 56.4602 94.1094 55.5355 94.1271 54.3851L94.1934 49.58H98.7729V57.1593H99.5959ZM95.2686 54.478C95.2598 55.5488 95.0916 56.4425 94.7642 57.1593H97.5517V50.7083H95.335L95.2686 54.478ZM108.917 49.58V58.2876H107.682V50.7083H105.054V58.2876H103.82V49.58H108.917ZM113.11 58.4469C112.305 58.4469 111.668 58.2257 111.199 57.7832C110.73 57.3319 110.495 56.7169 110.495 55.9381V51.9295C110.495 51.1596 110.73 50.549 111.199 50.0977C111.668 49.6464 112.305 49.4207 113.11 49.4207C113.915 49.4207 114.552 49.6464 115.021 50.0977C115.49 50.549 115.725 51.1596 115.725 51.9295V55.9381C115.725 56.708 115.49 57.3186 115.021 57.7699C114.552 58.2212 113.915 58.4469 113.11 58.4469ZM113.11 57.3186C113.552 57.3186 113.893 57.1903 114.132 56.9337C114.38 56.6771 114.504 56.3187 114.504 55.8585V52.0224C114.504 51.5534 114.38 51.1906 114.132 50.9339C113.893 50.6773 113.552 50.549 113.11 50.549C112.668 50.549 112.322 50.6773 112.075 50.9339C111.836 51.1906 111.716 51.5534 111.716 52.0224V55.8585C111.716 56.3187 111.836 56.6771 112.075 56.9337C112.322 57.1903 112.668 57.3186 113.11 57.3186ZM122.427 58.2876H121.193V50.7083H119.016L118.936 55.8585C118.927 56.6815 118.755 57.2921 118.419 57.6903C118.091 58.0885 117.596 58.2876 116.932 58.2876H116.441V57.1593H116.773C117.109 57.1593 117.357 57.0443 117.516 56.8142C117.684 56.5841 117.773 56.2257 117.781 55.739L117.861 50.7083H117.834V49.58H122.427V58.2876ZM125.223 49.58V55.7125L127.865 49.58H129.113V58.2876H127.905V52.1419L125.29 58.2876H124.015V49.58H125.223ZM137.46 58.2876H136.266V51.9427L134.514 58.2876H133.651L131.899 51.9826V58.2876H130.704V49.58H132.297L134.076 55.8452L135.854 49.58H137.46V58.2876ZM143.565 49.58V50.7083H140.287V53.3763H143.366V54.4913H140.287V57.1593H143.565V58.2876H139.052V49.58H143.565ZM147.437 49.58C148.242 49.58 148.858 49.788 149.282 50.2039C149.716 50.6109 149.933 51.2038 149.933 51.9826V52.248C149.933 53.0356 149.72 53.6329 149.296 54.04C148.871 54.4471 148.251 54.6506 147.437 54.6506H145.977V58.2876H144.743V49.58H147.437ZM147.344 53.5356C148.256 53.5356 148.712 53.1064 148.712 52.248V51.9826C148.712 51.133 148.256 50.7083 147.344 50.7083H145.977V53.5356H147.344ZM152.381 49.58V53.3763H154.942V49.58H156.177V58.2876H154.942V54.4913H152.381V58.2876H151.146V49.58H152.381ZM159.031 49.58V53.0445H160.465C161.279 53.0445 161.898 53.248 162.323 53.6551C162.748 54.0621 162.96 54.6639 162.96 55.4603V55.8718C162.96 56.6594 162.748 57.2611 162.323 57.677C161.898 58.0841 161.279 58.2876 160.465 58.2876H157.81V49.58H159.031ZM165.031 49.58V58.2876H163.81V49.58H165.031ZM160.372 57.1726C161.274 57.1726 161.726 56.7346 161.726 55.8585V55.447C161.726 54.5886 161.274 54.1595 160.372 54.1595H159.031V57.1726H160.372ZM171.985 58.1018V58.2876H170.751L169.158 54.9028L167.565 58.2876H166.331V58.1018L168.362 53.894L166.357 49.7659V49.58H167.592L169.158 52.8852L170.698 49.58H171.945V49.7659L169.968 53.894L171.985 58.1018ZM174.917 50.7083V49.58H180.014V50.7083H178.076V58.2876H176.855V50.7083H174.917ZM183.642 49.58C184.447 49.58 185.062 49.788 185.487 50.2039C185.921 50.6109 186.137 51.2038 186.137 51.9826V52.248C186.137 53.0356 185.925 53.6329 185.5 54.04C185.075 54.4471 184.456 54.6506 183.642 54.6506H182.182V58.2876H180.947V49.58H183.642ZM183.549 53.5356C184.46 53.5356 184.916 53.1064 184.916 52.248V51.9826C184.916 51.133 184.46 50.7083 183.549 50.7083H182.182V53.5356H183.549ZM192.321 49.58V49.7659L189.999 56.8673C189.83 57.3717 189.6 57.7345 189.308 57.9558C189.025 58.177 188.631 58.2876 188.127 58.2876H187.211V57.1593H188.047C188.277 57.1593 188.45 57.1107 188.565 57.0133C188.689 56.9071 188.795 56.7213 188.884 56.4558V56.4425L186.6 49.7659V49.58H187.822L189.507 54.8232L191.14 49.58H192.321ZM197.843 49.58V50.7083H194.418V53.2038H195.879C196.702 53.2038 197.321 53.4029 197.737 53.8011C198.162 54.1993 198.374 54.7789 198.374 55.5399V55.9514C198.374 56.7124 198.162 57.2921 197.737 57.6903C197.321 58.0885 196.702 58.2876 195.879 58.2876H193.184V49.58H197.843ZM195.786 57.1726C196.228 57.1726 196.564 57.0753 196.794 56.8806C197.033 56.6859 197.153 56.3762 197.153 55.9514V55.5399C197.153 55.1506 197.047 54.8497 196.834 54.6373C196.622 54.4249 196.272 54.3187 195.786 54.3187H194.418V57.1726H195.786Z" fill="#292A29"/>
</svg>
