<svg width="100" height="100" viewBox="0 0 100 100" fill="none" xmlns="http://www.w3.org/2000/svg">
<path d="M39.9354 52.256C41.3914 52.256 42.5114 52.624 43.2954 53.36C44.0794 54.08 44.4714 55.12 44.4714 56.48V56.96C44.4714 58.32 44.0794 59.36 43.2954 60.08C42.5274 60.8 41.4074 61.16 39.9354 61.16H37.5834V63.152H42.5994V65.072H37.5834V68H35.3994V65.072H33.1914V63.152H35.3994V61.16H33.1914V59.24H35.3994V52.256H39.9354ZM42.2394 56.48C42.2394 55.744 42.0474 55.184 41.6634 54.8C41.2794 54.416 40.6634 54.224 39.8154 54.224H37.5834V59.24H39.8154C40.5994 59.24 41.1994 59.064 41.6154 58.712C42.0314 58.344 42.2394 57.76 42.2394 56.96V56.48Z" fill="#292A29"/>
<path d="M44.7976 35.5099C44.5192 35.5069 44.2495 35.4131 44.0293 35.2426C43.7681 35.0369 43.5987 34.7363 43.558 34.4062C43.5174 34.0762 43.6087 33.7435 43.8121 33.4804L51.8965 23.1578C51.9941 22.8151 51.963 22.4485 51.8092 22.1271C51.6554 21.8056 51.3894 21.5514 51.0614 21.4123L46.3093 19.5165C46.0127 19.3968 45.7727 19.1689 45.6378 18.879C45.5029 18.589 45.4832 18.2587 45.5827 17.9547L45.8332 17.2114C45.7896 16.7544 45.5772 16.33 45.2374 16.0211C44.8977 15.7122 44.455 15.5411 43.9959 15.5411H32.2284C31.7702 15.5413 31.3285 15.7127 30.9901 16.0217C30.6517 16.3308 30.4411 16.7551 30.3994 17.2114L30.6583 17.9046C30.7786 18.2114 30.7724 18.5534 30.6408 18.8556C30.5093 19.1578 30.2633 19.3955 29.9568 19.5165L25.1796 21.4374C24.8516 21.5765 24.5856 21.8307 24.4318 22.1521C24.278 22.4736 24.2469 22.8401 24.3445 23.1829L32.4289 33.5055C32.6323 33.7685 32.7236 34.1013 32.683 34.4313C32.6423 34.7613 32.4729 35.0619 32.2117 35.2677C32.0826 35.3693 31.9346 35.4443 31.7763 35.4883C31.618 35.5324 31.4526 35.5447 31.2895 35.5245C31.1265 35.5043 30.969 35.4521 30.8263 35.3707C30.6836 35.2894 30.5583 35.1806 30.4579 35.0506L22.2231 24.5275C22.152 24.4352 22.093 24.3342 22.0477 24.2268C21.6611 23.2572 21.6723 22.1743 22.0787 21.2128C22.4852 20.2513 23.2543 19.4888 24.2192 19.0906L27.8772 17.6207C27.869 17.5429 27.869 17.4646 27.8772 17.3868C27.8794 16.2335 28.3385 15.128 29.1541 14.3125C29.9696 13.497 31.0751 13.0378 32.2284 13.0356H43.9959C45.1499 13.0356 46.2566 13.494 47.0726 14.3101C47.8887 15.1261 48.3471 16.2328 48.3471 17.3868C48.3512 17.4647 48.3512 17.5428 48.3471 17.6207L51.9968 19.0906C52.9682 19.484 53.7446 20.2459 54.1561 21.2098C54.5677 22.1738 54.581 23.2614 54.1932 24.2352C54.1512 24.3441 54.092 24.4456 54.0179 24.5358L45.7915 35.0255C45.6735 35.1764 45.5227 35.2985 45.3505 35.3824C45.1783 35.4664 44.9892 35.5099 44.7976 35.5099Z" fill="#292A29"/>
<path d="M52.1809 86.9644H24.0525C23.6767 86.9644 15.325 86.9227 10.3976 81.3521C7.59142 78.1785 6.49735 73.9108 7.15713 68.6576C9.4956 49.975 27.9611 34.8919 30.9009 33.6475C32.9303 32.8123 43.3448 32.8123 45.3743 33.6475C48.289 34.8919 66.7545 49.9666 69.093 68.6576C69.7527 73.9108 68.6587 78.1785 65.8525 81.3521C60.9668 86.8809 52.6152 86.9644 52.1809 86.9644ZM38.1167 35.5182C35.3272 35.5182 32.5294 35.6602 31.8613 35.9525C30.3747 36.5873 11.9176 50.7851 9.63757 68.9666C9.07801 73.4681 9.96329 77.0677 12.26 79.6818C16.4358 84.4005 23.9523 84.4589 24.0525 84.4589H52.1725C52.2477 84.4589 59.7976 84.4005 63.965 79.6818C66.2618 77.0677 67.147 73.4681 66.5875 68.9666C64.3075 50.7767 45.8503 36.5873 44.3637 35.9525C43.6956 35.6602 40.9229 35.5182 38.1167 35.5182ZM43.5035 25.655C43.2869 25.6548 43.0741 25.5984 42.8858 25.4915C42.6975 25.3845 42.5402 25.2305 42.4291 25.0446C42.3181 24.8587 42.2571 24.6471 42.2522 24.4306C42.2473 24.2141 42.2986 24 42.4011 23.8092L45.6749 17.7459C45.8333 17.4536 46.1013 17.2361 46.4201 17.1413C46.7388 17.0466 47.0821 17.0823 47.3745 17.2407C47.6669 17.399 47.8844 17.6671 47.9791 17.9858C48.0739 18.3045 48.0382 18.6478 47.8798 18.9402L44.6059 24.9952C44.4996 25.195 44.3407 25.3621 44.1465 25.4783C43.9522 25.5946 43.7299 25.6557 43.5035 25.655ZM32.8969 25.655C32.6705 25.6557 32.4482 25.5946 32.254 25.4783C32.0597 25.3621 31.9009 25.195 31.7945 24.9952L28.5207 18.9402C28.3623 18.6478 28.3265 18.3045 28.4213 17.9858C28.5161 17.6671 28.7335 17.399 29.0259 17.2407C29.3183 17.0823 29.6616 17.0466 29.9804 17.1413C30.2991 17.2361 30.5671 17.4536 30.7255 17.7459L33.9993 23.8092C34.1018 24 34.1531 24.2141 34.1482 24.4306C34.1433 24.6471 34.0824 24.8587 33.9713 25.0446C33.8603 25.2305 33.7029 25.3845 33.5146 25.4915C33.3263 25.5984 33.1135 25.6548 32.8969 25.655Z" fill="#292A29"/>
</svg>
