<svg width="84" height="103" viewBox="0 0 84 103" fill="none" xmlns="http://www.w3.org/2000/svg">
<path d="M37.0659 85.0072L48.2439 80.8742L48.2619 80.8675L48.2805 80.8629C49.3252 80.6019 50.2557 80.006 50.9297 79.1661L50.9861 79.0959L51.0694 79.0616L75.9555 68.8122L75.984 68.8004L76.0142 68.7938C77.7819 68.4083 79.5879 69.3577 80.2629 71.0685C80.2631 71.069 80.2633 71.0695 80.2635 71.07L37.0659 85.0072ZM37.0659 85.0072L36.1283 82.4704L47.4035 78.2999L47.4042 78.2996C47.4605 78.2787 47.5182 78.2615 47.5768 78.2484L47.5776 78.2482C48.1859 78.1101 48.7046 77.7426 49.0353 77.2082C49.262 76.8465 49.3843 76.4291 49.3886 76.0022C49.3928 75.575 49.2787 75.1549 49.0588 74.7886C48.839 74.4223 48.522 74.124 48.143 73.9267C47.764 73.7295 47.3378 73.6411 46.9117 73.6712L46.8782 73.6736L46.8458 73.6823L23.0447 80.0554L23.0423 80.056C22.8586 80.1066 22.6613 80.1153 22.4701 80.0839C22.47 80.0839 22.4699 80.0839 22.4698 80.0838L14.2754 78.713L13.8676 78.6448V79.0582V94.0781V94.4281H14.2176H26.0884L26.0892 94.4281C26.2514 94.4277 26.4123 94.457 26.564 94.5144L26.5646 94.5146L37.3726 98.5851L37.3726 98.5851C38.7802 99.1149 40.3572 99.0335 41.6957 98.3551L41.7083 98.3488L41.7203 98.3414L78.3558 75.9001C79.746 75.1965 80.5384 73.9105 80.5365 72.465M37.0659 85.0072L80.5365 72.465M80.5365 72.465C80.5365 72.4651 80.5365 72.4653 80.5365 72.4654H80.1865L80.5365 72.465ZM83.2444 72.4654L83.2444 72.4676C83.252 73.6698 82.9217 74.85 82.2912 75.8736C81.6607 76.8973 80.7554 77.7233 79.6784 78.2576L79.6644 78.2645L79.6511 78.2727L43.0287 100.707C41.81 101.326 40.518 101.631 39.24 101.631C38.2786 101.631 37.3259 101.459 36.4189 101.117L36.4186 101.117L25.9018 97.1568L25.8422 97.1343H25.7785H14.2176H13.8676V97.4843V100.891C13.8676 101.249 13.7251 101.594 13.4713 101.847C13.2176 102.101 12.8734 102.244 12.5145 102.244H4.03125C3.67238 102.244 3.3282 102.101 3.07445 101.847C2.82069 101.594 2.67812 101.249 2.67812 100.891V70.2343C2.67812 69.8754 2.82069 69.5313 3.07445 69.2775C3.32821 69.0237 3.67238 68.8812 4.03125 68.8812H12.5145C12.8734 68.8812 13.2176 69.0237 13.4713 69.2775C13.7251 69.5313 13.8676 69.8754 13.8676 70.2343V75.606V75.9023L14.1599 75.9512L22.5546 77.3546L22.6295 77.3671L22.7029 77.3474L46.2685 71.0371C46.2694 71.0369 46.2703 71.0367 46.2712 71.0364C46.3341 71.0208 46.3963 71.0085 46.4567 71.0004C47.6728 70.8491 48.9022 71.1487 49.9124 71.8425C50.9231 72.5366 51.6442 73.5771 51.9394 74.7671L51.9401 74.77C51.9657 74.8695 51.9752 74.9559 51.9871 75.0644C51.9937 75.1251 52.0011 75.1927 52.0126 75.2735L52.0757 75.7197L52.4924 75.5481L75.0469 66.2593L75.0488 66.2585C75.1016 66.2363 75.1612 66.2174 75.2284 66.1994C76.7411 65.8157 78.3417 65.9962 79.7309 66.7073C81.1207 67.4187 82.2036 68.6124 82.7766 70.0647L82.7781 70.0683C83.0861 70.8246 83.2444 71.6364 83.2444 72.4654ZM25.7785 97.4843L36.2952 101.444L14.2176 70.2343C14.2176 69.7826 14.0382 69.3494 13.7188 69.03C13.3994 68.7106 12.9662 68.5312 12.5145 68.5312H4.03125C3.57955 68.5312 3.14636 68.7106 2.82696 69.03C2.50756 69.3494 2.32812 69.7826 2.32812 70.2343V100.891C2.32812 101.342 2.50756 101.775 2.82696 102.095C3.14636 102.414 3.57955 102.594 4.03125 102.594H12.5145C12.9662 102.594 13.3994 102.414 13.7188 102.095C14.0382 101.775 14.2176 101.342 14.2176 100.891V97.8343V97.4843H14.5676H25.7785ZM10.8114 99.5374H11.1614V99.1874V71.9374V71.5874H10.8114H5.73437H5.38437V71.9374V99.1874V99.5374H5.73437H10.8114ZM82.5892 76.0572C83.2541 74.9777 83.6024 73.7332 83.5944 72.4654L79.8339 78.5711C80.9697 78.0077 81.9244 77.1367 82.5892 76.0572Z" fill="#292A29" stroke="white" stroke-width="0.7"/>
<path d="M61.9375 50.1469H62.2875V49.7969V22.5469V22.1969H61.9375H21.0625H20.7125V22.5469V49.7969V50.1469H21.0625H61.9375ZM18.4026 19.8869C18.6563 19.6332 19.0005 19.4906 19.3594 19.4906H63.6406C63.9995 19.4906 64.3437 19.6332 64.5974 19.8869C64.8512 20.1407 64.9938 20.4849 64.9938 20.8438V51.5C64.9938 51.8589 64.8512 52.203 64.5974 52.4568C64.3437 52.7106 63.9995 52.8531 63.6406 52.8531H19.3594C19.0005 52.8531 18.6563 52.7106 18.4026 52.4568C18.1488 52.203 18.0062 51.8589 18.0062 51.5V20.8438C18.0062 20.4849 18.1488 20.1407 18.4026 19.8869Z" fill="#292A29" stroke="white" stroke-width="0.7"/>
<path d="M43.936 27.256C45.392 27.256 46.512 27.624 47.296 28.36C48.08 29.08 48.472 30.12 48.472 31.48V31.96C48.472 33.32 48.08 34.36 47.296 35.08C46.528 35.8 45.408 36.16 43.936 36.16H41.584V38.152H46.6V40.072H41.584V43H39.4V40.072H37.192V38.152H39.4V36.16H37.192V34.24H39.4V27.256H43.936ZM46.24 31.48C46.24 30.744 46.048 30.184 45.664 29.8C45.28 29.416 44.664 29.224 43.816 29.224H41.584V34.24H43.816C44.6 34.24 45.2 34.064 45.616 33.712C46.032 33.344 46.24 32.76 46.24 31.96V31.48Z" fill="#292A29"/>
<path d="M12.1728 62.7836L11.8998 62.5645C12.0354 62.3955 12.1284 62.1964 12.171 61.9839C12.1711 61.9839 12.1711 61.9838 12.1711 61.9838L13.8742 53.4683L13.8744 53.4674C13.9215 53.235 13.9065 52.9943 13.8311 52.7695C13.7556 52.5447 13.6222 52.3438 13.4444 52.1869L13.6759 51.9245L13.4444 52.1869C13.2665 52.0301 13.0505 51.9229 12.8181 51.876C12.5856 51.8292 12.3449 51.8444 12.1203 51.9202L12.1191 51.9206L8.38415 53.1656L8.07113 53.2699L7.94853 52.9636C6.24484 48.7069 5.37428 44.1627 5.38411 39.5777C5.38411 39.5776 5.38411 39.5775 5.38411 39.5774L5.73411 39.5781L12.1728 62.7836ZM12.1728 62.7836L11.8998 62.5646C11.7643 62.7335 11.5903 62.8674 11.3923 62.9551C11.1934 63.0426 10.9764 63.0814 10.7595 63.0682C10.5429 63.055 10.3325 62.9903 10.1458 62.8795C10.1456 62.8794 10.1454 62.8793 10.1452 62.8791L1.63122 57.7708C1.17947 57.4989 0.925986 56.9887 0.982928 56.4613L0.63495 56.4237L0.982897 56.4616C1.01085 56.2046 1.11199 55.9611 1.2743 55.76C1.43661 55.5588 1.65325 55.4085 1.89849 55.3269L1.89859 55.3269L5.14475 54.2454L5.49511 54.1287L5.35977 53.7851C3.58092 49.2687 2.67786 44.5009 2.67786 39.5781C2.67786 18.1707 20.094 0.75625 41.4997 0.75625C62.9055 0.75625 80.3216 18.1707 80.3216 39.5781V39.579M12.1728 62.7836L80.3216 39.579M80.3216 39.579C80.343 47.7153 77.7878 55.6463 73.0271 62.237L70.8453 60.6345L80.3216 39.579ZM10.6451 55.8146L10.7635 55.223L10.1912 55.4139L6.26887 56.7219L5.54695 56.9626L6.19956 57.354L9.46786 59.3143L9.89366 59.5697L9.99109 59.0829L10.6451 55.8146Z" fill="#292A29" stroke="white" stroke-width="0.7"/>
</svg>
