<svg width="223" height="199" viewBox="0 0 223 199" fill="none" xmlns="http://www.w3.org/2000/svg">
<g id="Group">
<path id="Vector" d="M95.37 99.6308L223.001 25.894L178.222 0L50.6133 73.7368L95.37 99.6308Z" fill="white"/>
<path id="Vector_2" d="M57.2947 75.0446L180.354 4.03231L177.829 2.72453L54.7695 73.7368L57.2947 75.0446Z" fill="#CCCCCC"/>
<path id="Vector_3" d="M95.6111 97.0807L218.67 26.0684L216.145 24.7606L93.0859 95.7729L95.6111 97.0807Z" fill="#CCCCCC"/>
<path id="Vector_4" d="M114.285 142.417L123.668 147.844V157.478L114.285 152.051V142.417Z" fill="#303030"/>
<path id="Vector_5" d="M211.875 95.0098C211.875 101.309 208.044 108.611 203.342 111.335C198.64 114.06 194.809 111.161 194.809 104.796C194.809 98.4318 198.618 91.1954 203.342 88.4709C208.066 85.7464 211.875 88.7107 211.875 95.0098Z" fill="#303030"/>
<path id="Vector_6" d="M204.214 115.39L198.031 111.902L209.068 88.1879L214.967 91.5009L204.214 115.39Z" fill="#303030"/>
<path id="Vector_7" d="M218.278 98.5846C218.278 104.884 214.468 112.185 209.744 114.91C205.02 117.635 201.211 114.736 201.211 108.371C201.211 102.007 205.042 94.7702 209.744 92.0457C214.446 89.3211 218.278 92.3072 218.278 98.5846Z" fill="#494949"/>
<path id="Vector_8" d="M215.27 100.524C215.251 102.608 214.741 104.658 213.78 106.507C212.819 108.356 211.435 109.95 209.74 111.161C206.693 112.926 204.211 111.161 204.211 106.976C204.245 104.904 204.762 102.869 205.722 101.033C206.682 99.1976 208.058 97.6125 209.74 96.4049C212.81 94.574 215.27 96.4485 215.27 100.524Z" fill="#969696"/>
<path id="Vector_9" d="M213.727 101.418C213.699 102.903 213.324 104.36 212.633 105.674C211.941 106.987 210.951 108.12 209.743 108.981C207.566 110.246 205.781 108.981 205.781 105.974C205.806 104.488 206.178 103.028 206.866 101.712C207.553 100.395 208.539 99.2568 209.743 98.3885C211.942 97.1461 213.727 98.4975 213.727 101.418Z" fill="white"/>
<path id="Vector_10" d="M211.659 102.617C211.651 103.335 211.473 104.041 211.14 104.678C210.807 105.314 210.329 105.863 209.744 106.279C208.699 106.889 207.828 106.279 207.828 104.84C207.842 104.12 208.022 103.412 208.354 102.773C208.686 102.134 209.162 101.581 209.744 101.157C210.81 100.546 211.659 101.2 211.659 102.617Z" fill="#383838"/>
<path id="Vector_11" d="M210.111 99.5436C210.112 99.6815 210.079 99.8176 210.015 99.9394C209.95 100.061 209.856 100.165 209.741 100.241C209.545 100.372 209.371 100.241 209.371 99.9795C209.375 99.8396 209.411 99.7023 209.475 99.5779C209.539 99.4534 209.63 99.3449 209.741 99.2603C209.959 99.1513 210.111 99.2821 210.111 99.5436Z" fill="#383838"/>
<path id="Vector_12" d="M212.615 99.5436C212.611 99.6805 212.575 99.8146 212.511 99.9355C212.447 100.056 212.356 100.161 212.245 100.241C212.027 100.372 211.875 100.241 211.875 99.9795C211.874 99.8386 211.907 99.6996 211.972 99.5743C212.036 99.449 212.13 99.3413 212.245 99.2602C212.441 99.1513 212.615 99.282 212.615 99.5436Z" fill="#383838"/>
<path id="Vector_13" d="M207.826 102.29C207.827 102.431 207.794 102.57 207.729 102.695C207.665 102.82 207.571 102.928 207.456 103.009C207.26 103.118 207.086 103.009 207.086 102.726C207.09 102.589 207.126 102.455 207.19 102.334C207.254 102.213 207.345 102.108 207.456 102.028C207.674 101.898 207.826 102.028 207.826 102.29Z" fill="#383838"/>
<path id="Vector_14" d="M212.615 104.622C212.611 104.762 212.576 104.9 212.512 105.024C212.448 105.148 212.357 105.257 212.245 105.342C212.028 105.451 211.875 105.342 211.875 105.058C211.872 104.92 211.904 104.783 211.969 104.661C212.034 104.539 212.129 104.435 212.245 104.361C212.441 104.317 212.615 104.448 212.615 104.622Z" fill="#383838"/>
<path id="Vector_15" d="M207.826 107.477C207.827 107.615 207.794 107.751 207.729 107.873C207.665 107.995 207.571 108.099 207.456 108.175C207.26 108.175 207.086 108.175 207.086 107.892C207.09 107.755 207.126 107.621 207.19 107.5C207.254 107.379 207.345 107.274 207.456 107.194C207.674 107.085 207.826 107.194 207.826 107.477Z" fill="#383838"/>
<path id="Vector_16" d="M213.205 101.919C213.201 102.059 213.166 102.197 213.101 102.321C213.037 102.446 212.946 102.554 212.835 102.639C212.639 102.639 212.465 102.639 212.465 102.355C212.469 102.218 212.505 102.084 212.569 101.963C212.633 101.842 212.724 101.738 212.835 101.658C213.031 101.527 213.205 101.658 213.205 101.919Z" fill="#383838"/>
<path id="Vector_17" d="M207.086 105.45C207.086 105.586 207.054 105.719 206.994 105.84C206.933 105.961 206.845 106.067 206.737 106.148C206.52 106.279 206.367 106.148 206.367 105.865C206.37 105.727 206.405 105.593 206.469 105.471C206.533 105.35 206.625 105.246 206.737 105.167C206.933 105.058 207.086 105.189 207.086 105.45Z" fill="#383838"/>
<path id="Vector_18" d="M210.111 107.477C210.112 107.615 210.079 107.751 210.015 107.873C209.95 107.995 209.856 108.099 209.741 108.175C209.545 108.175 209.371 108.175 209.371 107.891C209.375 107.755 209.411 107.62 209.475 107.5C209.539 107.379 209.63 107.274 209.741 107.194C209.959 107.085 210.111 107.194 210.111 107.477Z" fill="#383838"/>
<path id="Vector_19" d="M191.848 106.802C191.848 113.079 188.017 120.403 183.315 123.127C178.613 125.852 174.781 122.953 174.781 116.588C174.781 110.224 178.504 103.009 183.315 100.263C188.126 97.5165 191.848 100.459 191.848 106.802Z" fill="#303030"/>
<path id="Vector_20" d="M184.186 127.138L178.004 123.65L189.041 99.9359L194.962 103.249L184.186 127.138Z" fill="#303030"/>
<path id="Vector_21" d="M198.25 110.333C198.25 116.61 194.441 123.934 189.717 126.658C184.993 129.383 181.184 126.484 181.184 120.119C181.184 113.755 185.015 106.54 189.717 103.816C194.419 101.091 198.25 104.034 198.25 110.333Z" fill="#494949"/>
<path id="Vector_22" d="M195.246 112.273C195.218 114.346 194.702 116.383 193.742 118.219C192.781 120.056 191.402 121.64 189.717 122.844C186.669 124.609 184.188 122.844 184.188 118.659C184.221 116.587 184.739 114.552 185.699 112.716C186.659 110.88 188.035 109.295 189.717 108.088C192.786 106.322 195.246 108.197 195.246 112.273Z" fill="#969696"/>
<path id="Vector_23" d="M193.743 113.166C193.718 114.654 193.345 116.116 192.653 117.434C191.961 118.751 190.97 119.888 189.759 120.751C187.582 122.037 185.797 120.751 185.797 117.765C185.819 116.276 186.188 114.812 186.876 113.491C187.564 112.17 188.551 111.029 189.759 110.158C191.914 108.981 193.743 110.245 193.743 113.166Z" fill="white"/>
<path id="Vector_24" d="M191.564 114.365C191.55 115.085 191.367 115.791 191.031 116.427C190.694 117.063 190.213 117.611 189.627 118.027C188.582 118.637 187.711 118.027 187.711 116.566C187.724 115.849 187.905 115.145 188.237 114.509C188.57 113.874 189.045 113.324 189.627 112.905C190.78 112.294 191.564 112.948 191.564 114.365Z" fill="#383838"/>
<path id="Vector_25" d="M190.084 111.292C190.085 111.43 190.052 111.566 189.987 111.687C189.923 111.809 189.829 111.913 189.714 111.989C189.518 111.989 189.344 111.989 189.344 111.706C189.348 111.569 189.383 111.435 189.448 111.314C189.512 111.193 189.603 111.088 189.714 111.008C189.932 110.899 190.084 111.008 190.084 111.292Z" fill="#383838"/>
<path id="Vector_26" d="M192.592 111.292C192.588 111.429 192.552 111.563 192.488 111.684C192.424 111.805 192.333 111.909 192.222 111.989C192.004 111.989 191.852 111.989 191.852 111.706C191.85 111.568 191.884 111.432 191.948 111.31C192.013 111.188 192.107 111.085 192.222 111.008C192.418 110.899 192.592 111.008 192.592 111.292Z" fill="#383838"/>
<path id="Vector_27" d="M187.799 114.038C187.802 114.176 187.77 114.313 187.705 114.435C187.64 114.557 187.545 114.661 187.429 114.735C187.233 114.866 187.059 114.735 187.059 114.474C187.063 114.334 187.098 114.197 187.162 114.072C187.226 113.948 187.317 113.839 187.429 113.755C187.646 113.646 187.799 113.776 187.799 114.038Z" fill="#383838"/>
<path id="Vector_28" d="M192.592 116.458C192.591 116.595 192.557 116.73 192.493 116.852C192.428 116.973 192.335 117.077 192.222 117.155C192.004 117.286 191.852 117.155 191.852 116.893C191.851 116.753 191.884 116.613 191.948 116.488C192.013 116.363 192.107 116.255 192.222 116.174C192.418 116.065 192.592 116.196 192.592 116.458Z" fill="#383838"/>
<path id="Vector_29" d="M187.799 119.226C187.796 119.363 187.761 119.498 187.697 119.619C187.633 119.74 187.541 119.844 187.429 119.923C187.233 119.923 187.059 119.923 187.059 119.64C187.063 119.503 187.098 119.369 187.162 119.248C187.227 119.127 187.318 119.022 187.429 118.942C187.646 118.811 187.799 118.942 187.799 119.226Z" fill="#383838"/>
<path id="Vector_30" d="M193.178 113.668C193.177 113.805 193.143 113.94 193.078 114.062C193.014 114.183 192.921 114.287 192.808 114.365C192.612 114.496 192.438 114.365 192.438 114.103C192.442 113.964 192.477 113.826 192.541 113.702C192.605 113.577 192.696 113.469 192.808 113.384C193.003 113.341 193.178 113.341 193.178 113.668Z" fill="#383838"/>
<path id="Vector_31" d="M187.058 117.199C187.058 117.334 187.027 117.467 186.966 117.588C186.906 117.71 186.818 117.815 186.71 117.896C186.492 117.896 186.34 117.896 186.34 117.613C186.339 117.475 186.372 117.339 186.437 117.217C186.501 117.095 186.595 116.991 186.71 116.915C186.906 116.806 187.058 116.915 187.058 117.199Z" fill="#383838"/>
<path id="Vector_32" d="M190.084 119.226C190.081 119.363 190.047 119.498 189.982 119.619C189.918 119.74 189.826 119.844 189.714 119.923C189.518 119.923 189.344 119.923 189.344 119.64C189.348 119.503 189.383 119.369 189.448 119.248C189.512 119.127 189.603 119.022 189.714 118.942C189.932 118.811 190.084 118.942 190.084 119.226Z" fill="#383838"/>
<path id="Vector_33" d="M115.875 150.394C115.875 156.693 112.066 163.995 107.342 166.72C102.618 169.444 98.8086 166.545 98.8086 160.181C98.8086 153.816 102.64 146.602 107.342 143.877C112.044 141.153 115.875 144.073 115.875 150.394Z" fill="#303030"/>
<path id="Vector_34" d="M108.233 170.752L102.051 167.264L113.066 143.55L118.987 146.863L108.233 170.752Z" fill="#303030"/>
<path id="Vector_35" d="M122.297 153.947C122.297 160.246 118.466 167.548 113.764 170.273C109.062 172.997 105.23 170.098 105.23 163.734C105.23 157.369 109.04 150.133 113.764 147.408C118.488 144.684 122.297 147.648 122.297 153.947Z" fill="#494949"/>
<path id="Vector_36" d="M119.293 155.887C119.259 157.959 118.742 159.994 117.782 161.83C116.821 163.665 115.445 165.251 113.764 166.458C110.694 168.224 108.234 166.349 108.234 162.273C108.263 160.2 108.778 158.163 109.739 156.327C110.699 154.49 112.078 152.906 113.764 151.702C116.811 149.937 119.293 151.811 119.293 155.887Z" fill="#969696"/>
<path id="Vector_37" d="M117.727 156.78C117.7 158.269 117.328 159.731 116.641 161.051C115.953 162.371 114.969 163.513 113.765 164.387C111.588 165.651 109.781 164.387 109.781 161.379C109.807 159.888 110.181 158.424 110.873 157.103C111.564 155.782 112.555 154.642 113.765 153.772C115.942 152.574 117.727 153.86 117.727 156.78Z" fill="white"/>
<path id="Vector_38" d="M115.679 157.979C115.666 158.697 115.485 159.401 115.153 160.037C114.82 160.672 114.345 161.222 113.763 161.641C112.697 162.251 111.848 161.641 111.848 160.181C111.856 159.462 112.034 158.756 112.367 158.12C112.7 157.483 113.178 156.935 113.763 156.519C114.808 155.909 115.679 156.563 115.679 157.979Z" fill="#383838"/>
<path id="Vector_39" d="M114.135 154.906C114.131 155.043 114.095 155.177 114.031 155.298C113.967 155.419 113.876 155.523 113.765 155.603C113.547 155.734 113.395 155.603 113.395 155.32C113.393 155.182 113.427 155.046 113.491 154.924C113.556 154.803 113.65 154.699 113.765 154.623C113.961 154.514 114.135 154.623 114.135 154.906Z" fill="#383838"/>
<path id="Vector_40" d="M116.615 154.906C116.611 155.043 116.575 155.177 116.511 155.298C116.447 155.419 116.356 155.523 116.245 155.603C116.049 155.734 115.875 155.603 115.875 155.32C115.879 155.183 115.915 155.049 115.979 154.928C116.043 154.807 116.134 154.703 116.245 154.623C116.441 154.514 116.615 154.623 116.615 154.906Z" fill="#383838"/>
<path id="Vector_41" d="M111.85 157.652C111.846 157.792 111.81 157.929 111.746 158.054C111.682 158.178 111.591 158.287 111.48 158.372C111.262 158.372 111.11 158.371 111.11 158.088C111.106 157.95 111.139 157.813 111.204 157.691C111.268 157.569 111.363 157.465 111.48 157.391C111.676 157.26 111.85 157.391 111.85 157.652Z" fill="#383838"/>
<path id="Vector_42" d="M116.615 160.072C116.614 160.209 116.58 160.345 116.516 160.466C116.451 160.588 116.359 160.692 116.245 160.769C116.049 160.9 115.875 160.769 115.875 160.508C115.879 160.368 115.914 160.23 115.979 160.106C116.043 159.981 116.134 159.873 116.245 159.788C116.441 159.679 116.615 159.81 116.615 160.072Z" fill="#383838"/>
<path id="Vector_43" d="M111.85 162.84C111.845 162.977 111.81 163.111 111.746 163.232C111.681 163.353 111.59 163.457 111.479 163.537C111.262 163.537 111.109 163.537 111.109 163.254C111.108 163.116 111.141 162.98 111.206 162.858C111.271 162.736 111.365 162.633 111.479 162.556C111.675 162.426 111.85 162.556 111.85 162.84Z" fill="#383838"/>
<path id="Vector_44" d="M117.201 157.282C117.202 157.423 117.169 157.562 117.104 157.687C117.04 157.813 116.946 157.92 116.831 158.001C116.635 158.11 116.461 158.001 116.461 157.718C116.462 157.58 116.496 157.445 116.56 157.324C116.625 157.202 116.718 157.098 116.831 157.02C117.049 156.933 117.201 156.933 117.201 157.282Z" fill="#383838"/>
<path id="Vector_45" d="M111.021 160.813C111.017 160.95 110.982 161.084 110.918 161.205C110.853 161.326 110.762 161.43 110.651 161.51C110.434 161.641 110.281 161.51 110.281 161.227C110.28 161.089 110.313 160.953 110.378 160.831C110.443 160.709 110.537 160.606 110.651 160.529C111.021 160.421 111.021 160.529 111.021 160.813Z" fill="#383838"/>
<path id="Vector_46" d="M114.135 162.84C114.131 162.977 114.095 163.111 114.031 163.232C113.967 163.353 113.876 163.457 113.765 163.537C113.547 163.537 113.395 163.537 113.395 163.254C113.393 163.116 113.427 162.98 113.491 162.858C113.556 162.736 113.65 162.633 113.765 162.556C113.961 162.426 114.135 162.556 114.135 162.84Z" fill="#383838"/>
<path id="Vector_47" d="M82.7204 173.76L76.1897 169.793L71.8359 166.262C71.8359 166.262 75.3407 164.976 75.6672 164.758C75.9938 164.54 84.353 167.592 82.7204 173.76Z" fill="#262626"/>
<path id="Vector_48" d="M46.694 100.045V143.136L51.5266 139.976L14.2148 118.463L46.694 100.045Z" fill="#EF4F77"/>
<path id="Vector_49" d="M38.9242 147.278L2.875 168.115V145.774L7.48999 130.189L38.9242 147.278Z" fill="#EF4F77"/>
<path id="Vector_50" d="M9.0322 124.936C9.82229 122.249 11.6153 119.97 14.039 118.572H14.2132L51.525 140.063L63.0625 146.602L61.6257 159.68L38.9208 147.277L7.46484 130.189L9.0322 124.936Z" fill="#EDEDED"/>
<path id="Vector_51" d="M10.69 121.58L56.6005 147.539L47.6535 171.667L2.875 145.773C2.875 145.773 7.46823 129.535 9.40565 123.65C9.78114 122.929 10.2105 122.236 10.69 121.58Z" fill="#DDDDDD"/>
<path id="Vector_52" d="M64.5234 162.666L85.4215 150.591L102.488 160.442L81.5902 172.539L64.5234 162.666Z" fill="#6B6B6B"/>
<path id="Vector_53" d="M102.486 160.443L81.3047 172.692V181.04L102.486 168.791V160.443Z" fill="#292A29"/>
<path id="Vector_54" d="M100.923 167.482L84.2266 177.073V178.01L100.923 168.42V167.482Z" fill="white"/>
<path id="Vector_55" d="M100.923 165.412L84.2266 175.002V175.961L100.923 166.349V165.412Z" fill="white"/>
<path id="Vector_56" d="M106.582 139.278L162.18 106.366L179.246 116.218L123.649 149.13L106.582 139.278Z" fill="#6B6B6B"/>
<path id="Vector_57" d="M179.246 116.218L123.648 149.13V157.478L179.246 124.566V116.218Z" fill="#292A29"/>
<path id="Vector_58" d="M177.678 123.258L125.52 153.86V154.819L177.678 124.195V123.258Z" fill="white"/>
<path id="Vector_59" d="M177.678 121.187L125.52 151.789V152.748L177.678 122.124V121.187Z" fill="white"/>
<path id="Vector_60" d="M50.6133 73.7368V134.418L95.37 160.29V99.6308L50.6133 73.7368Z" fill="#DDB400"/>
<path id="Vector_61" d="M50.6133 73.7368V92.8957L95.37 118.746V99.6308L50.6133 73.7368Z" fill="#CCCCCC"/>
<path id="Vector_62" d="M50.6133 129.753V137.404L95.37 163.276V155.625L50.6133 129.753Z" fill="#CCCCCC"/>
<path id="Vector_63" d="M223.002 25.894V86.5748L95.3711 160.29V99.6308L223.002 25.894Z" fill="#FFD000"/>
<path id="Vector_64" d="M223.002 25.7414V45.0529L95.3711 118.746V99.4782L223.002 25.7414Z" fill="#292A29"/>
<path id="Vector_65" d="M168.231 68.8762L133.64 88.8634L128.438 95.6856L168.231 72.6906V68.8762Z" fill="white"/>
<path id="Vector_66" d="M168.231 62.1412L142 77.573L136.797 84.3952L168.231 65.9556V62.1412Z" fill="white"/>
<path id="Vector_67" d="M223.002 81.9104V89.5609L95.3711 163.276V155.625L223.002 81.9104Z" fill="#A5A5A5"/>
<path id="Vector_68" d="M75.7543 173.084C75.7543 179.383 71.923 186.685 67.2209 189.409C62.5188 192.134 58.6875 189.235 58.6875 182.871C58.6875 176.506 62.497 169.27 67.2209 166.545C71.9447 163.821 75.7543 166.785 75.7543 173.084Z" fill="#303030"/>
<path id="Vector_69" d="M68.0925 193.464L61.9102 189.976L72.947 166.262L78.8463 169.575L68.0925 193.464Z" fill="#303030"/>
<path id="Vector_70" d="M82.1566 176.659C82.1566 182.958 78.3471 190.26 73.6232 192.984C68.8994 195.709 65.0898 192.81 65.0898 186.445C65.0898 180.081 68.9212 172.844 73.6232 170.12C78.3253 167.395 82.1566 170.381 82.1566 176.659Z" fill="#494949"/>
<path id="Vector_71" d="M79.1523 178.599C79.1239 180.672 78.6085 182.709 77.6479 184.545C76.6874 186.382 75.3085 187.966 73.623 189.17C70.5754 190.957 68.0938 189.17 68.0938 184.985C68.1206 182.906 68.6349 180.862 69.5954 179.018C70.5558 177.174 71.9354 175.582 73.623 174.37C76.6924 172.648 79.1523 174.523 79.1523 178.599Z" fill="#969696"/>
<path id="Vector_72" d="M76.7944 183.147C78.1124 180.045 77.7639 176.927 76.016 176.183C74.2681 175.438 71.7827 177.348 70.4646 180.45C69.1466 183.551 69.4951 186.669 71.243 187.414C72.9909 188.159 75.4764 186.248 76.7944 183.147Z" fill="white"/>
<path id="Vector_73" d="M75.5384 180.691C75.53 181.409 75.3522 182.116 75.0192 182.752C74.6863 183.388 74.2078 183.937 73.6227 184.353C72.5778 184.963 71.707 184.353 71.707 182.914C71.7205 182.194 71.9005 181.486 72.2328 180.847C72.5652 180.208 73.0409 179.655 73.6227 179.231C74.6894 178.729 75.5384 179.274 75.5384 180.691Z" fill="#383838"/>
<path id="Vector_74" d="M74.0136 177.618C74.0148 177.756 73.9815 177.892 73.9169 178.014C73.8523 178.135 73.7583 178.239 73.6435 178.315C73.4476 178.446 73.2734 178.315 73.2734 178.054C73.2775 177.914 73.3129 177.776 73.377 177.652C73.441 177.528 73.5321 177.419 73.6435 177.334C73.8394 177.225 74.0136 177.356 74.0136 177.618Z" fill="#383838"/>
<path id="Vector_75" d="M76.498 177.618C76.4938 177.755 76.4582 177.889 76.3941 178.01C76.3299 178.131 76.2388 178.235 76.1279 178.315C75.9102 178.446 75.7578 178.315 75.7578 178.054C75.7569 177.913 75.79 177.774 75.8545 177.648C75.9189 177.523 76.0128 177.415 76.1279 177.334C76.3238 177.225 76.498 177.356 76.498 177.618Z" fill="#383838"/>
<path id="Vector_76" d="M71.7089 180.386C71.7064 180.523 71.6716 180.658 71.6073 180.779C71.543 180.9 71.451 181.005 71.3388 181.083C71.1429 181.083 70.9688 181.083 70.9688 180.8C70.9729 180.663 71.0085 180.529 71.0727 180.408C71.1368 180.287 71.2279 180.183 71.3388 180.103C71.5565 179.972 71.7089 180.103 71.7089 180.386Z" fill="#383838"/>
<path id="Vector_77" d="M76.4943 182.784C76.4902 182.924 76.4548 183.061 76.3907 183.185C76.3267 183.31 76.2356 183.418 76.1242 183.503C75.9065 183.503 75.7541 183.503 75.7541 183.219C75.7509 183.081 75.7832 182.944 75.8481 182.822C75.9129 182.7 76.008 182.597 76.1242 182.522C76.3201 182.391 76.4943 182.522 76.4943 182.784Z" fill="#383838"/>
<path id="Vector_78" d="M71.7089 185.552C71.7101 185.69 71.6769 185.826 71.6122 185.947C71.5476 186.069 71.4536 186.173 71.3388 186.249C71.1429 186.38 70.9688 186.249 70.9688 185.966C70.9729 185.829 71.0085 185.695 71.0727 185.574C71.1368 185.453 71.2279 185.348 71.3388 185.268C71.5565 185.268 71.7089 185.268 71.7089 185.552Z" fill="#383838"/>
<path id="Vector_79" d="M77.0839 179.994C77.0798 180.134 77.0444 180.271 76.9804 180.395C76.9163 180.52 76.8253 180.628 76.7138 180.713C76.5179 180.713 76.3438 180.713 76.3438 180.43C76.3479 180.293 76.3835 180.159 76.4477 180.038C76.5118 179.917 76.6029 179.812 76.7138 179.732C76.9097 179.601 77.0839 179.732 77.0839 179.994Z" fill="#383838"/>
<path id="Vector_80" d="M70.9684 183.525C70.9684 183.66 70.9369 183.794 70.8765 183.915C70.816 184.036 70.7282 184.141 70.6201 184.222C70.4024 184.353 70.25 184.222 70.25 183.961C70.2491 183.82 70.2822 183.681 70.3467 183.556C70.4111 183.43 70.5049 183.323 70.6201 183.241C70.816 183.089 70.9684 183.263 70.9684 183.525Z" fill="#383838"/>
<path id="Vector_81" d="M74.0136 185.552C74.0148 185.69 73.9815 185.826 73.9169 185.947C73.8523 186.069 73.7583 186.173 73.6435 186.249C73.4476 186.38 73.2734 186.249 73.2734 185.966C73.2776 185.829 73.3132 185.695 73.3773 185.574C73.4415 185.453 73.5326 185.348 73.6435 185.268C73.8394 185.268 74.0136 185.268 74.0136 185.552Z" fill="#383838"/>
<path id="Vector_82" d="M91.0795 125.808L58.7746 144.466C56.3508 145.864 54.5578 148.143 53.7677 150.83L47.6289 171.667V193.987L61.0603 186.206C62.1705 178.577 66.8073 170.643 72.3801 167.417C77.9529 164.191 82.5897 166.763 83.6999 173.128L91.0577 168.769L91.0795 125.808Z" fill="#A5A5A5"/>
<path id="Vector_83" d="M68.1797 170.839V139.06L69.1157 138.515V170.839H68.1797Z" fill="#878787"/>
<path id="Vector_84" d="M72.4018 168.594C67.3515 171.515 63.1283 178.73 62.1487 185.617L61.082 186.227C62.1922 178.599 66.829 170.665 72.4018 167.439C77.9746 164.213 82.6114 166.785 83.7216 173.15L82.655 173.76C81.6536 168.006 77.4522 165.652 72.4018 168.594Z" fill="#BBBBBB"/>
<path id="Vector_85" d="M2.875 145.773L47.6535 171.667V194.008L2.875 168.136V145.773Z" fill="#CCCCCC"/>
<path id="Vector_86" d="M219.059 90.5418L221.976 88.8634V84.9619L219.059 86.6402V90.5418Z" fill="white"/>
<path id="Vector_87" d="M218.277 86.2043L219.061 86.6402V90.5417L218.277 90.084V86.2043Z" fill="#BBBBBB"/>
<path id="Vector_88" d="M218.277 86.2043L221.194 84.526L221.978 84.9837L219.061 86.6402L218.277 86.2043Z" fill="#CECECE"/>
<path id="Vector_89" d="M123.691 145.904L126.608 144.204V140.324L123.691 142.003V145.904Z" fill="white"/>
<path id="Vector_90" d="M122.906 141.545L123.69 142.003V145.904L122.906 145.447V141.545Z" fill="#BBBBBB"/>
<path id="Vector_91" d="M122.906 141.545L125.823 139.889L126.607 140.324L123.69 142.003L122.906 141.545Z" fill="#CECECE"/>
<path id="Vector_92" d="M2.875 145.773L47.6535 171.667V173.433L2.875 147.539V145.773Z" fill="white"/>
<path id="Vector_93" d="M91.0812 146.558L47.6523 171.668V173.433L91.0812 148.324V146.558Z" fill="#CCCCCC"/>
<path id="Vector_94" d="M40.2493 175.22V176.55L10.2736 159.113V157.849C10.263 157.791 10.263 157.732 10.2736 157.674L40.2275 175.111L40.2493 175.22Z" fill="#383838"/>
<path id="Vector_95" d="M40.2508 181.476C40.2508 181.628 40.2508 181.737 40.2508 181.868L10.2969 164.562C10.2969 164.431 10.2969 164.279 10.2969 164.148V163.123L40.2726 180.56L40.2508 181.476Z" fill="#383838"/>
<path id="Vector_96" d="M12.4502 156.236L38.0722 171.035C38.959 171.647 39.6176 172.536 39.9443 173.564L10.5781 156.584C10.6698 156.429 10.7936 156.295 10.9414 156.191C11.0892 156.087 11.2575 156.017 11.4349 155.983C11.6123 155.95 11.7948 155.956 11.9699 155.999C12.145 156.043 12.3088 156.123 12.4502 156.236Z" fill="#383838"/>
<path id="Vector_97" d="M40.2491 179.143L10.2734 161.794V160.464L40.2491 177.792V179.143Z" fill="#383838"/>
<path id="Vector_98" d="M38.0744 183.089L12.4524 168.311C11.6564 167.787 11.0467 167.024 10.7109 166.131L39.8376 182.958C39.6136 183.197 39.308 183.343 38.9815 183.368C38.6549 183.392 38.3311 183.292 38.0744 183.089Z" fill="#383838"/>
<path id="Vector_99" d="M39.9468 173.564C40.123 174.039 40.2258 174.539 40.2516 175.046L10.2976 157.609C10.2872 157.212 10.385 156.82 10.5806 156.475L39.9468 173.564Z" fill="#969696"/>
<path id="Vector_100" d="M40.2491 177.792L10.2734 160.464V159.157L40.2491 176.485V177.792Z" fill="#969696"/>
<path id="Vector_101" d="M40.2491 180.451L10.2734 163.123V161.794L40.2491 179.144V180.451Z" fill="#969696"/>
<path id="Vector_102" d="M39.8372 182.958L10.7105 166.109C10.4996 165.616 10.3603 165.095 10.2969 164.562L40.229 181.868C40.199 182.26 40.0636 182.637 39.8372 182.958Z" fill="#969696"/>
<path id="Vector_103" d="M2.78516 150.634L6.66001 153.075C7.32456 153.564 7.86699 154.2 8.2447 154.934C8.6224 155.667 8.82511 156.479 8.83689 157.304V163.472C8.83689 165.085 7.8573 165.826 6.66001 165.129L2.78516 162.775V150.634Z" fill="#FFD000"/>
<path id="Vector_104" d="M43.798 174.37L47.6511 176.55V188.625L43.798 186.446C43.1356 185.965 42.594 185.337 42.2161 184.61C41.8383 183.884 41.6346 183.08 41.6211 182.261V176.027C41.6211 174.37 42.6007 173.673 43.798 174.37Z" fill="#FFD000"/>
<path id="Vector_105" d="M42.5781 177.051C42.6011 177.832 42.8109 178.595 43.1896 179.278C43.5684 179.961 44.1052 180.543 44.755 180.975C45.887 181.628 46.8013 180.975 46.8013 179.427C46.7929 178.655 46.6033 177.895 46.2479 177.21C45.8924 176.525 45.3811 175.933 44.755 175.482C43.536 174.828 42.5781 175.525 42.5781 177.051Z" fill="white"/>
<path id="Vector_106" d="M43.5391 183.35C43.5491 183.953 43.7001 184.545 43.9798 185.079C44.2596 185.612 44.6603 186.073 45.15 186.424C46.0207 186.925 46.7391 186.424 46.7391 185.203C46.7298 184.606 46.5813 184.019 46.3054 183.489C46.0296 182.959 45.6339 182.501 45.15 182.151C44.2139 181.628 43.5391 182.173 43.5391 183.35Z" fill="white"/>
<path id="Vector_107" d="M3.63672 154.405C3.64848 155.173 3.83967 155.928 4.19498 156.61C4.55029 157.291 5.05988 157.879 5.68299 158.328C6.81497 158.982 7.85987 158.328 7.85987 156.781C7.83496 155.998 7.62461 155.231 7.24615 154.546C6.86768 153.86 6.33193 153.274 5.68299 152.836C4.55101 152.182 3.63672 152.879 3.63672 154.405Z" fill="white"/>
<path id="Vector_108" d="M4.55078 160.704C4.56003 161.301 4.70852 161.888 4.98442 162.418C5.26031 162.948 5.65599 163.406 6.13991 163.755C7.03243 164.279 7.7508 163.755 7.7508 162.557C7.74073 161.954 7.58976 161.362 7.31002 160.828C7.03027 160.295 6.62952 159.834 6.13991 159.483C5.26915 158.982 4.55078 159.527 4.55078 160.704Z" fill="white"/>
<path id="Vector_109" d="M11.5795 125.895L6.52916 141.676L5.94141 141.327L10.5564 126.418C10.6678 126.055 10.8978 125.739 11.2095 125.522C11.5213 125.304 11.8969 125.198 12.2761 125.22C12.118 125.275 11.9738 125.364 11.8535 125.481C11.7332 125.597 11.6397 125.739 11.5795 125.895Z" fill="#97867B"/>
<path id="Vector_110" d="M43.539 167.287L7.88159 146.798C7.01077 146.305 6.33624 145.526 5.97148 144.593C5.60673 143.66 5.57402 142.63 5.87886 141.676L6.00947 141.262L47.3703 165.238L47.1743 165.848C47.0639 166.207 46.8743 166.537 46.6194 166.813C46.3645 167.089 46.0509 167.304 45.7018 167.442C45.3527 167.58 44.9771 167.638 44.6027 167.611C44.2283 167.584 43.8648 167.473 43.539 167.287Z" fill="#383838"/>
<path id="Vector_111" d="M23.9453 134.919C27.2324 136.903 42.5359 145.534 51.7223 150.7L47.3686 165.151L10.6445 143.986C11.1888 142.308 11.733 140.564 12.2772 138.951C14.4976 132.02 19.0908 132.042 23.9453 134.919Z" fill="#DDB400"/>
<path id="Vector_112" d="M11.5816 125.895C11.6306 125.723 11.719 125.564 11.84 125.432C11.9609 125.299 12.1109 125.197 12.2782 125.132C12.5471 125.136 12.8102 125.211 13.0401 125.35L49.6771 146.035C50.4813 146.482 51.1106 147.189 51.4624 148.04C51.8143 148.891 51.8679 149.836 51.6145 150.721C42.4281 145.534 27.1246 136.902 23.9463 134.919C19.2007 132.042 14.6075 132.02 12.3871 138.951C11.8428 140.564 11.2986 142.308 10.7544 143.986L6.53125 141.676L11.5816 125.895Z" fill="#FFD000"/>
<path id="Vector_113" d="M56.2295 187.448V191.807C56.1575 192.544 55.9104 193.253 55.509 193.875C55.1076 194.497 54.5635 195.014 53.922 195.382L53.3125 190.304L56.2295 187.448Z" fill="#A5A5A5"/>
<path id="Vector_114" d="M47.8039 194.357L47.695 199L39.9453 194.51L40.0106 189.867L47.8039 194.357Z" fill="#CCCCCC"/>
<path id="Vector_115" d="M0 166.785L7.74971 171.275V175.874L0 171.362V166.785Z" fill="#CCCCCC"/>
<path id="Vector_116" d="M40.0114 189.867L39.9461 194.51L7.75 175.874V171.275L40.0114 189.867Z" fill="#383838"/>
<path id="Vector_117" d="M13.1719 175.351L33.5475 187.099L33.4822 189.867L13.1719 178.097V175.351Z" fill="white"/>
<path id="Vector_118" d="M47.6953 194.423V199L53.4205 195.687C53.8184 195.458 54.1612 195.143 54.4245 194.767C54.6878 194.39 54.8653 193.96 54.9443 193.507V190.238L47.6953 194.423Z" fill="#A5A5A5"/>
<path id="Vector_119" d="M56.2289 187.448L47.6955 192.396L2.87349 166.436V165.194L0 166.785L47.6955 194.423L53.5949 191.023C54.5609 190.538 55.3634 189.78 55.9024 188.843L56.2289 187.448Z" fill="#EDEDED"/>
<path id="Vector_120" d="M35.3281 189.627C35.3546 190.059 35.478 190.479 35.6891 190.857C35.9001 191.234 36.1934 191.559 36.5472 191.807C37.2002 192.199 37.7445 191.807 37.7445 190.892C37.7175 190.462 37.5961 190.044 37.3892 189.668C37.1822 189.291 36.8947 188.965 36.5472 188.712C35.8723 188.254 35.3281 188.647 35.3281 189.627Z" fill="white"/>
<path id="Vector_121" d="M9.07812 174.37C9.10055 174.801 9.2199 175.22 9.42725 175.598C9.63459 175.975 9.92455 176.301 10.2754 176.55C10.9285 176.942 11.4727 176.55 11.4727 175.656C11.4651 175.205 11.3531 174.761 11.1453 174.36C10.9376 173.959 10.6398 173.612 10.2754 173.346C9.62235 173.063 9.07812 173.477 9.07812 174.37Z" fill="white"/>
<path id="Vector_122" d="M58.9716 144.357L91.0806 125.808L46.3021 99.9141L14.2148 118.463L58.9716 144.357Z" fill="#D1D1D1"/>
<path id="Vector_123" d="M61.1914 136.292L86.3997 123.018V117.395C86.3997 117.395 78.084 121.471 70.8132 124.784C66.2287 127.215 62.7756 131.346 61.1914 136.292Z" fill="#A5A5A5"/>
<path id="Vector_124" d="M61.1918 136.292C62.5111 132.846 64.8796 129.903 67.9619 127.879C73.9234 124.068 80.0777 120.569 86.4002 117.395L51.2435 97.0806C51.2435 97.0806 37.6597 104.164 32.9576 107.434C26.7535 111.793 26.0352 115.978 26.0352 115.978L61.1918 136.292Z" fill="white"/>
<path id="Vector_125" d="M58.6444 147.932L64.4567 144.575C64.5747 144.483 64.7126 144.421 64.8591 144.392C65.0057 144.363 65.1569 144.369 65.3007 144.41C65.4445 144.45 65.577 144.523 65.6874 144.624C65.7979 144.724 65.8833 144.85 65.9369 144.989C65.7353 145.008 65.5412 145.075 65.371 145.185L59.5804 148.52C59.0826 148.884 58.676 149.359 58.3926 149.908C58.1093 150.456 57.957 151.063 57.9478 151.681V161.968C57.9352 162.252 57.9873 162.536 58.1002 162.797C57.4689 162.797 57.0117 162.317 57.0117 161.38V151.07C57.0243 150.457 57.1782 149.854 57.4614 149.31C57.7446 148.765 58.1494 148.294 58.6444 147.932Z" fill="#FFD000"/>
<path id="Vector_126" d="M57.95 151.68C57.9592 151.063 58.1115 150.456 58.3948 149.908C58.6781 149.359 59.0847 148.884 59.5826 148.52L65.3078 145.185C65.4781 145.075 65.6722 145.008 65.8738 144.989C65.9744 145.253 66.026 145.534 66.0262 145.817V156.127C66.0136 156.74 65.8597 157.343 65.5765 157.887C65.2934 158.432 64.8885 158.903 64.3935 159.265L58.5813 162.622C58.4133 162.716 58.2283 162.775 58.037 162.796C57.9242 162.535 57.872 162.252 57.8847 161.968L57.95 151.68Z" fill="#DDB400"/>
<path id="Vector_127" d="M57.2305 184.963L60.1475 183.263V179.383L57.2305 181.062V184.963Z" fill="white"/>
<path id="Vector_128" d="M56.4453 180.626L57.229 181.062V184.963L56.4453 184.505V180.626Z" fill="#BBBBBB"/>
<path id="Vector_129" opacity="0.6" d="M56.4453 180.626L59.3623 178.947L60.146 179.405L57.229 181.062L56.4453 180.626Z" fill="#CECECE"/>
<path id="Vector_130" d="M85.332 168.202L88.2491 166.502V162.622L85.332 164.3V168.202Z" fill="white"/>
<path id="Vector_131" d="M84.5508 163.864L85.3345 164.3V168.202L84.5508 167.744V163.864Z" fill="#BBBBBB"/>
<path id="Vector_132" d="M84.5508 163.864L87.4678 162.186L88.2515 162.622L85.3345 164.3L84.5508 163.864Z" fill="#CECECE"/>
<path id="Vector_133" d="M169.907 61.1604L172.084 59.8744C174.522 58.4794 176.067 59.1769 176.067 62.8169C176.164 64.3105 175.855 65.8024 175.173 67.1342C174.491 68.4659 173.461 69.5877 172.193 70.3802L169.863 71.7315L169.907 61.1604ZM172.084 68.5711C172.848 68.0668 173.457 67.359 173.841 66.5273C174.226 65.6956 174.371 64.7729 174.261 63.8631C174.261 61.3347 173.346 61.095 172.084 61.8578L171.735 62.054V68.7673L172.084 68.5711Z" fill="white"/>
<path id="Vector_134" d="M177.59 56.6701L182.553 53.8148V55.82L179.375 57.6509V59.8305L182.074 58.283V60.2665L179.375 61.8358V64.2552L182.662 62.3589V64.3642L177.59 67.3067V56.6701Z" fill="white"/>
<path id="Vector_135" d="M184.207 52.8996L185.992 51.8533V60.4193L189.105 58.6102V60.6154L184.207 63.449V52.8996Z" fill="white"/>
<path id="Vector_136" d="M190.457 49.2813L192.264 48.2351V58.8499L190.457 59.8743V49.2813Z" fill="white"/>
<path id="Vector_137" d="M193.09 47.7775L194.962 46.6659L195.92 51.0251C196.159 52.0496 196.312 53.0086 196.551 54.033C196.791 52.7252 196.943 51.57 197.182 50.2841L198.097 44.835L199.947 43.767L197.552 55.7113L195.376 56.9537L193.09 47.7775Z" fill="white"/>
<path id="Vector_138" d="M200.816 43.2874L205.78 40.4321V42.4374L202.623 44.2682V46.4479L205.301 44.9003V46.8838L202.623 48.4313V50.8725L205.91 48.9762V50.9815L200.816 53.924V43.2874Z" fill="white"/>
<path id="Vector_139" d="M211.722 47.5594L210.198 44.6169L209.24 45.1836V48.9761L207.434 50.0223V39.4729L210.285 37.8164C211.962 36.8574 213.355 36.8356 213.355 39.3422C213.356 40.7556 212.854 42.1232 211.94 43.2001L213.725 46.4042L211.722 47.5594ZM209.24 43.2001L210.155 42.677C210.588 42.4446 210.951 42.099 211.204 41.6768C211.457 41.2546 211.591 40.7717 211.591 40.2794C211.591 39.2332 211.069 39.1678 210.155 39.7127L209.24 40.2358V43.2001Z" fill="white"/>
<path id="Vector_140" d="M216.033 41.4129L213.66 35.9857L215.511 34.874L216.229 36.9011C216.447 37.5768 216.642 38.1871 216.882 38.8628C217.1 37.9473 217.339 37.0755 217.557 36.16L218.253 33.3265L220.126 32.2367L217.731 40.4103V44.0285L215.946 45.0529L216.033 41.4129Z" fill="white"/>
</g>
</svg>
