<svg width="278" height="188" viewBox="0 0 278 188" fill="none" xmlns="http://www.w3.org/2000/svg">
<path d="M121.014 165.946L146.991 183.826L253.765 30.316L227.919 12.4124L121.014 165.946ZM143.982 168.689C140.54 173.636 132.835 168.31 136.276 163.363C139.718 158.417 147.445 163.739 143.982 168.689Z" fill="#FFD000"/>
<path d="M142.832 162.334C143.816 163.014 144.489 164.057 144.702 165.233C144.914 166.408 144.65 167.62 143.966 168.603C143.283 169.585 142.237 170.257 141.057 170.47C139.878 170.683 138.663 170.421 137.678 169.741L134.112 174.866L146.954 183.743L253.765 30.3159L240.923 21.4391L142.832 162.334Z" fill="#CC9F00"/>
<path d="M128.909 171.328L139.182 178.429L246.043 24.9031L235.77 17.8016L128.909 171.328ZM143.987 168.599C140.546 173.545 132.84 168.219 136.282 163.273C139.724 158.326 147.445 163.739 143.981 168.689L143.987 168.599Z" fill="#DDAC00"/>
<path d="M124.14 161.562L123.094 163.066L133.664 170.372L134.71 168.868L124.14 161.562Z" fill="#474747"/>
<path d="M134.304 146.942L133.258 148.446L143.828 155.753L144.874 154.248L134.304 146.942Z" fill="#474747"/>
<path d="M144.472 132.315L143.426 133.819L153.996 141.125L155.042 139.621L144.472 132.315Z" fill="#474747"/>
<path d="M154.675 117.679L153.629 119.184L164.2 126.488L165.246 124.984L154.675 117.679Z" fill="#474747"/>
<path d="M164.855 103.058L163.809 104.562L174.378 111.869L175.425 110.365L164.855 103.058Z" fill="#474747"/>
<path d="M175.035 88.4129L173.988 89.9171L184.558 97.2234L185.605 95.7192L175.035 88.4129Z" fill="#474747"/>
<path d="M185.222 73.7892L184.176 75.2934L194.746 82.5997L195.792 81.0955L185.222 73.7892Z" fill="#474747"/>
<path d="M195.367 59.1659L194.32 60.6701L204.89 67.9764L205.937 66.4722L195.367 59.1659Z" fill="#474747"/>
<path d="M205.57 44.5547L204.523 46.0589L215.093 53.3652L216.14 51.861L205.57 44.5547Z" fill="#474747"/>
<path d="M215.75 29.9094L214.703 31.4135L225.273 38.7198L226.32 37.2157L215.75 29.9094Z" fill="#474747"/>
<path d="M225.933 15.2857L224.887 16.7899L235.457 24.0962L236.503 22.592L225.933 15.2857Z" fill="#474747"/>
<path d="M64.4888 56.3185L63.1484 57.6548L105.38 99.7566L106.72 98.4204L64.4888 56.3185Z" fill="#474747"/>
<path d="M147.103 12.0513L139.797 19.3349L143.837 23.3625L151.143 16.0789L147.103 12.0513Z" fill="#A5A5A5"/>
<path d="M149.865 14.8281L142.559 22.1117L143.823 23.3727L151.13 16.0891L149.865 14.8281Z" fill="#515151"/>
<path d="M143.53 19.6429C140.296 16.4017 136.008 14.4178 131.437 14.0486C126.866 13.6794 122.313 14.9491 118.598 17.629C114.883 20.309 112.249 24.2232 111.172 28.6668C110.094 33.1105 110.643 37.7917 112.72 41.8677L115.39 39.206C114.034 35.9165 113.852 32.2624 114.876 28.8554C115.899 25.4484 118.066 22.4952 121.012 20.4904C123.959 18.4855 127.507 17.5505 131.062 17.842C134.618 18.1335 137.965 19.6337 140.544 22.0915C143.122 24.5494 144.775 27.8156 145.227 31.3436C145.678 34.8715 144.9 38.447 143.023 41.4714C141.146 44.4959 138.284 46.7858 134.916 47.9578C131.548 49.1298 127.878 49.1128 124.521 47.9096L121.851 50.7043C125.965 52.6349 130.632 53.0511 135.025 51.8791C139.418 50.7072 143.253 48.0228 145.85 44.3016C148.447 40.5804 149.639 36.0628 149.214 31.5493C148.79 27.0358 146.776 22.8179 143.53 19.6429Z" fill="#474747"/>
<path d="M19.2496 94.5416L0 108.542L21.7593 98.9067L19.2496 94.5416Z" fill="#515151"/>
<path d="M121.026 32.7116L120.999 32.685L21.9476 89.6974L17.3555 94.0359L21.0666 100.424L26.7533 97.9752L117.021 46.0198L121.026 32.7116Z" fill="#A5A5A5"/>
<path d="M118.408 41.362L19.7305 98.1615L21.0654 100.424L26.7522 97.9752L117.02 46.0199L118.408 41.362Z" fill="#515151"/>
<path d="M38.7685 93.1575C37.6339 93.8086 36.3312 94.1099 35.025 94.0232C33.7188 93.9365 32.4677 93.4657 31.4298 92.6703C30.3919 91.8749 29.6137 90.7907 29.1938 89.5546C28.7738 88.3185 28.7307 86.986 29.0701 85.7255C29.4095 84.4651 30.1161 83.3332 31.1006 82.473C32.085 81.6127 33.3032 81.0627 34.6011 80.8924C35.899 80.7222 37.2185 80.9393 38.3927 81.5163C39.5668 82.0934 40.5431 83.0045 41.198 84.1345C42.0703 85.6536 42.3043 87.4549 41.8492 89.1454C41.394 90.8358 40.2865 92.2782 38.7685 93.1575Z" fill="#474747"/>
<path d="M37.8871 91.6937C37.0444 92.1763 36.077 92.3989 35.1074 92.3334C34.1377 92.2678 33.2094 91.917 32.4398 91.3253C31.6702 90.7336 31.094 89.9276 30.784 89.0093C30.474 88.091 30.4441 87.1017 30.6983 86.1665C30.9524 85.2314 31.4791 84.3923 32.2116 83.7556C32.9442 83.119 33.8497 82.7132 34.8137 82.5897C35.7776 82.4662 36.7567 82.6305 37.6269 83.0619C38.4972 83.4932 39.2195 84.1722 39.7026 85.0129C40.0265 85.5696 40.2366 86.1848 40.3206 86.823C40.4047 87.4611 40.361 88.1095 40.1922 88.7307C40.0234 89.3519 39.7328 89.9336 39.3371 90.4422C38.9414 90.9507 38.4486 91.3761 37.8871 91.6937Z" fill="white"/>
<path d="M63.7024 149.771L56.3336 160.817C56.2269 160.938 56.0811 161.018 55.9212 161.044C55.7614 161.07 55.5976 161.039 55.4582 160.956C55.3188 160.874 55.2126 160.746 55.158 160.594C55.1033 160.442 55.1036 160.276 55.1588 160.125L60.9791 148.227C61.0155 148.138 61.0707 148.058 61.1409 147.993C61.2111 147.927 61.2948 147.877 61.3861 147.847C61.4773 147.817 61.5741 147.806 61.6698 147.817C61.7655 147.827 61.8577 147.858 61.9403 147.908L63.4888 148.786C63.5698 148.835 63.6401 148.899 63.6951 148.976C63.7502 149.053 63.7889 149.14 63.8089 149.232C63.8289 149.325 63.8298 149.42 63.8114 149.513C63.7931 149.605 63.756 149.693 63.7024 149.771Z" fill="#474747"/>
<path d="M62.1277 153.098L68.3751 143.543L63.9966 141.041L58.8438 151.315L62.1277 153.098Z" fill="#8F8F8F"/>
<path d="M73.2595 140.828L130.421 42.1072L117.045 46.0731L64.9563 136.063L62.5 141.733L68.9076 145.432L73.2595 140.828Z" fill="#A5A5A5"/>
<path d="M73.261 140.828L130.422 42.1072L125.964 43.4381L67.4141 144.554L68.9092 145.432L73.261 140.828Z" fill="#515151"/>
<path d="M69.7619 124.086C69.1087 125.217 68.8066 126.516 68.8935 127.818C68.9805 129.12 69.4528 130.367 70.2506 131.402C71.0484 132.437 72.136 133.212 73.3759 133.631C74.6158 134.05 75.9524 134.093 77.2167 133.754C78.4811 133.416 79.6165 132.712 80.4794 131.73C81.3423 130.749 81.894 129.534 82.0648 128.24C82.2356 126.946 82.0178 125.631 81.4389 124.461C80.8601 123.29 79.9462 122.317 78.8127 121.664C77.2889 120.794 75.4821 120.561 73.7864 121.015C72.0907 121.468 70.6439 122.573 69.7619 124.086Z" fill="#474747"/>
<path d="M71.2334 124.938C70.7398 125.78 70.5081 126.749 70.5678 127.722C70.6274 128.696 70.9757 129.63 71.5684 130.406C72.1612 131.181 72.9717 131.764 73.8972 132.08C74.8227 132.396 75.8215 132.431 76.7669 132.181C77.7124 131.93 78.5619 131.405 79.2077 130.673C79.8536 129.94 80.2667 129.033 80.3946 128.066C80.5226 127.099 80.3596 126.116 79.9264 125.242C79.4932 124.367 78.8093 123.641 77.9614 123.154C76.831 122.506 75.4892 122.329 74.2287 122.663C72.9682 122.997 71.8915 123.815 71.2334 124.938Z" fill="white"/>
<path d="M113.95 54.0846C116.707 54.0846 118.942 51.8562 118.942 49.1073C118.942 46.3585 116.707 44.1301 113.95 44.1301C111.192 44.1301 108.957 46.3585 108.957 49.1073C108.957 51.8562 111.192 54.0846 113.95 54.0846Z" fill="#474747"/>
<path d="M113.949 52.1682C115.645 52.1682 117.02 50.7978 117.02 49.1073C117.02 47.4169 115.645 46.0464 113.949 46.0464C112.254 46.0464 110.879 47.4169 110.879 49.1073C110.879 50.7978 112.254 52.1682 113.949 52.1682Z" fill="#8F8F8F"/>
<path d="M157.737 0.00320596L144.352 13.3471L149.864 18.8427L163.249 5.49884L157.737 0.00320596Z" fill="#515151"/>
<path d="M89.5029 70.8669L77.7227 82.611L80.3468 85.2271L92.1271 73.483L89.5029 70.8669Z" fill="#515151"/>
</svg>
