<svg width="116" height="197" viewBox="0 0 116 197" fill="none" xmlns="http://www.w3.org/2000/svg">
<g id="Group">
<path id="Vector" d="M1.86937 154.128L1.86937 39.1268L0 38.0455L1.0408e-06 153.047L1.86937 154.128Z" fill="#292A29"/>
<path id="Vector_2" d="M1.87109 154.128L4.1375 152.831L4.13749 37.8126L1.87109 39.1268L1.87109 154.128Z" fill="#4D4D4D"/>
<path id="Vector_3" d="M41.7209 131.055L41.7209 16.0535L39.8516 14.9722L39.8516 129.974L41.7209 131.055Z" fill="#292A29"/>
<path id="Vector_4" d="M41.7227 131.055L43.9891 129.757L43.9891 14.7391L41.7227 16.0533L41.7227 131.055Z" fill="#4D4D4D"/>
<path id="Vector_5" d="M1.1894e-08 38.0455L1.86937 39.1268L4.13577 37.8126L2.2664 36.7313L1.1894e-08 38.0455Z" fill="#4A4A4A"/>
<path id="Vector_6" d="M39.8516 14.9719L41.7209 16.0532L43.9873 14.739L42.1014 13.6577L39.8516 14.9719Z" fill="#4A4A4A"/>
<path id="Vector_7" d="M43.2615 126.846L41.723 128.377L2.86328 97.3181L3.57463 95.0391L43.2615 126.846Z" fill="#4D4D4D"/>
<path id="Vector_8" d="M3.17578 148.971L3.53973 151.167L42.631 74.7601L41.7211 73.4126L3.17578 148.971Z" fill="#4D4D4D"/>
<path id="Vector_9" d="M43.2615 72.6309L41.723 74.178L2.86328 43.1194L3.57463 40.8403L43.2615 72.6309Z" fill="#4D4D4D"/>
<path id="Vector_10" d="M3.17578 94.7725L3.53973 96.9684L42.631 20.5447L41.7211 19.2139L3.17578 94.7725Z" fill="#4D4D4D"/>
<path id="Vector_11" d="M42.2656 123.086L2.49609 146.293L74.078 187.898L113.93 164.725L42.2656 123.086Z" fill="#292A29"/>
<path id="Vector_12" d="M74.0781 190.86L74.0781 187.898L113.93 164.725L113.93 167.686L74.0781 190.86Z" fill="#4D4D4D"/>
<path id="Vector_13" d="M2.49609 146.293L2.49609 149.254L74.078 190.86L74.078 187.898L2.49609 146.293Z" fill="black"/>
<path id="Vector_14" d="M47.4805 146.692L47.4805 128.01L62.3196 119.377L62.3196 138.042L47.4805 146.692Z" fill="#C8A300"/>
<path id="Vector_15" d="M47.4768 146.692L47.4768 128.01L32.6211 119.377L32.6211 138.042L47.4768 146.692Z" fill="#DDB400"/>
<path id="Vector_16" d="M34.559 136.794L34.559 122.454L34.1289 122.205L34.1289 137.11L45.9903 144.03L45.9903 143.465L34.559 136.794Z" fill="#C8A300"/>
<path id="Vector_17" d="M45.9899 143.465L45.9899 129.108L34.5586 122.454L34.5586 136.794L45.9899 143.465Z" fill="#C8A300"/>
<path id="Vector_18" d="M41.6719 139.838L44.8481 141.702L44.8481 136.877L41.6719 135.014L41.6719 139.838Z" fill="white"/>
<path id="Vector_19" d="M60.4 136.794L60.4 122.454L60.8301 122.205L60.8301 137.11L48.9688 144.03L48.9688 143.465L60.4 136.794Z" fill="#C8A300"/>
<path id="Vector_20" d="M48.9688 143.465L48.9688 129.108L60.4 122.454L60.4 136.794L48.9688 143.465Z" fill="#C8A300"/>
<path id="Vector_21" d="M32.6211 119.377L47.4768 128.011L62.3159 119.377L47.4768 110.759L32.6211 119.377Z" fill="#FFD725"/>
<path id="Vector_22" d="M59.2423 119.56L59.7386 119.277L47.4802 112.157L35.2383 119.277L35.718 119.56L47.4802 112.722L59.2423 119.56Z" fill="#C8A300"/>
<path id="Vector_23" d="M59.243 119.56L47.4809 112.723L35.7188 119.56L47.4809 126.397L59.243 119.56Z" fill="#DDB400"/>
<path id="Vector_24" d="M57.3047 125.748L57.3047 130.572L59.7531 129.142L59.7531 124.317L57.3047 125.748Z" fill="#4D4D4D"/>
<path id="Vector_25" d="M53.6836 127.811L53.6836 132.635L56.132 131.221L56.132 126.397L53.6836 127.811Z" fill="#4D4D4D"/>
<path id="Vector_26" d="M29.0977 157.306L29.0977 138.624L43.9368 129.99L43.9368 148.655L29.0977 157.306Z" fill="#C8A300"/>
<path id="Vector_27" d="M29.0979 157.306L29.0979 138.624L14.2422 129.99L14.2422 148.655L29.0979 157.306Z" fill="#DDB400"/>
<path id="Vector_28" d="M16.1801 147.408L16.1801 133.068L15.75 132.818L15.75 147.74L27.6114 154.644L27.6114 154.078L16.1801 147.408Z" fill="#C8A300"/>
<path id="Vector_29" d="M27.6109 154.079L27.6109 139.705L16.1797 133.068L16.1797 147.408L27.6109 154.079Z" fill="#C8A300"/>
<path id="Vector_30" d="M23.293 150.452L26.4692 152.315L26.4692 147.491L23.293 145.627L23.293 150.452Z" fill="white"/>
<path id="Vector_31" d="M42.0172 147.408L42.0172 133.068L42.4473 132.818L42.4473 147.74L30.5859 154.644L30.5859 154.079L42.0172 147.408Z" fill="#C8A300"/>
<path id="Vector_32" d="M30.5859 154.079L30.5859 139.705L42.0172 133.068L42.0172 147.408L30.5859 154.079Z" fill="#C8A300"/>
<path id="Vector_33" d="M14.2422 129.99L29.0979 138.624L43.937 129.99L29.0979 121.373L14.2422 129.99Z" fill="#FFD725"/>
<path id="Vector_34" d="M40.8595 130.173L41.3558 129.89L29.0973 122.77L16.8555 129.89L17.3352 130.173L29.0973 123.336L40.8595 130.173Z" fill="#C8A300"/>
<path id="Vector_35" d="M40.8602 130.173L29.0981 123.336L17.3359 130.173L29.0981 137.01L40.8602 130.173Z" fill="#DDB400"/>
<path id="Vector_36" d="M38.9258 136.361L38.9258 141.186L41.3742 139.755L41.3742 134.931L38.9258 136.361Z" fill="#4D4D4D"/>
<path id="Vector_37" d="M35.3047 138.424L35.3047 143.249L37.7531 141.818L37.7531 137.01L35.3047 138.424Z" fill="#4D4D4D"/>
<path id="Vector_38" d="M68.2744 158.038L68.2578 139.356L83.1135 130.722L83.1135 149.387L68.2744 158.038Z" fill="#C8A300"/>
<path id="Vector_39" d="M68.2736 158.038L68.2571 139.356L53.418 130.722L53.418 149.387L68.2736 158.038Z" fill="#DDB400"/>
<path id="Vector_40" d="M55.3364 148.156L55.3364 133.8L54.9062 133.55L54.9063 148.472L66.7842 155.376L66.7842 154.81L55.3364 148.156Z" fill="#C8A300"/>
<path id="Vector_41" d="M66.7837 154.81L66.7672 140.454L55.3359 133.8L55.3359 148.156L66.7837 154.81Z" fill="#C8A300"/>
<path id="Vector_42" d="M62.4492 151.184L65.642 153.047L65.642 148.223L62.4492 146.359L62.4492 151.184Z" fill="white"/>
<path id="Vector_43" d="M81.1939 148.156L81.1939 133.8L81.624 133.55L81.624 148.472L69.7461 155.376L69.7461 154.811L81.1939 148.156Z" fill="#C8A300"/>
<path id="Vector_44" d="M69.7461 154.81L69.7461 140.454L81.1939 133.8L81.1939 148.156L69.7461 154.81Z" fill="#C8A300"/>
<path id="Vector_45" d="M53.418 130.722L68.2571 139.356L83.1128 130.722L68.2736 122.105L53.418 130.722Z" fill="#FFD725"/>
<path id="Vector_46" d="M80.0362 130.905L80.5159 130.622L68.274 123.502L56.0156 130.622L56.5119 130.905L68.274 124.068L80.0362 130.905Z" fill="#C8A300"/>
<path id="Vector_47" d="M80.036 130.905L68.2738 124.068L56.5117 130.905L68.2738 137.742L80.036 130.905Z" fill="#DDB400"/>
<path id="Vector_48" d="M78.1016 137.093L78.1016 141.918L80.5499 140.487L80.5499 135.663L78.1016 137.093Z" fill="#4D4D4D"/>
<path id="Vector_49" d="M74.4609 139.173L74.4609 143.981L76.9093 142.566L76.9093 137.742L74.4609 139.173Z" fill="#4D4D4D"/>
<path id="Vector_50" d="M49.8954 168.651L49.8789 149.969L64.7346 141.335L64.7346 160.001L49.8954 168.651Z" fill="#C8A300"/>
<path id="Vector_51" d="M49.8947 168.651L49.8782 149.969L35.0391 141.336L35.0391 160.001L49.8947 168.651Z" fill="#DDB400"/>
<path id="Vector_52" d="M36.9575 158.77L36.9575 144.413L36.5273 144.164L36.5273 159.086L48.3887 165.989L48.3887 165.424L36.9575 158.77Z" fill="#C8A300"/>
<path id="Vector_53" d="M48.3883 165.424L48.3883 151.067L36.957 144.413L36.957 158.77L48.3883 165.424Z" fill="#C8A300"/>
<path id="Vector_54" d="M44.0703 161.797L47.2631 163.661L47.2631 158.836L44.0703 156.973L44.0703 161.797Z" fill="white"/>
<path id="Vector_55" d="M62.815 158.77L62.815 144.413L63.2451 144.164L63.2451 159.086L51.3672 165.989L51.3672 165.424L62.815 158.77Z" fill="#C8A300"/>
<path id="Vector_56" d="M51.3672 165.424L51.3672 151.067L62.815 144.413L62.815 158.77L51.3672 165.424Z" fill="#C8A300"/>
<path id="Vector_57" d="M35.0391 141.336L49.8782 149.969L64.7339 141.336L49.8947 132.718L35.0391 141.336Z" fill="#FFD725"/>
<path id="Vector_58" d="M61.6573 141.519L62.137 141.236L49.8951 134.116L37.6367 141.236L38.133 141.519L49.8951 134.681L61.6573 141.519Z" fill="#C8A300"/>
<path id="Vector_59" d="M61.6571 141.519L49.8949 134.681L38.1328 141.519L49.8949 148.356L61.6571 141.519Z" fill="#DDB400"/>
<path id="Vector_60" d="M59.7188 147.707L59.7188 152.531L62.1671 151.101L62.1671 146.276L59.7188 147.707Z" fill="#4D4D4D"/>
<path id="Vector_61" d="M56.082 149.77L56.082 154.594L58.5304 153.18L58.5304 148.356L56.082 149.77Z" fill="#4D4D4D"/>
<path id="Vector_62" d="M90.1445 170.714L90.1445 152.032L104.984 143.398L104.984 162.064L90.1445 170.714Z" fill="#C8A300"/>
<path id="Vector_63" d="M90.1447 170.714L90.1447 152.032L75.2891 143.398L75.2891 162.064L90.1447 170.714Z" fill="#DDB400"/>
<path id="Vector_64" d="M77.224 160.816L77.224 146.476L76.7773 146.21L76.7773 161.132L88.6553 168.052L88.6553 167.47L77.224 160.816Z" fill="#C8A300"/>
<path id="Vector_65" d="M88.6539 167.47L88.6539 153.114L77.2227 146.476L77.2227 160.816L88.6539 167.47Z" fill="#C8A300"/>
<path id="Vector_66" d="M84.3359 163.86L87.5122 165.707L87.5122 160.882L84.3359 159.036L84.3359 163.86Z" fill="white"/>
<path id="Vector_67" d="M103.064 160.816L103.064 146.476L103.494 146.21L103.494 161.132L91.6328 168.052L91.6328 167.47L103.064 160.816Z" fill="#C8A300"/>
<path id="Vector_68" d="M91.6328 167.47L91.6328 153.114L103.064 146.476L103.064 160.816L91.6328 167.47Z" fill="#C8A300"/>
<path id="Vector_69" d="M75.2891 143.398L90.1447 152.032L104.984 143.398L90.1447 134.765L75.2891 143.398Z" fill="#FFD725"/>
<path id="Vector_70" d="M101.907 143.565L102.404 143.282L90.1451 136.162L77.8867 143.282L78.383 143.565L90.1451 136.728L101.907 143.565Z" fill="#C8A300"/>
<path id="Vector_71" d="M101.907 143.565L90.1449 136.728L78.3828 143.565L90.1449 150.402L101.907 143.565Z" fill="#DDB400"/>
<path id="Vector_72" d="M99.9688 149.753L99.9688 154.577L102.417 153.147L102.417 148.339L99.9688 149.753Z" fill="#4D4D4D"/>
<path id="Vector_73" d="M96.332 151.833L96.332 156.657L98.7804 155.226L98.7804 150.402L96.332 151.833Z" fill="#4D4D4D"/>
<path id="Vector_74" d="M71.7656 181.327L71.7656 162.646L86.6048 154.012L86.6048 172.677L71.7656 181.327Z" fill="#C8A300"/>
<path id="Vector_75" d="M71.7619 181.327L71.7619 162.646L56.9062 154.012L56.9063 172.677L71.7619 181.327Z" fill="#DDB400"/>
<path id="Vector_76" d="M58.8451 171.429L58.8451 157.073L58.3984 156.823L58.3984 171.745L70.2764 178.666L70.2764 178.083L58.8451 171.429Z" fill="#C8A300"/>
<path id="Vector_77" d="M70.275 178.084L70.275 163.727L58.8438 157.073L58.8438 171.429L70.275 178.084Z" fill="#C8A300"/>
<path id="Vector_78" d="M65.957 174.474L69.1333 176.32L69.1333 171.496L65.957 169.649L65.957 174.474Z" fill="white"/>
<path id="Vector_79" d="M84.6852 171.429L84.6852 157.073L85.1153 156.823L85.1153 171.745L73.2539 178.666L73.2539 178.083L84.6852 171.429Z" fill="#C8A300"/>
<path id="Vector_80" d="M73.2539 178.084L73.2539 163.727L84.6852 157.073L84.6852 171.429L73.2539 178.084Z" fill="#C8A300"/>
<path id="Vector_81" d="M56.9063 154.012L71.7619 162.646L86.6011 154.012L71.7619 145.378L56.9063 154.012Z" fill="#FFD725"/>
<path id="Vector_82" d="M83.5283 154.178L84.0246 153.895L71.7662 146.775L59.5078 153.895L60.0041 154.178L71.7662 147.341L83.5283 154.178Z" fill="#C8A300"/>
<path id="Vector_83" d="M83.5282 154.178L71.766 147.341L60.0039 154.178L71.766 161.015L83.5282 154.178Z" fill="#DDB400"/>
<path id="Vector_84" d="M81.5898 160.367L81.5898 165.191L84.0382 163.76L84.0382 158.953L81.5898 160.367Z" fill="#4D4D4D"/>
<path id="Vector_85" d="M77.9492 162.446L77.9492 167.27L80.3976 165.84L80.3976 161.015L77.9492 162.446Z" fill="#4D4D4D"/>
<path id="Vector_86" d="M42.2656 71.3166L2.49609 94.5232L74.078 136.129L113.93 112.972L42.2656 71.3166Z" fill="#292A29"/>
<path id="Vector_87" d="M74.0781 139.09L74.0781 136.129L113.93 112.972L113.93 115.916L74.0781 139.09Z" fill="#4D4D4D"/>
<path id="Vector_88" d="M2.49609 94.5231L2.49609 97.5009L74.078 139.09L74.078 136.129L2.49609 94.5231Z" fill="black"/>
<path id="Vector_89" d="M47.543 114.103L47.543 97.6673L71.2657 83.8764L71.2657 100.279L47.543 114.103Z" fill="#C8A300"/>
<path id="Vector_90" d="M47.5433 114.103L47.5433 97.6675L13.3984 77.8213L13.3984 94.2406L47.5433 114.103Z" fill="#DDB400"/>
<path id="Vector_91" d="M13.3984 77.8211L47.5433 97.6673L71.2661 83.8764L37.1047 64.0469L13.3984 77.8211Z" fill="#FFD725"/>
<path id="Vector_92" d="M62.4335 97.6839L57.1563 100.778L57.1563 92.0611L62.4335 88.9669L62.4335 97.6839Z" fill="#4D4D4D"/>
<path id="Vector_93" d="M62.4339 88.9667L28.322 69.1538L23.0117 72.2314L57.1566 92.061L62.4339 88.9667Z" fill="#4E4E4E"/>
<path id="Vector_94" d="M49.3164 111.392L49.3164 109.844L57.2902 105.203L57.2902 106.767L49.3164 111.392Z" fill="#4D4D4D"/>
<path id="Vector_95" d="M49.3164 108.647L49.3164 107.1L57.2902 102.458L57.2902 104.022L49.3164 108.647Z" fill="#4D4D4D"/>
<path id="Vector_96" d="M18.1799 89.5657L18.1799 95.1054L14.375 92.8928L14.375 87.3532L18.1799 89.5657Z" fill="#4D4D4D"/>
<path id="Vector_97" d="M23.3752 92.5934L23.3752 98.1331L19.5703 95.9206L19.5703 90.3809L23.3752 92.5934Z" fill="#4D4D4D"/>
<path id="Vector_98" d="M28.6526 95.6378L28.6526 101.177L24.8477 98.9649L24.8477 93.4252L28.6526 95.6378Z" fill="#4D4D4D"/>
<path id="Vector_99" d="M46.5007 98.3493L46.5007 106.318L38.6758 101.776L38.6758 93.7912L46.5007 98.3493Z" fill="white"/>
<path id="Vector_100" d="M45.5446 99.9797L45.5446 98.6821L39.3906 95.1055L39.3906 96.3864L45.5446 99.9797Z" fill="#4D4D4D"/>
<path id="Vector_101" d="M44.668 91.1795L44.668 81.5641L59.9868 72.6475L59.9868 82.2628L44.668 91.1795Z" fill="#C8A300"/>
<path id="Vector_102" d="M44.6652 91.1794L44.6652 81.5641L22.6133 68.7547L22.6133 78.3534L44.6652 91.1794Z" fill="#DDB400"/>
<path id="Vector_103" d="M22.6133 68.7714L44.6652 81.5807L59.9841 72.6807L37.9322 59.8713L22.6133 68.7714Z" fill="#FFD725"/>
<path id="Vector_104" d="M45.8242 89.4327L45.8242 88.4346L50.9526 85.4402L50.9526 86.4383L45.8242 89.4327Z" fill="#4D4D4D"/>
<path id="Vector_105" d="M45.8242 87.6527L45.8242 86.6712L50.9526 83.6602L50.9526 84.6749L45.8242 87.6527Z" fill="#4D4D4D"/>
<path id="Vector_106" d="M26.4364 72.6472L26.4364 77.1055L23.3594 75.3255L23.3594 70.8506L26.4364 72.6472Z" fill="#4D4D4D"/>
<path id="Vector_107" d="M30.62 75.0764L30.62 79.5513L27.543 77.7713L27.543 73.2964L30.62 75.0764Z" fill="#4D4D4D"/>
<path id="Vector_108" d="M43.4733 82.5788L43.4733 87.9188L35.6484 83.3607L35.6484 78.0207L43.4733 82.5788Z" fill="white"/>
<path id="Vector_109" d="M42.5143 84.2092L42.5143 82.9116L36.3438 79.335L36.3438 80.6159L42.5143 84.2092Z" fill="#4D4D4D"/>
<path id="Vector_110" d="M56.1141 79.9671L50.8203 83.0613L50.8203 77.9874L56.1141 74.9099L56.1141 79.9671Z" fill="#4D4D4D"/>
<path id="Vector_111" d="M56.1152 74.9099L34.0964 62.1005L28.7695 65.1947L50.8214 78.0041L56.1152 74.9099Z" fill="#4E4E4E"/>
<path id="Vector_112" d="M85.7578 117.946L85.7578 110.527L96.3123 104.421L96.3123 111.841L85.7578 117.946Z" fill="#C8A300"/>
<path id="Vector_113" d="M85.7596 117.946L85.7596 110.527L73.5508 103.423L73.5508 110.843L85.7596 117.946Z" fill="#DDB400"/>
<path id="Vector_114" d="M73.5508 103.423L85.7596 110.527L96.314 104.421L84.0722 97.3013L73.5508 103.423Z" fill="#FFD725"/>
<path id="Vector_115" d="M86.6523 116.599L86.6523 115.833L90.6227 113.504L90.6227 114.286L86.6523 116.599Z" fill="#4D4D4D"/>
<path id="Vector_116" d="M86.6523 115.234L86.6523 114.452L90.6227 112.14L90.6227 112.922L86.6523 115.234Z" fill="#4D4D4D"/>
<path id="Vector_117" d="M77.0766 107.083L77.0766 110.526L74.7109 109.146L74.7109 105.702L77.0766 107.083Z" fill="#4D4D4D"/>
<path id="Vector_118" d="M79.34 107.998L79.34 112.074L74.4102 109.212L74.4102 105.137L79.34 107.998Z" fill="white"/>
<path id="Vector_119" d="M78.5965 108.98L78.5965 108.214L74.957 106.102L74.957 106.867L78.5965 108.98Z" fill="#4D4D4D"/>
<path id="Vector_120" d="M93.2365 106.185L90.5234 107.765L90.5234 111.674L93.2365 110.094L93.2365 106.185Z" fill="#4D4D4D"/>
<path id="Vector_121" d="M93.2392 106.185L81.0304 99.0815L78.3008 100.662L90.5261 107.765L93.2392 106.185Z" fill="#4E4E4E"/>
<path id="Vector_122" d="M69.8789 127.129L69.8789 119.709L80.4168 113.604L80.4168 121.024L69.8789 127.129Z" fill="#C8A300"/>
<path id="Vector_123" d="M69.8777 127.129L69.8777 119.709L57.6523 112.606L57.6523 120.025L69.8777 127.129Z" fill="#DDB400"/>
<path id="Vector_124" d="M57.6523 112.606L69.8777 119.71L80.4156 113.604L68.1903 106.484L57.6523 112.606Z" fill="#FFD725"/>
<path id="Vector_125" d="M70.7539 125.781L70.7539 125.016L74.7242 122.687L74.7242 123.469L70.7539 125.781Z" fill="#4D4D4D"/>
<path id="Vector_126" d="M70.7539 124.401L70.7539 123.652L74.7242 121.323L74.7242 122.105L70.7539 124.401Z" fill="#4D4D4D"/>
<path id="Vector_127" d="M61.1938 116.266L61.1938 119.709L58.8281 118.345L58.8281 114.885L61.1938 116.266Z" fill="#4D4D4D"/>
<path id="Vector_128" d="M63.4445 117.181L63.4445 121.256L58.5313 118.395L58.5312 114.319L63.4445 117.181Z" fill="white"/>
<path id="Vector_129" d="M62.6972 118.162L62.6972 117.397L59.0742 115.284L59.0742 116.05L62.6972 118.162Z" fill="#4D4D4D"/>
<path id="Vector_130" d="M77.3381 115.367L74.625 116.948L74.625 120.857L77.3381 119.277L77.3381 115.367Z" fill="#4D4D4D"/>
<path id="Vector_131" d="M77.3407 115.367L65.1319 108.264L62.4023 109.844L74.6277 116.948L77.3407 115.367Z" fill="#4E4E4E"/>
<path id="Vector_132" d="M42.2656 19.214L2.49609 42.4206L74.078 84.0261L113.93 60.8528L42.2656 19.214Z" fill="#292A29"/>
<path id="Vector_133" d="M74.0781 86.9873L74.0781 84.0262L113.93 60.8528L113.93 63.814L74.0781 86.9873Z" fill="#4D4D4D"/>
<path id="Vector_134" d="M2.49609 42.4206L2.49609 45.3984L74.078 86.9872L74.078 84.0261L2.49609 42.4206Z" fill="black"/>
<path id="Vector_135" d="M41.3086 57.4427L41.3086 27.5819L65.0314 13.791L65.0314 43.6185L41.3086 57.4427Z" fill="#C8A300"/>
<path id="Vector_136" d="M41.3087 57.4427L41.3087 27.5819L17.5859 13.791L17.5859 43.6185L41.3087 57.4427Z" fill="#DDB400"/>
<path id="Vector_137" d="M17.5859 13.7909L41.3087 27.5817L65.0315 13.7909L41.3087 -2.14699e-07L17.5859 13.7909Z" fill="#FFD725"/>
<path id="Vector_138" d="M56.2157 27.5984L50.9219 30.6926L50.9219 21.9756L56.2157 18.8813L56.2157 27.5984Z" fill="#4D4D4D"/>
<path id="Vector_139" d="M56.2148 18.8812L32.5252 5.10693L27.2148 8.18451L50.9211 21.992L56.2148 18.8812Z" fill="#4E4E4E"/>
<path id="Vector_140" d="M44.4531 53.1672L44.4531 51.6367L52.4103 46.9954L52.4103 48.5425L44.4531 53.1672Z" fill="#4D4D4D"/>
<path id="Vector_141" d="M44.4531 50.4223L44.4531 48.8919L52.4103 44.2339L52.4103 45.7977L44.4531 50.4223Z" fill="#4D4D4D"/>
<path id="Vector_142" d="M59.5703 39.2433L59.5703 44.5667L63.3752 42.3542L63.3752 37.0142L59.5703 39.2433Z" fill="#4D4D4D"/>
<path id="Vector_143" d="M22.7971 38.6776L22.7971 44.2339L18.9922 42.0214L18.9922 36.4651L22.7971 38.6776Z" fill="#4D4D4D"/>
<path id="Vector_144" d="M27.9924 41.7218L27.9924 47.2614L24.1875 45.0489L24.1875 39.5093L27.9924 41.7218Z" fill="#4D4D4D"/>
<path id="Vector_145" d="M26.8171 22.458L26.8171 30.443L18.9922 25.8849L18.9922 17.8998L26.8171 22.458Z" fill="white"/>
<path id="Vector_146" d="M25.8571 24.088L25.8571 22.7905L19.7031 19.2305L19.7031 20.4948L25.8571 24.088Z" fill="#4D4D4D"/>
<path id="Vector_147" d="M73.833 76.4236L73.8164 59.9876L97.5557 46.1968L97.5557 62.5994L73.833 76.4236Z" fill="#C8A300"/>
<path id="Vector_148" d="M73.8331 76.4236L73.8165 59.9876L50.0938 46.1968L50.0938 62.5994L73.8331 76.4236Z" fill="#DDB400"/>
<path id="Vector_149" d="M50.0938 46.1971L73.8165 59.9713L97.5558 46.1971L73.8331 32.4062L50.0938 46.1971Z" fill="#FFD725"/>
<path id="Vector_150" d="M88.7186 60.0044L83.4414 63.082L83.4414 54.3816L88.7186 51.2874L88.7186 60.0044Z" fill="#4D4D4D"/>
<path id="Vector_151" d="M88.7217 51.2874L65.0321 37.5132L59.7383 40.5908L83.4445 54.3816L88.7217 51.2874Z" fill="#4E4E4E"/>
<path id="Vector_152" d="M76.957 72.1483L76.957 70.6179L84.9308 65.9766L84.9308 67.5237L76.957 72.1483Z" fill="#4D4D4D"/>
<path id="Vector_153" d="M76.957 69.4037L76.957 67.8733L84.9308 63.2319L84.9308 64.7957L76.957 69.4037Z" fill="#4D4D4D"/>
<path id="Vector_154" d="M92.0781 58.2242L92.0781 63.5476L95.883 61.3351L95.883 56.0117L92.0781 58.2242Z" fill="#4D4D4D"/>
<path id="Vector_155" d="M54.8752 58.5571L54.8752 64.1134L51.0703 61.9009L51.0703 56.3612L54.8752 58.5571Z" fill="#4D4D4D"/>
<path id="Vector_156" d="M60.0666 61.6012L60.0666 67.1408L56.2617 64.9283L56.2617 59.3887L60.0666 61.6012Z" fill="#4D4D4D"/>
<path id="Vector_157" d="M72.7897 60.6698L72.7897 68.6383L64.9648 64.0801L64.9648 56.1117L72.7897 60.6698Z" fill="white"/>
<path id="Vector_158" d="M71.8298 62.3001L71.8298 61.0025L65.6758 57.4259L65.6758 58.7068L71.8298 62.3001Z" fill="#4D4D4D"/>
<path id="Vector_159" d="M74.0781 55.3964L74.0781 45.781L89.397 36.881L89.397 46.4964L74.0781 55.3964Z" fill="#C8A300"/>
<path id="Vector_160" d="M74.0823 55.3963L74.0823 45.781L56.1992 35.3838L56.1992 44.9991L74.0823 55.3963Z" fill="#DDB400"/>
<path id="Vector_161" d="M56.1992 35.3839L74.0823 45.7811L89.4012 36.8811L71.5181 26.4839L56.1992 35.3839Z" fill="#FFD725"/>
<path id="Vector_162" d="M75.2227 53.6332L75.2227 52.635L80.3676 49.6406L80.3676 50.6388L75.2227 53.6332Z" fill="#4D4D4D"/>
<path id="Vector_163" d="M75.2227 51.8529L75.2227 50.8714L80.3676 47.8604L80.3676 48.8751L75.2227 51.8529Z" fill="#4D4D4D"/>
<path id="Vector_164" d="M60.0175 39.2765L60.0175 43.7515L56.957 41.9715L56.957 37.4965L60.0175 39.2765Z" fill="#4D4D4D"/>
<path id="Vector_165" d="M72.8717 46.7793L72.8717 52.1193L65.0469 47.5612L65.0469 42.2212L72.8717 46.7793Z" fill="white"/>
<path id="Vector_166" d="M71.9118 48.4094L71.9118 47.1119L65.7578 43.5352L65.7578 44.8162L71.9118 48.4094Z" fill="#4D4D4D"/>
<path id="Vector_167" d="M85.5282 44.1676L80.2344 47.2618L80.2344 42.2046L85.5282 39.1104L85.5282 44.1676Z" fill="#4D4D4D"/>
<path id="Vector_168" d="M85.5284 39.1102L67.6619 28.713L62.3516 31.8072L80.2346 42.2044L85.5284 39.1102Z" fill="#4E4E4E"/>
<path id="Vector_169" d="M73.8811 196.016L73.8811 81.0149L72.0117 79.917L72.0117 194.919L73.8811 196.016Z" fill="#292A29"/>
<path id="Vector_170" d="M73.8828 196.016L76.1492 194.719L76.1492 79.7007L73.8828 81.0149L73.8828 196.016Z" fill="#4D4D4D"/>
<path id="Vector_171" d="M113.733 172.926L113.733 57.9416L111.863 56.8437L111.863 171.845L113.733 172.926Z" fill="#292A29"/>
<path id="Vector_172" d="M113.734 172.927L116.001 171.646L116.001 56.6274L113.734 57.9416L113.734 172.927Z" fill="#4D4D4D"/>
<path id="Vector_173" d="M72.0117 79.9172L73.8811 81.0152L76.1475 79.7009L74.2781 78.6196L72.0117 79.9172Z" fill="#4A4A4A"/>
<path id="Vector_174" d="M111.863 56.8437L113.733 57.9416L115.999 56.6274L114.13 55.5461L111.863 56.8437Z" fill="#4A4A4A"/>
<path id="Vector_175" d="M115.273 168.718L113.735 170.248L74.875 139.206L75.5864 136.927L115.273 168.718Z" fill="#4D4D4D"/>
<path id="Vector_176" d="M75.1875 190.86L75.5514 193.056L114.643 116.632L113.733 115.301L75.1875 190.86Z" fill="#4D4D4D"/>
<path id="Vector_177" d="M115.273 114.519L113.735 116.05L74.875 84.991L75.5864 82.7119L115.273 114.519Z" fill="#4D4D4D"/>
<path id="Vector_178" d="M75.1875 136.644L75.5514 138.84L114.643 62.4332L113.733 61.1024L75.1875 136.644Z" fill="#4D4D4D"/>
</g>
</svg>
