<svg width="20" height="20" fill="none" xmlns="http://www.w3.org/2000/svg"><mask id="d" style="mask-type:luminance" maskUnits="userSpaceOnUse" x="0" y="0" width="20" height="20"><mask id="c" style="mask-type:luminance" maskUnits="userSpaceOnUse" x="0" y="0" width="20" height="20"><mask id="b" style="mask-type:luminance" maskUnits="userSpaceOnUse" x="0" y="0" width="20" height="20"><mask id="a" style="mask-type:luminance" maskUnits="userSpaceOnUse" x="0" y="0" width="20" height="20"><path d="M20 0H0v20h20V0z" fill="#fff"/></mask><g mask="url(#a)"><path d="M10 20a10 10 0 100-20 10 10 0 000 20z" fill="#fff"/></g></mask><g mask="url(#b)"><path d="M-47.4-255h200v668h-200v-668z" fill="#fff"/></g></mask><g mask="url(#c)"><path d="M61.2-59.2H0V20h61.2v-79.2z" fill="#fff"/></g></mask><g mask="url(#d)"><path d="M21-1H-1v22h22V-1z" fill="#DF0016"/></g><mask id="f" style="mask-type:luminance" maskUnits="userSpaceOnUse" x="3" y="5" width="7" height="10"><mask id="e" style="mask-type:luminance" maskUnits="userSpaceOnUse" x="0" y="0" width="20" height="20"><path d="M20 0H0v20h20V0z" fill="#fff"/></mask><g mask="url(#e)"><path d="M5.588 5.287v3.4c.517-.618 1.138-.929 1.858-.929.345-.005.686.068 1 .212.268.115.5.3.673.536.15.218.256.465.309.725.066.407.094.82.083 1.231V14.1H7.9v-3.276c0-.65-.03-1.062-.09-1.237a.8.8 0 00-.324-.416 1.006 1.006 0 00-.58-.157 1.3 1.3 0 00-.714.2 1.136 1.136 0 00-.462.6c-.098.267-.147.66-.145 1.182v3.106H3.979V5.288h1.609" fill="#fff"/></g></mask><g mask="url(#f)"><path d="M10.511 4.287H2.98v10.814h7.532V4.287z" fill="#fff"/></g><mask id="h" style="mask-type:luminance" maskUnits="userSpaceOnUse" x="10" y="5" width="6" height="10"><mask id="g" style="mask-type:luminance" maskUnits="userSpaceOnUse" x="0" y="0" width="20" height="20"><path d="M20 0H0v20h20V0z" fill="#fff"/></mask><g mask="url(#g)"><path d="M11.924 5.287v3.4c.518-.618 1.138-.928 1.858-.929.345-.004.687.068 1 .212.268.116.5.301.671.536.151.218.256.465.31.725.066.407.093.82.082 1.231V14.1H14.24v-3.276c0-.65-.03-1.062-.09-1.237a.8.8 0 00-.325-.416 1.007 1.007 0 00-.58-.157 1.3 1.3 0 00-.714.2 1.15 1.15 0 00-.462.6c-.096.267-.144.66-.145 1.182V14.1h-1.608V5.286h1.608" fill="#fff"/></g></mask><g mask="url(#h)"><path d="M16.847 4.287h-7.53v10.814h7.53V4.287z" fill="#fff"/></g></svg>