<svg width="100" height="100" fill="none" xmlns="http://www.w3.org/2000/svg"><path d="M39.935 52.256c1.456 0 2.576.368 3.36 1.104.784.72 1.176 1.76 1.176 3.12v.48c0 1.36-.392 2.4-1.176 3.12-.768.72-1.888 1.08-3.36 1.08h-2.352v1.992H42.6v1.92h-5.016V68H35.4v-2.928h-2.208v-1.92H35.4V61.16h-2.208v-1.92H35.4v-6.984h4.536zm2.304 4.224c0-.736-.192-1.296-.576-1.68-.384-.384-1-.576-1.848-.576h-2.232v5.016h2.232c.784 0 1.384-.176 1.8-.528.416-.368.624-.952.624-1.752v-.48zm2.559-20.97a1.277 1.277 0 01-.769-.267 1.261 1.261 0 01-.217-1.763l8.085-10.322a1.46 1.46 0 00-.836-1.746l-4.752-1.895a1.261 1.261 0 01-.726-1.562l.25-.744a1.846 1.846 0 00-1.837-1.67H32.228a1.838 1.838 0 00-1.829 1.67l.26.694a1.244 1.244 0 01-.702 1.611l-4.777 1.921a1.462 1.462 0 00-.835 1.746l8.084 10.322a1.262 1.262 0 01-.653 1.983 1.244 1.244 0 01-1.318-.437l-8.235-10.524a1.357 1.357 0 01-.175-.3 3.967 3.967 0 012.171-5.136l3.658-1.47a1.115 1.115 0 010-.234 4.36 4.36 0 014.351-4.351h11.768a4.35 4.35 0 014.351 4.35c.004.079.004.157 0 .235l3.65 1.47a3.967 3.967 0 012.196 5.144c-.042.11-.101.21-.175.3l-8.227 10.49a1.261 1.261 0 01-.993.485z" fill="#292A29"/><path d="M52.18 86.964H24.053c-.375 0-8.727-.041-13.654-5.612-2.807-3.174-3.9-7.441-3.24-12.694C9.495 49.975 27.96 34.892 30.9 33.648c2.03-.836 12.444-.836 14.473 0 2.915 1.244 21.38 16.319 23.719 35.01.66 5.253-.434 9.52-3.24 12.694-4.886 5.529-13.238 5.612-13.672 5.612zM38.118 35.518c-2.79 0-5.588.142-6.256.434-1.486.635-19.943 14.833-22.223 33.015-.56 4.501.325 8.1 2.622 10.715 4.176 4.718 11.692 4.777 11.792 4.777h28.12c.076 0 7.626-.059 11.793-4.777 2.297-2.614 3.182-6.214 2.623-10.715-2.28-18.19-20.738-32.38-22.224-33.014-.668-.293-3.441-.435-6.247-.435zm5.387-9.863a1.254 1.254 0 01-1.103-1.846l3.274-6.063a1.254 1.254 0 012.205 1.194l-3.274 6.055a1.244 1.244 0 01-1.102.66zm-10.607 0a1.244 1.244 0 01-1.102-.66L28.52 18.94a1.253 1.253 0 112.204-1.194L34 23.809a1.253 1.253 0 01-1.102 1.846z" fill="#292A29"/></svg>