<svg width="84" height="103" fill="none" xmlns="http://www.w3.org/2000/svg"><path d="M37.066 85.007l11.178-4.133.018-.006.019-.005a4.928 4.928 0 002.649-1.697l.056-.07.083-.034 24.886-10.25.029-.012.03-.006a3.718 3.718 0 014.249 2.275v.001L37.066 85.007zm0 0l-.938-2.537 11.276-4.17h0a1.33 1.33 0 01.173-.052h0a2.3 2.3 0 001.458-1.04 2.315 2.315 0 00-2.123-3.537l-.034.003-.032.008-23.801 6.373-.003.001c-.183.05-.38.06-.572.028 0 0 0 0 0 0l-8.195-1.371-.407-.068v15.783h12.221c.162 0 .323.029.475.086h0l10.809 4.071h0a5.39 5.39 0 004.323-.23l.012-.006.012-.008 36.636-22.44c1.39-.704 2.182-1.99 2.18-3.436m-43.47 12.542l43.47-12.542m0 0s0 0 0 0h-.35.35zm2.708 0v.003a6.417 6.417 0 01-3.566 5.79l-.014.007-.013.008-36.622 22.434a8.35 8.35 0 01-3.789.924 7.982 7.982 0 01-2.821-.514h0l-10.517-3.96-.06-.023H13.868v3.757a1.351 1.351 0 01-1.354 1.353H4.031a1.353 1.353 0 01-1.353-1.353V70.234a1.353 1.353 0 011.353-1.353h8.483a1.353 1.353 0 011.354 1.353v5.668l.292.05 8.395 1.403.075.012.073-.02 23.566-6.31h.002a1.73 1.73 0 01.186-.037 5.011 5.011 0 015.482 3.767l.001.003c.026.1.035.186.047.294.007.061.014.129.026.21l.063.446.416-.172 22.555-9.289h.002c.053-.023.112-.042.18-.06a6.418 6.418 0 017.548 3.866l.001.003c.308.757.466 1.568.466 2.397zM25.78 97.485l10.516 3.959-22.077-31.21a1.703 1.703 0 00-1.704-1.703H4.031a1.703 1.703 0 00-1.703 1.703v30.657a1.705 1.705 0 001.703 1.703h8.483a1.705 1.705 0 001.704-1.703v-3.407h11.56zm-14.97 2.051h.35V71.587H5.384v27.95h5.427zm71.778-23.48a6.767 6.767 0 001.005-3.592l-3.76 6.106a6.768 6.768 0 002.755-2.514zm-20.65-25.909h.35v-27.95H20.712v27.95h41.226zm-43.535-30.26a1.35 1.35 0 01.956-.396h44.282a1.353 1.353 0 011.353 1.353V51.5a1.353 1.353 0 01-1.353 1.353H19.359a1.353 1.353 0 01-1.353-1.353V20.844c0-.36.143-.703.397-.957z" fill="#292A29" stroke="#fff" stroke-width=".7"/><path d="M43.936 27.256c1.456 0 2.576.368 3.36 1.104.784.72 1.176 1.76 1.176 3.12v.48c0 1.36-.392 2.4-1.176 3.12-.768.72-1.888 1.08-3.36 1.08h-2.352v1.992H46.6v1.92h-5.016V43H39.4v-2.928h-2.208v-1.92H39.4V36.16h-2.208v-1.92H39.4v-6.984h4.536zm2.304 4.224c0-.736-.192-1.296-.576-1.68-.384-.384-1-.576-1.848-.576h-2.232v5.016h2.232c.784 0 1.384-.176 1.8-.528.416-.368.624-.952.624-1.752v-.48z" fill="#292A29"/><path d="M12.173 62.784l-.273-.22a1.352 1.352 0 00.271-.58l1.703-8.516h0a1.35 1.35 0 00-.43-1.281l.232-.262-.232.262a1.352 1.352 0 00-1.324-.267h0l-3.736 1.246-.313.104-.122-.306a35.817 35.817 0 01-2.565-13.386s0 0 0 0h.35l6.439 23.206zm0 0l-.273-.22a1.353 1.353 0 01-1.754.316s0 0 0 0L1.63 57.77a1.357 1.357 0 01-.648-1.309l-.348-.037.348.038a1.35 1.35 0 01.915-1.135h0l3.247-1.082.35-.116-.135-.344a38.555 38.555 0 01-2.682-14.207C2.678 18.171 20.094.756 41.5.756s38.822 17.415 38.822 38.822v.001m-68.15 23.205l68.15-23.205m0 0a38.522 38.522 0 01-7.295 22.658l-2.182-1.602 9.477-21.056zM10.645 55.815l.119-.592-.573.19-3.922 1.309-.722.24.653.392 3.268 1.96.426.256.097-.487.654-3.268z" fill="#292A29" stroke="#fff" stroke-width=".7"/></svg>