<svg width="223" height="199" fill="none" xmlns="http://www.w3.org/2000/svg"><path d="M95.37 99.63l127.631-73.736L178.222 0 50.613 73.737 95.37 99.63z" fill="#fff"/><path d="M57.295 75.045L180.354 4.032l-2.525-1.307-123.06 71.012 2.526 1.308zM95.611 97.08L218.67 26.069l-2.525-1.307-123.06 71.012 2.526 1.308z" fill="#CCC"/><path d="M114.285 142.417l9.383 5.427v9.634l-9.383-5.427v-9.634zm97.59-47.407c0 6.299-3.831 13.601-8.533 16.325-4.702 2.725-8.533-.174-8.533-6.539 0-6.364 3.809-13.6 8.533-16.325 4.724-2.725 8.533.24 8.533 6.539z" fill="#303030"/><path d="M204.214 115.39l-6.183-3.488 11.037-23.714 5.899 3.313-10.753 23.889z" fill="#303030"/><path d="M218.278 98.585c0 6.299-3.81 13.6-8.534 16.325-4.724 2.725-8.533-.174-8.533-6.539 0-6.364 3.831-13.6 8.533-16.325 4.702-2.725 8.534.261 8.534 6.539z" fill="#494949"/><path d="M215.27 100.524a13.234 13.234 0 01-1.49 5.983 13.2 13.2 0 01-4.04 4.654c-3.047 1.765-5.529 0-5.529-4.185a13.266 13.266 0 015.529-10.571c3.07-1.831 5.53.043 5.53 4.119z" fill="#969696"/><path d="M213.727 101.418a9.501 9.501 0 01-3.984 7.563c-2.177 1.265-3.962 0-3.962-3.007a9.548 9.548 0 013.962-7.586c2.199-1.242 3.984.11 3.984 3.03z" fill="#fff"/><path d="M211.659 102.617a4.558 4.558 0 01-1.915 3.662c-1.045.61-1.916 0-1.916-1.439a4.655 4.655 0 011.916-3.683c1.066-.611 1.915.043 1.915 1.46zm-1.548-3.073a.83.83 0 01-.37.697c-.196.131-.37 0-.37-.261a.937.937 0 01.37-.72c.218-.109.37.022.37.284zm2.504 0a.894.894 0 01-.37.697c-.218.131-.37 0-.37-.261a.866.866 0 01.37-.72c.196-.109.37.022.37.284zm-4.789 2.746a.864.864 0 01-.37.719c-.196.109-.37 0-.37-.283a.895.895 0 01.37-.698c.218-.13.37 0 .37.262zm4.789 2.332a.936.936 0 01-.37.72c-.217.109-.37 0-.37-.284a.807.807 0 01.37-.697c.196-.044.37.087.37.261zm-4.789 2.855a.829.829 0 01-.37.698c-.196 0-.37 0-.37-.283a.895.895 0 01.37-.698c.218-.109.37 0 .37.283zm5.379-5.558a.94.94 0 01-.37.72c-.196 0-.37 0-.37-.284a.895.895 0 01.37-.697c.196-.131.37 0 .37.261zm-6.119 3.531a.877.877 0 01-.349.698c-.217.131-.37 0-.37-.283a.87.87 0 01.37-.698c.196-.109.349.022.349.283zm3.025 2.027a.829.829 0 01-.37.698c-.196 0-.37 0-.37-.284a.89.89 0 01.37-.697c.218-.109.37 0 .37.283z" fill="#383838"/><path d="M191.848 106.802c0 6.277-3.831 13.601-8.533 16.325-4.702 2.725-8.534-.174-8.534-6.539 0-6.364 3.723-13.579 8.534-16.325 4.811-2.747 8.533.196 8.533 6.539z" fill="#303030"/><path d="M184.186 127.138l-6.182-3.488 11.037-23.714 5.921 3.313-10.776 23.889z" fill="#303030"/><path d="M198.25 110.333c0 6.277-3.809 13.601-8.533 16.325-4.724 2.725-8.533-.174-8.533-6.539 0-6.364 3.831-13.579 8.533-16.303 4.702-2.725 8.533.218 8.533 6.517z" fill="#494949"/><path d="M195.246 112.273a13.22 13.22 0 01-5.529 10.571c-3.048 1.765-5.529 0-5.529-4.185a13.283 13.283 0 015.529-10.571c3.069-1.766 5.529.109 5.529 4.185z" fill="#969696"/><path d="M193.743 113.166a9.526 9.526 0 01-1.09 4.268 9.497 9.497 0 01-2.894 3.317c-2.177 1.286-3.962 0-3.962-2.986a9.559 9.559 0 013.962-7.607c2.155-1.177 3.984.087 3.984 3.008z" fill="#fff"/><path d="M191.564 114.365a4.606 4.606 0 01-1.937 3.662c-1.045.61-1.916 0-1.916-1.461a4.627 4.627 0 011.916-3.661c1.153-.611 1.937.043 1.937 1.46zm-1.48-3.073a.822.822 0 01-.37.697c-.196 0-.37 0-.37-.283a.89.89 0 01.37-.698c.218-.109.37 0 .37.284zm2.508 0a.895.895 0 01-.37.697c-.218 0-.37 0-.37-.283a.828.828 0 01.37-.698c.196-.109.37 0 .37.284zm-4.793 2.746a.807.807 0 01-.37.697c-.196.131-.37 0-.37-.261a.94.94 0 01.37-.719c.217-.109.37.021.37.283zm4.793 2.42a.862.862 0 01-.099.394.867.867 0 01-.271.303c-.218.131-.37 0-.37-.262a.878.878 0 01.37-.719c.196-.109.37.022.37.284zm-4.793 2.768a.883.883 0 01-.37.697c-.196 0-.37 0-.37-.283a.893.893 0 01.37-.698c.217-.131.37 0 .37.284zm5.379-5.558a.85.85 0 01-.37.697c-.196.131-.37 0-.37-.262a.935.935 0 01.37-.719c.195-.043.37-.043.37.284zm-6.12 3.531a.863.863 0 01-.092.389.859.859 0 01-.256.308c-.218 0-.37 0-.37-.283a.829.829 0 01.37-.698c.196-.109.348 0 .348.284zm3.026 2.027a.87.87 0 01-.37.697c-.196 0-.37 0-.37-.283a.89.89 0 01.37-.698c.218-.131.37 0 .37.284z" fill="#383838"/><path d="M115.875 150.394c0 6.299-3.809 13.601-8.533 16.326-4.724 2.724-8.533-.175-8.533-6.539 0-6.365 3.831-13.579 8.533-16.304 4.702-2.724 8.533.196 8.533 6.517z" fill="#303030"/><path d="M108.233 170.752l-6.182-3.488 11.015-23.714 5.921 3.313-10.754 23.889z" fill="#303030"/><path d="M122.297 153.947c0 6.299-3.831 13.601-8.533 16.326-4.702 2.724-8.534-.175-8.534-6.539 0-6.365 3.81-13.601 8.534-16.326 4.724-2.724 8.533.24 8.533 6.539z" fill="#494949"/><path d="M119.293 155.887a13.285 13.285 0 01-5.529 10.571c-3.07 1.766-5.53-.109-5.53-4.185a13.22 13.22 0 015.53-10.571c3.047-1.765 5.529.109 5.529 4.185z" fill="#969696"/><path d="M117.727 156.78a9.61 9.61 0 01-3.962 7.607c-2.177 1.264-3.984 0-3.984-3.008a9.574 9.574 0 013.984-7.607c2.177-1.198 3.962.088 3.962 3.008z" fill="#fff"/><path d="M115.679 157.979a4.628 4.628 0 01-1.916 3.662c-1.066.61-1.915 0-1.915-1.46a4.552 4.552 0 011.915-3.662c1.045-.61 1.916.044 1.916 1.46zm-1.544-3.073a.895.895 0 01-.37.697c-.218.131-.37 0-.37-.283a.828.828 0 01.37-.697c.196-.109.37 0 .37.283zm2.48 0a.895.895 0 01-.37.697c-.196.131-.37 0-.37-.283a.895.895 0 01.37-.697c.196-.109.37 0 .37.283zm-4.765 2.746a.94.94 0 01-.37.72c-.218 0-.37-.001-.37-.284a.797.797 0 01.094-.397.788.788 0 01.276-.3c.196-.131.37 0 .37.261zm4.765 2.42a.859.859 0 01-.37.697c-.196.131-.37 0-.37-.261a.94.94 0 01.37-.72c.196-.109.37.022.37.284zm-4.765 2.768a.9.9 0 01-.371.697c-.217 0-.37 0-.37-.283a.829.829 0 01.37-.698c.196-.13.371 0 .371.284zm5.351-5.558a.864.864 0 01-.37.719c-.196.109-.37 0-.37-.283a.855.855 0 01.37-.698c.218-.087.37-.087.37.262zm-6.18 3.531a.893.893 0 01-.37.697c-.217.131-.37 0-.37-.283a.829.829 0 01.37-.698c.37-.108.37 0 .37.284zm3.114 2.027a.895.895 0 01-.37.697c-.218 0-.37 0-.37-.283a.828.828 0 01.37-.698c.196-.13.37 0 .37.284z" fill="#383838"/><path d="M82.72 173.76l-6.53-3.967-4.354-3.531s3.505-1.286 3.831-1.504c.327-.218 8.686 2.834 7.053 9.002z" fill="#262626"/><path d="M46.694 100.045v43.091l4.833-3.16-37.312-21.513 32.479-18.418zm-7.77 47.233L2.875 168.115v-22.341l4.615-15.585 31.434 17.089z" fill="#EF4F77"/><path d="M9.032 124.936a10.893 10.893 0 015.007-6.364h.174l37.312 21.491 11.538 6.539-1.437 13.078-22.705-12.403-31.456-17.088 1.567-5.253z" fill="#EDEDED"/><path d="M10.69 121.58l45.91 25.959-8.947 24.128-44.778-25.894s4.593-16.238 6.53-22.123a16.27 16.27 0 011.285-2.07z" fill="#DDD"/><path d="M64.523 162.666l20.898-12.075 17.067 9.851-20.898 12.097-17.067-9.873z" fill="#6B6B6B"/><path d="M102.486 160.443l-21.181 12.249v8.348l21.181-12.249v-8.348z" fill="#292A29"/><path d="M100.923 167.482l-16.696 9.591v.937l16.696-9.59v-.938zm0-2.07l-16.696 9.59v.959l16.696-9.612v-.937z" fill="#fff"/><path d="M106.582 139.278l55.598-32.912 17.066 9.852-55.597 32.912-17.067-9.852z" fill="#6B6B6B"/><path d="M179.246 116.218l-55.598 32.912v8.348l55.598-32.912v-8.348z" fill="#292A29"/><path d="M177.678 123.258L125.52 153.86v.959l52.158-30.624v-.937zm0-2.071l-52.158 30.602v.959l52.158-30.624v-.937z" fill="#fff"/><path d="M50.613 73.737v60.681L95.37 160.29V99.63L50.613 73.738z" fill="#DDB400"/><path d="M50.613 73.737v19.159l44.757 25.85V99.631L50.613 73.737zm0 56.016v7.651l44.757 25.872v-7.651l-44.757-25.872z" fill="#CCC"/><path d="M223.002 25.894v60.68L95.372 160.29V99.63l127.63-73.736z" fill="#FFD000"/><path d="M223.002 25.741v19.312l-127.63 73.693V99.478l127.63-73.737z" fill="#292A29"/><path d="M168.231 68.876L133.64 88.863l-5.202 6.823 39.793-22.995v-3.815zm0-6.735L142 77.573l-5.203 6.822 31.434-18.44v-3.814z" fill="#fff"/><path d="M223.002 81.91v7.65l-127.63 73.716v-7.651l127.63-73.715z" fill="#A5A5A5"/><path d="M75.754 173.084c0 6.299-3.831 13.601-8.533 16.325-4.702 2.725-8.534-.174-8.534-6.538 0-6.365 3.81-13.601 8.534-16.326 4.724-2.724 8.533.24 8.533 6.539z" fill="#303030"/><path d="M68.093 193.464l-6.183-3.488 11.037-23.714 5.9 3.313-10.754 23.889z" fill="#303030"/><path d="M82.157 176.659c0 6.299-3.81 13.601-8.534 16.325-4.724 2.725-8.533-.174-8.533-6.539 0-6.364 3.831-13.601 8.533-16.325 4.702-2.725 8.534.261 8.534 6.539z" fill="#494949"/><path d="M79.152 178.599a13.217 13.217 0 01-5.529 10.571c-3.048 1.787-5.53 0-5.53-4.185a13.288 13.288 0 015.53-10.615c3.07-1.722 5.53.153 5.53 4.229z" fill="#969696"/><path d="M76.794 183.147c1.318-3.102.97-6.22-.778-6.964-1.748-.745-4.233 1.165-5.551 4.267-1.318 3.101-.97 6.219.778 6.964 1.748.745 4.233-1.166 5.551-4.267z" fill="#fff"/><path d="M75.538 180.691a4.56 4.56 0 01-1.915 3.662c-1.045.61-1.916 0-1.916-1.439a4.672 4.672 0 011.916-3.683c1.066-.502 1.915.043 1.915 1.46zm-1.524-3.073a.83.83 0 01-.37.697c-.196.131-.37 0-.37-.261a.937.937 0 01.37-.72c.195-.109.37.022.37.284zm2.484 0a.896.896 0 01-.37.697c-.218.131-.37 0-.37-.261a.878.878 0 01.37-.72c.196-.109.37.022.37.284zm-4.789 2.768a.872.872 0 01-.37.697c-.196 0-.37 0-.37-.283a.893.893 0 01.37-.697c.218-.131.37 0 .37.283zm4.785 2.398a.932.932 0 01-.37.719c-.218 0-.37 0-.37-.284a.806.806 0 01.37-.697c.196-.131.37 0 .37.262zm-4.785 2.768a.823.823 0 01-.37.697c-.196.131-.37 0-.37-.283a.893.893 0 01.37-.698c.218 0 .37 0 .37.284zm5.375-5.558a.934.934 0 01-.37.719c-.196 0-.37 0-.37-.283a.893.893 0 01.37-.698c.196-.131.37 0 .37.262zm-6.116 3.531a.875.875 0 01-.348.697c-.218.131-.37 0-.37-.261a.871.871 0 01.37-.72c.196-.152.348.022.348.284zm3.046 2.027a.824.824 0 01-.37.697c-.196.131-.37 0-.37-.283a.896.896 0 01.37-.698c.195 0 .37 0 .37.284z" fill="#383838"/><path d="M91.08 125.808l-32.305 18.658a10.893 10.893 0 00-5.007 6.364l-6.14 20.837v22.32l13.432-7.781c1.11-7.629 5.747-15.563 11.32-18.789 5.573-3.226 10.21-.654 11.32 5.711l7.358-4.359.021-42.961z" fill="#A5A5A5"/><path d="M68.18 170.839V139.06l.936-.545v32.324h-.936z" fill="#878787"/><path d="M72.402 168.594c-5.05 2.921-9.274 10.136-10.253 17.023l-1.067.61c1.11-7.628 5.747-15.562 11.32-18.788 5.573-3.226 10.21-.654 11.32 5.711l-1.067.61c-1.001-5.754-5.203-8.108-10.253-5.166z" fill="#BBB"/><path d="M2.875 145.773l44.779 25.894v22.341l-44.78-25.872v-22.363z" fill="#CCC"/><path d="M219.059 90.542l2.917-1.679v-3.901l-2.917 1.678v3.902z" fill="#fff"/><path d="M218.277 86.204l.784.436v3.902l-.784-.458v-3.88z" fill="#BBB"/><path d="M218.277 86.204l2.917-1.678.784.458-2.917 1.656-.784-.436z" fill="#CECECE"/><path d="M123.691 145.904l2.917-1.7v-3.88l-2.917 1.679v3.901z" fill="#fff"/><path d="M122.906 141.545l.784.458v3.901l-.784-.457v-3.902z" fill="#BBB"/><path d="M122.906 141.545l2.917-1.656.784.435-2.917 1.679-.784-.458z" fill="#CECECE"/><path d="M2.875 145.773l44.779 25.894v1.766l-44.78-25.894v-1.766z" fill="#fff"/><path d="M91.081 146.558l-43.429 25.11v1.765l43.43-25.109v-1.766z" fill="#CCC"/><path d="M40.25 175.22v1.33l-29.976-17.437v-1.264a.486.486 0 010-.175l29.953 17.437.022.109zm0 6.256v.392l-29.953-17.306v-1.439l29.976 17.437-.022.916zm-27.8-25.24l25.622 14.799a4.861 4.861 0 011.872 2.529l-29.366-16.98a1.274 1.274 0 01.857-.601 1.27 1.27 0 011.015.253zm27.8 22.907l-29.977-17.349v-1.33l29.976 17.328v1.351zm-2.176 3.946l-25.622-14.778a4.51 4.51 0 01-1.741-2.18l29.127 16.827a1.309 1.309 0 01-1.763.131z" fill="#383838"/><path d="M39.947 173.564c.176.475.279.975.305 1.482l-29.954-17.437c-.01-.397.087-.789.283-1.134l29.366 17.089zm.303 4.228l-29.977-17.328v-1.307l29.976 17.328v1.307zm0 2.659l-29.977-17.328v-1.329l29.976 17.35v1.307zm-.413 2.507L10.71 166.109a5.622 5.622 0 01-.413-1.547l29.932 17.306a2.18 2.18 0 01-.392 1.09z" fill="#969696"/><path d="M2.785 150.634l3.875 2.441a5.343 5.343 0 012.177 4.229v6.168c0 1.613-.98 2.354-2.177 1.657l-3.875-2.354v-12.141zm41.013 23.736l3.853 2.18v12.075l-3.853-2.179a5.276 5.276 0 01-2.177-4.185v-6.234c0-1.657.98-2.354 2.177-1.657z" fill="#FFD000"/><path d="M42.578 177.051a4.888 4.888 0 002.177 3.924c1.132.653 2.046 0 2.046-1.548a4.932 4.932 0 00-2.046-3.945c-1.219-.654-2.177.043-2.177 1.569zm.962 6.299a3.864 3.864 0 001.61 3.074c.87.501 1.59 0 1.59-1.221a3.842 3.842 0 00-1.59-3.052c-.936-.523-1.61.022-1.61 1.199zM3.637 154.405a4.936 4.936 0 002.046 3.923c1.132.654 2.177 0 2.177-1.547a4.95 4.95 0 00-2.177-3.945c-1.132-.654-2.046.043-2.046 1.569zm.913 6.299a3.841 3.841 0 001.59 3.051c.892.524 1.61 0 1.61-1.198a3.865 3.865 0 00-1.61-3.074c-.87-.501-1.59.044-1.59 1.221z" fill="#fff"/><path d="M11.58 125.895l-5.05 15.781-.589-.349 4.615-14.909a1.7 1.7 0 011.72-1.198 1.146 1.146 0 00-.697.675z" fill="#97867B"/><path d="M43.539 167.287L7.882 146.798a4.364 4.364 0 01-2.003-5.122l.13-.414 41.361 23.976-.196.61a2.51 2.51 0 01-1.472 1.594 2.5 2.5 0 01-2.163-.155z" fill="#383838"/><path d="M23.945 134.919c3.287 1.984 18.59 10.615 27.777 15.781l-4.353 14.451-36.724-21.165c.544-1.678 1.088-3.422 1.632-5.035 2.22-6.931 6.814-6.909 11.668-4.032z" fill="#DDB400"/><path d="M11.582 125.895a1.153 1.153 0 01.696-.763c.27.004.532.079.762.218l36.637 20.685a4.075 4.075 0 011.938 4.686c-9.187-5.187-24.49-13.819-27.669-15.802-4.745-2.877-9.339-2.899-11.559 4.032-.544 1.613-1.088 3.357-1.633 5.035l-4.223-2.31 5.05-15.781z" fill="#FFD000"/><path d="M56.23 187.448v4.359a4.647 4.647 0 01-2.308 3.575l-.61-5.078 2.918-2.856z" fill="#A5A5A5"/><path d="M47.804 194.357L47.695 199l-7.75-4.49.066-4.643 7.793 4.49zM0 166.785l7.75 4.49v4.599L0 171.362v-4.577z" fill="#CCC"/><path d="M40.011 189.867l-.065 4.643L7.75 175.874v-4.599l32.261 18.592z" fill="#383838"/><path d="M13.172 175.351l20.375 11.748-.065 2.768-20.31-11.77v-2.746z" fill="#fff"/><path d="M47.695 194.423V199l5.725-3.313a3.139 3.139 0 001.524-2.18v-3.269l-7.249 4.185z" fill="#A5A5A5"/><path d="M56.229 187.448l-8.533 4.948-44.823-25.96v-1.242L0 166.785l47.696 27.638 5.899-3.4a5.519 5.519 0 002.307-2.18l.327-1.395z" fill="#EDEDED"/><path d="M35.328 189.627a2.884 2.884 0 001.22 2.18c.652.392 1.197 0 1.197-.915a2.918 2.918 0 00-1.198-2.18c-.675-.458-1.219-.065-1.219.915zM9.078 174.37a2.86 2.86 0 001.197 2.18c.653.392 1.198 0 1.198-.894a2.925 2.925 0 00-1.198-2.31c-.653-.283-1.197.131-1.197 1.024z" fill="#fff"/><path d="M58.972 144.357l32.109-18.549-44.779-25.894-32.087 18.549 44.757 25.894z" fill="#D1D1D1"/><path d="M61.191 136.292L86.4 123.018v-5.623s-8.316 4.076-15.587 7.389a19.892 19.892 0 00-9.622 11.508z" fill="#A5A5A5"/><path d="M61.192 136.292a17.586 17.586 0 016.77-8.413A204.952 204.952 0 0186.4 117.395L51.243 97.081s-13.583 7.083-18.285 10.353c-6.204 4.359-6.923 8.544-6.923 8.544l35.157 20.314z" fill="#fff"/><path d="M58.644 147.932l5.813-3.357a.955.955 0 011.48.414 1.26 1.26 0 00-.566.196l-5.79 3.335a3.982 3.982 0 00-1.633 3.161v10.287c-.013.284.04.568.152.829-.631 0-1.088-.48-1.088-1.417v-10.31a3.991 3.991 0 011.632-3.138z" fill="#FFD000"/><path d="M57.95 151.68a3.99 3.99 0 011.633-3.16l5.725-3.335c.17-.11.364-.177.566-.196.1.264.152.545.152.828v10.31a3.991 3.991 0 01-1.632 3.138l-5.813 3.357a1.435 1.435 0 01-.544.174 1.876 1.876 0 01-.152-.828l.065-10.288z" fill="#DDB400"/><path d="M57.23 184.963l2.918-1.7v-3.88l-2.918 1.679v3.901z" fill="#fff"/><path d="M56.445 180.626l.784.436v3.901l-.784-.458v-3.879z" fill="#BBB"/><path opacity=".6" d="M56.445 180.626l2.917-1.679.784.458-2.917 1.657-.784-.436z" fill="#CECECE"/><path d="M85.332 168.202l2.917-1.7v-3.88l-2.917 1.678v3.902z" fill="#fff"/><path d="M84.55 163.864l.785.436v3.902l-.784-.458v-3.88z" fill="#BBB"/><path d="M84.55 163.864l2.918-1.678.783.436-2.916 1.678-.784-.436z" fill="#CECECE"/><path d="M169.907 61.16l2.177-1.286c2.438-1.395 3.983-.697 3.983 2.943a8.293 8.293 0 01-3.874 7.563l-2.33 1.352.044-10.572zm2.177 7.411a4.933 4.933 0 002.177-4.708c0-2.528-.915-2.768-2.177-2.005l-.349.196v6.713l.349-.196zm5.506-11.901l4.963-2.855v2.005l-3.178 1.83v2.18l2.699-1.547v1.983l-2.699 1.57v2.42l3.287-1.897v2.005l-5.072 2.943V56.67zm6.617-3.77l1.785-1.047v8.566l3.113-1.809v2.005l-4.898 2.834v-10.55zm6.25-3.619l1.807-1.046V58.85l-1.807 1.024V49.281zm2.633-1.503l1.872-1.112.958 4.36c.239 1.024.392 1.983.631 3.007.24-1.308.392-2.463.631-3.749l.915-5.449 1.85-1.068-2.395 11.944-2.176 1.243-2.286-9.176zm7.726-4.491l4.964-2.855v2.005l-3.157 1.831v2.18l2.678-1.548v1.984l-2.678 1.547v2.442l3.287-1.897v2.005l-5.094 2.943V43.287zm10.906 4.273l-1.524-2.943-.958.567v3.792l-1.806 1.046v-10.55l2.851-1.656c1.677-.959 3.07-.98 3.07 1.526a5.956 5.956 0 01-1.415 3.858l1.785 3.204-2.003 1.155zm-2.482-4.36l.915-.523a2.726 2.726 0 001.436-2.398c0-1.046-.522-1.111-1.436-.566l-.915.523V43.2zm6.793-1.787l-2.373-5.427 1.851-1.112.718 2.027c.218.676.413 1.286.653 1.962.218-.916.457-1.788.675-2.703l.696-2.833 1.873-1.09-2.395 8.173v3.619l-1.785 1.024.087-3.64z" fill="#fff"/></svg>