<svg width="278" height="188" fill="none" xmlns="http://www.w3.org/2000/svg"><path d="M121.014 165.946l25.977 17.88 106.774-153.51-25.846-17.904-106.905 153.534zm22.968 2.743c-3.442 4.947-11.147-.379-7.706-5.326 3.442-4.946 11.169.376 7.706 5.326z" fill="#FFD000"/><path d="M142.832 162.334a4.5 4.5 0 011.87 2.899 4.5 4.5 0 01-.736 3.37 4.53 4.53 0 01-6.288 1.138l-3.566 5.125 12.842 8.877L253.765 30.316l-12.842-8.877-98.091 140.895z" fill="#CC9F00"/><path d="M128.909 171.328l10.273 7.101L246.043 24.903l-10.273-7.101-106.861 153.526zm15.078-2.729c-3.441 4.946-11.147-.38-7.705-5.326 3.442-4.947 11.163.466 7.699 5.416l.006-.09z" fill="#DDAC00"/><path d="M124.14 161.562l-1.046 1.504 10.57 7.306 1.046-1.504-10.57-7.306zm10.164-14.62l-1.046 1.504 10.57 7.307 1.046-1.505-10.57-7.306zm10.168-14.627l-1.046 1.504 10.57 7.306 1.046-1.504-10.57-7.306zm10.203-14.636l-1.046 1.505 10.571 7.304 1.046-1.504-10.571-7.305zm10.18-14.621l-1.046 1.504 10.569 7.307 1.047-1.504-10.57-7.307zm10.18-14.645l-1.047 1.504 10.57 7.306 1.047-1.504-10.57-7.306zm10.187-14.623l-1.046 1.503 10.57 7.307 1.046-1.504-10.57-7.307zm10.145-14.624l-1.047 1.504 10.57 7.306 1.047-1.504-10.57-7.306zm10.203-14.611l-1.047 1.504 10.57 7.306 1.047-1.504-10.57-7.306zm10.18-14.645l-1.047 1.503 10.57 7.307 1.047-1.504-10.57-7.307zm10.183-14.624l-1.046 1.504 10.57 7.306 1.046-1.504-10.57-7.306zM64.489 56.319l-1.34 1.336 42.231 42.102 1.34-1.337-42.231-42.102z" fill="#474747"/><path d="M147.103 12.051l-7.306 7.284 4.04 4.027 7.306-7.283-4.04-4.028z" fill="#A5A5A5"/><path d="M149.865 14.828l-7.306 7.284 1.264 1.26 7.307-7.283-1.265-1.26z" fill="#515151"/><path d="M143.53 19.643a19.293 19.293 0 00-24.932-2.014 19.186 19.186 0 00-7.426 11.038 19.135 19.135 0 001.548 13.2l2.67-2.661a15.47 15.47 0 01-.514-10.35 15.52 15.52 0 016.136-8.366 15.602 15.602 0 0119.532 1.602 15.481 15.481 0 012.479 19.38 15.556 15.556 0 01-8.107 6.486 15.61 15.61 0 01-10.395-.048l-2.67 2.794a19.303 19.303 0 0013.174 1.175 19.248 19.248 0 0010.825-7.577 19.144 19.144 0 00-2.32-24.66z" fill="#474747"/><path d="M19.25 94.542l-19.25 14 21.76-9.635-2.51-4.365z" fill="#515151"/><path d="M121.026 32.712l-.027-.027-99.051 57.012-4.593 4.339 3.712 6.388 5.686-2.449 90.268-51.955 4.005-13.308z" fill="#A5A5A5"/><path d="M118.408 41.362l-98.678 56.8 1.335 2.262 5.687-2.449L117.02 46.02l1.388-4.658z" fill="#515151"/><path d="M38.769 93.157a6.639 6.639 0 01-7.34-.487 6.601 6.601 0 01-2.235-3.115 6.582 6.582 0 011.907-7.082 6.63 6.63 0 017.292-.957 6.614 6.614 0 012.805 2.618 6.61 6.61 0 01.651 5.011 6.63 6.63 0 01-3.08 4.013z" fill="#474747"/><path d="M37.887 91.694a4.926 4.926 0 01-5.447-.369 4.883 4.883 0 01-.228-7.57 4.92 4.92 0 017.49 1.258 4.86 4.86 0 01-1.815 6.68z" fill="#fff"/><path d="M63.702 149.771l-7.368 11.046a.699.699 0 01-.876.139.691.691 0 01-.3-.831l5.821-11.898a.659.659 0 01.407-.38.665.665 0 01.554.061l1.549.878a.693.693 0 01.213.985z" fill="#474747"/><path d="M62.128 153.098l6.247-9.555-4.378-2.502-5.153 10.274 3.284 1.783z" fill="#8F8F8F"/><path d="M73.26 140.828l57.161-98.72-13.376 3.965-52.089 89.99-2.456 5.67 6.408 3.699 4.352-4.604z" fill="#A5A5A5"/><path d="M73.261 140.828l57.161-98.72-4.458 1.33-58.55 101.116 1.495.878 4.352-4.604z" fill="#515151"/><path d="M69.762 124.086a6.585 6.585 0 00.489 7.316 6.633 6.633 0 0010.229.328 6.59 6.59 0 00.959-7.269 6.607 6.607 0 00-2.626-2.797 6.663 6.663 0 00-9.051 2.422z" fill="#474747"/><path d="M71.233 124.938a4.91 4.91 0 00.335 5.468 4.943 4.943 0 002.33 1.674 4.948 4.948 0 005.31-1.407 4.918 4.918 0 00.718-5.431 4.932 4.932 0 00-1.965-2.088 4.955 4.955 0 00-3.732-.491 4.937 4.937 0 00-2.996 2.275z" fill="#fff"/><path d="M113.95 54.085a4.985 4.985 0 004.992-4.978c0-2.748-2.235-4.977-4.992-4.977-2.758 0-4.993 2.228-4.993 4.977a4.985 4.985 0 004.993 4.978z" fill="#474747"/><path d="M113.949 52.168a3.066 3.066 0 003.071-3.06 3.067 3.067 0 00-3.071-3.062 3.066 3.066 0 00-3.07 3.061 3.066 3.066 0 003.07 3.061z" fill="#8F8F8F"/><path d="M157.737.003l-13.385 13.344 5.512 5.496 13.385-13.344-5.512-5.496zM89.503 70.867L77.723 82.61l2.624 2.616 11.78-11.744-2.624-2.616z" fill="#515151"/></svg>