<svg width="153" height="214" fill="none" xmlns="http://www.w3.org/2000/svg"><g style="mix-blend-mode:multiply" fill="#858585"><path d="M89.533 160c.64.75 3.79 1.61 5.71 2.28.37.16.9.35.95.37a14.514 14.514 0 013.35 2.19 5.824 5.824 0 003.76 1.08c.58.33 1.28.73 2.12 1.18a5.537 5.537 0 005.1.17v-.23l-3.2-2a3.629 3.629 0 012.59.34 1.167 1.167 0 01.65 1v.57c0 .19.4.29.6.15a2.635 2.635 0 001.052-3.255 2.648 2.648 0 00-.722-.995.085.085 0 01-.05 0 2.881 2.881 0 00-.33-.26l-.23-.16-1.7-1.06a5.667 5.667 0 00-2.2-.73 3.881 3.881 0 00-.74-.78c-1.71-1.47-3.29-1.06-4.55-1.59l-.36-.19c-.69-.43-2.09-2.23-3.76-3.27a3.342 3.342 0 00-2.52.43.68.68 0 00-.09.9c.25.37 1.64.64 1.94.69.3.05 1.45 1.88 2.94 2.86h.08l-1.82.23-.11-.24a.747.747 0 00-.67-.31c-.69-.14-.75.79-.68 1v.28l-5-2a7.377 7.377 0 00-.87-1c-.1 0-1.16.41-1.35 1a1.132 1.132 0 00.11 1.35zm14 1.06l-.18.09-.49.23a5.41 5.41 0 01.67-.32zm-1.79-.75a.646.646 0 00-.37.63.63.63 0 000 .36l-.3-.29-1.16.61-.29-.56-.72.39a.219.219 0 00-.09.07l-.45-.93 2.76-.41.62.13zM70.601 198a13.442 13.442 0 00-2.94-1.23c-.81-.2-1.632-.354-2.46-.46-.1-.83-.23-2.52-.23-2.52l-4.7-2.45.11-.07a.168.168 0 00.09-.15.169.169 0 00-.09-.15c-1.15-.62-5.72-3.1-7-3.89a61.694 61.694 0 00-6.47-2.83c-.34-.1-.71-.26-1 .08a.304.304 0 00-.08.24c-.4.67.25 1.25.66 1.48.41.23 4.42 2 5.19 2.38.77.38 5 3.22 6.57 4.3a1.085 1.085 0 001.19 0l2.55 1.9.1.85-5.09-2.14.08-.06a.15.15 0 000-.25c-1.51-.68-10.1-4.57-10.86-5.13-.59-.43-1.61-1.39-2.18-1.93a1.087 1.087 0 00-1-.14.472.472 0 00-.35.3c-.33.15-.1 1 .07 1.17.651.767 1.405 1.44 2.24 2 1 .59 8.22 4.46 10.29 5.57a1 1 0 001.06-.08l.18-.13c.343.177.677.37 1 .58 0 .05.34.38.34.38l4.36 2.38h.13v.28s0 .86 2 1.51 3.94-.13 5.06-.19c1.12-.06 1.29-.74 1.29-.74v-.16a.576.576 0 000-.45 1.46 1.46 0 00-.11-.25zm-4.72.68l-.12-.44 3 .33-2.88.11zm-2.27-3.11a4.75 4.75 0 01-.41-.41c.048-.106.101-.209.16-.31v-.46l-.31-.16c.141-.081.298-.132.46-.15.19.009.377.053.55.13l-.22.14v.46c.15.127.29.264.42.41-.07.15-.16.31-.16.31v.47l.22.21-.73-.1v-.06l.02-.48zm4.949-15.7l-.06-.3c.005.103.025.204.06.3z"/><path d="M82.413 190.75v.06l.06.19v.11c.027.049.057.096.09.14l.09.12.09.08.08.07.1.06 1.61.92a1.526 1.526 0 001.54-.15c.156-.087.303-.187.44-.3a4.924 4.924 0 001.73-3.49 1.548 1.548 0 00-.64-1.41l-1.59-.91-.1-.06a1.698 1.698 0 00-.28-.08h-.53a2.03 2.03 0 00-.28.1l-8.1-5-1.41-.87a1.458 1.458 0 01-.474-2.001c.133-.217.32-.396.544-.519l10.2-5.48c.11.046.224.079.34.1h.11a1.13 1.13 0 00.69-.12l1.61-.86.1-.06a1.17 1.17 0 00.22-.2.618.618 0 00.09-.11V171l.05-.08v-.14c.046-.143.08-.29.1-.44v-.13a.492.492 0 010-.12 4.177 4.177 0 00-.1-.94 5.286 5.286 0 00-.47-1.23 5.06 5.06 0 00-1-1.31 3.342 3.342 0 00-.49-.37 2.588 2.588 0 00-.48-.23h-.82l-1.64.88a1.39 1.39 0 00-.65 1.05l-11.87 6.46a5.006 5.006 0 00-2.91 4.22 4.754 4.754 0 000 .83c0 .1 0 .2.07.31a5.998 5.998 0 001.54 3c.302.308.637.579 1 .81l11.29 6.93c.005.086.022.17.05.25zm-24-29.88a5.798 5.798 0 002.39 3.18 1.834 1.834 0 001.82.19l1.87-1.08.11-.07.1-.11.09-.13a.394.394 0 00.06-.11.41.41 0 000-.09v-.23c.042-.144.072-.291.09-.44l5.82-3.41 9.17-5.37a1.642 1.642 0 001.45 0l1.87-1.08.12-.07.09-.11.1-.13c0-.06 0-.08.06-.11v-.09a.138.138 0 000-.06v-.11a.141.141 0 010-.06 2.7 2.7 0 00.1-.52v-.3a4.488 4.488 0 00-.15-1.1 5.583 5.583 0 00-.6-1.43 5.706 5.706 0 00-1.22-1.51 4.11 4.11 0 00-.6-.43 2.822 2.822 0 00-.57-.25h-.07a1.033 1.033 0 00-.24-.05h-.7l-.12.05-.12.06-1.9 1.1a1.678 1.678 0 00-.73 1.34l-14.93 8.74c-.09 0-.17-.09-.25-.11h-1.01l-.12.05-.11.06-1.28.85a1.513 1.513 0 00-.56.63 2.422 2.422 0 00-.2 1c-.008.443.05.884.17 1.31zm47.76 37.07a6.147 6.147 0 00-.59-1.44 5.91 5.91 0 00-1.23-1.51 3.383 3.383 0 00-.6-.42 2.37 2.37 0 00-.57-.26h-1.13l-.12.06-1.9 1.1a1.647 1.647 0 00-.73 1.34l-1 .59-1.23.72-1.21.7-.63.38-10.86 6.35-.25-.11h-.07l-.24-.05h-.82l-.12.06-1.91 1.1c-.242.15-.434.37-.55.63a2.32 2.32 0 00-.21 1c.004.432.075.86.21 1.27a5.728 5.728 0 002.38 3.18 1.833 1.833 0 001.82.19l1.87-1.08.11-.07.1-.11.09-.13.06-.1a.478.478 0 000-.1V211c.043-.144.073-.291.09-.44l6.82-4 8.17-4.78a1.645 1.645 0 001.45 0l1.87-1.08.12-.07.09-.11.1-.13c0-.06.05-.08.06-.1.015-.034.032-.068.05-.1v-.06a.506.506 0 010-.11.152.152 0 010-.06 2.49 2.49 0 00.1-.52V199c.188-.332.326-.689.41-1.06zm12.678-8.7c-.29-.21-1-.67-2-1.23.14-.33 0-.73-.5-1a1.158 1.158 0 00-.22-.13 3.069 3.069 0 00-1.79-.27l-.18-.1.57-.31s-1.23-3-1.49-3-2.76 1.22-2.76 1.22l-.36-.19-1 .64.05.55a5.028 5.028 0 01-.57-.27l-15.67-8.55a1.148 1.148 0 00-.49-.13.868.868 0 00-.46.08.362.362 0 00-.15.18.67.67 0 00.07.93l20.95 13.21a.93.93 0 00.67.09h.06l2.42-.96.24.13-1 .57v1.4l.6.37a9.174 9.174 0 002.18-.46c.527-.231.95-.647 1.19-1.17.06-.38.22-1.25-.36-1.6zm-24.95-11.51a.414.414 0 01-.39 0l-1-.64a.277.277 0 01.14 0c.436.174.854.389 1.25.64z"/></g><path d="M97.686 162.29l-.89-1.93a.72.72 0 00-.66-.31c-.41 0-.72.2-.66.43l.38 1.36 1.83.45z" fill="#585E63"/><path d="M97.796 162.5s-.49-.45 0-.69l.72-.38.29.56 1.16-.62.52.51a8.983 8.983 0 011.25-.23c.12 0-.21.51-.21.51l1.42.08c.09 0-.24.4-.24.4l-4.91-.14z" fill="#585E63"/><path d="M95.089 162.62a14.48 14.48 0 013.35 2.19 5.997 5.997 0 003.91 1.09 9.28 9.28 0 003.23-.71h.1a3.667 3.667 0 011.572-.243 3.695 3.695 0 011.528.443 1.174 1.174 0 01.65 1v.57c0 .19.4.29.6.15a2.638 2.638 0 00.952-3.585 2.638 2.638 0 00-.952-.965l-2-.49a6.244 6.244 0 00-5.78-.16 6.34 6.34 0 01-2.52.628 6.345 6.345 0 01-2.56-.438l-3.39-1.56c-.34.35-.09 1.2 0 1.59.423.197.861.36 1.31.49z" fill="#FFA875"/><path d="M88.43 160c.72.85 4.69 1.84 6.4 2.54-.27-.34-.29-.37 0-.73l-4.37-2.44s-1.6-1.15-1.73-1.18a1.211 1.211 0 00-.3 1.81z" fill="#585E63"/><path d="M99.097 159.84c.9.47 1.79.25 3.26 1.12.44.26.85 1.83 2.28 1.67.92-.1 2.3-.54.42-2.15-1.72-1.46-3.3-1-4.56-1.59-.6.22-1.23.46-1.81.7l.41.25z" fill="#FFD000"/><path d="M93.809 156c.25.37 1.64.64 1.94.69.3.05 1.45 1.88 2.94 2.86.58-.24 1.21-.48 1.81-.7a2.267 2.267 0 01-.35-.18c-.69-.43-3.63-3.54-5.85-3.65-.69-.02-.73.65-.49.98zm10.718 5.39c.13.08.13.2 0 .27a.505.505 0 01-.48 0c-.14-.09-.13-.21 0-.28a.502.502 0 01.48.01zm-3.969-1.92a.452.452 0 01.39 0c.1.07.1.17 0 .22a.42.42 0 01-.38 0c-.12-.07-.11-.17-.01-.22zm.061 2.32s-.89-.78.08-1.3 2.6-.25 2.39 0c-.21.25.5.41 0 .38a4.39 4.39 0 00-2 .86c-.03.19-.47.06-.47.06z" fill="#585E63"/><path d="M100.639 161.53s-.88-.79.09-1.31 2.6-.25 2.38 0c-.22.25.51.41.06.38a4.536 4.536 0 00-2 .86c-.09.19-.53.07-.53.07zm-4.119-.85l4.56-.69.07-.29-5.1.4s-.84.56.47.58z" fill="#585E63"/><path d="M96.588 160.39l4.561-.69-.67-.28-4.14.53s-1.06.43.25.44z" fill="#585E63"/><path d="M97.731 161.57l-.89-1.94a.757.757 0 00-.67-.31c-.69-.14-.75.79-.68 1l.41.77 1.83.48z" fill="#585E63"/><path d="M97.839 162.11s-.49-.45 0-.69l.72-.39.29.56 1.15-.59.52.5a9.135 9.135 0 011.25-.22c.12 0-.21.51-.21.51l1.42.08c.09 0-.24.4-.24.4l-4.9-.16z" fill="#585E63"/><path d="M95.13 161.9a14.457 14.457 0 013.35 2.18 5.876 5.876 0 003.911 1.09 9.268 9.268 0 003.23-.7h.1a3.623 3.623 0 013.1.2 1.149 1.149 0 01.65 1v.57c0 .19.4.28.6.14 1.63-1.14 1.5-2.84-.32-4l-1.7-1.06a6.265 6.265 0 00-5.77-.15 6.328 6.328 0 01-5.08.19l-1.46-.6c-.307.338-.59.696-.85 1.07l.24.07z" fill="#FFD000"/><path d="M88.466 159.24c.72.86 4.68 1.85 6.4 2.54.26-.375.544-.732.85-1.07l-5.18-2.1a7.377 7.377 0 00-.87-1c-.14-.03-1.95.73-1.2 1.63z" fill="#585E63"/><path d="M99.137 159.11c.89.47 1.78.25 3.26 1.12.44.26.85 1.84 2.28 1.68.92-.11 2.3-.54.41-2.15-1.71-1.47-3.29-1.06-4.55-1.59-.6.22-1.23.46-1.81.7.13.13.27.13.41.24z" fill="#FFD000"/><path d="M93.846 155.32c.25.36 1.64.63 1.93.69.29.06 1.46 1.87 2.95 2.86.58-.24 1.21-.48 1.81-.7l-.36-.19c-.69-.43-2.09-2.23-3.76-3.27-.59-.37-2.81.29-2.57.61zm10.722 5.34a.147.147 0 01.096.14.15.15 0 01-.096.14.536.536 0 01-.48 0 .15.15 0 01-.069-.055.146.146 0 010-.17.15.15 0 01.069-.055.542.542 0 01.48 0zm-3.971-1.92a.426.426 0 01.39 0c.1.06.1.16 0 .22a.385.385 0 01-.38 0c-.12-.06-.12-.16-.01-.22zm.842 4.62a1.777 1.777 0 011.63.06c.44.28.43.7 0 .94a1.792 1.792 0 01-1.63-.06c-.44-.3-.44-.7 0-.94z" fill="#585E63"/><path d="M97.546 163.65c-.12.23.5.59.81.85a5.877 5.877 0 003.91 1.08 9.035 9.035 0 003.23-.7h.1a3.643 3.643 0 013.1.2c.298.219.532.512.68.85 0 0-.25-2-3.43-1.31-1.13.26-2.31 1-4.56.76a7.4 7.4 0 01-2.06-.59c-.33-.25-1.71-1.3-1.78-1.14z" fill="#FFD000"/><path d="M101.199 165.31h.45c.37.025.741.025 1.11 0l.5.12 6.13 1.52v.23a5.533 5.533 0 01-5.1-.17c-1.11-.6-2-1.1-2.65-1.48l-.44-.22z" fill="#585E63"/><path d="M101.648 165.37c.37.025.741.025 1.11 0a11.964 11.964 0 002.87-.71l.16.11 3.6 2.24a5.55 5.55 0 01-5.1-.16c-.9-.486-1.65-.906-2.25-1.26l-.39-.22z" fill="#585E63"/><path d="M55.22 194.8l1-.75s-10.22-4.61-11.08-5.23c-.58-.43-1.61-1.39-2.17-1.93-.22-.21-.56-.66-.92-.53 0 0 0-.44-.51-.22-.32.14-.08 1 .09 1.16.651.767 1.405 1.44 2.24 2 1 .59 8.22 4.46 10.29 5.57a1.005 1.005 0 001.06-.07zm3.117-2.07l1.22-.73s-5.79-3.12-7.3-4a62.686 62.686 0 00-6.47-2.83c-.34-.1-.84-1-1.06-.59-.4.66.25 1.24.66 1.47.41.23 4.42 2 5.19 2.38.77.38 5 3.22 6.57 4.3a1.093 1.093 0 001.19 0z" fill="#FFA875"/><path d="M69.638 198.76l-5.74-.63-2.77-.13-4.36-2.41s-.31-.33-.34-.38c-.03-.05-1.4-.77-1.4-.77l-.11-1.11 7.38 3.12c1.435.163 2.86.4 4.27.71 1.053.266 2.078.634 3.06 1.1a.69.69 0 01.01.5z" fill="#585E63"/><path d="M69.629 198.3l-5.74-.63-2.77-.09-4.36-2.41-.34-.38c0-.06-2.45-1.36-2.45-1.36l.94-.52 7.38 3.09c1.434.159 2.86.392 4.27.7 1.028.314 2.016.75 2.94 1.3.054.095.098.196.13.3z" fill="#585E63"/><path d="M58 192.48V192l5.68 1.86s.43 3.25.52 3.3c.234.632.434 1.277.6 1.93l4.84-.65v.45s-.17.68-1.29.74c-1.12.06-3 .84-5.06.19-2.06-.65-2-1.51-2-1.51l-.4-3.7-2.89-2.13zm3.69 1.93c0 .08.57 0 .57 0v.46s-.28.46-.24.62c.04.16.49.1.49.1v.41s-.27.46-.23.62c.04.16.5.56.5.56s-.62.42-.56.58c.222.194.505.304.8.31.284-.021.549-.15.74-.36.06-.16-.5-.58-.5-.58s.27-.46.23-.62c-.04-.16-.5-.56-.5-.56v-.45s.27-.07.25-.17c-.02-.1-.51-.55-.51-.55v-.46s.52.13.5.06c-.02-.07-.57-.34-.83-.33-.26.01-.7.22-.72.36h.01z" fill="#585E63"/><path d="M57.7 191.81l1.22-.63 5 2.58s.22 2.91.31 3c.233.633.433 1.277.6 1.93l4.85-.19s-.17.67-1.29.73c-1.12.06-3 .84-5.06.19-2.06-.65-2-1.51-2-1.51l-.4-3.7-3.23-2.4zm4 2.14c0 .13.57.41.57.41s-.27.46-.24.62c.03.16.5.56.5.56s-.27.46-.23.62c.04.16.5.56.5.56s-.62.42-.55.58c.218.194.497.307.79.32.24 0 .7-.23.74-.37.04-.14-.5-.57-.5-.57s.27-.47.24-.63c-.03-.16-.51-.55-.51-.55s.27-.47.24-.63c-.03-.16-.5-.55-.5-.55s.53-.28.5-.4c-.03-.12-.58-.34-.83-.33-.25.01-.72.23-.74.41l.02-.05z" fill="#585E63"/><path d="M64.737 197.56l-.22-.78s-2.25 0-2.35.06c-.1.06-.44.29-.19.58a.84.84 0 00.33.284.834.834 0 00.43.076l2-.22z" fill="#585E63"/><path d="M62.298 197a1.004 1.004 0 01.9 0c.26.14.26.37 0 .52a1 1 0 01-.91 0 .28.28 0 01.01-.52z" fill="#585E63"/><path d="M55.127 193.94l.88-.66a.147.147 0 00.067-.125.153.153 0 00-.018-.071.159.159 0 00-.05-.054c-1.51-.68-10.1-4.57-10.86-5.13-.59-.43-1.61-1.39-2.18-1.93a1.087 1.087 0 00-1-.14c-.35.12-.47.36-.29.56a10.283 10.283 0 002.23 2c1 .6 8.44 4.58 10.38 5.62a.819.819 0 00.84-.07zm3.041-2.03l1.11-.67a.167.167 0 00.09-.15.17.17 0 00-.09-.15c-1.15-.62-5.72-3.1-7-3.89a61.696 61.696 0 00-6.47-2.83c-.34-.1-.71-.26-1 .08-.29.34.15.57.57.8.42.23 4.41 2 5.19 2.38.78.38 5.25 3.41 6.71 4.4a.837.837 0 00.89.03z" fill="#FFD000"/><path d="M83.762 166.396l-1.637.875 2.9 5.429 1.637-.874-2.9-5.43z" fill="#585E63"/><path d="M85.266 171.61l.44.83 1.61-.86.1-.06a1.17 1.17 0 00.22-.2.618.618 0 00.09-.11v-.3c.046-.143.08-.29.1-.44v-.13a.492.492 0 010-.12l-2.56 1.39zm-1.016-1.89l.62 1.16 3.06-1.65a5.281 5.281 0 00-.47-1.23l-3.21 1.72zm-1.25-2.3l.47.87 3-1.6a3.342 3.342 0 00-.49-.37 2.588 2.588 0 00-.48-.23l-2.5 1.33z" fill="#585E63"/><path d="M84.867 170.88l.4.73 2.76-1.48a4.07 4.07 0 00-.1-.9l-3.06 1.65zm-1.39-2.59l.77 1.43 3.21-1.72a5.06 5.06 0 00-1-1.31l-2.98 1.6zm-.476-.87l2.48-1.33h-.96a.335.335 0 00-.1 0l-1.64.88.22.45z" fill="#585E63"/><path d="M86.398 171.05a4.86 4.86 0 00-2.07-3.84c-1.19-.73-2.19-.2-2.23 1.18a4.827 4.827 0 002.07 3.84c1.19.77 2.19.21 2.23-1.18z" fill="#585E63"/><path d="M86.398 171.05a4.86 4.86 0 00-2.07-3.84c-1.19-.73-2.19-.2-2.23 1.18a4.827 4.827 0 002.07 3.84c1.19.77 2.19.21 2.23-1.18z" fill="#585E63"/><path d="M83.178 191.75l.68-1.1 1.26-2 .06-.1.64-1-10.11-6.19-1.41-.87a1.465 1.465 0 01-.688-1.28 1.458 1.458 0 01.758-1.24l10.93-5.97c.46-.1.77-.53.79-1.22a3.346 3.346 0 00-.21-1.18 3.82 3.82 0 00-.3-.65c-.25-.46-.59-.865-1-1.19h-.06l-.13-.09a1.19 1.19 0 00-1.43-.06l-12.69 6.91a4.998 4.998 0 00-2.91 4.22 4.754 4.754 0 000 .83 5.924 5.924 0 002.61 4.09l13.21 8.09z" fill="#585E63"/><path d="M84 189.34l1-.7.1-.07-13.72-8.37a2.39 2.39 0 01-.38-3.72l14.5-7.43a3.884 3.884 0 00-1-1.19c-4.39 2.39-6.89 3.8-14 7.64a3.248 3.248 0 00-1.578 2.828 3.244 3.244 0 001.659 2.782c6.31 3.77-2.26-1.59 13.42 8.23z" fill="#585E63"/><path d="M75.64 181.3l-1.42-.88a1.45 1.45 0 01.08-2.51L85.23 172c.45-.09.76-.52.78-1.21a3.17 3.17 0 00-.2-1.19l-13.45 7.22a1.462 1.462 0 00-.555 2.024c.133.225.325.41.554.536l3.28 1.92zm7.538 10.45l.68-1.1c-2.4-1.43-3.44-1.74-9.23-5.16-7.64-4.53-7.21-5.86-7.23-5.92a5.918 5.918 0 002.61 4.09l13.17 8.09z" fill="#585E63"/><path d="M68.548 179.65c-.87-.81-1-2.3.33-3.51s8.74-4.7 8.74-4.7-4.94 2.81-7.66 4.56a2.324 2.324 0 00-1.035 2.737c.111.335.298.641.545.893a36.701 36.701 0 004.81 3.68 46.276 46.276 0 01-5.73-3.66zm16.424 6.639l-3.07 5.352 1.614.925 3.069-5.352-1.613-.925z" fill="#585E63"/><path d="M86.12 188l.47-.81-1.59-.91-.1-.06a1.698 1.698 0 00-.28-.08h-.53a1.869 1.869 0 00-.43.15l-.11.06-.12.06 2.69 1.59zm-1.06 1.88l.65-1.14-3-1.72a4.81 4.81 0 00-.8 1l3.15 1.86zm-1.31 2.27l.5-.86-2.94-1.69a4.424 4.424 0 000 .62 2.878 2.878 0 000 .53l2.44 1.4z" fill="#585E63"/><path d="M85.71 188.74l.41-.73-2.72-1.55a3.24 3.24 0 00-.7.56l3.01 1.72zm-1.461 2.55l.81-1.41-3.16-1.82a4.94 4.94 0 00-.59 1.54l2.94 1.69zm-.5.86l-2.44-1.4v.06l.06.19v.17a.345.345 0 000 .08l.09.12.09.08.08.07.1.06 1.61.92.41-.35z" fill="#585E63"/><path d="M85.049 187.35a4.842 4.842 0 00-2.17 3.79c0 1.39 1 2 2.18 1.26a4.814 4.814 0 002.17-3.79c-.01-1.39-.98-1.96-2.18-1.26z" fill="#585E63"/><path d="M85.049 187.35a4.842 4.842 0 00-2.17 3.79c0 1.39 1 2 2.18 1.26a4.814 4.814 0 002.17-3.79c-.01-1.39-.98-1.96-2.18-1.26z" fill="#585E63"/><path d="M85.046 187.8a3.998 3.998 0 00-1.78 3.11c0 1.15.81 1.61 1.79 1a3.998 3.998 0 001.78-3.11c-.01-1.11-.84-1.57-1.79-1zm-6.211-42.12l-1.905 1.1 3.64 6.304 1.905-1.1-3.64-6.304z" fill="#585E63"/><path d="M80 152.13l.55 1 1.87-1.08.12-.07.09-.11.1-.13c0-.06 0-.08.06-.11v-.09a.141.141 0 000-.06v-.11a.141.141 0 010-.06 2.7 2.7 0 00.1-.52v-.3L80 152.13zm-1.242-2.19l.77 1.33 3.55-2.05a5.568 5.568 0 00-.6-1.43l-3.72 2.15zm-1.539-2.68l.58 1 3.46-2a4.12 4.12 0 00-.6-.43 2.826 2.826 0 00-.57-.25l-2.87 1.68z" fill="#585E63"/><path d="M79.531 151.27l.5.86 3.2-1.85a4.446 4.446 0 00-.15-1.06l-3.55 2.05zm-1.734-3l1 1.67 3.72-2.15a5.71 5.71 0 00-1.22-1.51l-3.5 1.99zm-.579-1.01l2.87-1.66h-.07a1.035 1.035 0 00-.24-.05h-.7l-.12.05-.12.06-1.9 1.1.28.5z" fill="#585E63"/><path d="M81.35 151.43a5.689 5.689 0 00-2.59-4.46c-1.43-.82-2.58-.16-2.58 1.47a5.678 5.678 0 002.58 4.46c1.43.82 2.59.16 2.59-1.47z" fill="#585E63"/><path d="M81.35 151.43a5.689 5.689 0 00-2.59-4.46c-1.43-.82-2.58-.16-2.58 1.47a5.678 5.678 0 002.58 4.46c1.43.82 2.59.16 2.59-1.47z" fill="#585E63"/><path d="M80.88 151.16a4.694 4.694 0 00-2.12-3.66c-1.17-.67-2.12-.13-2.12 1.21a4.691 4.691 0 002.12 3.66c1.17.63 2.12.13 2.12-1.21z" fill="#585E63"/><path d="M59.848 157.7l17.5-10.25 2.87 4.98-17.5 10.25-2.87-4.98z" fill="#585E63"/><path d="M62.281 161.92l.44.76 17.48-10.23.09-.06c.071-.058.138-.122.2-.19l.07-.1v-.09a.159.159 0 000-.07v-.13c.055-.147.089-.302.1-.46v-.24l-18.38 10.81zm-1-1.73l.61 1.05 18.8-11a4.506 4.506 0 00-.47-1.14l-18.94 11.09zm-1.222-2.11l.47.8 18.72-11a2.5 2.5 0 00-.47-.33 1.806 1.806 0 00-.45-.2l-18.27 10.73z" fill="#585E63"/><path d="M61.89 161.24l.39.68 18.53-10.84c0-.281-.04-.56-.12-.83l-18.8 10.99zm-1.359-2.36l.75 1.31 18.94-11.08a4.53 4.53 0 00-1-1.19l-18.69 10.96zm-.473-.8l18.27-10.69h-.93l-17.55 10.31.21.38z" fill="#585E63"/><path d="M63.32 161.37a4.483 4.483 0 00-2-3.52c-1.12-.65-2-.13-2 1.16a4.522 4.522 0 002 3.52c1.09.65 2 .13 2-1.16z" fill="#585E63"/><path d="M63.32 161.37a4.483 4.483 0 00-2-3.52c-1.12-.65-2-.13-2 1.16a4.522 4.522 0 002 3.52c1.09.65 2 .13 2-1.16z" fill="#585E63"/><path d="M62.998 161.15a3.654 3.654 0 00-1.68-2.88c-.92-.53-1.67-.11-1.67.95a3.713 3.713 0 001.67 2.89c.89.53 1.68.1 1.68-.96z" fill="#585E63"/><path d="M59.772 156.826l-1.905 1.1 3.64 6.304 1.905-1.1-3.64-6.304z" fill="#585E63"/><path d="M61 163.28l.56 1 1.87-1.08.11-.07.1-.11.09-.13a.397.397 0 00.06-.11.41.41 0 000-.09v-.23a2.7 2.7 0 00.1-.52.767.767 0 000-.15v-.15c0-.05-2.89 1.64-2.89 1.64zm-1.3-2.19l.77 1.33 3.54-2a5.697 5.697 0 00-.59-1.43l-3.72 2.1zm-1.552-2.68l.59 1 3.45-2a4.745 4.745 0 00-.59-.43 3.474 3.474 0 00-.57-.25l-2.88 1.68z" fill="#585E63"/><path d="M60.469 162.42l.49.86 3.2-1.85a4.006 4.006 0 00-.15-1.06l-3.54 2.05zm-1.731-2.99l1 1.66 3.72-2.15a5.545 5.545 0 00-1.23-1.51l-3.49 2zm-.59-1.02l2.85-1.66h-1.01l-.12.05-.11.06-1.91 1.1.3.45z" fill="#585E63"/><path d="M62.28 162.58a5.7 5.7 0 00-2.58-4.46c-1.43-.82-2.59-.16-2.59 1.47a5.688 5.688 0 002.59 4.46c1.42.82 2.58.16 2.58-1.47z" fill="#585E63"/><path d="M62.28 162.58a5.7 5.7 0 00-2.58-4.46c-1.43-.82-2.59-.16-2.59 1.47a5.688 5.688 0 002.59 4.46c1.42.82 2.58.16 2.58-1.47z" fill="#585E63"/><path d="M61.818 162.31a4.69 4.69 0 00-2.12-3.66c-1.18-.67-2.12-.13-2.12 1.21a4.647 4.647 0 002.12 3.66c1.17.67 2.12.13 2.12-1.21zm39.017 32.083l-1.905 1.1 3.64 6.304 1.905-1.1-3.64-6.304z" fill="#585E63"/><path d="M102 200.84l.55 1 1.87-1.08.12-.07.09-.11.1-.13c0-.06.05-.08.06-.1a.933.933 0 01.05-.1v-.06a.506.506 0 010-.11.151.151 0 010-.06c.051-.169.085-.344.1-.52v-.5l-2.94 1.84zm-1.25-2.19l.77 1.33 3.55-2a6.147 6.147 0 00-.59-1.44l-3.73 2.11zM99.21 196l.58 1 3.461-2a3.42 3.42 0 00-.6-.42 2.446 2.446 0 00-.57-.26l-2.87 1.68z" fill="#585E63"/><path d="M101.516 200l.5.86 3.2-1.85a3.884 3.884 0 00-.15-1.05l-3.55 2.04zm-1.726-3l.999 1.66 3.73-2.15a5.932 5.932 0 00-1.23-1.51l-3.5 2zm-.58-1l2.87-1.66h-1.13l-.12.06-1.9 1.1.28.5z" fill="#585E63"/><path d="M103.338 200.14a5.704 5.704 0 00-2.59-4.46c-1.42-.82-2.58-.16-2.58 1.48a5.7 5.7 0 002.58 4.45c1.43.83 2.59.17 2.59-1.47z" fill="#585E63"/><path d="M103.338 200.14a5.704 5.704 0 00-2.59-4.46c-1.42-.82-2.58-.16-2.58 1.48a5.7 5.7 0 002.58 4.45c1.43.83 2.59.17 2.59-1.47z" fill="#585E63"/><path d="M102.869 199.87a4.694 4.694 0 00-2.12-3.66c-1.17-.67-2.12-.13-2.12 1.21a4.678 4.678 0 002.12 3.66c1.17.68 2.12.13 2.12-1.21z" fill="#585E63"/><path d="M81.836 206.41l17.5-10.25 2.87 4.98-17.5 10.25-2.87-4.98z" fill="#585E63"/><path d="M84.266 210.63l.44.76 17.48-10.23.09-.06c.07-.058.137-.122.2-.19l.07-.1v-.08a.357.357 0 000-.08v-.13c.055-.147.088-.302.1-.46v-.24l-18.38 10.81zm-1-1.73l.61 1 18.8-11a4.71 4.71 0 00-.47-1.14l-18.94 11.14zm-1.219-2.11l.47.8 18.73-11a3.747 3.747 0 00-.48-.33 1.814 1.814 0 00-.45-.2l-18.27 10.73z" fill="#585E63"/><path d="M83.879 210l.39.68 18.53-10.84a2.99 2.99 0 00-.12-.83L83.879 210zm-1.363-2.41l.75 1.31 18.94-11.08a4.72 4.72 0 00-1-1.19l-18.69 10.96zm-.466-.8l18.271-10.69h-.74a.24.24 0 00-.1 0h-.09l-17.5 10.25.16.44z" fill="#585E63"/><path d="M85.309 210.08a4.488 4.488 0 00-2-3.52c-1.12-.65-2-.13-2 1.16a4.485 4.485 0 002 3.52c1.09.65 2 .13 2-1.16z" fill="#585E63"/><path d="M84.713 211.385c.791-.462.784-1.947-.016-3.315-.8-1.369-2.09-2.103-2.881-1.64-.792.462-.785 1.947.015 3.315.8 1.369 2.09 2.103 2.882 1.64z" fill="#585E63"/><path d="M84.998 209.87a3.684 3.684 0 00-1.68-2.89c-.92-.53-1.67-.11-1.67 1a3.7 3.7 0 001.67 2.89c.88.48 1.68.06 1.68-1z" fill="#585E63"/><path d="M81.765 205.544l-1.906 1.1 3.64 6.304 1.906-1.1-3.64-6.304z" fill="#585E63"/><path d="M83 212l.56 1 1.87-1.08.11-.07.1-.11.09-.13.06-.1v-.33c.051-.169.085-.344.1-.52a.767.767 0 000-.15v-.15c0-.05-2.89 1.64-2.89 1.64zm-1.312-2.2l.77 1.33 3.54-2a5.758 5.758 0 00-.59-1.44l-3.72 2.11zm-1.548-2.68l.59 1 3.45-2a3.826 3.826 0 00-.59-.42 2.896 2.896 0 00-.57-.26l-2.88 1.68zm2.32 4.01l.49.86 3.21-1.85a4.31 4.31 0 00-.16-1l-3.54 1.99z" fill="#585E63"/><path d="M80.727 208.14l1 1.66 3.72-2.15a5.546 5.546 0 00-1.23-1.51l-3.49 2zm-.587-1.02l2.88-1.66h-.07l-.24-.05h-.82l-.12.06-1.91 1.1.28.55z" fill="#585E63"/><path d="M84.268 211.29a5.723 5.723 0 00-2.58-4.46c-1.43-.82-2.59-.16-2.59 1.48a5.69 5.69 0 002.59 4.45c1.42.83 2.58.17 2.58-1.47z" fill="#585E63"/><path d="M84.268 211.29a5.723 5.723 0 00-2.58-4.46c-1.43-.82-2.59-.16-2.59 1.48a5.69 5.69 0 002.59 4.45c1.42.83 2.58.17 2.58-1.47z" fill="#585E63"/><path d="M83.81 211a4.686 4.686 0 00-2.12-3.66c-1.17-.67-2.12-.13-2.12 1.21a4.673 4.673 0 002.12 3.66c1.17.7 2.12.15 2.12-1.21zm30.858-19.94v1.4a9.125 9.125 0 002.18-.46c.524-.235.946-.65 1.19-1.17.16-.37.32-1.24-.26-1.59a71.31 71.31 0 00-8.79-3.63l-1 .64 8.1 4.37-1.42.44z" fill="#585E63"/><path d="M112.726 187.07l-1.89 1.04.56.33 1.88-1.03-.55-.34zm-.649-.39l-1.889 1.03.55.33 1.89-1.03-.551-.33z" fill="#585E63"/><path d="M90.738 177.65l21 13.21a.93.93 0 00.67.09h.06l2.7-1.05c.06 0-3.77-1.3-3.77-1.3l-1.42-.86.64-.36c.1-.05 0-.16-.15-.17h-.56a5.37 5.37 0 01-2.45-.65l-15.9-9.32c-.15-.09-.2-.2-.37-.21-.17-.01-.33-.36-.45-.29s-.28.74 0 .91z" fill="#FFA875"/><path d="M113.927 189c.426.272.824.583 1.19.93l-2.7 1.05h-.06c-.15-.14-.42-.4-.35-.65.13-.51.83-1 1.92-1.33z" fill="#FFD000"/><path d="M114.201 188.39l-2.24 1.22.62.38 2.24-1.22-.62-.38z" fill="#585E63"/><path d="M114.818 188.77l-2.81 1.53.62.38 2.24-1.22-.05-.69z" fill="#585E63"/><path d="M111.961 189.61l.05.69.62.38-.05-.69-.62-.38zm2.799 1.16l-.09.29a9.15 9.15 0 002.19-.45c.64-.31 1.24-.93 1-1.28s-8.86-5.11-8.86-5.11l-1 .64 8.57 4.83-1.81 1.08z" fill="#585E63"/><path d="M111.631 188.25a35.774 35.774 0 01-3.55-2.16l-.12-1.23 3.89 2.19-.22 1.2zm4.806 1.13l-2.39 1.31.62.37 2.39-1.3c.18-.1.2-.25.05-.34h-.08a.65.65 0 00-.59-.04z" fill="#585E63"/><path d="M93.23 178a15.154 15.154 0 00-1.72-.94h-.28s-.28-.32-.2-.37c.107-.04.218-.07.33-.09 0 0 1.94 1 2 1 .06 0-.13.4-.13.4z" fill="#FFA875"/><path d="M115.218 187c.71.46.74 1.1.11 1.44a.761.761 0 01-.18.08l-2.7 1a.864.864 0 01-.73-.08l-20.83-12.34c-.29-.17-.32-.42-.07-.56a.868.868 0 01.46-.08c.17.006.338.051.49.13l15.67 8.55c.758.406 1.6.628 2.46.65h.56c.15 0 .24.12.14.17l-.64.36 1.42.86 1.42-.53a3 3 0 012.2.17c.08.051.154.111.22.18zm-23.46-10.09a.478.478 0 00-.38 0c-.14 0-.14.16 0 .24l1 .64a.435.435 0 00.4 0c.1-.06.09-.16 0-.23l-1.02-.65z" fill="#FFD000"/><path d="M111.66 188.67a.434.434 0 01-.4 0l-18.85-10.93a.435.435 0 00.4 0 .111.111 0 00.053-.043.111.111 0 00.017-.067s0-.08-.1-.12l18.85 10.94c.12.06.13.16.03.22zm3.339-1.83a3 3 0 00-2.2-.17l-1.42.53.53 1.33 3.09-1.69z" fill="#FFD000"/><path d="M113.598 186.16l-2.07 1.13-1.57-.95.2-.1-.81-1.83s2.5-1.21 2.76-1.22c.26-.01 1.49 2.97 1.49 2.97z" fill="#000"/><path d="M110.849 185.7a.717.717 0 01.804.295.709.709 0 01.106.285c0 .39-.54.93-.88 1.12-.34.19-.67-.27-.66-.66a1.375 1.375 0 01.63-1.04z" fill="#585E63"/><path d="M111.162 185.91c.34-.18.61 0 .6.37a1.34 1.34 0 01-.63 1c-.34.19-.61 0-.6-.37a1.345 1.345 0 01.63-1z" fill="#585E63"/><path d="M111.568 186.14a.689.689 0 01.91.57c0 .39-.54.93-.88 1.12-.34.19-.67-.26-.66-.65a1.328 1.328 0 01.63-1.04z" fill="#585E63"/><path d="M111.88 186.35c.34-.19.61 0 .6.36a1.326 1.326 0 01-.63 1c-.34.19-.61 0-.6-.36a1.335 1.335 0 01.63-1zm2.759 6.11l-.6-.37.01-1.4.62.37-.03 1.4zM78.62 85.06l-.33.57-1.1-.64h-.07L77 84.8v-.08c0-.08-.06-.1-.06-.11a.271.271 0 010-.1 1.25 1.25 0 01-.08-.35V84l1.76 1.06zm.758-1.29l-.46.79-2.09-1.22c.082-.298.203-.584.36-.85l2.19 1.28zm.922-1.57l-.35.59-2-1.18a2.51 2.51 0 01.36-.25c.105-.067.22-.117.34-.15l1.65.99z" fill="#585E63"/><path d="M78.918 84.56l-.3.5-1.88-1.06a2.27 2.27 0 01.09-.62l2.09 1.18zm1.08-1.77l-.57 1-2.19-1.28a3.12 3.12 0 01.72-.88l2.04 1.16zm.302-.59l-1.69-1a.49.49 0 01.18 0 .983.983 0 01.23 0h.32l1.12.66-.16.34z" fill="#585E63"/><path d="M77.848 84.64a3.339 3.339 0 011.54-2.64c.84-.48 1.52-.09 1.52.88a3.37 3.37 0 01-1.54 2.62c-.85.5-1.53.11-1.52-.86z" fill="#585E63"/><path d="M77.848 84.64a3.339 3.339 0 011.54-2.64c.84-.48 1.52-.09 1.52.88a3.37 3.37 0 01-1.54 2.62c-.85.5-1.53.11-1.52-.86z" fill="#585E63"/><path d="M134.929 85.26v25a4 4 0 01-.58 2.15 3.007 3.007 0 01-1 1 3.003 3.003 0 01-1.53.41 3.634 3.634 0 01-1.2-.21 4.379 4.379 0 01-.84-.38l-51.11-27.9a.619.619 0 01-.39-.34 1.07 1.07 0 01-.11-.51 2.56 2.56 0 01.38-1.25l.18-.27.21-.25a2.06 2.06 0 01.5-.39 1.1 1.1 0 01.5-.17.6.6 0 01.54.22l49.73 27.1a.858.858 0 001.173-.311.874.874 0 00.117-.429V85.26h3.43z" fill="#585E63"/><path d="M131.5 109.86a1.266 1.266 0 01-.622 1.106 1.26 1.26 0 01-1.268.004l-.76-.43L79.31 83.7l-.63-.72.21-.25a2.05 2.05 0 01.5-.39 1.1 1.1 0 01.5-.17l.27.06.27.16 49.73 27.1a.859.859 0 001.29-.74v-4.28l.05 5.39z" fill="#585E63"/><path d="M134.93 85.26v25a3.494 3.494 0 01-1.63 3.16 3 3 0 01-1.53.41 3.638 3.638 0 01-1.2-.21c3.68.27 2.78-1.57 2.78-1.57V85.26h1.58z" fill="#585E63"/><path d="M133.298 113.43a3.003 3.003 0 01-1.53.41 3.634 3.634 0 01-1.2-.21 4.441 4.441 0 01-.84-.38l-51.11-27.9-.19-.11-.2-.23a1.07 1.07 0 01-.11-.51l52.45 28.68a5.652 5.652 0 002.73.25z" fill="#585E63"/><path d="M129.15 110.54a.303.303 0 01-.3 0L78.5 83.25l.18-.27.21-.25L129.15 110a.3.3 0 01.115.114.305.305 0 010 .312.3.3 0 01-.115.114z" fill="#fff"/><path d="M134.928 85.26v25a4 4 0 01-.58 2.15c.26-4.3.23-23.06.21-27.16l.37.01z" fill="#585E63"/><path d="M135.24 85.27h-4.06v1.22h4.06v-1.22z" fill="#585E63"/><path d="M134.617 85.27h.62v1.2a.268.268 0 000 .08c.006.063.006.127 0 .19v.08l-.06.1-.18.08a1.25 1.25 0 01-.24.23h-.14v-1.96zm-1.406 0h.86v2.28c-.281.072-.57.109-.86.11v-2.39zm-2 1.44v.06c0 .06.01-.04 0-.06zm.266-1.44h.66v2.22a2.059 2.059 0 01-.37-.17 1.618 1.618 0 01-.29-.2v-1.85z" fill="#585E63"/><path d="M134.07 85.27h.55v2.06a3.27 3.27 0 01-.55.22v-2.28zm-1.929 0h1.07v2.39a3.075 3.075 0 01-1.07-.17v-2.22zm-.665 0v1.85l-.12-.13c-.1-.15-.11-.17-.11-.19a.451.451 0 010-.09.215.215 0 010-.08.165.165 0 010-.07v-1.29h.23z" fill="#585E63"/><path d="M134.65 86.1a3.19 3.19 0 01-2.87 0c-.8-.46-.8-1.2 0-1.65a3.158 3.158 0 012.87 0 .884.884 0 01.573.825.883.883 0 01-.573.825z" fill="#585E63"/><path d="M134.65 86.1a3.19 3.19 0 01-2.87 0c-.8-.46-.8-1.2 0-1.65a3.158 3.158 0 012.87 0 .884.884 0 01.573.825.883.883 0 01-.573.825z" fill="#585E63"/><path d="M134.39 86a2.62 2.62 0 01-2.36 0 .722.722 0 01-.35-1.097.722.722 0 01.35-.263 2.62 2.62 0 012.36 0c.61.36.61.93 0 1.36zm-45.112 47.41l.46.28-.94 1.45-.47-.27.95-1.46z" fill="#585E63"/><path d="M88.478 134.65l-.15.22.46.26a.885.885 0 00.39 0c.07-.03-.7-.48-.7-.48zm.332-.51l-.2.31.86.5c.092-.081.173-.176.24-.28l-.9-.53z" fill="#585E63"/><path d="M89.209 133.52l-.15.24.83.49a1.005 1.005 0 000-.17.767.767 0 000-.15l-.68-.41z" fill="#fff"/><path d="M88.607 134.45l-.13.2.77.45c.079-.04.153-.091.22-.15l-.86-.5zm.452-.69l-.25.38.9.53c.086-.127.147-.269.18-.42l-.83-.49zm.151-.24l.69.41a.138.138 0 000-.07 3.003 3.003 0 00-.6-.45l-.09.11z" fill="#585E63"/><path d="M88.776 134.84a1.309 1.309 0 00.67-1c0-.39-.26-.55-.62-.37a1.364 1.364 0 00-.67 1c-.01.39.27.53.62.37z" fill="#585E63"/><path d="M88.776 134.84a1.309 1.309 0 00.67-1c0-.39-.26-.55-.62-.37a1.364 1.364 0 00-.67 1c-.01.39.27.53.62.37z" fill="#fff"/><path d="M89.309 133.81v-.07a.243.243 0 00-.1-.21.302.302 0 00-.31 0 1.22 1.22 0 00-.24.17 1.146 1.146 0 00-.14.17 1.16 1.16 0 00-.22.57.342.342 0 00.11.29.323.323 0 00.31 0 .99.99 0 00.38-.34c.065-.096.119-.2.16-.31a.844.844 0 00.05-.27zm-4.812-88.883l-.009.87 2.88.03.01-.87-2.88-.03z" fill="#585E63"/><path d="M86.93 45.82h.44V45a.887.887 0 000-.19c-.18-.26-.23-.31-.29-.35h-.05l-.1 1.36zm-1-.01h.61v-1.62a1.999 1.999 0 00-.61-.09v1.71zm-1.22-.01h.46v-1.58a1.98 1.98 0 00-.26.12 1.102 1.102 0 00-.21.14l.01 1.32zm1.83.02h.39v-1.46a1.678 1.678 0 00-.39-.16v1.62z" fill="#585E63"/><path d="M85.168 45.8h.76v-1.7a2.37 2.37 0 00-.76.11v1.59zm-.458 0v-1.32l-.08.09c-.12.22-.12.24-.13.25v.92l.21.06z" fill="#585E63"/><path d="M86.999 45.23a2.26 2.26 0 00-2 0 .63.63 0 000 1.18 2.29 2.29 0 002 0 .62.62 0 000-1.18z" fill="#585E63"/><path d="M86.999 45.23a2.26 2.26 0 00-2 0 .63.63 0 000 1.18 2.29 2.29 0 002 0 .62.62 0 000-1.18z" fill="#585E63"/><path d="M85 45.4l-.09.06a.49.49 0 00-.23.33c0 .15.11.29.31.41.136.079.285.133.44.16.121.03.245.05.37.06a2 2 0 001-.21c.2-.11.32-.25.32-.39a.51.51 0 00-.3-.4 1.83 1.83 0 00-.81-.22 2.241 2.241 0 00-.59 0c-.149.048-.29.115-.42.2zm12.435 17.124l-1.576 2.727.823.476 1.575-2.728-.822-.475z" fill="#585E63"/><path d="M96.107 64.85l-.24.41.81.47.19.07h.07c.147-.013.291-.043.43-.09h.06l-1.32-.86zm.553-.95l-.34.58 1.54.88c.158-.16.296-.337.41-.53l-1.61-.93zm.67-1.16l-.26.44 1.5.86c.01-.103.01-.207 0-.31.011-.09.011-.18 0-.27l-1.24-.72z" fill="#585E63"/><path d="M96.32 64.48l-.21.37 1.38.8c.132-.085.256-.182.37-.29l-1.54-.88zm.75-1.3l-.41.72 1.61.93c.142-.245.243-.512.3-.79l-1.5-.86zm.258-.44l1.24.72v-.13c-.1-.19-.11-.2-.13-.21l-.83-.48-.28.1z" fill="#585E63"/><path d="M96.66 65.19a2.48 2.48 0 001.11-1.93c0-.72-.5-1-1.11-.65a2.431 2.431 0 00-1.12 1.93c0 .71.46 1 1.12.65z" fill="#585E63"/><path d="M96.66 65.19a2.48 2.48 0 001.11-1.93c0-.72-.5-1-1.11-.65a2.431 2.431 0 00-1.12 1.93c0 .71.46 1 1.12.65z" fill="#585E63"/><path d="M97.528 63.26v-.12a.539.539 0 00-.19-.4.57.57 0 00-.55.07 1.58 1.58 0 00-.4.34 2.17 2.17 0 00-.59 1.39.591.591 0 00.2.52.611.611 0 00.55-.08 2 2 0 00.64-.66c.116-.18.206-.375.27-.58.045-.156.069-.317.07-.48z" fill="#585E63"/><path d="M97.326 62.74L88.996 58a4.001 4.001 0 01-1.81-3.12v-9.14l-.72-.41-.28-.16-1.42.6v8.93a7.44 7.44 0 003.37 5.81l7.86 4.59.87-.74.19-.69.27-.93z" fill="#585E63"/><path d="M85.557 46.64a.3.3 0 00-.26.3V55a6.529 6.529 0 002.91 5l7.26 4.19a.23.23 0 00.27 0 .239.239 0 00.069-.296.24.24 0 00-.07-.084l-.88-.47-6.63-4.28a4.9 4.9 0 01-2.26-3.89v-8.23a.311.311 0 00-.36-.3h-.05z" fill="#585E63"/><path d="M97.529 63.26v-.12l-.19-.4-8.34-4.74a4 4 0 01-1.81-3.12v-9.14l-.72-.41v8.32a5.7 5.7 0 003.37 5.81l6.6 3.69 1.07.59c.029-.158.035-.32.02-.48zm.581 2.99l-.34.57-1.1-.65h-.07c-.11-.1-.13-.12-.14-.14l-.06-.08a.568.568 0 01-.06-.12.22.22 0 010-.1 1.574 1.574 0 01-.07-.34.277.277 0 010-.09v-.09l1.84 1.04zm.749-1.25l-.46.79-2.09-1.22c.082-.298.203-.584.36-.85l2.19 1.28zm.921-1.62l-.35.6-2-1.19c.11-.092.227-.176.35-.25l.34-.15 1.66.99z" fill="#585E63"/><path d="M98.399 65.75l-.29.5-1.89-1.1c.006-.21.036-.417.09-.62l2.09 1.22zM99.428 64l-.57 1-2.19-1.28a3.55 3.55 0 01.73-.89l2.03 1.17zm.348-.62l-1.69-1h.73l1.12.65-.16.35z" fill="#585E63"/><path d="M97.328 65.83a3.34 3.34 0 011.54-2.62c.84-.48 1.52-.09 1.52.88a3.384 3.384 0 01-1.54 2.62c-.85.48-1.53.09-1.52-.88z" fill="#585E63"/><path d="M97.328 65.83a3.34 3.34 0 011.54-2.62c.84-.48 1.52-.09 1.52.88a3.384 3.384 0 01-1.54 2.62c-.85.48-1.53.09-1.52-.88z" fill="#585E63"/><path d="M152.218 77.12v13.95a3.998 3.998 0 01-.57 2.14c-.261.416-.622.76-1.05 1a3 3 0 01-1.53.41 3.664 3.664 0 01-1.2-.21 4.457 4.457 0 01-.84-.38l-48.93-27.49a.62.62 0 01-.39-.34 1.098 1.098 0 01-.11-.51c.02-.442.15-.872.38-1.25l.18-.27.21-.25c.147-.156.316-.29.5-.4a1.21 1.21 0 01.5-.16.61.61 0 01.54.21l47.55 26.72a.86.86 0 001.29-.75V77.12h3.47z" fill="#585E63"/><path d="M148.8 90.66a1.272 1.272 0 01-1.256 1.272 1.273 1.273 0 01-.634-.162l-.76-.43L98.8 64.89l-.64-.72.21-.25c.147-.156.316-.29.5-.4a1.21 1.21 0 01.5-.16l.28.06.26.15 47.55 26.72a.859.859 0 001.29-.75v-4.27l.05 5.39z" fill="#585E63"/><path d="M152.217 77.12v13.95a3.484 3.484 0 01-1.62 3.16 2.998 2.998 0 01-1.53.41 3.661 3.661 0 01-1.2-.21c3.68.27 2.78-1.58 2.78-1.58V77.12h1.57z" fill="#585E63"/><path d="M150.598 94.23a2.998 2.998 0 01-1.53.41 3.659 3.659 0 01-1.2-.21 4.457 4.457 0 01-.84-.38l-48.93-27.51-.19-.11-.2-.23a1.099 1.099 0 01-.11-.51L147.868 94c.877.3 1.815.379 2.73.23z" fill="#585E63"/><path d="M146.45 91.34a.42.42 0 01-.15 0 .28.28 0 01-.15 0L98 64.44l.18-.27.21-.25 48.08 26.87a.31.31 0 01.11.121.318.318 0 01-.13.43z" fill="#fff"/><path d="M152.218 77.12v13.95a3.99 3.99 0 01-.57 2.14c.26-4.3.23-12 .21-16.09h.36z" fill="#585E63"/><path d="M152.529 77.13h-4.06v1.22h4.06v-1.22z" fill="#585E63"/><path d="M151.91 77.13h.62v1.55l-.06.11-.07.08a1.252 1.252 0 01-.25.22h-.06l-.08.05-.1-2.01zm-1.41 0h.86v2.28a3.42 3.42 0 01-.86.11v-2.39zm-1.992 1.44v.07c0 .02.01-.05 0-.07zm.273-1.44h.66v2.22a1.643 1.643 0 01-.38-.17 1.585 1.585 0 01-.28-.2v-1.85z" fill="#585E63"/><path d="M151.359 77.13h.55v2.06a2.251 2.251 0 01-.55.22v-2.28zm-1.921 0h1.059v2.39c-.36.012-.72-.046-1.059-.17v-2.22zm-.66 0V79l-.12-.13-.12-.19a1.35 1.35 0 010-.09.273.273 0 010-.07.206.206 0 010-.07v-1.32h.24z" fill="#585E63"/><path d="M151.936 78a3.158 3.158 0 01-2.87 0 .87.87 0 010-1.65 3.165 3.165 0 012.87 0 .881.881 0 010 1.65z" fill="#585E63"/><path d="M151.936 78a3.158 3.158 0 01-2.87 0 .87.87 0 010-1.65 3.165 3.165 0 012.87 0 .881.881 0 010 1.65z" fill="#585E63"/><path d="M151.687 77.81a2.645 2.645 0 01-2.36 0c-.65-.38-.66-1 0-1.36a2.59 2.59 0 012.36 0 .718.718 0 01.35 1.098.718.718 0 01-.35.262z" fill="#585E63"/><path d="M149.108 80v11.23a1.214 1.214 0 01-.419.908 1.21 1.21 0 01-.961.282l-.83-.13.93.36a1.194 1.194 0 001.473-.558c.09-.17.137-.36.137-.552V80.11l-.33-.11z" fill="#fff"/><path d="M151.859 75.61h-3v.9h3v-.9z" fill="#585E63"/><path d="M151.398 75.61h.46v1.14a1.227 1.227 0 01-.31.36h-.1l-.05-1.5zm-1.039 0h.64v1.69c-.209.053-.424.08-.64.08v-1.77zm-1.273 0h.48v1.64a1.104 1.104 0 01-.27-.12l-.21-.15v-1.37z" fill="#585E63"/><path d="M151 75.61h.4v1.52c-.126.073-.26.13-.4.17v-1.69zm-1.43 0h.79v1.77a2.3 2.3 0 01-.79-.13v-1.64zm-.479 0V77l-.09-.1a.962.962 0 01-.11-.2v-1.11l.2.02z" fill="#585E63"/><path d="M151.418 76.23a2.361 2.361 0 01-2.12 0c-.58-.34-.59-.89 0-1.22a2.33 2.33 0 012.12 0 .65.65 0 010 1.22z" fill="#585E63"/><path d="M151.418 76.23a2.361 2.361 0 01-2.12 0c-.58-.34-.59-.89 0-1.22a2.33 2.33 0 012.12 0 .65.65 0 010 1.22z" fill="#585E63"/><path d="M151.229 76.12a1.94 1.94 0 01-1.74 0c-.48-.28-.48-.73 0-1a1.908 1.908 0 011.74 0 .533.533 0 010 1z" fill="#585E63"/><path d="M151.55 49.32h-2.37v26.3h2.37v-26.3z" fill="#585E63"/><path d="M151.188 49.32h.36v26.29c0 .18-.001.19-.051.2-.06.09-.135.172-.22.24-.09.06-.089-26.73-.089-26.73zm-.821 0h.5v26.91a1.68 1.68 0 01-.5.07V49.32zm-1.008 0h.38V76.2a1.391 1.391 0 01-.21-.1.52.52 0 01-.17-.12V49.32zm1.508 0h.32v26.79a1.71 1.71 0 01-.32.12V49.32z" fill="#585E63"/><path d="M149.738 49.32h.63v27a1.851 1.851 0 01-.63-.1v-26.9zm-.378 0V76l-.07-.07c-.11-.3-.11-26.59-.11-26.59l.18-.02z" fill="#585E63"/><path d="M151.207 49.81a1.874 1.874 0 01-1.68 0 .506.506 0 01-.41-.5.508.508 0 01.41-.5 1.818 1.818 0 011.67 0c.47.3.47.73.01 1z" fill="#585E63"/><path d="M151.207 49.81a1.874 1.874 0 01-1.68 0 .506.506 0 01-.41-.5.508.508 0 01.41-.5 1.818 1.818 0 011.67 0c.47.3.47.73.01 1z" fill="#585E63"/><path d="M151.059 49.72a1.532 1.532 0 01-1.38 0 .423.423 0 010-.8 1.54 1.54 0 011.37 0 .423.423 0 01.297.396.418.418 0 01-.287.404z" fill="#585E63"/><path d="M151.859 48.57h-3v.9h3v-.9z" fill="#585E63"/><path d="M151.398 48.57h.46v1.14a1.227 1.227 0 01-.31.36h-.1l-.05-1.5zm-1.039 0h.64v1.69c-.209.053-.424.08-.64.08v-1.77zm-1.273 0h.48v1.64a1.103 1.103 0 01-.27-.12l-.21-.15v-1.37z" fill="#585E63"/><path d="M151 48.57h.4v1.52c-.126.073-.26.13-.4.17v-1.69zm-1.43 0h.79v1.77a2.3 2.3 0 01-.79-.13v-1.64zm-.479 0v1.37l-.09-.1a.962.962 0 01-.11-.2v-1.06l.2-.01z" fill="#585E63"/><path d="M151.418 49.19a2.361 2.361 0 01-2.12 0c-.58-.34-.59-.89 0-1.22a2.332 2.332 0 012.12 0 .65.65 0 010 1.22z" fill="#585E63"/><path d="M151.418 49.19a2.361 2.361 0 01-2.12 0c-.58-.34-.59-.89 0-1.22a2.332 2.332 0 012.12 0 .65.65 0 010 1.22z" fill="#585E63"/><path d="M151.229 49.08a1.941 1.941 0 01-1.74 0c-.48-.28-.48-.73 0-1a1.908 1.908 0 011.74 0 .533.533 0 010 1zM87.45 44.99h-3v.9h3v-.9z" fill="#585E63"/><path d="M87 45h.46v.95a.483.483 0 010 .14c-.18.27-.24.32-.3.36L87 45zm-1 0h.64v1.69a2.29 2.29 0 01-.64.08V45zm-1.32 0h.48v1.65a1.698 1.698 0 01-.27-.13.71.71 0 01-.21-.15V45z" fill="#585E63"/><path d="M86.586 45h.4v1.53c-.126.07-.26.123-.4.16V45zm-1.426 0H86v1.77a2.29 2.29 0 01-.79-.12L85.16 45zm-.481 0v1.37a.736.736 0 01-.09-.09l-.12-.21V45h.21z" fill="#585E63"/><path d="M87 45.61a2.33 2.33 0 01-2.12 0c-.59-.34-.59-.88 0-1.22a2.33 2.33 0 012.12 0 .65.65 0 010 1.22z" fill="#585E63"/><path d="M87 45.61a2.33 2.33 0 01-2.12 0c-.59-.34-.59-.88 0-1.22a2.33 2.33 0 012.12 0 .65.65 0 010 1.22z" fill="#585E63"/><path d="M86.819 45.5a1.94 1.94 0 01-1.74 0c-.48-.27-.48-.72 0-1a1.91 1.91 0 011.74 0 .53.53 0 010 1z" fill="#585E63"/><path d="M87.136 11.94h-2.37V45h2.37V11.94z" fill="#585E63"/><path d="M86.781 11.94h.36V45.2a.88.88 0 01-.22.24c-.14.05-.14-33.5-.14-33.5zm-.781 0h.5v33.68a2.11 2.11 0 01-.5.06V11.94zm-1 0h.38v33.64l-.21-.09-.17-.12V11.94z" fill="#585E63"/><path d="M86.46 11.94h.32v33.55a1.717 1.717 0 01-.32.13V11.94zm-1.132 0h.67v33.74a1.85 1.85 0 01-.63-.1l-.04-33.64zm-.328 0v33.43l-.07-.08c-.11-.29-.11-33.35-.11-33.35H85z" fill="#585E63"/><path d="M86.796 12.42a1.84 1.84 0 01-1.68 0 .51.51 0 010-1 1.85 1.85 0 011.67 0c.46.31.47.74.01 1z" fill="#585E63"/><path d="M86.796 12.42a1.84 1.84 0 01-1.68 0 .51.51 0 010-1 1.85 1.85 0 011.67 0c.46.31.47.74.01 1z" fill="#585E63"/><path d="M86.65 12.34a1.53 1.53 0 01-1.38 0c-.38-.21-.38-.57 0-.79a1.5 1.5 0 011.37 0 .43.43 0 01.01.79z" fill="#585E63"/><path d="M87.45 11.19h-3v.9h3v-.9z" fill="#585E63"/><path d="M87 11.19h.46v1.08c-.079.14-.18.265-.3.37L87 11.19zm-1 0h.64v1.69A2.74 2.74 0 0186 13v-1.81zm-1.32 0h.48v1.64a1.107 1.107 0 01-.27-.12.997.997 0 01-.21-.15v-1.37z" fill="#585E63"/><path d="M86.586 11.19h.4v1.52c-.126.073-.26.13-.4.17v-1.69zm-1.426 0H86V13a2.299 2.299 0 01-.79-.13l-.05-1.68zm-.481 0v1.37l-.09-.1-.12-.2V11.2l.21-.01z" fill="#585E63"/><path d="M86.997 11.8a2.33 2.33 0 01-2.12 0 .65.65 0 010-1.23 2.36 2.36 0 012.12 0c.59.35.6.9 0 1.23z" fill="#585E63"/><path d="M86.997 11.8a2.33 2.33 0 01-2.12 0 .65.65 0 010-1.23 2.36 2.36 0 012.12 0c.59.35.6.9 0 1.23z" fill="#585E63"/><path d="M86.82 11.69a1.91 1.91 0 01-1.74 0 .53.53 0 010-1 1.94 1.94 0 011.74 0c.48.31.48.73 0 1zm16.741 42.78l-.19.33-.65-.38a.625.625 0 01-.13-.11.846.846 0 01-.13-.38v-.1l1.1.64zm.439-.76l-.27.46-1.23-.72c.042-.177.113-.346.21-.5l1.29.76zm.548-.93l-.21.35-1.19-.7c.061-.058.128-.108.2-.15.064-.034.131-.06.2-.08l1 .58z" fill="#585E63"/><path d="M103.739 54.17l-.18.3-1.11-.65c.001-.126.021-.25.06-.37l1.23.72zm.6-1.04l-.33.58-1.29-.71c.109-.199.255-.375.43-.52l1.19.65zm.208-.35l-1-.58h.11c.349.107.685.255 1 .44l-.11.14z" fill="#585E63"/><path d="M103.11 54.22a1.94 1.94 0 01.9-1.54c.5-.29.9-.06.9.51a1.999 1.999 0 01-.91 1.55c-.5.26-.9.05-.89-.52z" fill="#585E63"/><path d="M103.11 54.22a1.94 1.94 0 01.9-1.54c.5-.29.9-.06.9.51a1.999 1.999 0 01-.91 1.55c-.5.26-.9.05-.89-.52z" fill="#585E63"/><path d="M140.579 63.74V72c.011.443-.103.88-.33 1.26-.157.246-.37.451-.62.6-.277.16-.591.243-.91.24a2.185 2.185 0 01-.7-.12 2.397 2.397 0 01-.49-.23l-34-19.06a.377.377 0 01-.23-.2.66.66 0 01-.06-.3 1.45 1.45 0 01.22-.74l.11-.16.12-.15c.087-.088.184-.165.29-.23a.805.805 0 01.3-.1.38.38 0 01.32.13l33.15 18.6a.508.508 0 00.69-.188.509.509 0 00.07-.252v-7.36h2.07z" fill="#585E63"/><path d="M138.569 71.71a.735.735 0 01-.738.75.74.74 0 01-.372-.1l-.45-.25-33.01-18.44-.37-.43.12-.15a1.52 1.52 0 01.29-.23.803.803 0 01.3-.1h.16l.16.09 33.15 18.6a.508.508 0 00.691-.188.518.518 0 00.069-.252v-2.48 3.18z" fill="#585E63"/><path d="M140.579 63.74V72a2.002 2.002 0 01-1 1.86c-.277.16-.591.243-.91.24a2.182 2.182 0 01-.7-.12c2.17.15 1.64-.93 1.64-.93v-9.31h.97z" fill="#585E63"/><path d="M139.629 73.81c-.277.16-.591.243-.91.24a2.185 2.185 0 01-.7-.12 2.403 2.403 0 01-.49-.23l-34-19.06-.11-.07-.12-.13a.66.66 0 01-.06-.3l34.76 19.52a3.278 3.278 0 001.63.15z" fill="#585E63"/><path d="M137.178 72.1a.12.12 0 01-.09 0h-.08l-33.52-18.7.11-.16.12-.15 33.46 18.7a.17.17 0 01.073.247.17.17 0 01-.073.063z" fill="#fff"/><path d="M140.58 63.74V72c.011.443-.103.88-.33 1.26.15-2.53.13-7.06.12-9.47l.21-.05z" fill="#585E63"/><path d="M140.769 63.74h-2.39v.72h2.39v-.72z" fill="#585E63"/><path d="M140.398 63.74h.37v.71c-.18.37-.22.41-.27.44l-.09.06-.01-1.21zm-.828 0h.51v1.34a1.744 1.744 0 01-.51.07v-1.41zm-1.011 0h.38v1.31l-.22-.1a1.07 1.07 0 01-.16-.12v-1.09z" fill="#585E63"/><path d="M140.078 63.74h.32V65c-.1.058-.208.102-.32.13v-1.39zm-1.14 0h.63v1.41a1.843 1.843 0 01-.63-.1v-1.31zm-.379 0v1.09l-.07-.08a4.259 4.259 0 01-.11-1l.18-.01z" fill="#585E63"/><path d="M140.419 64.23a1.864 1.864 0 01-1.69 0 .52.52 0 010-1 1.857 1.857 0 011.69 0 .521.521 0 010 1z" fill="#585E63"/><path d="M140.419 64.23a1.864 1.864 0 01-1.69 0 .52.52 0 010-1 1.857 1.857 0 011.69 0 .521.521 0 010 1z" fill="#585E63"/><path d="M140.269 64.14a1.552 1.552 0 01-1.39 0c-.38-.22-.39-.58 0-.8a1.53 1.53 0 011.38 0c.39.22.39.58.01.8z" fill="#585E63"/><path d="M138.749 65.43V72a.702.702 0 01-.51.678.708.708 0 01-.3.022l-.49-.07.54.21a.712.712 0 00.868-.335.706.706 0 00.082-.325V65.5l-.19-.07z" fill="#fff"/><path d="M140.947 62.47h-2.33v.7h2.33v-.7z" fill="#585E63"/><path d="M140.598 62.47h.4v.69c-.17.36-.21.4-.26.44-.05.04-.14-1.13-.14-1.13zm-.809 0h.5v1.31a2.073 2.073 0 01-.5.07v-1.38zm-.992 0h.38v1.28l-.22-.1-.16-.12v-1.06z" fill="#585E63"/><path d="M140.289 62.47h.31v1.18c-.096.06-.2.104-.31.13v-1.31zm-1.109 0h.61v1.38a1.995 1.995 0 01-.61-.1v-1.28zm-.382 0v1.06l-.07-.07a4.057 4.057 0 01-.11-1l.18.01z" fill="#585E63"/><path d="M140.619 63a1.808 1.808 0 01-1.65 0 .502.502 0 01-.249-.768.502.502 0 01.249-.182 1.839 1.839 0 011.65 0c.45.21.45.63 0 .95z" fill="#585E63"/><path d="M140.619 63a1.808 1.808 0 01-1.65 0 .502.502 0 01-.249-.768.502.502 0 01.249-.182 1.839 1.839 0 011.65 0c.45.21.45.63 0 .95z" fill="#585E63"/><path d="M140.471 62.86a1.488 1.488 0 01-1.35 0c-.38-.22-.38-.57 0-.78a1.479 1.479 0 011.36 0c.36.22.36.57-.01.78zm-9.233 17.96h-3v.9h3v-.9z" fill="#585E63"/><path d="M130.781 80.82h.46v.94a.366.366 0 010 .14c-.078.14-.18.265-.3.37h-.05l-.11-1.45zm-1.043 0h.64v1.68c-.208.06-.423.09-.64.09v-1.77zm-1.269 0h.53v1.64a1.103 1.103 0 01-.27-.12.997.997 0 01-.21-.15l-.05-1.37zm1.91 0h.4v1.52a1.76 1.76 0 01-.4.16v-1.68z" fill="#585E63"/><path d="M129 80.82h.79v1.77a2.3 2.3 0 01-.79-.13v-1.64zm-.532 0v1.37l-.09-.1-.12-.2v-1.06l.21-.01z" fill="#585E63"/><path d="M130.798 81.43a2.332 2.332 0 01-2.12 0 .654.654 0 01-.44-.615.653.653 0 01.44-.615 2.36 2.36 0 012.12 0c.58.35.59.9 0 1.23z" fill="#585E63"/><path d="M130.798 81.43a2.332 2.332 0 01-2.12 0 .654.654 0 01-.44-.615.653.653 0 01.44-.615 2.36 2.36 0 012.12 0c.58.35.59.9 0 1.23z" fill="#585E63"/><path d="M130.61 81.32a1.91 1.91 0 01-1.74 0 .532.532 0 01-.257-.806.531.531 0 01.257-.194 1.94 1.94 0 011.74 0c.48.28.48.73 0 1z" fill="#585E63"/><path d="M130.929 37.59h-2.37v43.24h2.37V37.59z" fill="#585E63"/><path d="M130.57 37.59h.36v43.22a1.265 1.265 0 01-.05.21.758.758 0 01-.22.23c-.09.06-.09-43.66-.09-43.66zm-.82 0h.5v43.85a1.68 1.68 0 01-.5.07V37.59zm-1.012 0h.38v43.82a1.391 1.391 0 01-.21-.1l-.17-.12v-43.6zm1.512 0h.32v43.72c-.1.058-.208.102-.32.13V37.59z" fill="#585E63"/><path d="M129.117 37.59h.63v43.92a1.851 1.851 0 01-.63-.1V37.59zm-.378 0v43.6l-.07-.07c-.11-.3-.11-43.53-.11-43.53h.18z" fill="#585E63"/><path d="M130.589 38.07a1.835 1.835 0 01-1.679 0 .513.513 0 01-.41-.5.513.513 0 01.41-.5 1.843 1.843 0 011.669 0c.42.3.47.73.01 1z" fill="#585E63"/><path d="M130.589 38.07a1.835 1.835 0 01-1.679 0 .513.513 0 01-.41-.5.513.513 0 01.41-.5 1.843 1.843 0 011.669 0c.42.3.47.73.01 1z" fill="#585E63"/><path d="M130.439 38a1.532 1.532 0 01-1.38 0 .42.42 0 01-.202-.636.42.42 0 01.202-.154 1.494 1.494 0 011.369 0c.38.2.381.56.011.79z" fill="#585E63"/><path d="M131.238 36.83h-3v.9h3v-.9z" fill="#585E63"/><path d="M130.781 36.83h.46v1a.47.47 0 010 .14c-.18.27-.24.32-.3.36h-.05l-.11-1.5zm-1.043 0h.64v1.69a2.74 2.74 0 01-.64.09v-1.78zm-1.48 1.07v.05c0 .05.01-.03 0-.05zm.211-1.07h.53v1.65a1.685 1.685 0 01-.27-.13.562.562 0 01-.21-.15l-.05-1.37zm1.91 0h.4v1.53c-.126.07-.261.123-.4.16v-1.69z" fill="#585E63"/><path d="M129 36.83h.79v1.78a2.56 2.56 0 01-.79-.13v-1.65zm-.532 0v1.37a.683.683 0 01-.09-.09l-.12-.21v-1.06l.21-.01z" fill="#585E63"/><path d="M130.798 37.45a2.361 2.361 0 01-2.12 0 .654.654 0 01-.44-.615.653.653 0 01.44-.615 2.361 2.361 0 012.12 0 .65.65 0 010 1.23z" fill="#585E63"/><path d="M130.798 37.45a2.361 2.361 0 01-2.12 0 .654.654 0 01-.44-.615.653.653 0 01.44-.615 2.361 2.361 0 012.12 0 .65.65 0 010 1.23z" fill="#585E63"/><path d="M130.61 37.34a1.94 1.94 0 01-1.74 0 .532.532 0 01-.257-.806.532.532 0 01.257-.194 1.94 1.94 0 011.74 0 .533.533 0 010 1zm-1.93 6.327l-.485.28.925 1.602.485-.28-.925-1.602z" fill="#585E63"/><path d="M129 45.32l.14.24.48-.27c.18-.27.19-.31.19-.36 0-.05-.81.39-.81.39zm-.34-.56l.19.34.91-.52a1.723 1.723 0 00-.16-.37l-.94.55zm-.402-.68l.15.25.88-.5a.733.733 0 00-.15-.11l-.15-.07-.73.43z" fill="#585E63"/><path d="M128.848 45.1l.13.22.81-.47c.009-.09.009-.18 0-.27l-.94.52zm-.438-.77l.25.43.94-.55a1.284 1.284 0 00-.31-.38l-.88.5zm-.153-.25l.731-.43h-.071c-.254.08-.498.188-.729.32l.069.11z" fill="#585E63"/><path d="M129.31 45.14a1.46 1.46 0 00-.65-1.14c-.37-.21-.66 0-.66.38a1.45 1.45 0 00.66 1.13c.34.21.65.04.65-.37z" fill="#585E63"/><path d="M129.31 45.14a1.46 1.46 0 00-.65-1.14c-.37-.21-.66 0-.66.38a1.45 1.45 0 00.66 1.13c.34.21.65.04.65-.37z" fill="#585E63"/><path d="M129.197 45.07a1.203 1.203 0 00-.54-.93c-.3-.17-.54 0-.54.31a1.18 1.18 0 00.54.93.33.33 0 00.54-.31z" fill="#585E63"/><path d="M125.539 45.74l2.76-1.61.73 1.26-2.75 1.62-.74-1.27z" fill="#585E63"/><path d="M126.16 46.81l.12.2L129 45.4c.14-.21.15-.24.16-.28.01-.04-3 1.69-3 1.69zm-.25-.44l.15.27 3.09-1.8c-.029-.1-.07-.198-.12-.29l-3.12 1.82zm-.312-.54l.12.21 3.06-1.79a.478.478 0 00-.12-.09h-.11l-2.95 1.67z" fill="#585E63"/><path d="M126.059 46.64l.1.17 3-1.76a.82.82 0 000-.21l-3.1 1.8zm-.34-.64l.19.33 3.09-1.78a1.058 1.058 0 00-.25-.3l-3.03 1.75zm-.121-.17l3-1.72c-.26 0-3 1.63-3 1.63v.09z" fill="#585E63"/><path d="M126.431 46.67a1.113 1.113 0 00-.52-.89c-.29-.17-.52 0-.52.29a1.155 1.155 0 00.52.9c.29.16.52.03.52-.3z" fill="#585E63"/><path d="M126.431 46.67a1.113 1.113 0 00-.52-.89c-.29-.17-.52 0-.52.29a1.155 1.155 0 00.52.9c.29.16.52.03.52-.3z" fill="#585E63"/><path d="M126.337 46.62a1.013 1.013 0 00-.43-.74c-.24-.13-.43 0-.43.25a.909.909 0 00.43.73c.24.14.43.03.43-.24z" fill="#585E63"/><path d="M125.524 45.515l-.485.28.925 1.603.485-.28-.925-1.603z" fill="#585E63"/><path d="M125.828 47.16l.14.24.48-.27c.18-.26.19-.31.19-.36 0-.05-.81.39-.81.39zm-.32-.56l.19.34.91-.52a1.772 1.772 0 00-.16-.37l-.94.55zm-.399-.68l.15.26.88-.51-.15-.11-.15-.06-.73.42z" fill="#585E63"/><path d="M125.699 46.94l.13.22.81-.47c.01-.09.01-.18 0-.27l-.94.52zm-.441-.76l.25.42.94-.55a1.445 1.445 0 00-.31-.38l-.88.51zm-.149-.26l.73-.42h-.07a3.157 3.157 0 00-.73.32l.07.1z" fill="#585E63"/><path d="M126.158 47a1.442 1.442 0 00-.65-1.13c-.37-.21-.66-.05-.66.37a1.433 1.433 0 00.66 1.14c.36.19.65.02.65-.38z" fill="#585E63"/><path d="M126.158 47a1.442 1.442 0 00-.65-1.13c-.37-.21-.66-.05-.66.37a1.433 1.433 0 00.66 1.14c.36.19.65.02.65-.38z" fill="#585E63"/><path d="M126.049 46.91a1.216 1.216 0 00-.54-.93c-.3-.17-.54 0-.54.31a1.18 1.18 0 00.54.93.33.33 0 00.54-.31z" fill="#585E63"/><path d="M128.269 47.41a2.482 2.482 0 00-1.12-1.94 1.78 1.78 0 00-.34-.13v-.06a2.463 2.463 0 00-1.12-1.93c-.62-.36-1.12-.07-1.12.64v.07c-.1-.099-.21-.186-.33-.26-.62-.36-1.13-.07-1.13.64.043.64.325 1.24.79 1.68a.885.885 0 00-.19.6 2.52 2.52 0 001.12 1.94.79.79 0 00.83.06c.189.365.472.673.82.89.62.35 1.12.07 1.12-.64a2.196 2.196 0 00-.18-.81c.49.14.85-.16.85-.75zm-2.57-3.41a1.122 1.122 0 01.52.9c0 .33-.23.46-.52.29a1.127 1.127 0 01-.52-.9c0-.29.23-.42.52-.29zm-2 .74c0-.33.24-.46.53-.3a1.18 1.18 0 01.52.91c0 .33-.24.46-.52.29a1.143 1.143 0 01-.51-.86l-.02-.04zm1.14 3.26a1.183 1.183 0 01-.52-.9c0-.33.24-.46.52-.3a1.156 1.156 0 01.53.9c0 .3-.24.44-.53.3zm1.65 1a1.158 1.158 0 01-.49-1c0-.33.23-.46.52-.3a1.142 1.142 0 01.52.9c-.04.4-.26.49-.55.32V49zm.66-1.56a1.147 1.147 0 01-.52-.9c0-.33.23-.46.52-.3a1.142 1.142 0 01.52.9c0 .25-.23.39-.52.22v.08z" fill="#FFD000"/><path d="M127.999 47.63a2.453 2.453 0 00-1.12-1.93 1.007 1.007 0 00-.34-.13v-.06a2.49 2.49 0 00-1.13-1.94c-.61-.36-1.12-.07-1.12.64v.07a2 2 0 00-.29-.28c-.62-.36-1.12-.07-1.12.64.041.64.323 1.24.79 1.68a.89.89 0 00-.19.61 2.463 2.463 0 001.12 1.93.77.77 0 00.82.06c.195.364.481.67.83.89.61.36 1.12.07 1.12-.64a1.997 1.997 0 00-.19-.8c.48.15.82-.14.82-.74zm-2.58-3.37a1.166 1.166 0 01.53.9c0 .33-.24.46-.53.3a1.186 1.186 0 01-.52-.9c.02-.33.26-.47.54-.3h-.02zm-2 .75c0-.34.23-.47.52-.3a1.132 1.132 0 01.52.9c0 .33-.23.46-.52.3a1.158 1.158 0 01-.47-.91l-.05.01zm1.12 3.18a1.132 1.132 0 01-.52-.9c0-.33.23-.46.52-.29a1.132 1.132 0 01.52.9c.05.33-.18.46-.47.29h-.05zm1.65 1a1.134 1.134 0 01-.53-.9c0-.33.24-.46.53-.3a1.175 1.175 0 01.52.91c.05.28-.19.41-.47.24l-.05.05zm.66-1.56a1.135 1.135 0 01-.53-.9c0-.33.24-.46.53-.3a1.174 1.174 0 01.52.9c.05.29-.19.42-.47.25l-.05.05z" fill="#DDB400"/><path d="M125.878 46.89c0 .28-.19.39-.44.25a1.001 1.001 0 01-.43-.76c0-.28.19-.39.43-.25a1.008 1.008 0 01.44.76zm-11.417 24.7h-3v.9h3v-.9z" fill="#585E63"/><path d="M114 71.59h.45v1a.818.818 0 010 .14c-.19.27-.24.32-.31.36h-.06l-.08-1.5zm-1 0h.64v1.69a2.248 2.248 0 01-.64.08v-1.77zm-1.312 0h.479v1.65a2.292 2.292 0 01-.27-.13.797.797 0 01-.209-.15v-1.37z" fill="#585E63"/><path d="M113.596 71.59h.4v1.53a1.78 1.78 0 01-.41.16l.01-1.69zm-1.428 0h.83v1.77a2.329 2.329 0 01-.79-.12l-.04-1.65zm-.48 0V73l-.09-.09c-.1-.18-.11-.19-.11-.21v-.97l.2-.14z" fill="#585E63"/><path d="M113.997 72.21a2.361 2.361 0 01-2.12 0 .651.651 0 010-1.23 2.33 2.33 0 012.12.02.651.651 0 010 1.21z" fill="#585E63"/><path d="M113.997 72.21a2.361 2.361 0 01-2.12 0 .651.651 0 010-1.23 2.33 2.33 0 012.12.02.651.651 0 010 1.21z" fill="#585E63"/><path d="M113.838 72.1a1.941 1.941 0 01-1.74 0c-.49-.28-.49-.73 0-1a1.94 1.94 0 011.74 0c.47.27.48.72 0 1z" fill="#585E63"/><path d="M114.159 27.31h-2.37V71.6h2.37V27.31z" fill="#585E63"/><path d="M113.789 27.31h.36v44.48a1.09 1.09 0 01-.22.24c-.14.06-.14-44.72-.14-44.72zm-.789 0h.5v44.91a2.08 2.08 0 01-.5.06V27.31zm-1 0h.38v44.87a1.462 1.462 0 01-.22-.09A1.121 1.121 0 01112 72V27.31z" fill="#585E63"/><path d="M113.469 27.31h.32v44.78a1.37 1.37 0 01-.32.13V27.31zm-1.121 0h.65v45a1.581 1.581 0 01-.62-.1l-.03-44.9zm-.348 0V72l-.07-.08c-.11-.29-.11-44.58-.11-44.58l.18-.03z" fill="#585E63"/><path d="M113.808 27.79a1.821 1.821 0 01-1.67 0c-.47-.27-.47-.7 0-1a1.907 1.907 0 011.68 0 .511.511 0 01-.01 1z" fill="#585E63"/><path d="M113.808 27.79a1.821 1.821 0 01-1.67 0c-.47-.27-.47-.7 0-1a1.907 1.907 0 011.68 0 .511.511 0 01-.01 1z" fill="#585E63"/><path d="M113.659 27.7a1.5 1.5 0 01-1.37 0c-.38-.22-.39-.57 0-.79a1.53 1.53 0 011.38 0c.33.22.33.58-.01.79z" fill="#585E63"/><path d="M114.461 26.56h-3v.9h3v-.9z" fill="#585E63"/><path d="M114 26.56h.45v.94a.818.818 0 010 .14c-.19.27-.24.32-.31.36h-.06l-.08-1.44zm-1 0h.64v1.68a2.27 2.27 0 01-.64.09v-1.77zm-1.312 0h.479v1.64a1.358 1.358 0 01-.27-.13.8.8 0 01-.209-.15v-1.36z" fill="#585E63"/><path d="M113.596 26.56h.4v1.52c-.13.07-.267.123-.41.16l.01-1.68zm-1.428 0h.83v1.77a2.623 2.623 0 01-.79-.13l-.04-1.64zm-.481 0v1.36l-.09-.09c-.1-.17-.11-.19-.11-.21v-.1a.152.152 0 010-.06v-.9h.2z" fill="#585E63"/><path d="M113.997 27.17a2.327 2.327 0 01-2.12 0 .651.651 0 010-1.23 2.33 2.33 0 012.12.06.638.638 0 01.277.934.638.638 0 01-.277.236z" fill="#585E63"/><path d="M113.997 27.17a2.327 2.327 0 01-2.12 0 .651.651 0 010-1.23 2.33 2.33 0 012.12.06.638.638 0 01.277.934.638.638 0 01-.277.236z" fill="#585E63"/><path d="M113.838 27.06a1.91 1.91 0 01-1.74 0c-.49-.28-.49-.73 0-1a1.94 1.94 0 011.74 0c.47.27.48.72 0 1zm-1.939 7.402l-.485.28.925 1.602.485-.28-.925-1.602z" fill="#585E63"/><path d="M112.199 36.09l.14.25.48-.28c.18-.26.19-.3.2-.35.01-.05-.82.38-.82.38zm-.32-.56l.2.34.9-.52a1.269 1.269 0 00-.15-.36l-.95.54zm-.391-.68l.15.26.88-.51a.905.905 0 00-.3-.17l-.73.42z" fill="#585E63"/><path d="M112.078 35.87l.12.22.82-.47c.01-.09.01-.18 0-.27l-.94.52zm-.437-.76l.24.42 1-.54a1.744 1.744 0 00-.31-.39l-.93.51zm-.153-.26l.73-.42h-.08a3.24 3.24 0 00-.72.32l.07.1z" fill="#585E63"/><path d="M112.539 35.91a1.461 1.461 0 00-.66-1.13c-.36-.21-.66 0-.66.37a1.467 1.467 0 00.66 1.14c.36.21.66.04.66-.38z" fill="#585E63"/><path d="M112.539 35.91a1.461 1.461 0 00-.66-1.13c-.36-.21-.66 0-.66.37a1.467 1.467 0 00.66 1.14c.36.21.66.04.66-.38z" fill="#585E63"/><path d="M112.416 35.85a1.199 1.199 0 00-.54-.94c-.3-.17-.54 0-.54.31a1.18 1.18 0 00.54.93c.3.18.54.04.54-.3z" fill="#585E63"/><path d="M108.766 36.52l2.75-1.62.73 1.27-2.75 1.61-.73-1.26z" fill="#585E63"/><path d="M109.391 37.59l.11.19 2.75-1.61c.14-.2.15-.24.15-.28 0-.04-3.01 1.7-3.01 1.7zm-.262-.44l.16.27 3.08-1.81a1.384 1.384 0 00-.12-.29l-3.12 1.83zm-.309-.54l.12.2L112 35l-.12-.08a.666.666 0 00-.12-.06l-2.94 1.75zm.469.81l.1.17 3-1.76a.9.9 0 000-.22l-3.1 1.81z" fill="#585E63"/><path d="M108.938 36.81l.19.34 3.119-1.83a1.157 1.157 0 00-.25-.32l-3.059 1.81zm-.118-.2l3-1.73c-.25 0-3 1.63-3 1.63v.1z" fill="#585E63"/><path d="M109.647 37.45a1.154 1.154 0 00-.52-.9c-.28-.16-.51 0-.51.3a1.136 1.136 0 00.51.89c.29.17.52.04.52-.29z" fill="#585E63"/><path d="M109.647 37.45a1.154 1.154 0 00-.52-.9c-.28-.16-.51 0-.51.3a1.136 1.136 0 00.51.89c.29.17.52.04.52-.29z" fill="#585E63"/><path d="M109.561 37.39a.93.93 0 00-.43-.73c-.23-.14-.42 0-.42.24a1.004 1.004 0 00.42.74c.24.13.43.02.43-.25z" fill="#585E63"/><path d="M108.747 36.306l-.485.28.924 1.602.485-.28-.924-1.602z" fill="#585E63"/><path d="M109.047 37.94l.14.24.48-.27c.18-.27.19-.31.19-.36 0-.05-.81.39-.81.39zm-.32-.56l.2.34.9-.52a1.755 1.755 0 00-.15-.37l-.95.55zm-.391-.68l.15.25.88-.5a.58.58 0 00-.16-.11l-.14-.07-.73.43z" fill="#585E63"/><path d="M108.93 37.72l.12.22.82-.48a1.255 1.255 0 000-.26l-.94.52zm-.442-.72l.24.43 1-.55a1.461 1.461 0 00-.31-.38l-.93.5zm-.152-.3l.73-.43h-.08a3.777 3.777 0 00-.72.32l.07.11z" fill="#585E63"/><path d="M109.39 37.76a1.466 1.466 0 00-.66-1.14c-.36-.21-.66 0-.66.38a1.462 1.462 0 00.66 1.13c.36.21.66.04.66-.37z" fill="#585E63"/><path d="M109.39 37.76a1.466 1.466 0 00-.66-1.14c-.36-.21-.66 0-.66.38a1.462 1.462 0 00.66 1.13c.36.21.66.04.66-.37z" fill="#585E63"/><path d="M109.268 37.69a1.176 1.176 0 00-.541-.93c-.3-.17-.539 0-.539.31a1.202 1.202 0 00.539.93c.27.17.541 0 .541-.31z" fill="#585E63"/><path d="M111.496 38.18a2.483 2.483 0 00-1.13-1.93.994.994 0 00-.33-.13v-.06a2.47 2.47 0 00-.329-1.104 2.471 2.471 0 00-.791-.836c-.62-.35-1.12-.07-1.12.64v.07a2.02 2.02 0 00-.34-.26c-.62-.35-1.12-.07-1.12.64a2.46 2.46 0 00.79 1.68.907.907 0 00-.19.61 2.452 2.452 0 001.12 1.93.749.749 0 00.82.06c.189.365.472.672.82.89.62.36 1.12.07 1.12-.64a1.991 1.991 0 00-.18-.8c.5.14.86-.16.86-.76zm-2.58-3.37a1.147 1.147 0 01.52.9c0 .33-.23.47-.52.3a1.155 1.155 0 01-.52-.9c0-.33.23-.46.52-.3zm-2 .75c0-.33.23-.47.52-.3a1.147 1.147 0 01.52.9c0 .33-.23.47-.52.3a1.143 1.143 0 01-.44-.9h-.08zm1.12 3.19a1.155 1.155 0 01-.52-.9c0-.33.23-.47.52-.3a1.132 1.132 0 01.52.9c.03.33-.2.46-.49.3h-.03zm1.64 1a1.155 1.155 0 01-.52-.9c0-.34.23-.47.52-.3a1.132 1.132 0 01.52.9c.03.28-.2.41-.49.25l-.03.05zm.66-1.56a1.174 1.174 0 01-.52-.9c0-.34.24-.47.52-.3a1.134 1.134 0 01.53.9c.03.28-.21.41-.5.25l-.03.05z" fill="#FFD000"/><path d="M111.236 38.41a2.47 2.47 0 00-.329-1.103 2.472 2.472 0 00-.791-.837 1.313 1.313 0 00-.34-.13 2.453 2.453 0 00-1.12-1.99c-.62-.36-1.12-.07-1.12.64v.07a1.58 1.58 0 00-.33-.26c-.62-.36-1.12-.07-1.12.64.038.64.321 1.242.79 1.68a.879.879 0 00-.2.6 2.49 2.49 0 001.13 1.94.75.75 0 00.82.05c.185.37.469.681.82.9.62.35 1.12.07 1.12-.64a2.196 2.196 0 00-.18-.81c.49.14.85-.16.85-.75zm-2.57-3.41a1.132 1.132 0 01.52.9c0 .33-.23.46-.52.29a1.132 1.132 0 01-.52-.9c0-.29.23-.42.52-.29zm-2 .74c0-.33.24-.46.53-.3a1.174 1.174 0 01.52.9c0 .34-.24.47-.52.3a1.132 1.132 0 01-.51-.86l-.02-.04zm1.15 3.26a1.155 1.155 0 01-.53-.9c0-.33.24-.46.53-.3a1.174 1.174 0 01.52.9c0 .3-.24.44-.52.3zm1.64 1a1.154 1.154 0 01-.52-.9c0-.33.23-.47.52-.3a1.149 1.149 0 01.52.9c.02.3-.23.39-.52.22V40zm.66-1.56a1.154 1.154 0 01-.52-.9c0-.33.23-.47.52-.3a1.149 1.149 0 01.52.9c0 .25-.23.39-.52.22v.08z" fill="#DDB400"/><path d="M109.107 37.66c0 .28-.2.39-.44.25a.988.988 0 01-.44-.75c0-.28.2-.39.44-.25a.996.996 0 01.44.75zM77.7 137l-.33.57-1.1-.65h-.07c-.11-.1-.13-.12-.14-.14l-.06-.08c0-.08 0-.1-.06-.11a.24.24 0 010-.11 1.468 1.468 0 01-.07-.34.283.283 0 010-.09v-.09L77.7 137zm.76-1.27l-.46.79-2.09-1.22c.082-.298.203-.584.36-.85l2.19 1.28zm.921-1.58l-.35.6-2-1.19a2.05 2.05 0 01.35-.24c.106-.064.22-.115.34-.15l1.66.98z" fill="#585E63"/><path d="M78 136.52l-.3.5-1.88-1.1c.002-.21.032-.418.09-.62l2.09 1.22zm.998-1.77l-.57 1-2.19-1.28c.19-.336.437-.637.73-.89l2.03 1.17zm.379-.6l-1.69-1h.73l1.12.65-.16.35z" fill="#585E63"/><path d="M76.93 136.6a3.339 3.339 0 011.54-2.62c.84-.48 1.52-.09 1.52.88a3.387 3.387 0 01-1.54 2.62c-.85.52-1.53.09-1.52-.88z" fill="#585E63"/><path d="M76.93 136.6a3.339 3.339 0 011.54-2.62c.84-.48 1.52-.09 1.52.88a3.387 3.387 0 01-1.54 2.62c-.85.52-1.53.09-1.52-.88z" fill="#585E63"/><path d="M118.526 81.32v73a4.004 4.004 0 01-.57 2.15 3.037 3.037 0 01-2.59 1.4 3.977 3.977 0 01-1.2-.2 4.108 4.108 0 01-.83-.39l-35.64-20a.612.612 0 01-.39-.34 1.098 1.098 0 01-.11-.51 2.65 2.65 0 01.38-1.25l.18-.27.21-.25c.147-.156.315-.29.5-.4a1.21 1.21 0 01.5-.16.612.612 0 01.54.21l34.26 19.22a.86.86 0 001.29-.74V81.32h3.47z" fill="#585E63"/><path d="M115.108 153.94a1.272 1.272 0 01-1.89 1.11l-.76-.43-34.06-19-.64-.72.21-.25c.147-.156.315-.29.5-.4a1.21 1.21 0 01.5-.16l.27.06.27.15 34.26 19.22a.86.86 0 001.29-.74v-4.27l.05 5.43z" fill="#585E63"/><path d="M118.528 81.32v73a3.51 3.51 0 01-1.62 3.17c-.469.268-1 .406-1.54.4a3.977 3.977 0 01-1.2-.2c3.69.26 2.79-1.58 2.79-1.58V81.32h1.57z" fill="#585E63"/><path d="M116.906 157.51a3.057 3.057 0 01-1.54.4 3.977 3.977 0 01-1.2-.2 4.163 4.163 0 01-.83-.39l-35.64-20-.19-.11-.2-.23a1.1 1.1 0 01-.11-.51l37 20.8c.87.298 1.8.38 2.71.24z" fill="#585E63"/><path d="M112.758 154.61a.29.29 0 01-.16 0 .301.301 0 01-.14 0l-34.88-19.41.18-.27.21-.25 34.79 19.38a.311.311 0 01.122.436.304.304 0 01-.122.114z" fill="#fff"/><path d="M118.531 81.32v73a4.004 4.004 0 01-.57 2.15c.25-4.3.23-71.07.21-75.17l.36.02z" fill="#585E63"/><path d="M118.841 81.33h-4.06v1.22h4.06v-1.22z" fill="#585E63"/><path d="M118.219 81.33h.62v1.28a1.77 1.77 0 01-.05.19.357.357 0 010 .08l-.07.1-.06.08a1.309 1.309 0 01-.25.23h-.14l-.05-1.96zm-1.41 0h.86v2.28a3.49 3.49 0 01-.86.11v-2.39zm-2.02 1.37v.06c0 .06.01-.04 0-.06zm.297-1.37h.65v2.22a2.447 2.447 0 01-.37-.17 1.549 1.549 0 01-.28-.2v-1.85z" fill="#585E63"/><path d="M117.668 81.33h.55v2.06a2.74 2.74 0 01-.55.22v-2.28zm-1.93 0h1.07v2.39a3.162 3.162 0 01-1.07-.17v-2.22zm-.65 0v1.85l-.12-.13-.12-.19v-.09a.817.817 0 000-.07.18.18 0 000-.08v-1.29h.24z" fill="#585E63"/><path d="M118.237 82.16a3.175 3.175 0 01-2.86 0 .879.879 0 010-1.66 3.168 3.168 0 012.86 0 .88.88 0 010 1.66z" fill="#585E63"/><path d="M118.237 82.16a3.175 3.175 0 01-2.86 0 .879.879 0 010-1.66 3.168 3.168 0 012.86 0 .88.88 0 010 1.66z" fill="#585E63"/><path d="M118.2 81.86a2.46 2.46 0 01-2.78 0 .724.724 0 01-.172-.82.724.724 0 01.172-.24 2.462 2.462 0 012.78 0 .71.71 0 01.233.53.721.721 0 01-.233.53z" fill="#585E63"/><path d="M115.411 84.19v70.31c.002.173-.034.344-.104.502a1.2 1.2 0 01-.755.655c-.166.048-.34.06-.511.033l-.83-.12.92.35a1.176 1.176 0 001.474-.548 1.19 1.19 0 00.136-.552V84.31l-.33-.12z" fill="#fff"/><path d="M75.818 102.53l-.33.56-1.1-.64h-.07c-.11-.1-.13-.12-.14-.14l-.06-.08a.566.566 0 01-.06-.12.271.271 0 010-.1 1.574 1.574 0 01-.07-.34.283.283 0 010-.09v-.09l1.83 1.04zm.762-1.29l-.46.78L74 100.8c.084-.294.205-.576.36-.84l2.22 1.28zm.918-1.58l-.35.6-2-1.19c.11-.092.228-.176.35-.25l.34-.15 1.66.99z" fill="#585E63"/><path d="M76.118 102l-.3.51-1.88-1.1c0-.213.03-.425.09-.63l2.09 1.22zm1.032-1.74l-.57 1-2.19-1.26c.19-.336.438-.637.73-.89l2.03 1.15zm.349-.6l-1.69-1h.73l1.12.65-.16.35z" fill="#585E63"/><path d="M75.05 102.11a3.319 3.319 0 011.54-2.62c.84-.48 1.52-.09 1.52.88a3.392 3.392 0 01-1.54 2.62c-.85.48-1.57.09-1.52-.88z" fill="#585E63"/><path d="M75.05 102.11a3.319 3.319 0 011.54-2.62c.84-.48 1.52-.09 1.52.88a3.392 3.392 0 01-1.54 2.62c-.85.48-1.57.09-1.52-.88z" fill="#585E63"/><path d="M140.817 42.35l.25 91.57a4.004 4.004 0 01-.57 2.15 3.002 3.002 0 01-1.05 1c-.469.269-1 .411-1.54.41a3.634 3.634 0 01-1.2-.21 4.379 4.379 0 01-.84-.38l-60.05-34.08a.656.656 0 01-.39-.34 1.131 1.131 0 01-.11-.51c.02-.442.15-.872.38-1.25.06-.09.12-.19.18-.27.065-.087.135-.171.21-.25.147-.156.315-.29.5-.4a1.24 1.24 0 01.5-.17.641.641 0 01.54.22l58.68 33.29a.843.843 0 00.855.003.857.857 0 00.425-.743l-.24-90.05 3.47.01z" fill="#585E63"/><path d="M137.639 133.51a1.265 1.265 0 01-.623 1.105 1.274 1.274 0 01-1.267.015l-.76-.44-58.48-33-.63-.72c.065-.087.135-.17.21-.25.147-.156.316-.29.5-.4a1.24 1.24 0 01.5-.17l.27.07.27.15 58.68 33.29a.846.846 0 00.855.003.857.857 0 00.425-.743v-4.27l.05 5.36z" fill="#585E63"/><path d="M140.821 42.35l.25 91.57a3.485 3.485 0 01-1.62 3.16c-.468.27-1 .412-1.54.41a3.634 3.634 0 01-1.2-.21c3.68.27 2.78-1.57 2.78-1.57l-.24-93.36h1.57z" fill="#585E63"/><path d="M139.447 137.08c-.469.269-1 .411-1.54.41a3.634 3.634 0 01-1.2-.21 4.379 4.379 0 01-.84-.38l-60.05-34.08-.19-.12-.2-.22a1.131 1.131 0 01-.11-.51l61.39 34.86c.877.313 1.82.399 2.74.25z" fill="#585E63"/><path d="M135.289 134.19a.256.256 0 01-.15 0 .273.273 0 01-.15 0l-59.29-33.47c.06-.09.12-.19.18-.27.065-.087.135-.171.21-.25l59.2 33.45a.31.31 0 010 .54z" fill="#fff"/><path d="M140.82 92.65l.25 41.27a4.002 4.002 0 01-.57 2.15c.25-4.3 0-39.32 0-43.42h.32zm.31-50.29h-4.06v1.22h4.06v-1.22z" fill="#585E63"/><path d="M140.508 42.36h.62v1.55a.336.336 0 01-.13.09l-.06.08a1.284 1.284 0 01-.25.22h-.14l-.04-1.94zm-1.41 0h.9v2.28a3.44 3.44 0 01-.86.12l-.04-2.4zm-1.989 1.45v.06c0 .06.01-.04 0-.06zm.267-1.45h.62v2.22a2.145 2.145 0 01-.38-.16 2.246 2.246 0 01-.28-.21l.04-1.85z" fill="#585E63"/><path d="M140 42.36h.55v2.06a2.264 2.264 0 01-.55.22v-2.28zm-2 0h1.06v2.4a3.061 3.061 0 01-1.06-.18v-2.22zm-.624 0v1.85l-.12-.13-.12-.18v-.09a.534.534 0 010-.08.206.206 0 010-.07v-1.3h.24z" fill="#585E63"/><path d="M140.538 43.2a3.194 3.194 0 01-2.87 0 .881.881 0 010-1.65 3.158 3.158 0 012.87 0 .89.89 0 010 1.65z" fill="#585E63"/><path d="M140.538 43.2a3.194 3.194 0 01-2.87 0 .881.881 0 010-1.65 3.158 3.158 0 012.87 0 .89.89 0 010 1.65z" fill="#585E63"/><path d="M140.489 42.9a2.462 2.462 0 01-2.77 0 .719.719 0 010-1.07 2.468 2.468 0 012.78 0 .72.72 0 01-.01 1.07z" fill="#585E63"/><path d="M137.708 44.36l.24 89.72a1.19 1.19 0 01-.413.908c-.13.113-.282.197-.448.245a1.183 1.183 0 01-.509.037l-.84-.12.93.35a1.176 1.176 0 001.478-.555c.089-.171.134-.362.132-.555l-.28-89.91-.29-.12z" fill="#fff"/><path d="M66.978 42.243l-.01.87 2.88.029.01-.87-2.88-.029z" fill="#585E63"/><path d="M69.45 43.16h.44v-.85a.875.875 0 000-.19c-.18-.26-.23-.31-.29-.35l-.15 1.39zm-1-.01h.61v-1.61a1.998 1.998 0 00-.61-.09v1.7zm-1.221-.01h.46v-1.58a2.04 2.04 0 00-.26.12 1.093 1.093 0 00-.21.14l.01 1.32z" fill="#585E63"/><path d="M69.059 43.15h.39v-1.46a1.678 1.678 0 00-.39-.16v1.62zm-1.371-.01h.76v-1.7a2.368 2.368 0 00-.76.11v1.59zm-.462 0v-1.32l-.08.09c-.12.22-.12.24-.13.25a.07.07 0 010 .05v.92l.21.01z" fill="#585E63"/><path d="M69.48 42.57a2.26 2.26 0 00-2 0 .63.63 0 000 1.18 2.26 2.26 0 002 0 .62.62 0 000-1.18z" fill="#585E63"/><path d="M69.48 42.57a2.26 2.26 0 00-2 0 .63.63 0 000 1.18 2.26 2.26 0 002 0 .62.62 0 000-1.18z" fill="#585E63"/><path d="M67.547 42.74l-.09.06a.49.49 0 00-.23.33c0 .15.11.29.31.41.136.079.285.133.44.16.121.03.245.05.37.06.346.018.69-.054 1-.21.2-.11.32-.25.32-.39a.51.51 0 00-.3-.4 1.83 1.83 0 00-.81-.22 2.24 2.24 0 00-.59.05 1.727 1.727 0 00-.42.15zm12.641 16.641l-1.575 2.74.827.475 1.575-2.74-.827-.475zM78.63 62.19l-.24.41.81.47.19.07h.07a1.13 1.13 0 00.42-.1H80l-1.37-.85z" fill="#585E63"/><path d="M79.176 61.24l-.34.57 1.54.89a3.1 3.1 0 00.41-.53l-1.61-.93zm.67-1.16l-.26.44 1.5.86c.01-.103.01-.207 0-.31.01-.09.01-.18 0-.27l-1.24-.72z" fill="#585E63"/><path d="M78.839 61.81l-.21.38 1.37.81c.132-.085.256-.182.37-.29l-1.53-.9zm.751-1.29l-.41.72 1.61.93c.142-.245.243-.512.3-.79l-1.5-.86zm.258-.44l1.24.72v-.13c-.1-.19-.11-.2-.13-.21v-.05l-.83-.48-.28.15z" fill="#585E63"/><path d="M79.179 62.53a2.48 2.48 0 001.11-1.94c0-.71-.5-1-1.11-.65a2.47 2.47 0 00-1.12 1.94c0 .71.5 1 1.12.65z" fill="#585E63"/><path d="M79.179 62.53a2.48 2.48 0 001.11-1.94c0-.71-.5-1-1.11-.65a2.47 2.47 0 00-1.12 1.94c0 .71.5 1 1.12.65z" fill="#585E63"/><path d="M80.047 60.6v-.12a.541.541 0 00-.19-.4.57.57 0 00-.55.07c-.149.09-.284.2-.4.33a2.852 2.852 0 00-.25.33 2.1 2.1 0 00-.34 1.07.59.59 0 00.2.52.61.61 0 00.55-.08 2 2 0 00.64-.66 2.34 2.34 0 00.27-.58c.046-.156.07-.317.07-.48z" fill="#585E63"/><path d="M79.848 60.08l-8.38-4.76a4 4 0 01-1.81-3.12v-9.12l-.72-.41-.28-.16-1.42.6V52a7.44 7.44 0 003.37 5.81l7.94 4.59.87-.74.19-.69.24-.89z" fill="#585E63"/><path d="M68.08 44a.3.3 0 00-.26.3v8.07a6.53 6.53 0 002.91 5l7.27 4.2a.23.23 0 00.27 0 .24.24 0 000-.38l-.88-.47-6.63-4.28a4.9 4.9 0 01-2.26-3.89v-8.27a.308.308 0 00-.228-.293.31.31 0 00-.132-.007l-.06.02z" fill="#585E63"/><path d="M80.049 60.6v-.12l-.19-.4-8.38-4.76a4.001 4.001 0 01-1.81-3.12v-9.12l-.72-.41V51a5.7 5.7 0 003.37 5.81l6.6 3.68 1.07.6c.043-.16.064-.324.06-.49zm.57 2.99l-.33.57-1.1-.65h-.07c-.11-.1-.13-.12-.14-.14l-.06-.08a.568.568 0 01-.06-.12.22.22 0 010-.1 1.578 1.578 0 01-.07-.34.277.277 0 010-.09v-.09l1.83 1.04zm.759-1.29l-.46.79-2.09-1.22c.082-.298.203-.584.36-.85l2.19 1.28zm.922-1.58l-.35.6-2-1.19a2.71 2.71 0 01.35-.25l.34-.15 1.66.99z" fill="#585E63"/><path d="M80.918 63.09l-.3.5-1.88-1.1a2.27 2.27 0 01.09-.62l2.09 1.22zm1.08-1.77l-.57 1-2.24-1.32c.19-.336.437-.637.73-.89l2.08 1.21zm.302-.6l-1.69-1h.71l1.12.65-.14.35z" fill="#585E63"/><path d="M79.848 63.17a3.318 3.318 0 011.54-2.62c.84-.48 1.52-.09 1.52.88a3.39 3.39 0 01-1.54 2.62c-.85.48-1.53.09-1.52-.88z" fill="#585E63"/><path d="M79.848 63.17a3.318 3.318 0 011.54-2.62c.84-.48 1.52-.09 1.52.88a3.39 3.39 0 01-1.54 2.62c-.85.48-1.53.09-1.52-.88z" fill="#585E63"/><path d="M121.268 60.56v20a4 4 0 01-.58 2.15 3.006 3.006 0 01-1.05 1 3.003 3.003 0 01-1.53.41 3.66 3.66 0 01-1.2-.21 4.435 4.435 0 01-.84-.38l-35.45-19.65a.62.62 0 01-.39-.34 1.1 1.1 0 01-.11-.51c.02-.442.15-.872.38-1.25l.18-.27.21-.25c.147-.156.315-.29.5-.4a1.21 1.21 0 01.5-.16.61.61 0 01.54.21l34.07 18.89a.857.857 0 001.176-.318.871.871 0 00.114-.432V60.56h3.48z" fill="#585E63"/><path d="M117.84 80.17a1.275 1.275 0 01-1.221 1.244 1.267 1.267 0 01-.619-.134l-.76-.43-33.92-18.62-.64-.72.21-.25c.147-.156.315-.29.5-.4a1.21 1.21 0 01.5-.16l.27.06.27.15L116.5 79.8a.859.859 0 001.29-.75v-4.27l.05 5.39z" fill="#585E63"/><path d="M121.27 60.56v20a3.496 3.496 0 01-1.63 3.16 3 3 0 01-1.53.41 3.664 3.664 0 01-1.2-.21c3.68.27 2.78-1.58 2.78-1.58V60.56h1.58z" fill="#585E63"/><path d="M119.638 83.74a3.003 3.003 0 01-1.53.41 3.66 3.66 0 01-1.2-.21 4.435 4.435 0 01-.84-.38l-35.45-19.68-.19-.11-.2-.23a1.1 1.1 0 01-.11-.51l36.79 20.46a5.65 5.65 0 002.73.25z" fill="#585E63"/><path d="M115.49 80.85a.42.42 0 01-.15 0 .28.28 0 01-.15 0L80.5 61.78l.18-.27.21-.25 34.6 19.05a.308.308 0 010 .54z" fill="#fff"/><path d="M121.268 60.56v20a4.009 4.009 0 01-.58 2.15c.259-4.3.229-18.07.209-22.17l.371.02z" fill="#585E63"/><path d="M121.576 60.57h-4.06v1.22h4.06v-1.22z" fill="#585E63"/><path d="M121 60.57h.61v1.28a.755.755 0 010 .19v.08l-.06.11-.07.08a1.6 1.6 0 01-.24.22h-.14l-.1-1.96zm-1.453 0h.85v2.28c-.278.073-.563.11-.85.11v-2.39zm-2 1.43v.07c0 .02.01-.07 0-.07zm.273-1.43h.66v2.22a1.407 1.407 0 01-.37-.17 1.693 1.693 0 01-.29-.2v-1.85zm2.578 0h.6v2.06c-.177.096-.365.17-.56.22l-.04-2.28z" fill="#585E63"/><path d="M118.477 60.57h1.07V63a2.857 2.857 0 01-1.07-.17v-2.26zm-.658 0v1.85l-.12-.13c-.1-.15-.11-.17-.11-.19a.339.339 0 010-.09.273.273 0 010-.07.206.206 0 010-.07v-1.3h.23z" fill="#585E63"/><path d="M120.999 61.4a3.158 3.158 0 01-2.87 0 .872.872 0 01-.43-1.333.872.872 0 01.43-.317 3.158 3.158 0 012.87 0 .878.878 0 01.416 1.328.879.879 0 01-.416.322z" fill="#585E63"/><path d="M120.999 61.4a3.158 3.158 0 01-2.87 0 .872.872 0 01-.43-1.333.872.872 0 01.43-.317 3.158 3.158 0 012.87 0 .878.878 0 01.416 1.328.879.879 0 01-.416.322z" fill="#585E63"/><path d="M120.726 61.25a2.647 2.647 0 01-2.36 0 .722.722 0 01-.35-1.097.722.722 0 01.35-.263 2.59 2.59 0 012.36 0 .718.718 0 01.35 1.097.718.718 0 01-.35.263z" fill="#585E63"/><path d="M118.147 63.43v17.31a1.214 1.214 0 01-.419.909 1.211 1.211 0 01-.96.281l-.83-.13.929.36a1.194 1.194 0 001.473-.558c.09-.17.137-.36.137-.552v-17.5l-.33-.12z" fill="#fff"/><path d="M69.969 42.33h-3v.9h3v-.9z" fill="#585E63"/><path d="M69.508 42.33h.49v1a.476.476 0 010 .14c-.18.27-.24.32-.3.36l-.19-1.5zm-1.039 0h.64V44a2.292 2.292 0 01-.64.08v-1.75zm-1.269 0h.48V44a1.702 1.702 0 01-.27-.13.711.711 0 01-.21-.15v-1.39z" fill="#585E63"/><path d="M69.11 42.33h.4v1.53a1.77 1.77 0 01-.4.16v-1.69zm-1.43 0h.79v1.77a2.56 2.56 0 01-.79-.12v-1.65zm-.48 0v1.37l-.09-.09-.11-.21v-1.06l.2-.01z" fill="#585E63"/><path d="M69.531 43a2.33 2.33 0 01-2.12 0c-.59-.34-.59-.88 0-1.22a2.33 2.33 0 012.12 0 .65.65 0 010 1.22z" fill="#585E63"/><path d="M69.531 43a2.33 2.33 0 01-2.12 0c-.59-.34-.59-.88 0-1.22a2.33 2.33 0 012.12 0 .65.65 0 010 1.22z" fill="#585E63"/><path d="M69.338 42.84a1.94 1.94 0 01-1.74 0c-.48-.27-.48-.72 0-1a1.91 1.91 0 011.74 0 .53.53 0 010 1z" fill="#585E63"/><path d="M69.66 1.62h-2.37v40.72h2.37V1.62z" fill="#585E63"/><path d="M69.297 1.62h.36v40.91a.88.88 0 01-.22.24c-.14.06-.14-41.15-.14-41.15zm-.82 0h.5V43a2.07 2.07 0 01-.5.06V1.62zm-1.008 0h.38v41.3a.809.809 0 01-.21-.1.708.708 0 01-.17-.11V1.62z" fill="#585E63"/><path d="M69 1.62h.32v41.21c-.1.068-.208.124-.32.17V1.62zm-1.152 0h.63V43a1.849 1.849 0 01-.63-.1V1.62zm-.378 0v41.09l-.07-.08c-.11-.29-.11-41-.11-41l.18-.01z" fill="#585E63"/><path d="M69.316 2.1a1.84 1.84 0 01-1.68 0 .51.51 0 010-1 1.85 1.85 0 011.67 0c.46.3.47.74.01 1z" fill="#585E63"/><path d="M69.316 2.1a1.84 1.84 0 01-1.68 0 .51.51 0 010-1 1.85 1.85 0 011.67 0c.46.3.47.74.01 1z" fill="#585E63"/><path d="M69.169 2a1.53 1.53 0 01-1.38 0 .42.42 0 010-.79 1.5 1.5 0 011.37 0c.38.23.38.59.01.79z" fill="#585E63"/><path d="M69.969.87h-3v.9h3v-.9z" fill="#585E63"/><path d="M69.508.87h.49v.94a.476.476 0 010 .14 1.43 1.43 0 01-.3.37l-.19-1.45zm-1.039 0h.64v1.68a2.3 2.3 0 01-.64.09V.87zM67.2.87h.48v1.64a1.13 1.13 0 01-.27-.13.57.57 0 01-.21-.15V.87z" fill="#585E63"/><path d="M69.11.87h.4v1.52a1.76 1.76 0 01-.4.16V.87zm-1.43 0h.79v1.77a2.3 2.3 0 01-.79-.13V.87zm-.48 0v1.36l-.09-.09-.11-.21a.417.417 0 000-.05v-1l.2-.01z" fill="#585E63"/><path d="M69.528 1.48a2.33 2.33 0 01-2.12 0 .65.65 0 010-1.23 2.33 2.33 0 012.12 0 .64.64 0 010 1.23z" fill="#585E63"/><path d="M69.528 1.48a2.33 2.33 0 01-2.12 0 .65.65 0 010-1.23 2.33 2.33 0 012.12 0 .64.64 0 010 1.23z" fill="#585E63"/><path d="M69.34 1.37a1.91 1.91 0 01-1.74 0 .53.53 0 010-1 1.94 1.94 0 011.74 0c.48.27.48.72 0 1zm7.403 105.893l-.009.87 2.88.029.01-.87-2.88-.029z" fill="#585E63"/><path d="M79.219 108.21h.44v-1.04a1.336 1.336 0 00-.29-.36l-.15 1.4zm-1-.01h.61v-1.62a2.995 2.995 0 00-.61-.09v1.71zM77 108.19h.47v-1.57l-.26.11-.21.15v1.31z" fill="#585E63"/><path d="M78.828 108.21h.39v-1.46a1.712 1.712 0 00-.39-.16v1.62zm-1.358-.02h.75v-1.7a2.392 2.392 0 00-.76.12l.01 1.58zm-.47 0v-1.31l-.08.09c-.12.22-.12.23-.13.25v.87l.21.1z" fill="#585E63"/><path d="M79.247 107.62a2.266 2.266 0 00-2 0 .623.623 0 00-.3.944.604.604 0 00.3.226 2.226 2.226 0 002 0 .614.614 0 00.414-.585.617.617 0 00-.414-.585z" fill="#585E63"/><path d="M79.247 107.62a2.266 2.266 0 00-2 0 .623.623 0 00-.3.944.604.604 0 00.3.226 2.226 2.226 0 002 0 .614.614 0 00.414-.585.617.617 0 00-.414-.585z" fill="#585E63"/><path d="M77.32 107.8l-.09.06a.465.465 0 00-.23.32.508.508 0 00.31.41c.136.082.284.14.44.17.123.015.247.015.37 0 .345.021.69-.048 1-.2.2-.12.32-.26.32-.4s-.11-.28-.3-.4a1.994 1.994 0 00-.81-.22 2.77 2.77 0 00-.59 0c-.15.068-.292.156-.42.26zm12.404 17.115l-1.576 2.728.823.475 1.576-2.728-.823-.475z" fill="#585E63"/><path d="M88.4 127.24l-.24.42.81.46.19.08h.07a1.38 1.38 0 00.43-.09h.06l-1.32-.87zm.6-.95l-.34.58 1.54.89a3.2 3.2 0 00.41-.54l-1.61-.93zm.62-1.16l-.26.44 1.5.87a1.82 1.82 0 000-.32c.01-.089.01-.18 0-.27l-1.24-.72z" fill="#585E63"/><path d="M88.608 126.87l-.21.37 1.39.8c.13-.08.25-.174.36-.28l-1.54-.89zm.752-1.3l-.41.72 1.61.93c.14-.242.24-.506.3-.78l-1.5-.87zm.257-.44l1.24.72a.689.689 0 000-.13c-.1-.18-.11-.2-.13-.21l-.82-.47-.29.09z" fill="#585E63"/><path d="M89 127.58a2.46 2.46 0 001.11-1.93c0-.71-.5-1-1.11-.65a2.45 2.45 0 00-1.11 1.93c-.05.72.44 1.01 1.11.65z" fill="#585E63"/><path d="M89 127.58a2.46 2.46 0 001.11-1.93c0-.71-.5-1-1.11-.65a2.45 2.45 0 00-1.11 1.93c-.05.72.44 1.01 1.11.65z" fill="#585E63"/><path d="M89.817 125.65v-.12a.543.543 0 00-.19-.39c-.09-.036-.188-.048-.284-.036a.572.572 0 00-.266.106 1.7 1.7 0 00-.4.33 2.67 2.67 0 00-.25.32 2.098 2.098 0 00-.34 1.07.45.45 0 00.75.44c.263-.161.482-.384.64-.65.116-.183.207-.382.27-.59a1.66 1.66 0 00.07-.48z" fill="#585E63"/><path d="M89.618 125.13l-8.38-4.76a4.001 4.001 0 01-1.81-3.11v-9.12l-.72-.42-.28-.16-1.42.6v8.93a7.434 7.434 0 003.37 5.81l7.94 4.59.88-.74.18-.69.24-.93z" fill="#585E63"/><path d="M77.846 109a.298.298 0 00-.26.31v8.07a6.51 6.51 0 002.91 5l7.26 4.19a.238.238 0 00.199.055.246.246 0 00.097-.04.247.247 0 00.1-.18.24.24 0 00-.166-.245l-.88-.47-6.63-4.27a4.91 4.91 0 01-2.26-3.9v-8.23a.308.308 0 00-.226-.302.304.304 0 00-.134-.008l-.01.02z" fill="#585E63"/><path d="M89.819 125.65v-.12l-.19-.39-8.38-4.77a4 4 0 01-1.81-3.11v-9.12l-.72-.42V116a5.698 5.698 0 003.37 5.81l6.6 3.69 1.07.59c.04-.143.06-.291.06-.44z" fill="#585E63"/><path d="M79.738 107.39h-3v.9h3v-.9z" fill="#585E63"/><path d="M79.281 107.39h.46v1.08a1.36 1.36 0 01-.31.37h-.05l-.1-1.45zm-1.043 0h.64v1.68a2.236 2.236 0 01-.64.09v-1.77zm-1.238 0h.48V109a1.112 1.112 0 01-.27-.12l-.21-.15v-1.34zm1.879 0h.4v1.52a1.75 1.75 0 01-.4.16v-1.68z" fill="#585E63"/><path d="M77.45 107.39h.79v1.77a2.309 2.309 0 01-.79-.13v-1.64zm-.453 0v1.36l-.09-.09a.982.982 0 01-.11-.2v-1.11l.2.04z" fill="#585E63"/><path d="M79.298 108a2.326 2.326 0 01-2.12 0 .652.652 0 01-.319-.993.652.652 0 01.319-.237 2.364 2.364 0 012.12 0c.59.35.59.89 0 1.23z" fill="#585E63"/><path d="M79.298 108a2.326 2.326 0 01-2.12 0 .652.652 0 01-.319-.993.652.652 0 01.319-.237 2.364 2.364 0 012.12 0c.59.35.59.89 0 1.23z" fill="#585E63"/><path d="M79.11 107.89a1.908 1.908 0 01-1.74 0 .525.525 0 01-.354-.5.527.527 0 01.354-.5 1.946 1.946 0 011.74 0c.48.28.48.73 0 1z" fill="#585E63"/><path d="M79.429 7.3h-2.37v100.1h2.37V7.3z" fill="#585E63"/><path d="M79.07 7.3h.36v100.08a1.331 1.331 0 01-.05.21.765.765 0 01-.22.23c-.09.06-.09-100.52-.09-100.52zm-.82 0h.5V108a1.66 1.66 0 01-.5.07V7.3zm-1.012 0h.38V108a1.36 1.36 0 01-.21-.1l-.17-.12V7.3zm1.512 0h.32v100.58c-.1.058-.208.102-.32.13V7.3z" fill="#585E63"/><path d="M77.617 7.3h.63v100.78a1.825 1.825 0 01-.63-.1V7.3zm-.378 0v100.46a.459.459 0 00-.07-.07c-.11-.3-.11-100.39-.11-100.39h.18z" fill="#585E63"/><path d="M79.09 7.78a1.84 1.84 0 01-1.68 0 .51.51 0 010-1 1.85 1.85 0 011.67 0 .5.5 0 01.01 1z" fill="#585E63"/><path d="M79.09 7.78a1.84 1.84 0 01-1.68 0 .51.51 0 010-1 1.85 1.85 0 011.67 0 .5.5 0 01.01 1z" fill="#585E63"/><path d="M78.939 7.7a1.56 1.56 0 01-1.38 0 .42.42 0 010-.79 1.5 1.5 0 011.37 0 .43.43 0 01.01.79z" fill="#585E63"/><path d="M79.738 6.55h-3v.9h3v-.9z" fill="#585E63"/><path d="M79.281 6.55h.46v1.08a1.36 1.36 0 01-.31.37h-.05l-.1-1.45zm-1.043 0h.64v1.68a2.25 2.25 0 01-.64.09V6.55zM77 6.55h.48v1.64a1.69 1.69 0 01-.27-.12 1.16 1.16 0 01-.21-.16V6.55zm1.879 0h.4v1.52a1.76 1.76 0 01-.4.16V6.55z" fill="#585E63"/><path d="M77.45 6.55h.79v1.77a2.3 2.3 0 01-.79-.13V6.55zm-.451 0v1.36l-.09-.09c-.1-.17-.11-.19-.11-.21a.175.175 0 010-.05v-1l.2-.01z" fill="#585E63"/><path d="M79.298 7.16a2.33 2.33 0 01-2.12 0 .65.65 0 010-1.23 2.36 2.36 0 012.12 0c.59.35.59.89 0 1.23z" fill="#585E63"/><path d="M79.298 7.16a2.33 2.33 0 01-2.12 0 .65.65 0 010-1.23 2.36 2.36 0 012.12 0c.59.35.59.89 0 1.23z" fill="#585E63"/><path d="M79.11 7.05a1.91 1.91 0 01-1.74 0 .53.53 0 010-1 1.94 1.94 0 011.74 0c.48.27.48.72 0 1z" fill="#585E63"/><path d="M112.809 52.59c0-3 5.16-5 7.75-3.54a10.41 10.41 0 014.71 8.12c0 3-4.71 6.38-7.31 4.88-2.6-1.5-5.15-6.49-5.15-9.46z" fill="#FFD000"/><path d="M113.16 53.82a9.406 9.406 0 004.26 7.36c2.36 1.36 4.27.27 4.27-2.43a9.389 9.389 0 00-4.27-7.36c-2.35-1.39-4.26-.28-4.26 2.43z" fill="#fff"/><path d="M112.719 53.57c0-3 2.11-4.18 4.7-2.68a10.347 10.347 0 014.71 8.11c0 3-2.11 4.18-4.71 2.68a10.362 10.362 0 01-4.7-8.11zm.87.5a8.45 8.45 0 003.83 6.61c2.12 1.22 3.84.24 3.84-2.18a8.447 8.447 0 00-3.84-6.61c-2.11-1.22-3.83-.24-3.83 2.18z" fill="#DDB400"/><path d="M107.577 112.73v19.54c0 1.68-1.08 3.36-3.29 4.64-4.42 2.55-11.6 2.54-16 0-2.21-1.27-3.33-2.94-3.35-4.61v-19.57h22.64z" fill="#585E63"/><path d="M104.279 117.38c-4.41 2.54-11.59 2.53-16 0s-4.46-6.71 0-9.26 11.59-2.54 16 0 4.42 6.71 0 9.26z" fill="#717171"/><path d="M101.658 113.43a11.934 11.934 0 01-10.81 0c-3-1.73-3-4.53 0-6.24a11.943 11.943 0 0110.81 0c2.97 1.72 2.98 4.52 0 6.24z" fill="#919191"/><path d="M99.848 107.7h-6.86v2.07h6.86v-2.07z" fill="#585E63"/><path d="M94 107.7h-1v2.13a2.5 2.5 0 00.07.32l.07.14.05.1a.34.34 0 01.05.08l.07.09c.11.128.238.239.38.33l.11.08.13.07.07-3.34zm2.42 0H95v3.85c.473.128.96.195 1.45.2l-.03-4.05zm3.381 2.44v.11c0 .04-.01-.07 0-.11zm.035-.21v.06a.13.13 0 000-.06zm-.499-2.23h-1.11v3.76a4.44 4.44 0 00.63-.29c.17-.1.332-.218.48-.35v-3.12zm-4.337 0h-1v3.48c.293.164.605.288.93.37l.07-3.85z" fill="#585E63"/><path d="M98.228 107.7h-1.81v4a5.624 5.624 0 001.81-.29v-3.71zm1.108 0v3.12l.16-.17.05-.06v-.06a.952.952 0 01.05-.1v-.11a1.084 1.084 0 000-.13.729.729 0 000-.12v-2.37h-.26z" fill="#585E63"/><path d="M94 109.1a5.351 5.351 0 004.85 0c1.351-.77 1.351-2 0-2.8a5.35 5.35 0 00-4.85 0c-1.34.78-1.35 2.03 0 2.8z" fill="#585E63"/><path d="M94 109.1a5.351 5.351 0 004.85 0c1.351-.77 1.351-2 0-2.8a5.35 5.35 0 00-4.85 0c-1.34.78-1.35 2.03 0 2.8z" fill="#585E63"/><path d="M94.43 108.85a4.4 4.4 0 004 0 1.205 1.205 0 00.834-1.15 1.209 1.209 0 00-.833-1.15 4.4 4.4 0 00-4 0c-1.09.64-1.1 1.67 0 2.3z" fill="#585E63"/><path d="M99.11 99.55H93.7v8.16h5.41v-8.16z" fill="#585E63"/><path d="M94.53 99.55h-.83v8.24c0 .18.05.21.06.25l.05.11.05.08a.215.215 0 000 .06v.07c.104.106.214.206.33.3h.09l.1.06.15-9.17zm1.878 0h-1.15v9.57c.375.101.761.152 1.15.15v-9.72zm2.3 0h-.88v9.5c.173-.062.34-.139.5-.23.136-.077.263-.167.38-.27v-9z" fill="#585E63"/><path d="M95.261 99.55h-.73v9.28c.231.125.476.222.73.29v-9.57zm2.569 0h-1.42v9.72a4.13 4.13 0 001.42-.22v-9.5zm.88 0v9l.13-.13.06-.09.06-.09v-.19a.418.418 0 010-.1v-8.4h-.25z" fill="#585E63"/><path d="M94.489 100.66a4.233 4.233 0 003.83 0 1.171 1.171 0 000-2.21 4.21 4.21 0 00-3.83 0 1.17 1.17 0 000 2.21z" fill="#585E63"/><path d="M94.489 100.66a4.233 4.233 0 003.83 0 1.171 1.171 0 000-2.21 4.21 4.21 0 00-3.83 0 1.17 1.17 0 000 2.21z" fill="#585E63"/><path d="M94.829 100.46a3.442 3.442 0 003.14 0c.87-.5.88-1.31 0-1.81a3.47 3.47 0 00-3.14 0 1 1 0 000 1.81z" fill="#585E63"/><path d="M99.848 97.83h-6.86v2.07h6.86v-2.07z" fill="#585E63"/><path d="M94 97.83h-1v2.14c.016.105.039.209.07.31.017.05.04.097.07.14.012.035.03.069.05.1l.05.08v.06l.07.08c.113.128.24.242.38.34l.11.07.13.08.07-3.4zm2.42 0H95v3.86c.472.129.96.193 1.45.19l-.03-4.05zm3.381 2.44v.11c0 .03-.01-.07 0-.11zm.035-.2v.06a.13.13 0 000-.06zm-.499-2.24h-1.11v3.76c.216-.077.427-.17.63-.28.169-.103.33-.221.48-.35v-3.13zm-4.337 0h-1v3.49c.294.159.607.283.93.37l.07-3.86z" fill="#585E63"/><path d="M98.228 97.83h-1.81v4a5.357 5.357 0 001.81-.29v-3.71zm1.108 0V101c.058-.052.112-.109.16-.17l.05-.06a.43.43 0 010-.07l.05-.09v-.16a1 1 0 000-.12 1 1 0 000-.12v-2.38h-.26z" fill="#585E63"/><path d="M94 99.24a5.379 5.379 0 004.85 0c1.351-.78 1.351-2 0-2.8a5.35 5.35 0 00-4.85 0c-1.34.77-1.35 2.03 0 2.8z" fill="#585E63"/><path d="M94 99.24a5.379 5.379 0 004.85 0c1.351-.78 1.351-2 0-2.8a5.35 5.35 0 00-4.85 0c-1.34.77-1.35 2.03 0 2.8z" fill="#585E63"/><path d="M94.427 99a4.401 4.401 0 004 0c1.1-.64 1.11-1.67 0-2.3a4.4 4.4 0 00-4 0 1.21 1.21 0 000 2.3z" fill="#585E63"/><path d="M99.209 96.1h-5.58v1.68h5.58V96.1z" fill="#585E63"/><path d="M94.489 96.1h-.86v1.76c.011.088.031.176.06.26a.64.64 0 00.05.11v.08l.05.07v.07c.106.114.224.218.35.31l.09.06.1.06.16-2.78zm1.929 0h-1.18v3.14c.386.1.782.15 1.18.15V96.1zm2.372 0h-.9v3.06c.177-.063.347-.14.51-.23.14-.084.27-.18.39-.29V96.1z" fill="#585E63"/><path d="M95.238 96.1h-.75v2.83c.237.133.489.237.75.31V96.1zm2.65 0h-1.47v3.29c.5.011.998-.066 1.47-.23V96.1zm.902 0v2.54l.13-.14.06-.09.06-.09v-.08a.801.801 0 000-.12.808.808 0 010-.11V96.1h-.25z" fill="#585E63"/><path d="M94.45 97.24a4.34 4.34 0 003.94 0 1.2 1.2 0 000-2.28 4.31 4.31 0 00-3.94 0c-1.09.64-1.09 1.66 0 2.28z" fill="#585E63"/><path d="M94.45 97.24a4.34 4.34 0 003.94 0 1.2 1.2 0 000-2.28 4.31 4.31 0 00-3.94 0c-1.09.64-1.09 1.66 0 2.28z" fill="#585E63"/><path d="M94.799 97a3.59 3.59 0 003.2 0 1 1 0 000-1.87 3.59 3.59 0 00-3.24 0 1 1 0 00.04 1.87z" fill="#585E63"/><path d="M98.61 89.48h-4.4v6.64h4.4v-6.64z" fill="#585E63"/><path d="M94.877 89.48h-.67v6.69c-.005.07-.005.14 0 .21v.15l.07.09c.077.093.168.174.27.24h.07l.08.05.18-7.43zm1.53 0h-.93v7.78c.303.081.616.122.93.12v-7.9zm2.191 6.79v.07c0 .07-.01-.05 0-.07zm-.318-6.79h-.71v7.72c.15-.052.294-.12.43-.2.111-.066.215-.143.31-.23l-.03-7.29z" fill="#585E63"/><path d="M95.479 89.48h-.6V97c.19.104.391.184.6.24v-7.76zm2.091 0h-1.16v7.9a3.4 3.4 0 001.16-.18v-7.72zm.711 0v7.31a.76.76 0 00.13-.14l.13-.2v-6.97h-.26z" fill="#585E63"/><path d="M94.848 90.38a3.44 3.44 0 003.11 0 1 1 0 000-1.8 3.44 3.44 0 00-3.11 0c-.85.5-.85 1.3 0 1.8z" fill="#585E63"/><path d="M94.848 90.38a3.44 3.44 0 003.11 0 1 1 0 000-1.8 3.44 3.44 0 00-3.11 0c-.85.5-.85 1.3 0 1.8z" fill="#585E63"/><path d="M95.128 90.22a2.83 2.83 0 002.55 0c.71-.41.72-1.07 0-1.47a2.8 2.8 0 00-2.55 0 .78.78 0 000 1.47z" fill="#585E63"/><path d="M99.209 88.08h-5.58v1.68h5.58v-1.68z" fill="#585E63"/><path d="M94.489 88.08h-.86v1.76c.011.088.031.176.06.26a.64.64 0 00.05.11v.08l.05.07v.07c.104.114.221.215.35.3l.09.07.1.06.16-2.78zm1.929 0h-1.18v3.14c.386.1.782.15 1.18.15v-3.29zm2.372 0h-.9v3.06c.179-.062.35-.142.51-.24.141-.077.272-.171.39-.28v-2.54z" fill="#585E63"/><path d="M95.238 88.08h-.75v2.83c.237.133.489.237.75.31v-3.14zm2.65 0h-1.47v3.29c.5.007.996-.071 1.47-.23v-3.06zm.902 0v2.54l.13-.14.06-.09.06-.09v-.2a.808.808 0 010-.11v-1.91h-.25z" fill="#585E63"/><path d="M94.451 89.22a4.31 4.31 0 003.94 0c1.09-.63 1.1-1.65 0-2.27a4.34 4.34 0 00-3.94 0 1.2 1.2 0 000 2.27z" fill="#585E63"/><path d="M94.451 89.22a4.31 4.31 0 003.94 0c1.09-.63 1.1-1.65 0-2.27a4.34 4.34 0 00-3.94 0 1.2 1.2 0 000 2.27z" fill="#585E63"/><path d="M94.799 89a3.59 3.59 0 003.2 0 1 1 0 000-1.87 3.59 3.59 0 00-3.24 0 1 1 0 00.04 1.87z" fill="#585E63"/><path d="M100.928 87.36h-9.01v2.72h9.01v-2.72z" fill="#585E63"/><path d="M93.288 87.36h-1.37v3.09a.84.84 0 00.05.17v.06l.06.13.08.13a.61.61 0 00.07.1.18.18 0 00.05.07.476.476 0 00.09.11l.05.06c.15.164.318.312.5.44l.15.1.16.09.11-4.55zm7.31 3.71v.06a.201.201 0 000-.06zm.079-.07a.201.201 0 010-.06l-.06.09.06-.03zm-4.259-3.64h-1.91v5.07a7.15 7.15 0 001.91.25v-5.32zm4.501 2.94a.268.268 0 000 .08s-.01-.05 0-.08zm-.672-2.94h-1.45v4.94c.284-.099.558-.222.82-.37a3.23 3.23 0 00.63-.46v-4.11z" fill="#585E63"/><path d="M94.51 87.36h-1.22v4.58a5.2 5.2 0 001.22.49v-5.07zm4.288 0h-2.38v5.32a6.912 6.912 0 002.38-.38v-4.94zm1.452 0v4.11l.06-.06c.075-.068.145-.141.21-.22v-.06l.06-.08a.273.273 0 000-.07l.06-.09.06-.12v-.06l.06-.14v-.17c.003-.05.003-.1 0-.15a1.206 1.206 0 000-.17v-2.72h-.51z" fill="#585E63"/><path d="M93.23 89.21a7 7 0 006.37 0c1.77-1 1.78-2.67 0-3.68a7 7 0 00-6.37 0c-1.75 1.02-1.76 2.67 0 3.68z" fill="#585E63"/><path d="M93.23 89.21a7 7 0 006.37 0c1.77-1 1.78-2.67 0-3.68a7 7 0 00-6.37 0c-1.75 1.02-1.76 2.67 0 3.68z" fill="#585E63"/><path d="M93.799 88.88a5.8 5.8 0 005.23 0c1.45-.84 1.46-2.19 0-3a5.77 5.77 0 00-5.23 0c-1.43.81-1.44 2.17 0 3z" fill="#585E63"/><path d="M99.977 76.66h-7.11v10.72h7.11V76.66z" fill="#585E63"/><path d="M93.998 76.66h-1.08v10.82a1.31 1.31 0 000 .2.657.657 0 000 .13c.02.066.047.13.08.19a.878.878 0 010 .1l.06.08v.06a.27.27 0 00.07.08c.116.129.247.243.39.34l.12.08.13.08.23-12.16zm2.42 0h-1.5v12.58c.49.128.994.195 1.5.2V76.66zm3.019 0h-1.14v12.48a5.54 5.54 0 00.65-.3c.178-.099.343-.22.49-.36V76.66z" fill="#585E63"/><path d="M94.918 76.66h-1v12.19c.317.168.653.299 1 .39V76.66zm3.38 0h-1.88v12.78a5.792 5.792 0 001.88-.3V76.66zm1.14 0v11.82h.05a.854.854 0 00.16-.17v-.05l.05-.06v-.06a.43.43 0 000-.07l.05-.09v-.05a.493.493 0 000-.11V76.66h-.31z" fill="#585E63"/><path d="M93.898 78.12a5.6 5.6 0 005 0c1.39-.81 1.4-2.11 0-2.91a5.57 5.57 0 00-5 0c-1.38.79-1.38 2.11 0 2.91z" fill="#585E63"/><path d="M93.898 78.12a5.6 5.6 0 005 0c1.39-.81 1.4-2.11 0-2.91a5.57 5.57 0 00-5 0c-1.38.79-1.38 2.11 0 2.91z" fill="#585E63"/><path d="M94.35 77.85a4.55 4.55 0 004.13 0 1.26 1.26 0 000-2.39 4.56 4.56 0 00-4.12 0c-1.14.67-1.14 1.74-.01 2.39z" fill="#585E63"/><path d="M100.928 74.4h-9.01v2.72h9.01V74.4z" fill="#585E63"/><path d="M93.288 74.4h-1.37v3.09a.84.84 0 00.05.17v.06l.06.13.08.13c.02.036.043.07.07.1a.18.18 0 00.05.07.476.476 0 00.09.11l.05.06c.15.164.318.312.5.44l.15.1.16.09.11-4.55zm7.31 3.71v.06a.2.2 0 000-.06zm.079-.11a.201.201 0 010-.06l-.06.09.06-.03zm-4.259-3.6h-1.91v5.07a7.15 7.15 0 001.91.25V74.4zm4.501 2.94a.268.268 0 000 .08s-.01-.05 0-.08zm-.672-2.94h-1.45v4.94c.284-.099.558-.222.82-.37a3.19 3.19 0 00.63-.46V74.4z" fill="#585E63"/><path d="M94.51 74.4h-1.22V79a5.2 5.2 0 001.22.49V74.4zm4.288 0h-2.38v5.32a6.912 6.912 0 002.38-.38V74.4zm1.452 0v4.11l.06-.06c.075-.068.145-.141.21-.22v-.06l.06-.08a.273.273 0 000-.07l.06-.09.06-.12v-.06l.06-.14v-.17c.003-.05.003-.1 0-.15a1.206 1.206 0 000-.17V74.4h-.51z" fill="#585E63"/><path d="M93.23 76.25a7 7 0 006.37 0c1.77-1 1.78-2.67 0-3.68a7 7 0 00-6.37 0c-1.75 1.02-1.76 2.67 0 3.68z" fill="#585E63"/><path d="M93.23 76.25a7 7 0 006.37 0c1.77-1 1.78-2.67 0-3.68a7 7 0 00-6.37 0c-1.75 1.02-1.76 2.67 0 3.68z" fill="#585E63"/><path d="M93.799 75.92a5.8 5.8 0 005.23 0c1.45-.84 1.46-2.19 0-3a5.77 5.77 0 00-5.23 0c-1.43.81-1.44 2.17 0 3z" fill="#585E63"/><path d="M99.15 72.91H93.7v1.64h5.45v-1.64z" fill="#585E63"/><path d="M98.32 72.91h.83v1.72c0 .19-.05.22-.06.26L99 75v.08l-.05.06v.07a4.279 4.279 0 01-.33.3l-.09.06-.1.06-.11-2.72zm-1.89 0h1.15V76a4.38 4.38 0 01-1.15.15v-3.24zm-2.711 1.84v.09c0 .03.01-.06 0-.09zm.391-1.84H95v3a2.845 2.845 0 01-.5-.23 2.162 2.162 0 01-.38-.27l-.01-2.5z" fill="#585E63"/><path d="M97.578 72.91h.74v2.77c-.231.134-.48.235-.74.3v-3.07zm-2.578 0h1.44v3.22A4.26 4.26 0 0195 75.9v-2.99zm-.891 0v2.49l-.13-.13-.06-.09-.06-.09a.162.162 0 000-.07v-.13a.539.539 0 010-.1.34.34 0 010-.09.38.38 0 010-.1v-1.69h.25z" fill="#585E63"/><path d="M98.36 74a4.25 4.25 0 01-3.85 0c-1.07-.61-1.08-1.61 0-2.22a4.27 4.27 0 013.86 0 1.18 1.18 0 01-.01 2.22z" fill="#585E63"/><path d="M98.36 74a4.25 4.25 0 01-3.85 0c-1.07-.61-1.08-1.61 0-2.22a4.27 4.27 0 013.86 0 1.18 1.18 0 01-.01 2.22z" fill="#585E63"/><path d="M147.999 82.44l-.57 1-1.06 1.84-.05.09-.53.92-43.92-24.86-1.28-.74a1.278 1.278 0 00-1.753.476 1.28 1.28 0 00-.167.644v11a1 1 0 01-.62 1.12c-.31.173-.649.288-1 .34-.21.015-.42.015-.63 0a3.28 3.28 0 01-1.34-.29l-.08.02-.12-.07c-.52-.3-.73-.7-.64-1.09l.07-12.84a4.46 4.46 0 012.06-4 4.56 4.56 0 01.67-.31 5.179 5.179 0 014.27.32l46.69 26.43z" fill="#585E63"/><path d="M146.508 84.11l-.11 1.1v.11l-47.2-26.76a2.111 2.111 0 00-3.06 1.26l.28 14.38a3.278 3.278 0 01-1.34-.28c0-4.41.07-7 .08-14.1a2.86 2.86 0 014.4-2.28c5.58 3.31 32.74 18.46 46.95 26.57z" fill="#585E63"/><path d="M101.828 61.37l-1.27-.73a1.292 1.292 0 00-1.754.47 1.29 1.29 0 00-.176.64v11c.12.39-.09.81-.62 1.12a2.732 2.732 0 01-1 .33V60.68a1.29 1.29 0 012-1.09l2.82 1.78zm46.17 21.07l-.57 1c-2.12-1.27-37.71-21.52-42.79-24.59-6.72-4.05-7.57-3.16-7.63-3.15a5.18 5.18 0 014.27.32l46.72 26.42z" fill="#585E63"/><path d="M97.578 56.55a1.999 1.999 0 00-2.58 1.72c-.39 1.53 0 8.77 0 8.77s.12-5 .35-7.87a2 2 0 012.61-1.9 32.77 32.77 0 014.88 2.21 40.513 40.513 0 00-5.26-2.93zm49.828 24.975l-2.883 4.625 1.392.868 2.883-4.626-1.392-.867z" fill="#585E63"/><path d="M146.36 86.3l-.44.7-1.37-.85-.09-.06a1.151 1.151 0 01-.18-.18.55.55 0 01-.07-.11l-.05-.07v-.15a2.621 2.621 0 01-.07-.44v-.11a.482.482 0 010-.12l2.27 1.39zm.998-1.61l-.61 1-2.6-1.62a4.04 4.04 0 01.48-1.06l2.73 1.68zm1.22-1.96l-.46.74-2.54-1.58a2.6 2.6 0 01.46-.3c.137-.075.281-.135.43-.18l2.11 1.32z" fill="#585E63"/><path d="M146.75 85.67l-.39.63-2.36-1.47c.013-.265.06-.527.14-.78l2.61 1.62zm1.369-2.2l-.76 1.22-2.73-1.69a4.232 4.232 0 011-1.1l2.49 1.57zm.46-.74l-2.11-1.32h.05c.059-.01.12-.01.18 0h.62l.08.05 1.4.87-.22.4z" fill="#585E63"/><path d="M145.388 85.74a4.256 4.256 0 012-3.27c1.09-.58 1.94-.06 1.9 1.17a4.272 4.272 0 01-2.05 3.27c-1.04.58-1.89.09-1.85-1.17z" fill="#585E63"/><path d="M145.388 85.74a4.256 4.256 0 012-3.27c1.09-.58 1.94-.06 1.9 1.17a4.272 4.272 0 01-2.05 3.27c-1.04.58-1.89.09-1.85-1.17z" fill="#585E63"/><path d="M145.739 85.55a3.535 3.535 0 011.68-2.68c.89-.48 1.59-.05 1.55 1a3.502 3.502 0 01-1.67 2.68c-.9.45-1.59.01-1.56-1z" fill="#585E63"/><path d="M54.41 74.18a34.06 34.06 0 016.1 1.42c2.28.93 6.17 3.05 6.91 3.45 1.23.354 2.493.575 3.77.66a13.15 13.15 0 011.85-2 17.993 17.993 0 012.74-1.28s1.28-1.92 1.61-1c.33.92-.7 1.56-1 1.72-.459.41-.893.848-1.3 1.31l2.37-.06s5.73-.5 6-.14c.27.36.16.56-.81.8-.97.24-4.25.73-4.25.73s-.38.43.27.41c.65-.02 5.88-.58 5.89.06.01.64-.45.69-2.18.83-1.73.14-3.75.19-3.75.19s-.09.57.41.59c.5.02 4.44.07 4.69.47.25.4 0 .75-1.3.72-1.3-.03-4 .1-4 .1l-.43.51s3.77.34 3.82.79c.05.45-.63.61-1.44.56-.81-.05-6.69.09-7.79-.16a13.595 13.595 0 01-2.74-1.15s-13.66-1.84-15.8-2.4c-2.14-.56-3.67-.25-3-3.24l3.36-3.89z" fill="#DDBC98"/><path d="M38.908 57.82a5.62 5.62 0 015.16 2c2.28 2.66 7.88 11.67 8.11 11.75.23.08 3 2.54 3 2.54s-1.34 4.85-2.54 5.6-1.47.8-1.67.76c-.2-.04-7.45-5.71-9.86-10.22-2.41-4.51-3.87-12.16-2.2-12.43z" fill="#585E63"/><path d="M53.547 72.36s2.68.52 2.59 2.1c-.09 1.58-1.62 5.83-3.58 6.54a2.77 2.77 0 01-3.26-1.11c0-.19.29-3 1.56-4a14.574 14.574 0 002.69-3.53zM41.68 152.67s2.13 3.33 4.47 3.47c2.34.14 5.13 3.08 5.45 4.24.32 1.16.42 2.9-2.44 3.51-4.06.86-7.36-3.79-9.38-4-2.02-.21-6.33-1.39-6.45-2.65-.12-1.26 1-4.89 1-4.89s4.33 1.94 5.49 1.62a4.09 4.09 0 001.86-1.3z" fill="#585E63"/><path d="M41.659 151.89s2.13 3.33 4.47 3.47c2.34.14 5.13 3.09 5.45 4.25.32 1.16.42 2.89-2.44 3.5-4.06.86-7.36-3.79-9.38-4-2.02-.21-6.33-1.39-6.45-2.65a22.28 22.28 0 011-4.89s4.32 1.94 5.48 1.63a4.069 4.069 0 001.87-1.31z" fill="#585E63"/><path d="M41.657 151.89a23.876 23.876 0 003.15 3.11c.64.27 2.8 1.59 1.36 2.31-1.44.72-4.88-1.6-5.92-3.52-.62-1.2 1.41-1.9 1.41-1.9z" fill="#E0E0E0"/><path d="M29.237 161s4.59 5.6 6 6.35c1.41.75 1.26 3.4.8 4.68-.46 1.28-6.39 1.32-8.37-.39a50.143 50.143 0 01-6.22-7.73 2.381 2.381 0 01.53-2.76s2.83.64 3.71.81c.88.17 3.55-.96 3.55-.96z" fill="#585E63"/><path d="M29.319 160.14s3.63 5.62 5 6.36a4.702 4.702 0 011.77 4.66c-.46 1.28-6.39 1.32-8.38-.38-1.99-1.7-5.86-6.94-6.07-8-.39-1.81.92-4.21.92-4.21s2.29 2.31 3.17 2.49c.88.18 3.59-.92 3.59-.92z" fill="#585E63"/><path d="M28.75 159.86s3 5.11 3.39 5.88c.39.77-1.53 1.21-2.78.33-1.25-.88-2.36-5.71-2.36-5.71s1.3-1.26 1.75-.5z" fill="#E0E0E0"/><path d="M42.91 95.25s1.48 7.62 1.7 11.64c.22 4.02-1.82 24-1.76 25.2.06 1.2-1 5.86-.8 6.63.2.77.54 4.53.13 5.58a8.702 8.702 0 00-.35 3.64c0 1.68 1 4.05.55 4.74a5.256 5.256 0 01-5.45 1.6 5.083 5.083 0 01-3.74-2.7s-.71-6.14-.16-6.55c.55-.41-1.57-.09-1.4-2.17.17-2.08.05-7.13.05-7.13l1-6.51-1.43-3.47 1.52-16.64.32-7.92s6-.48 8-2.78 1.82-3.16 1.82-3.16z" fill="#585E63"/><path d="M37.258 100.32s-1.78 24.42-3.19 26.68a15.538 15.538 0 00-2 6.14c-.2 1.38-3.21 3.84-2.51 6.16.7 2.32-.71 6.37-.36 8.57s1.24 12 .62 13.05c-.62 1.05-4.24 1.89-6.74.23s-2.54-3.09-2.56-4.25c-.02-1.16 1.79-2.77.84-3.66-.95-.89-2.53-12.52-2.17-13.82.36-1.3 1.36-4.85 1.7-6 .34-1.15-.47-2.31.27-4s-.84-2.57-.8-3.48c.04-.91-2-22.13-1.29-24l1.84-4.59s7.1 2.28 7.7 2.61c.6.33 8.65.36 8.65.36z" fill="#585E63"/><path d="M37.857 58s4-.23 4.61 2.35c.61 2.58 3.59 13.41 2.3 17.2a50.895 50.895 0 00-1.71 13.16c.17 1.53-.2 2.45-.15 4.52.05 2.07-1.83 4.83-6 5.78-4.17.95-8.25-1-11.93-2.75-3.68-1.75-4.11-3.86-4.11-3.86s-2.87-3.74-1.39-5.33c1.48-1.59 1.84-1.86 1-4.95a55.108 55.108 0 01-1.29-7.76s-.81-9.32 1.47-11.7c2.28-2.38 7.93-4.6 7.93-4.6l9.27-2.06z" fill="#FFD000"/><path d="M36.537 69.65a27.002 27.002 0 011.95 6.66c.51 3.44-.12 21.69-.12 21.69l-1.43.59s.72-17.71-.08-23a51.182 51.182 0 00-1.31-5.52l.99-.42z" fill="#4A4A4A"/><path d="M36.34 69.66a27.088 27.088 0 012 6.65c.48 3.45-.12 21.71-.12 21.71l-1.43.59s.71-17.7-.08-23a50.856 50.856 0 00-1.32-5.52l.95-.43z" fill="#585E63"/><path d="M39.848 61.93l-2.14-2.06h-1.61l-7.67.5a1.68 1.68 0 00-.9 1.89c.23 1.42 2.92 5.57 3.32 5.75.4.18 5.49 1.62 5.49 1.62s3.7-3.31 3.55-5c-.089-.897-.102-1.8-.04-2.7z" fill="#F8F9FB"/><path d="M36.51 57.66c.51 0 2.1 4 2.16 6.76.06 2.76-2.33 5.24-2.33 5.24s-6-2.38-7.33-5.4c-1.33-3.02-.43-4.2-.43-4.2s.88-1.45 0-1.82c-.88-.37-3.3 2.49-3.42 3.4a39.4 39.4 0 00.64 5.1l2.52-.39 1 3 6.89.85 5-4.12-1-1.59a9.93 9.93 0 002-.68c.41-.29-2-2.5-2.26-3.6-.26-1.1-3.44-2.55-3.44-2.55z" fill="#585E63"/><path d="M37.208 57.65l-.85 6.83s-.53 2.15-2.09 1.28c-1.56-.87-4.27-2.2-4.86-3.76a14.92 14.92 0 00-.83-1.91 3.18 3.18 0 00.48-1.83c.09-1.43 0-3.31 0-3.31l8.15 2.7z" fill="#C1A07C"/><path d="M39.767 48c.14.22 1.48 3.53 1.16 4.38-.32.85.37 1.48 0 1.81-.37.33-.55 3.44-.59 3.78-.19 1.36-.52 2.67-.79 2.59-.27-.08-1.9.78-2.62.61-.72-.17-6.15-2.52-6.69-3.45-.54-.93-3.1-2.81-3-3.78.1-.97.36-1.12.36-1.12s-2.75-7.59 2.26-9.52c6.56-2.5 8.14 1.81 9.91 4.7z" fill="#DDBC98"/><path d="M40.838 48.66s5.18 2.94 5 3.66c-.18.72-5 2.86-6.16 2.65a71.094 71.094 0 01-6.94-2.97 29.003 29.003 0 005.92-1.68 7.56 7.56 0 002.18-1.66z" fill="#585E63"/><path d="M40.837 48.66s-.5-4.25-4-5.86c-3.5-1.61-5.81-.64-5.81-.64a7.09 7.09 0 00-4.76 5.89c-.38 3.41.73 4.78.73 4.78s3.57-.42 7-1c5.84-1.12 6.84-3.17 6.84-3.17z" fill="#FFD000"/><path d="M31.696 120.62c.344.983.631 1.984.86 3 0 .17.57 1.16.57 1.16l-.57 1.07.55 2.06 1.89 2.32a13.872 13.872 0 01-2.74-2.73c-1-1.45-2.31-5.42-3.66-6.69-1.17-1.1-7.71-6.43-9.51-7.9v-1.66c4.07 3.07 12.48 9.25 12.61 9.37z" fill="#E0E0E0"/><path d="M2.459 99.5c.53-.46 1.4.94 2.29 1.76.89.82 10.9 7.29 12.2 8.38.27.22 1 .81 2.11 1.61l-.63.36c-.3-.24.17.93.17.93s-6.65-5.17-8.42-6.34c-1.77-1.17-7-4.79-7.82-5.53-.82-.74-.43-.67.1-1.17z" fill="#FFD275"/><path d="M31.7 120.62c.344.983.63 1.984.86 3 0 .17.57 1.16.57 1.16l-.57 1.07.55 2.06 1.89 2.32-.63.37a33.17 33.17 0 01-2.37-2.69c-1-1.44-2.06-5.83-3.41-7.1-1.17-1.1-8.34-7.73-10.14-9.2l.63-.36c4.08 3.07 12.49 9.25 12.62 9.37z" fill="#585E63"/><path d="M31.07 121c.344.983.631 1.985.86 3 0 .17.57 1.16.57 1.16l-.57 1.06.55 2.07 1.86 2.33a13.741 13.741 0 01-2.74-2.74c-1-1.44-2.31-5.41-3.66-6.69-1.17-1.09-7.71-6.42-9.51-7.89v-1.67c4.1 3.06 12.51 9.23 12.64 9.37z" fill="#E0E0E0"/><path d="M1.83 99.87c.52-.47 1.4.93 2.29 1.76.89.83 10.88 7.29 12.2 8.37.27.22 1 .81 2.11 1.61v1.67l-.43-.38s-6.64-5.17-8.41-6.33c-1.77-1.16-4.9-3.23-5.7-4-.8-.77-2.59-2.24-2.06-2.7z" fill="#FCCA5D"/><path d="M23.8 119.5s6.07 0 6.83.11c.76.11 4 1.09 5.66 5.14 1.66 4.05.59 5.3.59 5.3v-.08l-.58.45-.43-3.58-1.44-1.39-.64-1.15-.52-1-6.46-.3a66.467 66.467 0 01-6.98-4c-.21-.17-1.1-1.66-1.4-1.85l.63-.37 4.74 2.72zm3 2.15c.23.2.47.27.62.18l.21-.12.19.09a.913.913 0 00.82 0l.13-.07.19.09a.913.913 0 00.82 0l.13-.07.2.09a.892.892 0 00.81 0l.13-.08.34.16c.22.09.4 0 .46-.12a1 1 0 00-.37-.94c-.23-.2-.47-.27-.62-.18l-.21.12h-.1a1.051 1.051 0 00-1 0h-.17a1.008 1.008 0 00-1 0h-.17a1.075 1.075 0 00-1 0h-.06l-.34-.16c-.22-.09-.4 0-.46.12a1.002 1.002 0 00.42.89h.03z" fill="#585E63"/><path d="M2.7 107c1 .32 5.27 3.32 7.23 4.73a78.486 78.486 0 007.68 4.16l1.45.83-.63.37c-2-1.27-5.15-1.62-6.36-2.37-1.38-.87-6.94-4.76-8-5.67-1.06-.91-2.25-.42-3.19-1.28-.94-.86.78-1.05 1.82-.77z" fill="#FFD275"/><path d="M30.109 121.03l.16 1.26-.41.16-.14-1.35.39-.07z" fill="#585E63"/><path d="M23.167 119.87s6.07 0 6.83.1a7.924 7.924 0 015.66 5.14c1.62 4 .59 5.31.59 5.31v-.09l-.85-1.67-.16-1.45-1.44-1.39-.64-1.16-.52-.94-6.47-.31a67.048 67.048 0 01-6.93-4.06 6.96 6.96 0 00-.76-.54v-1.68l4.69 2.74zm3 2.14c.23.2.47.27.62.18l.21-.12.19.09a.912.912 0 00.82 0l.13-.08.19.09a.886.886 0 00.82 0l.13-.07.2.09a.855.855 0 00.81 0l.13-.07.34.15c.21.1.39 0 .46-.12a.998.998 0 00-.37-.93c-.24-.2-.47-.27-.62-.18l-.21.12-.1-.05a.998.998 0 00-1 0h-.17a1.1 1.1 0 00-1 0h-.16a1.1 1.1 0 00-1 0h-.06l-.34-.15c-.22-.1-.4 0-.46.12a1.002 1.002 0 00.41.92l.03.01z" fill="#585E63"/><path d="M2.068 107.4c1 .33 5.27 3.33 7.23 4.74a77.533 77.533 0 007.7 4.15l1.45.84v1.68c-2-1.27-5.78-2.94-7-3.69-1.39-.86-6.94-4.76-8-5.67-1.06-.91-1.45-.45-2.45-1.28-1-.83 0-1.09 1.07-.77z" fill="#FCCA5D"/><path d="M33.11 124.66l.64 1.16 1.44 1.39.16 1.45.85 1.68v-2.46l-1.03-2.03-2.06-1.19zm-7.284-4.2l4.34.19c.17.015.334.07.48.16.392.234.702.583.89 1 .26.64.08 1.14-.41 1.12l-4.33-.19a1.006 1.006 0 01-.49-.16 2.142 2.142 0 01-.89-1c-.26-.64-.08-1.14.41-1.12zm.31 1.55c.23.2.47.27.62.18l.21-.12.19.09a.925.925 0 00.82 0l.13-.08.19.09a.887.887 0 00.82 0l.13-.07.2.09a.854.854 0 00.81 0l.13-.07.34.15c.21.1.39 0 .46-.12a1.001 1.001 0 00-.37-.93c-.24-.2-.47-.27-.62-.18l-.21.12-.1-.05a.998.998 0 00-1 0h-.17a1.1 1.1 0 00-1 0h-.16a1.1 1.1 0 00-1 0h-.06l-.34-.15c-.22-.1-.4 0-.46.12a1 1 0 00.44.92v.01z" fill="#585E63"/><path d="M29.86 122.37l-.16-1.23s-.49-.11-.49.29c0 .57.65.94.65.94z" fill="#585E63"/><path d="M15.607 95.53l1.39 10.53 3.27 2a11.59 11.59 0 011.59 3.07c.46 1.82.27 2.1.27 2.1l-1.88-1.09s-.81-.77-1.08-.62c-.55.31-.13 2.22-.13 2.22l1.74 1.42-2.11 1.73s-4.2-.55-4.3-.87c-.1-.32-1-7.53-1.13-7.95-.13-.42-.88-1.44-.87-2.18.01-.74-2.08-8.35-2.17-9.49-.09-1.14-.17-1.87.15-1.94.32-.07 4.74-.63 5.26 1.07z" fill="#DDBC98"/><path d="M23.856 70s-.55 5.69-1.78 7.27c-1.23 1.58-6.29 9.2-6 11 .29 1.8 1.15 7.23.48 7.61-.67.38-3.03 1.79-4.51 1.12-1.48-.67-2.27-1-2.76-1.32-.49-.32-.29-8.45.27-9.32.56-.87 2-8.1 3-10.06 1-1.96 5.16-10.58 6.64-11.11 1.48-.53 4.55.16 4.66 4.81z" fill="#585E63"/><path d="M42.999 93.89s-1.1 3.84-6.9 5.12c-5.8 1.28-11.07-1.77-12.45-2.46a13.347 13.347 0 01-2.84-2.13l.07 2.91s3.3 4.92 13.72 3.93c6.92-.66 8.51-4.79 8.51-4.79l-.11-2.58z" fill="#666"/><path d="M38.49 98.44l.13 1.89a.639.639 0 01-.46.66c-.651.217-1.32.375-2 .47-.34 0-.14-.28-.14-.28l1.48-.45a.652.652 0 00.46-.63v-.93a.48.48 0 00-.59-.46l-1.43.34c.07 0-.35-.52.33-.73A13.007 13.007 0 0138 98a.47.47 0 01.49.44z" fill="#585E63"/><path d="M38.837 99.08l-1.54.65.01.24 1.53-.63v-.26zM40.1 81.91l2.64-.29a13.063 13.063 0 002-2.34c.91-1.73.25-7.22.14-7.21-1.06 1.25-2.37 2-4.69 3a32.236 32.236 0 00-.09 6.84zm-10.801 5.15l3 .57a13.42 13.42 0 002-2.34c.91-1.73.26-7.22.15-7.21a9.28 9.28 0 01-5.64 2.74c.19 1.98-.21 4.27.49 6.24z" fill="#585E63"/></svg>