<svg width="267" height="267" fill="none" xmlns="http://www.w3.org/2000/svg"><g clip-path="url(#clip0_1301_35465)"><path d="M200.081 131.685s-.484.414-1.552.797c-1.048.373-2.785.647-4.723-.06-.952-.354-1.946-.94-2.762-1.829-.806-.886-1.489-2.032-1.761-3.366a6.747 6.747 0 01-.142-2.069 6.736 6.736 0 01.488-2.109c.529-1.381 1.556-2.616 2.881-3.458 1.341-.819 2.904-1.197 4.382-1.065.739.049 1.455.22 2.114.488.661.26 1.274.609 1.8 1.037 1.083.829 1.814 1.945 2.259 3.056a7.08 7.08 0 01.435 3.279c-.216 2.047-1.224 3.484-2.02 4.258-.815.789-1.399 1.041-1.399 1.041-.03-.04.524-.344 1.286-1.149a6.999 6.999 0 001.848-4.176c.078-.972-.027-2.067-.463-3.13-.436-1.055-1.143-2.109-2.175-2.887a6.485 6.485 0 00-1.713-.97 6.44 6.44 0 00-2.002-.453c-1.398-.12-2.871.241-4.137 1.013-1.252.797-2.223 1.958-2.729 3.262a6.41 6.41 0 00-.47 1.994 6.392 6.392 0 00.122 1.96c.247 1.267.886 2.363 1.643 3.217.767.858 1.707 1.432 2.616 1.79a7.044 7.044 0 004.574.177c1.059-.329 1.576-.692 1.6-.648z" fill="#292A29"/><path d="M201.356 140.998c.001-.005.063.05.184.166l.54.52 2.115 2.08-.079-.01 5.55-3.501-.042.12c-.4-1.13-.846-2.387-1.321-3.732l-.024-.066.049-.053a16.053 16.053 0 002.456-3.459l.037-.07h.081l3.97.007-.14.111 1.465-6.386.085.179-3.578-1.716-.091-.044-.003-.101a15.883 15.883 0 00-.703-4.167l-.031-.101.075-.074 2.814-2.79-.026.223-3.485-5.553.222.077-3.746 1.306-.109.039-.085-.08a16.051 16.051 0 00-3.446-2.448l-.104-.054v-.119c.005-1.241.011-2.593.015-3.96l.154.193-6.399-1.474.226-.108-1.726 3.567-.054.109-.122.005a15.934 15.934 0 00-4.166.691l-.003.001c-.032-.008-.017-.004 0 0l-.204-.051-.003-.002-.005-.006-.012-.011-.021-.022-.044-.044-.089-.089-.175-.177-.351-.353-.701-.706-1.392-1.401.25.029-5.572 3.468.082-.235c.44 1.259.876 2.504 1.306 3.738l.039.114-.082.087a15.834 15.834 0 00-2.459 3.433l-.055.104h-.119l-3.97-.021.189-.149-1.486 6.381-.1-.209a4950.6 4950.6 0 003.572 1.727l.098.048.004.109c.044 1.442.284 2.847.688 4.168l.032.101-.075.075-2.823 2.78.025-.207 3.465 5.565-.182-.064 3.75-1.294.084-.029.064.06a16.075 16.075 0 003.449 2.469l.07.037v.081a7631.79 7631.79 0 01-.031 3.959l-.092-.117 6.392 1.505-.102.049c.698-1.42 1.271-2.584 1.75-3.554l.017-.036.039-.001a16.757 16.757 0 003.193-.391l.774-.187c.177-.046.259-.064.258-.059a1.866 1.866 0 01-.248.092c-.168.053-.423.132-.768.219-.691.17-1.751.396-3.204.456l.055-.037-1.703 3.576-.031.065-.071-.015-6.405-1.449-.093-.021v-.096l.004-3.959.071.118a16.285 16.285 0 01-3.523-2.493l.147.031-3.743 1.312-.118.041-.065-.105-3.489-5.551-.071-.113.095-.094 2.814-2.791-.044.175a16.147 16.147 0 01-.717-4.259l.102.157-3.576-1.718-.134-.065.033-.144 1.473-6.384.035-.15.154.001 3.969.014-.173.104a16.242 16.242 0 012.515-3.521l-.042.201-1.308-3.737-.053-.151.136-.084c1.83-1.142 3.688-2.299 5.571-3.472l.136-.086.114.115 1.392 1.402.701.705.351.353.176.177.088.089.044.044.022.022.01.011.006.006.003.003-.203-.051c.016.003.033.008.001-.001h.003a16.333 16.333 0 014.272-.709l-.175.114 1.728-3.566.07-.144.156.036 6.399 1.48.153.035v.157l-.021 3.961-.104-.173c1.33.7 2.536 1.585 3.526 2.513l-.195-.042 3.748-1.298.142-.05.08.128 3.471 5.562.076.121-.102.101-2.822 2.782.043-.175a16.21 16.21 0 01.704 4.26l-.094-.145 3.571 1.73.115.056-.029.122-1.495 6.38-.026.111h-.115l-3.97-.03.118-.07a16.194 16.194 0 01-2.517 3.496l.025-.119 1.291 3.742.027.078-.069.043-5.592 3.437-.044.027-.036-.037-2.048-2.109-.525-.549a2.013 2.013 0 01-.175-.198z" fill="#292A29"/><path fill-rule="evenodd" clip-rule="evenodd" d="M212.629 80.428c4.666-2.906 6.088-9.036 3.175-13.692-2.914-4.655-9.06-6.072-13.726-3.167-4.667 2.907-6.088 9.036-3.175 13.692 2.914 4.656 9.058 6.074 13.726 3.167zm1.803 13.168a22.9 22.9 0 01-5.972.992l-2.441 5.04-9.048-2.087.025-5.598a22.737 22.737 0 01-4.928-3.507l-5.299 1.841-4.917-7.858 3.985-3.939a22.552 22.552 0 01-.993-5.957l-5.055-2.437 2.092-9.023 5.613.024a22.706 22.706 0 013.517-4.916l-1.847-5.284 7.877-4.907 3.95 3.976a22.78 22.78 0 015.971-.992l2.443-5.042 9.047 2.088-.026 5.6a22.802 22.802 0 014.928 3.507l5.298-1.842 4.918 7.858-3.986 3.939a22.55 22.55 0 01.995 5.957l5.054 2.436-2.092 9.024-5.613-.025a22.74 22.74 0 01-3.516 4.917l1.846 5.284-7.876 4.905-3.95-3.974zm20.351 22.843a5.279 5.279 0 001.689-7.285 5.309 5.309 0 00-7.302-1.685 5.28 5.28 0 00-1.689 7.285 5.308 5.308 0 007.302 1.685zm.96 7.005a12.151 12.151 0 01-3.177.527l-1.299 2.682-4.813-1.111.013-2.977a12.133 12.133 0 01-2.622-1.867l-2.819.98-2.615-4.18 2.12-2.096a11.966 11.966 0 01-.529-3.169l-2.69-1.296 1.114-4.801 2.985.013c.5-.94 1.125-1.82 1.872-2.615l-.983-2.811 4.191-2.61 2.101 2.114a12.107 12.107 0 013.177-.527l1.299-2.683 4.813 1.111-.013 2.979a12.088 12.088 0 012.621 1.866l2.819-.979 2.616 4.179-2.12 2.096c.321 1.041.496 2.106.529 3.169l2.689 1.296-1.113 4.801-2.987-.013a12.071 12.071 0 01-1.87 2.615l.982 2.812-4.19 2.609-2.101-2.114z" fill="#292A29"/><path d="M51.419 70.424c.06.061-2.756 2.94-6.29 6.428-3.536 3.49-6.45 6.268-6.51 6.207-.062-.061 2.754-2.94 6.29-6.429 3.534-3.488 6.45-6.267 6.51-6.206z" fill="#292A29"/><path d="M51.449 83.028c-.06.061-2.989-2.703-6.54-6.175-3.553-3.472-6.383-6.336-6.322-6.398.06-.061 2.988 2.703 6.54 6.175s6.382 6.336 6.322 6.398zm12.711 67.138c-.008.086-3.602-.223-8.025-.688-4.425-.466-8.003-.913-7.994-.998.009-.087 3.602.222 8.026.687 4.423.467 8.003.914 7.994.999zm-.64 6.018c-.009.087-3.603-.222-8.026-.688-4.425-.466-8.003-.913-7.994-.998.009-.086 3.602.222 8.027.688 4.423.466 8.002.913 7.993.998z" fill="#292A29"/><path d="M20.211 136.957s-4.756-.341-4.318 10.303c.437 10.643 1.526 16.312 1.526 16.312s-.14 2.361-1.972 1.897c-1.832-.463-5.28-2.759-6.982-1.043-1.765 1.781-1.138 4.512 1.204 7.728 2.342 3.218 7.214 10.454 7.652 11.109.43.644.602 1.852-.697 1.735-1.298-.115-10.066-3.08-11.227 1.155-1.16 4.233 6.84 12.126 7.698 13.006.858.879.904 1.434.556 1.966s-3.2-.741-5.729-1.482c-2.528-.741-5.59-1.158-6.054 1.34-.465 2.5 3.059 9.812 16.255 17.497l6.349 3.163 6.009-3.824c12.359-8.963 15.132-16.591 14.42-19.031-.714-2.44-3.718-1.72-6.16-.73-2.44.99-5.151 2.541-5.551 2.047-.4-.494-.41-1.052.356-2.013.766-.96 7.935-9.612 6.355-13.708-1.58-4.097-10.006-.273-11.287-.028-1.28.245-1.23-.973-.867-1.657.37-.696 4.492-8.382 6.5-11.817 2.007-3.434 2.358-6.214.423-7.81-1.866-1.538-5.065 1.091-6.842 1.735-1.777.644-2.153-1.691-2.153-1.691s.515-5.749-.117-16.383c-.631-10.634-5.444-9.776-5.444-9.776" fill="#FFD000"/><path d="M20.58 146.49s.013.075.025.222c.013.158.03.375.05.653l.172 2.515c.145 2.182.333 5.342.549 9.248.435 7.811.944 18.608 1.466 30.532.522 11.929 1.003 22.726 1.395 30.539l.472 9.252.125 2.516.026.654c.005.148.001.224.001.224s-.013-.075-.026-.222l-.05-.653-.17-2.513a890.885 890.885 0 01-.55-9.248c-.435-7.812-.944-18.609-1.466-30.538-.522-11.925-1.004-22.721-1.395-30.534l-.472-9.253-.125-2.516-.026-.655c-.005-.147-.001-.223-.001-.223z" fill="#292A29"/><path d="M13.157 167.834c.012-.012.152.104.395.327.245.222.587.552 1.007.966.838.828 1.965 2.001 3.183 3.32l3.105 3.389.945 1.022c.224.24.343.38.331.392-.012.012-.152-.104-.398-.326a28.776 28.776 0 01-1.002-.97c-.83-.836-1.94-2.025-3.16-3.343l-3.127-3.365-.951-1.018c-.222-.243-.34-.383-.328-.394zm9.593 9.206c-.047-.046 2.275-2.472 5.186-5.416 2.912-2.945 5.31-5.294 5.359-5.247.047.047-2.274 2.472-5.186 5.418-2.911 2.943-5.31 5.293-5.358 5.245zm-.023 18.352c-.008-.015.15-.114.442-.281.34-.189.754-.422 1.242-.695a118.476 118.476 0 004.053-2.361c1.564-.954 2.95-1.866 3.949-2.532l1.184-.789c.282-.184.441-.279.452-.266.01.013-.132.135-.396.343-.265.208-.654.501-1.142.852a62.324 62.324 0 01-3.92 2.599 63.266 63.266 0 01-4.099 2.305c-.536.273-.973.488-1.28.628-.305.141-.478.212-.485.197zm-10.523-6.422c.008-.015.164.059.438.206.275.145.668.363 1.151.637.967.548 2.294 1.319 3.751 2.184 1.458.865 2.77 1.659 3.715 2.245.471.293.851.533 1.111.704.26.171.4.272.39.287-.008.014-.164-.06-.438-.206a52.583 52.583 0 01-1.151-.638 232.31 232.31 0 01-3.751-2.184 230.634 230.634 0 01-3.714-2.245 48.245 48.245 0 01-1.112-.704c-.26-.171-.399-.272-.39-.286zm-2.087 16.198c.009-.015.207.082.559.269l1.477.813c1.243.696 2.95 1.672 4.829 2.761a379.99 379.99 0 014.794 2.824l1.438.88c.337.212.52.336.511.351-.008.014-.207-.083-.558-.27l-1.478-.813a381.907 381.907 0 01-4.83-2.761 382.804 382.804 0 01-4.792-2.824 986.75 986.75 0 01-1.439-.879c-.337-.212-.519-.337-.51-.351zm13.336 7.618c-.008-.015.19-.145.552-.369.404-.245.922-.561 1.544-.937a195.268 195.268 0 005.045-3.159 187.756 187.756 0 004.938-3.326c.597-.414 1.095-.76 1.484-1.028.351-.241.55-.368.56-.355.01.013-.17.166-.504.431-.335.265-.826.639-1.44 1.091a100.571 100.571 0 01-4.905 3.39 101.203 101.203 0 01-5.091 3.103c-.664.376-1.205.674-1.584.871-.378.199-.59.302-.599.288zM33 223.715H15.438L21.17 267h6.098l5.733-43.285z" fill="#292A29"/><path d="M16.345 229.035c-.007.005.02.062.094.154.075.093.212.212.423.303.417.181 1.148.195 1.855-.227.71-.391 1.327-1.157 2.277-1.496.943-.359 2.111-.294 3.23.064 1.133.35 2.116.921 3.008 1.454.893.53 1.711 1.002 2.445 1.309a6.78 6.78 0 001.804.52c.22.029.393.037.51.034.117 0 .178-.004.178-.014.01-.058-.994-.048-2.409-.725-.71-.324-1.506-.807-2.392-1.35-.882-.543-1.89-1.139-3.059-1.501-1.155-.371-2.398-.438-3.408-.036-.506.191-.93.493-1.284.791-.358.296-.68.574-1.005.777-.642.414-1.317.431-1.71.296-.405-.14-.535-.377-.557-.353zm.641 7.973c.023.015.14-.179.414-.465.28-.278.737-.641 1.402-.887.66-.252 1.506-.402 2.443-.367.94.032 1.966.238 3.056.415 1.088.183 2.166.264 3.13.13a8.63 8.63 0 002.461-.701 7.808 7.808 0 001.481-.879c.324-.245.479-.41.47-.42-.034-.048-.712.558-2.032 1.113a9.038 9.038 0 01-2.412.625c-.935.116-1.97.031-3.053-.15-1.08-.175-2.122-.377-3.093-.397-.972-.021-1.848.156-2.526.443a3.692 3.692 0 00-1.41 1 2.476 2.476 0 00-.265.389c-.052.094-.074.146-.066.151zm14.018 4.268c.006-.014-.156-.123-.484-.251a5.208 5.208 0 00-1.456-.312c-.629-.049-1.383-.008-2.2.126-.82.133-1.697.358-2.62.553-.92.194-1.81.325-2.615.295-.805-.028-1.521-.203-2.076-.448-1.13-.495-1.533-1.215-1.575-1.17-.012.008.068.188.297.458.226.27.621.614 1.192.895.57.28 1.313.484 2.15.528.84.046 1.754-.082 2.686-.278.933-.197 1.804-.429 2.605-.573.801-.146 1.532-.206 2.145-.184 1.232.042 1.933.413 1.95.361zm-12.464 6.003c.008.046.627-.39 1.704-.172.53.096 1.12.363 1.785.664.661.308 1.46.571 2.315.636 1.726.166 3.26-.39 4.202-.971a5.985 5.985 0 001.046-.802c.213-.227.323-.358.309-.371-.039-.042-.5.476-1.457.998-.94.52-2.422 1.021-4.074.862-1.663-.095-2.94-1.084-4.092-1.215-.562-.084-1.032-.004-1.325.115-.297.115-.422.246-.413.256zm.976 8.308c0 .033.589.029 1.464-.29.883-.294 1.976-.97 3.252-1.475.64-.244 1.282-.393 1.866-.39a3.458 3.458 0 011.5.341c.808.401 1.041.97 1.085.934.014-.005-.022-.148-.166-.369a2.405 2.405 0 00-.823-.743 3.464 3.464 0 00-1.592-.427c-.63-.018-1.309.134-1.972.387-1.322.525-2.38 1.22-3.224 1.554-.833.358-1.397.432-1.39.478zm.859 3.866c-.01.035.412.186 1.112.359.7.174 1.683.36 2.78.468 1.098.107 2.098.116 2.818.081.721-.033 1.163-.1 1.161-.137-.004-.086-1.78-.01-3.951-.228-2.172-.208-3.899-.627-3.92-.543z" fill="#fff"/><path d="M267.001 266.303c0 .087-59.775.156-133.494.156C59.762 266.459 0 266.39 0 266.303c0-.086 59.762-.155 133.507-.155 73.719 0 133.494.069 133.494.155z" fill="#292A29"/><path d="M75.445 79s1.636-9.773 2.025-10.517c.389-.743 4.906-5.312 5.439-5.406.532-.095 7.65-2.324 7.257-1.216-.394 1.108-5.388 2.602-5.388 2.602l-.474.596s4.267-1.385 5.328-1.35c.977.032 1.15 1.044.388 1.335-.763.292-4.525 1.386-4.664 1.62-.14.234 4.187-.998 4.73-.975.732.031 1.262.955.515 1.269-.44.184-4.623 1.142-4.623 1.142s3.492-.408 3.885-.302c.644.174.59.953-.118 1.14-.486.128-3.04.237-3.69.411 0 0-.483.412-.466 1.702.018 1.29-1.663 4.73-1.663 4.73L75.445 79z" fill="#F8A58D"/><path d="M90.155 61.883c.027.028-.331.422-1.048.908-.357.24-.806.5-1.332.729-.53.198-1.117.4-1.734.613l-1.313.444.07-.043c-1.356 1.35-2.373 2.296-2.428 2.248-.056-.048.87-1.077 2.2-2.458l.026-.028.044-.016 1.297-.453 1.726-.583c.512-.206.957-.435 1.32-.645.728-.422 1.138-.753 1.172-.716z" fill="#F68260"/><path d="M184.992 186.348l-96.959-9.964c-2.965-.305-5.122-2.95-4.817-5.908L100.01 7.869c.434-4.202 4.2-7.257 8.414-6.825l92.443 9.5c4.213.433 7.277 4.19 6.842 8.392l-16.792 162.607a5.396 5.396 0 01-5.924 4.805z" fill="#FFD000"/><path d="M185.55 186.377c-.185 0-.371-.01-.559-.029l-9.767-1.003a5.395 5.395 0 005.906-4.807l16.793-162.607c.434-4.202-2.629-7.96-6.842-8.392l-31.089-3.195 40.872 4.2c3.946.405 6.883 3.727 6.883 7.599 0 .262-.013.527-.041.793l-6.303 61.038-1.875 18.158-.8 7.744-.041.401-1.271 12.305-.04.392-1.41 13.641-.024.239-1.255 12.15-.019.188-3.754 36.351a5.395 5.395 0 01-5.364 4.834zm-15.77-1.592l-81.75-8.4-.07-.008 81.82 8.408z" fill="#FFA412"/><path d="M175.211 185.342l-96.96-9.964a5.387 5.387 0 01-4.816-5.908L90.227 6.863c.434-4.202 4.2-7.257 8.414-6.824l92.444 9.5c4.212.432 7.276 4.19 6.841 8.392l-16.792 162.607a5.394 5.394 0 01-5.923 4.804z" fill="#FFD000"/><path d="M124.246 157.092l-33.433-3.436a1.45 1.45 0 01-1.297-1.591l1.355-13.124a1.453 1.453 0 011.595-1.294l33.433 3.436a1.45 1.45 0 011.297 1.591l-1.355 13.124a1.453 1.453 0 01-1.595 1.294z" fill="#FFD000"/><path d="M124.397 157.1c-.05 0-.101-.003-.151-.008l-33.433-3.436a1.452 1.452 0 01-1.297-1.591l1.155-11.185 32.245-.104 2.983.307a1.452 1.452 0 011.297 1.591l-1.355 13.124a1.453 1.453 0 01-1.444 1.302z" fill="#FFA412"/><path d="M185.334 63.708l-92.076-9.461 3.72-36.03 92.077 9.462-3.721 36.03z" fill="#fff"/><path d="M185.336 63.709s.015-.222.055-.643l.181-1.865.711-7.159 2.665-26.373.097.118-92.076-9.414h-.005l.171-.14-3.727 36.029-.134-.164 65.983 6.851 19.163 2.011 5.13.547 1.329.145c.299.034.457.056.457.056s-.146-.008-.44-.035c-.302-.03-.74-.071-1.313-.126l-5.104-.505-19.137-1.924-66.099-6.723-.15-.015.016-.149 3.715-36.03.016-.155.156.017h.006l92.065 9.508.109.012-.012.108-2.788 26.427-.764 7.128-.201 1.844c-.047.413-.075.618-.075.618z" fill="#292A29"/><path d="M109.715 86.235l-13.163-1.353a1.248 1.248 0 01-1.116-1.369l1.357-13.13a1.25 1.25 0 011.372-1.113l13.162 1.353c.688.07 1.187.683 1.117 1.368l-1.357 13.131a1.25 1.25 0 01-1.372 1.113z" fill="#FFD000"/><path d="M96.203 76.058l.586-5.675a1.25 1.25 0 011.372-1.113l13.163 1.353a1.25 1.25 0 011.116 1.368l-.382 3.7a21.08 21.08 0 00-2.317-.195 84.602 84.602 0 00-2.445-.035c-3.473 0-7.317.194-10.821.565-.091.01-.182.02-.272.032z" fill="#FFA412"/><path d="M107.301 85.987l-13.163-1.353a1.248 1.248 0 01-1.116-1.368l1.356-13.131a1.25 1.25 0 011.373-1.113l13.162 1.352a1.248 1.248 0 011.116 1.369l-1.356 13.13a1.25 1.25 0 01-1.372 1.114z" fill="#292A29"/><path d="M102.97 74.293l-.672 6.506-1.509-.155.547-5.298-1.305-.134.125-1.209 2.814.29z" fill="#fff"/><path d="M131.535 88.478l-13.163-1.353a1.247 1.247 0 01-1.115-1.369l1.355-13.13a1.25 1.25 0 011.372-1.114l13.164 1.353a1.249 1.249 0 011.115 1.369l-1.355 13.13a1.25 1.25 0 01-1.373 1.114z" fill="#FFD000"/><path d="M131.666 88.484a1.43 1.43 0 01-.13-.006l-1.76-.181c-2.008-2.473-4.062-4.874-5.868-6.69a20.7 20.7 0 00-5.799-4.1l.504-4.882a1.25 1.25 0 011.372-1.112l13.164 1.353a1.248 1.248 0 011.115 1.368l-1.356 13.13a1.25 1.25 0 01-1.242 1.12z" fill="#FFA412"/><path d="M129.122 88.23l-13.163-1.353a1.248 1.248 0 01-1.116-1.369l1.356-13.13a1.25 1.25 0 011.372-1.113l13.163 1.352a1.25 1.25 0 011.116 1.37l-1.357 13.13a1.248 1.248 0 01-1.371 1.112z" fill="#292A29"/><path d="M126.603 82.057l-.127 1.227-4.929-.506.101-.976 2.761-2.112c.634-.49.77-.813.803-1.13.053-.51-.27-.844-.96-.915-.558-.058-1.056.108-1.419.512l-1.025-.82c.578-.682 1.54-1.063 2.715-.942 1.453.15 2.345.993 2.223 2.174-.065.631-.301 1.19-1.301 1.942l-1.647 1.258 2.805.288z" fill="#fff"/><path d="M154.16 90.802l-13.163-1.352a1.248 1.248 0 01-1.115-1.368l1.355-13.131a1.25 1.25 0 011.372-1.114l13.164 1.353c.687.07 1.186.683 1.116 1.369l-1.356 13.13a1.25 1.25 0 01-1.373 1.113z" fill="#FFD000"/><path d="M154.29 90.81c-.043 0-.086-.003-.13-.008l-13.163-1.352a1.249 1.249 0 01-1.115-1.368l1.355-13.131a1.25 1.25 0 011.372-1.114l13.164 1.353a1.248 1.248 0 011.116 1.369l-1.357 13.13a1.249 1.249 0 01-1.242 1.12z" fill="#FFA412"/><path d="M151.746 90.554L138.583 89.2a1.247 1.247 0 01-1.115-1.368l1.355-13.131a1.25 1.25 0 011.372-1.113l13.164 1.353c.686.07 1.186.683 1.115 1.368l-1.356 13.131a1.25 1.25 0 01-1.372 1.113z" fill="#292A29"/><path d="M149.257 83.614c-.114 1.096-1.065 2.013-2.919 1.823-.913-.094-1.829-.441-2.416-.953l.706-1.092c.455.422 1.123.707 1.803.777.754.078 1.253-.181 1.307-.71.051-.494-.281-.838-1.138-.926l-.69-.07.103-.995 1.498-1.377-2.776-.286.125-1.208 4.566.47-.101.975-1.645 1.522c1.155.306 1.676 1.093 1.577 2.05z" fill="#fff"/><path d="M176.786 93.127l-13.164-1.352a1.248 1.248 0 01-1.115-1.369l1.355-13.13a1.25 1.25 0 011.372-1.113l13.164 1.352c.687.07 1.186.684 1.115 1.368l-1.355 13.131a1.25 1.25 0 01-1.372 1.113z" fill="#FFD000"/><path d="M176.918 93.134c-.043 0-.086-.002-.129-.007l-13.164-1.352a1.254 1.254 0 01-.711-.316l-.406-1.037a.09.09 0 01.002-.016l1.355-13.13a1.25 1.25 0 011.372-1.113l13.164 1.352a1.249 1.249 0 011.115 1.368l-1.356 13.132a1.249 1.249 0 01-1.242 1.119z" fill="#FFA412"/><path d="M174.427 92.88l-13.164-1.354a1.249 1.249 0 01-1.116-1.368l1.357-13.13a1.25 1.25 0 011.371-1.114l13.163 1.353c.687.07 1.187.683 1.116 1.368l-1.356 13.13a1.25 1.25 0 01-1.371 1.114z" fill="#292A29"/><path d="M172.043 84.796l-6.988-.718.061-.596 6.989.718-.062.596zm-2.013-3.58a1.139 1.139 0 01-2.266-.233 1.137 1.137 0 011.249-1.014 1.137 1.137 0 011.017 1.247zm-.633 6.079a1.138 1.138 0 01-2.266-.232 1.139 1.139 0 012.266.232z" fill="#fff"/><path d="M107.356 109.105l-13.163-1.353a1.247 1.247 0 01-1.116-1.368l1.356-13.13a1.25 1.25 0 011.372-1.114l13.163 1.353c.687.07 1.187.683 1.116 1.369l-1.356 13.13a1.25 1.25 0 01-1.372 1.113z" fill="#FFD000"/><path d="M104.933 108.857l-13.162-1.353a1.247 1.247 0 01-1.116-1.368l1.356-13.131a1.25 1.25 0 011.372-1.113l13.163 1.353c.687.07 1.187.683 1.116 1.368l-1.356 13.131a1.25 1.25 0 01-1.373 1.113z" fill="#292A29"/><path d="M101.985 102.498l-1.063-.109-.141 1.366-1.472-.151.141-1.366-3.513-.361.104-1.013 3.502-3.811 1.584.163-3.255 3.62 1.751.179.126-1.217 1.425.147-.125 1.217 1.063.109-.127 1.227z" fill="#fff"/><path d="M129.176 111.348l-13.163-1.353a1.248 1.248 0 01-1.116-1.369l1.357-13.13a1.247 1.247 0 011.371-1.113l13.164 1.353c.686.07 1.186.683 1.115 1.368l-1.355 13.131a1.251 1.251 0 01-1.373 1.113z" fill="#FFD000"/><path d="M129.199 111.35l-.024-.002-8.527-.877 6.111.628a1.25 1.25 0 001.348-.966c.364.409.729.816 1.092 1.217z" fill="#FFA412"/><path d="M126.762 111.099l-13.163-1.352a1.248 1.248 0 01-1.116-1.369l1.357-13.13a1.248 1.248 0 011.371-1.113l13.163 1.352c.688.07 1.187.684 1.116 1.369l-1.356 13.131a1.249 1.249 0 01-1.372 1.112z" fill="#292A29"/><path d="M123.607 104.035c-.119 1.153-1.07 2.069-2.933 1.878-.904-.093-1.829-.442-2.416-.953l.716-1.091c.454.423 1.113.706 1.792.776.755.078 1.254-.191 1.308-.721.053-.511-.248-.88-1.431-1.001l-1.667-.172.713-3.627 3.979.409-.125 1.208-2.721-.279-.23 1.225.532.054c1.928.198 2.602 1.142 2.483 2.294z" fill="#fff"/><path d="M151.801 113.673l-13.163-1.353a1.249 1.249 0 01-1.116-1.369l1.357-13.13a1.25 1.25 0 011.371-1.114l13.164 1.353a1.248 1.248 0 011.115 1.369l-1.356 13.13a1.25 1.25 0 01-1.372 1.114z" fill="#FFD000"/><path d="M151.934 113.679a1.43 1.43 0 01-.13-.006l-7.101-.73 9.086-6.323-.613 5.939a1.248 1.248 0 01-1.242 1.12zm-12.642-13.447c-.111-.068-.315-.279-.597-.606l.187-1.805a1.25 1.25 0 011.371-1.114l4.119.424-5.08 3.101z" fill="#FFA412"/><path d="M149.387 113.424l-13.163-1.352a1.25 1.25 0 01-1.116-1.369l1.356-13.13a1.25 1.25 0 011.372-1.114l13.163 1.353c.687.07 1.187.683 1.116 1.369l-1.356 13.13a1.249 1.249 0 01-1.372 1.113z" fill="#292A29"/><path d="M145.217 106.322c.062-.595-.337-1.021-1.008-1.09-.661-.068-1.17.293-1.229.861-.057.557.321 1.009 1.047 1.084.643.065 1.129-.26 1.19-.855zm1.471.076c-.137 1.329-1.314 2.054-2.693 1.912-1.798-.185-2.8-1.424-2.583-3.525.233-2.249 1.722-3.364 3.689-3.162.688.07 1.343.298 1.77.633l-.673 1.049c-.339-.28-.75-.407-1.188-.452-1.09-.112-1.855.458-2.03 1.699.421-.343.991-.481 1.671-.411 1.258.13 2.163 1.03 2.037 2.257z" fill="#fff"/><path d="M174.427 115.997l-13.164-1.352a1.25 1.25 0 01-1.116-1.369l1.357-13.131a1.249 1.249 0 011.371-1.112l13.163 1.353c.687.07 1.187.683 1.116 1.368l-1.356 13.131a1.249 1.249 0 01-1.371 1.112z" fill="#FFD000"/><path d="M174.556 116.004c-.043 0-.086-.002-.129-.007l-13.164-1.352a1.249 1.249 0 01-1.116-1.369l1.234-11.941 3.075-2.14 11.582 1.191a1.248 1.248 0 011.116 1.368l-1.356 13.131a1.249 1.249 0 01-1.242 1.119z" fill="#FFA412"/><path d="M172.012 115.749l-13.163-1.353a1.248 1.248 0 01-1.116-1.368l1.356-13.13a1.25 1.25 0 011.372-1.114l13.163 1.353a1.248 1.248 0 011.116 1.369l-1.355 13.13a1.251 1.251 0 01-1.373 1.113z" fill="#292A29"/><path d="M163.661 109.671l-.372-.471 5.518-4.337.373.47-5.519 4.338z" fill="#fff"/><path d="M168.215 110.175l-4.434-5.438.466-.378 4.433 5.438-.465.378z" fill="#fff"/><path d="M105.012 131.789l-13.163-1.353a1.247 1.247 0 01-1.116-1.368l1.357-13.131a1.249 1.249 0 011.371-1.113l13.163 1.353a1.248 1.248 0 011.116 1.369l-1.356 13.13a1.25 1.25 0 01-1.372 1.113z" fill="#FFD000"/><path d="M102.59 131.541l-13.163-1.353a1.247 1.247 0 01-1.116-1.368l1.356-13.131a1.25 1.25 0 011.373-1.113l13.162 1.352a1.248 1.248 0 011.116 1.369l-1.356 13.131a1.25 1.25 0 01-1.372 1.113z" fill="#292A29"/><path d="M99.3 119.953l-.1.976-2.996 5.282-1.64-.169 2.884-5.039-2.16-.222-.11 1.06-1.342-.138.236-2.287 5.228.537z" fill="#fff"/><path d="M126.833 134.031l-13.163-1.352a1.248 1.248 0 01-1.116-1.369l1.356-13.131a1.25 1.25 0 011.372-1.112l13.163 1.353c.687.07 1.187.683 1.116 1.368l-1.357 13.131a1.247 1.247 0 01-1.371 1.112z" fill="#FFD000"/><path d="M126.962 134.039c-.043 0-.086-.003-.13-.008l-2.394-.245a1.25 1.25 0 001.349-1.116l1.356-13.13a1.247 1.247 0 00-1.111-1.368l2.413.248a1.25 1.25 0 011.115 1.368l-1.356 13.131a1.25 1.25 0 01-1.242 1.12z" fill="#FFA412"/><path d="M124.418 133.783l-13.162-1.352a1.248 1.248 0 01-1.116-1.369l1.355-13.131a1.252 1.252 0 011.373-1.113l13.163 1.353a1.25 1.25 0 011.116 1.369l-1.357 13.13a1.248 1.248 0 01-1.372 1.113z" fill="#292A29"/><path d="M118.307 123.738c-.052.493.309.84.923.903.625.064 1.057-.202 1.108-.694.052-.511-.325-.861-.941-.923-.605-.063-1.038.203-1.09.714zm1.951 2.99c.06-.576-.38-.978-1.134-1.055-.746-.077-1.248.228-1.308.805-.059.576.369.986 1.115 1.063.755.078 1.268-.236 1.327-.813zm1.523.204c-.127 1.227-1.306 1.885-2.964 1.715-1.65-.17-2.66-1.054-2.533-2.28.072-.697.489-1.18 1.146-1.432-.454-.348-.677-.831-.617-1.416.118-1.144 1.218-1.754 2.699-1.602 1.501.154 2.451.976 2.333 2.119-.061.586-.387 1.012-.903 1.26.602.381.911.939.839 1.636z" fill="#fff"/><path d="M149.458 136.357l-13.163-1.353a1.25 1.25 0 01-1.117-1.369l1.357-13.13a1.249 1.249 0 011.372-1.113l13.163 1.353c.687.07 1.186.683 1.115 1.368l-1.355 13.13a1.251 1.251 0 01-1.372 1.114z" fill="#FFD000"/><path d="M149.587 136.363c-.043 0-.086-.002-.129-.006l-13.163-1.353a1.248 1.248 0 01-1.117-1.369l1.357-13.13a1.25 1.25 0 011.372-1.113l13.163 1.352a1.248 1.248 0 011.115 1.369l-1.355 13.13a1.25 1.25 0 01-1.243 1.12z" fill="#FFA412"/><path d="M147.043 136.108l-13.162-1.353a1.246 1.246 0 01-1.116-1.368l1.356-13.131a1.249 1.249 0 011.372-1.112l13.163 1.352a1.25 1.25 0 011.116 1.369l-1.357 13.13a1.25 1.25 0 01-1.372 1.113z" fill="#292A29"/><path d="M142.74 126.418c.057-.557-.32-1.01-1.038-1.084-.642-.066-1.128.26-1.19.855-.061.595.337 1.021 1.009 1.09.661.068 1.16-.294 1.219-.861zm1.569 1.307c-.232 2.25-1.712 3.365-3.688 3.162-.689-.071-1.335-.297-1.762-.631l.674-1.049c.328.278.74.405 1.187.451 1.08.111 1.855-.458 2.03-1.708-.421.342-1 .489-1.681.419-1.258-.13-2.163-1.03-2.037-2.257.138-1.329 1.315-2.054 2.693-1.912 1.808.186 2.801 1.425 2.584 3.525z" fill="#fff"/><path d="M172.083 138.682l-13.164-1.353a1.248 1.248 0 01-1.115-1.369l1.355-13.13a1.251 1.251 0 011.372-1.113l13.164 1.353c.687.07 1.186.683 1.115 1.368l-1.356 13.131a1.25 1.25 0 01-1.371 1.113z" fill="#FFD000"/><path d="M172.211 138.688c-.043 0-.085-.001-.129-.006l-13.163-1.353a1.247 1.247 0 01-1.116-1.369l1.356-13.13a1.248 1.248 0 011.372-1.113l13.164 1.353a1.248 1.248 0 011.115 1.368l-1.356 13.131a1.25 1.25 0 01-1.243 1.119z" fill="#FFA412"/><path d="M169.668 138.433l-13.163-1.352a1.247 1.247 0 01-1.115-1.369l1.355-13.13a1.25 1.25 0 011.372-1.113l13.164 1.352a1.25 1.25 0 011.115 1.369l-1.356 13.131a1.25 1.25 0 01-1.372 1.112z" fill="#292A29"/><path d="M167.355 130.608l-6.988-.717.061-.597 6.989.718-.062.596z" fill="#fff"/><path d="M147.098 159.239l-13.163-1.352a1.25 1.25 0 01-1.116-1.369l1.356-13.131a1.25 1.25 0 011.372-1.113l13.163 1.353c.687.07 1.187.683 1.116 1.368l-1.356 13.131a1.248 1.248 0 01-1.372 1.113z" fill="#FFD000"/><path d="M147.228 159.246c-.043 0-.086-.003-.13-.007l-13.163-1.352a1.249 1.249 0 01-1.116-1.369l1.356-13.131a1.25 1.25 0 011.372-1.113l13.163 1.353a1.248 1.248 0 011.116 1.368l-1.356 13.131a1.25 1.25 0 01-1.242 1.12z" fill="#FFA412"/><path d="M144.676 158.991l-13.163-1.353a1.248 1.248 0 01-1.116-1.369l1.357-13.13a1.249 1.249 0 011.372-1.113l13.162 1.353c.688.07 1.187.683 1.116 1.368l-1.356 13.131a1.25 1.25 0 01-1.372 1.113z" fill="#292A29"/><path d="M169.723 161.564l-13.163-1.353a1.247 1.247 0 01-1.116-1.368l1.356-13.131a1.25 1.25 0 011.372-1.113l13.163 1.353c.687.07 1.187.683 1.116 1.368l-1.356 13.131a1.25 1.25 0 01-1.372 1.113z" fill="#FFD000"/><path d="M169.852 161.571c-.042 0-.086-.003-.129-.007l-13.163-1.353a1.247 1.247 0 01-1.116-1.368l1.356-13.131a1.25 1.25 0 011.372-1.113l13.163 1.353a1.247 1.247 0 011.116 1.368l-1.356 13.131a1.25 1.25 0 01-1.243 1.12z" fill="#FFA412"/><path d="M167.301 161.316l-13.163-1.353a1.247 1.247 0 01-1.116-1.368l1.357-13.131a1.25 1.25 0 011.372-1.114l13.162 1.353a1.248 1.248 0 011.116 1.369l-1.356 13.13a1.25 1.25 0 01-1.372 1.114z" fill="#424342"/><path d="M165.082 152.629l-6.988-.717.06-.595 6.989.717-.061.595zm-.273 2.654l-6.989-.717.062-.596 6.988.718-.061.595z" fill="#fff"/><path d="M121.263 156.785l-34.79-3.575a1.499 1.499 0 01-1.34-1.643l1.346-13.029a1.501 1.501 0 011.647-1.337l34.79 3.576c.825.085 1.425.82 1.34 1.643l-1.346 13.029a1.499 1.499 0 01-1.647 1.336z" fill="#292A29"/><path d="M107.367 146.955c.153-1.479-.306-2.146-1.061-2.223-.745-.077-1.33.482-1.483 1.961-.152 1.477.306 2.145 1.051 2.221.755.078 1.34-.482 1.493-1.959zm-4.072-.419c.221-2.147 1.54-3.243 3.142-3.078 1.613.166 2.67 1.505 2.449 3.652-.222 2.147-1.531 3.244-3.144 3.077-1.602-.164-2.669-1.504-2.447-3.651zm35.496 7.487l-.596-.07.828-6.96.596.07-.828 6.96z" fill="#fff"/><path d="M142.364 151.166l-6.989-.718.061-.596 6.989.718-.061.596z" fill="#fff"/><path d="M132.167 40.216l-1.005 9.728-.459-.047.96-9.297-2.452-.252.045-.43 2.911.298zm8.012 10.219l-.045.43-6.603-.678.034-.333 4.614-3.767c1.321-1.072 1.645-1.755 1.726-2.547.134-1.293-.685-2.22-2.385-2.394-1.295-.134-2.281.145-3.046.866l-.289-.338c.811-.76 1.959-1.105 3.393-.958 1.867.193 2.952 1.273 2.79 2.843-.095.918-.47 1.694-1.884 2.84l-4.198 3.43 5.893.606zm7.732-1.495c-.166 1.612-1.427 2.635-3.571 2.414-1.463-.15-2.701-.84-3.246-1.696l.284-.308c.499.768 1.599 1.429 2.992 1.572 1.867.192 2.937-.626 3.082-2.03.146-1.417-.708-2.417-2.771-2.63l-.543-.055.035-.333 3.445-3.635-5.378-.553.045-.43 5.99.615-.035.334-3.459 3.647c2.285.235 3.298 1.462 3.13 3.088zm9.595.874l-2.117-.218-.29 2.807-.46-.047.29-2.808-5.601-.575.034-.334 6.073-6.032.543.056-5.993 5.957 4.987.512.255-2.474.46.047-.255 2.474 2.117.217-.043.418zm2.039 2.624c-.019.181-.073.288-.137.506l-.694 1.81-.362-.036.63-1.874c-.233-.066-.382-.264-.357-.5a.458.458 0 01.507-.411.465.465 0 01.413.505zm9.664-1.422l-2.118-.218-.289 2.807-.46-.047.289-2.807-5.6-.575.035-.334 6.072-6.032.543.055-5.993 5.957 4.987.512.255-2.474.46.048-.255 2.474 2.117.217-.043.417zm7.238.8c-.164 1.584-1.391 2.694-3.606 2.466-1.434-.147-2.687-.838-3.232-1.694l.3-.307c.484.767 1.598 1.43 2.977 1.57 1.908.197 2.945-.707 3.087-2.084.155-1.5-.645-2.482-3.431-2.767l-1.895-.196.99-4.533 5.029.517-.045.431-4.638-.477-.803 3.682 1.504.154c2.981.307 3.941 1.515 3.763 3.238z" fill="#292A29"/><path d="M69.897 251.088l-3.819 14.086 12.412 1.129 2.608-13.409-11.2-1.806z" fill="#FFD000"/><path d="M78.848 265.156c-.004.046-.7.029-1.818-.061s-2.659-.26-4.355-.477l-4.337-.581c-1.11-.156-1.796-.261-1.791-.31.005-.046.7-.025 1.818.068 1.117.091 2.658.263 4.354.481l4.338.576c1.11.153 1.796.255 1.79.304z" fill="#292A29"/><path d="M66.078 265.174l.013-.14.346-1.317.035.005-.394 1.452z" fill="#fff"/><path d="M78.49 266.303l-12.412-1.129.394-1.453.079.01c.03.051.709.154 1.79.305l4.337.582c1.696.217 3.237.387 4.355.477.232.018.447.034.64.046l1.018.13-.2 1.032z" fill="#F89DB4"/><path d="M77.67 265.142a64.545 64.545 0 01-.641-.047 99.87 99.87 0 01-4.355-.477l-4.338-.581c-1.08-.151-1.76-.255-1.79-.305l11.123 1.41z" fill="#fff"/><path d="M72.242 264.547c-.078-.02.45-2.436 1.18-5.397.73-2.962 1.386-5.347 1.463-5.328.079.019-.45 2.436-1.18 5.397-.73 2.961-1.385 5.347-1.463 5.328z" fill="#292A29"/><path d="M78.166 265.064c-.075-.003.396-1.011.03-2.618a5.21 5.21 0 00-1.359-2.451c-.745-.761-1.862-1.29-3.089-1.416-1.229-.118-2.426.178-3.324.754a5.746 5.746 0 00-1.933 2.048c-.79 1.445-.713 2.531-.783 2.513-.01 0-.016-.065-.019-.188a3.813 3.813 0 01.03-.536 5.612 5.612 0 01.59-1.886 5.772 5.772 0 011.97-2.177c.94-.621 2.205-.942 3.498-.817 1.291.131 2.472.7 3.251 1.516a5.288 5.288 0 011.368 2.596c.164.829.107 1.522.005 1.977a3.406 3.406 0 01-.153.516c-.044.114-.072.173-.082.169z" fill="#292A29"/><path d="M121.097 249.484l-.737 11.093s11.068 3.663 11.132 5.726l-21.625.156.437-17.33 10.793.355z" fill="#FFD000"/><path d="M113.888 261.086c-.375 0-.745-.286-.819-.659-.079-.398.182-.827.562-.963a.55.55 0 01.246-.055c.349 0 .734.282.839.612.132.412-.249.954-.672 1.048a.69.69 0 01-.156.017z" fill="#F89DB4"/><path d="M131.602 266.459h-21.735l.328-.002c6.966.002 14.113.002 21.407.002zm-.135-.311c-.074-.267-.31-.556-.666-.858.045.02.532.255.731.858h-.065z" fill="#fff"/><path d="M131.603 266.459c-7.295 0-14.441 0-21.408-.002l21.297-.154a.608.608 0 00-.024-.155h.065c.031.095.055.198.07.311z" fill="#fff"/><path d="M109.867 266.459l.113-1.744 20.817.573.004.002c.356.302.592.591.666.858a.659.659 0 01.025.155l-21.297.154-.328.002z" fill="#F89DB4"/><path d="M120.716 260.478c-.006.105-.536.137-1.065.459-.538.31-.819.758-.915.713-.097-.023.079-.648.728-1.028.644-.385 1.278-.24 1.252-.144zm2.237 1.003c.021.103-.442.269-.813.702-.385.424-.491.903-.596.895-.099.014-.154-.605.319-1.137.468-.535 1.09-.56 1.09-.46zm1.209 2.745c-.097.02-.228-.51.061-1.079.284-.57.789-.783.831-.693.057.088-.273.387-.503.858-.24.465-.284.907-.389.914zm-3.56-6.295c-.048.094-.527-.065-1.125-.043-.598.011-1.068.196-1.12.104-.059-.078.406-.454 1.11-.47.704-.022 1.19.328 1.135.409z" fill="#292A29"/><path d="M110.203 253.24l.04-1.783h.005l-.045 1.783z" fill="#fff"/><path d="M120.822 253.658l-10.619-.417.045-1.783 10.703.223-.129 1.977z" fill="#BA2C42"/><path d="M120.71 255.69c-.001.044-.42.097-1.083-.038a4.837 4.837 0 01-1.122-.382 4.929 4.929 0 01-.611-.347c-.098-.067-.214-.134-.32-.264-.113-.113-.171-.395-.031-.561a.583.583 0 01.47-.227c.16-.001.287.036.404.069a3.829 3.829 0 011.645.933c.487.479.646.878.609.897-.048.033-.283-.304-.782-.702a4.327 4.327 0 00-.948-.572 3.977 3.977 0 00-.616-.209c-.227-.067-.422-.075-.483.025-.023.038-.026.053.019.122.048.062.139.126.235.192a5.806 5.806 0 001.596.775c.614.191 1.021.233 1.018.289z" fill="#292A29"/><path d="M120.567 255.837c-.038.015-.236-.369-.254-1.051a3.492 3.492 0 01.479-1.825c.133-.209.296-.49.707-.524.215-.002.387.17.443.314.067.148.077.274.099.399a2.478 2.478 0 01-.517 1.829c-.439.546-.884.659-.892.622-.033-.054.341-.245.68-.773.167-.26.32-.604.373-1.004a2.21 2.21 0 000-.624c-.027-.231-.108-.418-.195-.397-.107-.005-.295.163-.389.342-.117.19-.211.385-.286.577a3.899 3.899 0 00-.242 1.071c-.049.632.052 1.03-.006 1.044z" fill="#292A29"/><path d="M74.212 76.71s-2.344 12.764-4.227 20.488c-1.463 5.997-5.25 17.239 1.603 20.505 6.854 3.266 16.07-9.912 16.07-9.912l3.912-30.038c-2.725.508-5.809 3.657-9.095 8.29l.598-11.395-8.86 2.062z" fill="#424342"/><path d="M168.525 95.564l-3.606 1.715-3.317-5.193 1.94-4.009c.184-.372.38-.79.587-1.269a5.448 5.448 0 00.428-1.763c.054-.735.087-1.715-.058-2.256-.179-.67.531-1.218 1.013-.827.483.39 1.02 2.221.662 4.43-.358 2.208 2.221-.135 3.175-.971.954-.838 4.026-3.285 4.508-3.19.707.14.688.941-.284 1.754-.985.824-3.721 3.46-3.268 3.953l.023.002a2.71 2.71 0 012.352 2.098c.245 1.09.444 2.59-.17 3.086-1.155.934-3.985 2.44-3.985 2.44zM98.642 47.137l-.095 31.224 13.429.639.388-7.595s4.77.945 6.001-3.474c.785-2.822.589-24.637.589-24.637l-20.312 3.843z" fill="#F8A58D"/><path d="M121.991 46.373c-.904 1.866-5.212 5.28-5.212 5.28l-1.945 5.202c-1.691-1.32-3.96-1.245-4.39 1.718-.31 2.141 2.358 2.574 2.358 2.574-1.553 2.637-2.607 4.77-4.869 7.278-2.447 2.715-3.819 2.989-6.474 3.032h-2.927s-5.99-4.992-4.807-18.144c1.184-13.152 13.037-9.315 15.866-12.601 4.608-5.352 15.419-.568 12.4 5.66z" fill="#292A29"/><path d="M94.39 64.309s.13-.004.375 0c.245-.012.608-.022 1.063-.122.908-.18 2.194-.71 3.44-1.817 1.259-1.095 2.368-2.764 3.487-4.655.568-.943 1.164-1.94 1.883-2.904.72-.96 1.569-1.902 2.636-2.62 1.063-.725 2.262-1.152 3.423-1.455 1.167-.303 2.314-.49 3.396-.699 2.159-.397 4.1-.999 5.422-2.022 1.326-1.012 1.988-2.27 2.196-3.164.118-.45.118-.814.128-1.057-.013-.244-.013-.373-.013-.373s.017.127.038.373c-.002.244.006.612-.106 1.069-.196.907-.853 2.188-2.189 3.222-1.333 1.046-3.291 1.66-5.454 2.065-1.084.214-2.228.402-3.386.704-1.155.303-2.338.727-3.385 1.44-1.05.707-1.892 1.638-2.608 2.59-.716.957-1.311 1.949-1.882 2.89-1.124 1.89-2.249 3.565-3.528 4.662-1.265 1.109-2.57 1.632-3.488 1.798-.46.094-.827.096-1.073.1a7.848 7.848 0 01-.374-.025z" fill="#424342"/><path d="M93.695 53.611s.212-.082.623-.218c.41-.13 1.019-.34 1.84-.436.802-.092 1.893-.056 2.88.62.48.332.913.862 1.028 1.532.116.65-.029 1.438-.592 1.957-.277.256-.66.402-1.053.422-.396.018-.793-.11-1.147-.307a3.45 3.45 0 01-1.535-1.94 4.864 4.864 0 01-.117-2.66 4.633 4.633 0 011.447-2.42 4.837 4.837 0 012.71-1.209c1.029-.11 2.072.116 3.087.399 1.018.284 2.041.612 3.12.746 1.076.143 2.186.15 3.291.008 1.102-.152 2.189-.412 3.167-.874.964-.455 1.842-1.208 2.122-2.218.279-.991.014-2.12-.705-2.81-.718-.702-1.86-.795-2.713-.4-.429.195-.799.522-1.001.936-.216.407-.27.88-.215 1.323a3.06 3.06 0 001.366 2.146c.717.464 1.557.64 2.347.658.797.021 1.558-.123 2.253-.337 1.399-.43 2.515-1.212 3.334-2.026a8.634 8.634 0 001.722-2.409c.365-.733.514-1.356.631-1.77.081-.422.131-.643.131-.643s-.033.224-.107.65c-.108.416-.251 1.043-.611 1.784a8.588 8.588 0 01-1.717 2.438 8.182 8.182 0 01-3.356 2.06c-.703.219-1.473.368-2.282.349-.803-.015-1.661-.191-2.402-.668a3.165 3.165 0 01-1.419-2.218c-.057-.462-.002-.958.225-1.389.213-.437.604-.784 1.053-.988.891-.414 2.082-.32 2.844.419.756.724 1.029 1.894.74 2.928-.294 1.06-1.205 1.833-2.186 2.297-.997.47-2.091.731-3.205.885a12.77 12.77 0 01-3.323-.008c-1.091-.135-2.125-.468-3.137-.751-1.011-.283-2.038-.505-3.042-.399a4.727 4.727 0 00-2.645 1.177c-1.474 1.272-1.861 3.361-1.309 4.962a3.348 3.348 0 001.485 1.888c.341.192.72.314 1.096.298a1.59 1.59 0 00.997-.395c.535-.487.683-1.249.573-1.877-.108-.646-.523-1.16-.99-1.489-.962-.667-2.038-.713-2.836-.63-.814.088-1.425.29-1.837.413-.412.129-.63.194-.63.194z" fill="#424342"/><path d="M84.846 138.611L66.97 255.735l14.848 1.88 20.949-98.24 5.275 98.9 16.093-.28-2.668-119.109-36.62-.275z" fill="#292A29"/><path d="M102.945 157.095l5.38 100.875 15.501-.269-2.655-118.518-36.068-.271-17.791 116.564 14.267 1.807 21.366-100.188zm4.811 101.485l-.016-.289-5.153-96.637-20.535 96.293-15.427-1.954 17.962-117.684 37.172.28 2.681 119.7-16.684.291z" fill="#292A29"/><path d="M119.351 257.808c-.085 0-.156-23.468-.156-52.409 0-28.953.071-52.415.156-52.415.088 0 .157 23.462.157 52.415 0 28.941-.069 52.409-.157 52.409zm-40.803-.427a1.591 1.591 0 01.036-.256l.136-.741.551-2.847 2.106-10.455a2710.25 2710.25 0 017.287-34.42c2.934-13.428 5.69-25.56 7.73-34.332l2.446-10.379.686-2.817c.078-.311.14-.553.186-.731.043-.164.068-.248.073-.247.005.001-.009.087-.043.254l-.155.738-.628 2.83-2.349 10.402a4963.613 4963.613 0 00-7.64 34.348 4943.861 4943.861 0 00-7.376 34.399l-2.203 10.435-.61 2.834-.166.736c-.039.166-.061.25-.067.249zm29.497-98.11c0 .022-.241.052-.679.089l-1.855.132c-1.567.103-3.733.211-6.112.443-2.38.237-4.524.555-6.081.758l-1.845.234c-.437.049-.68.066-.684.045-.003-.022.234-.079.665-.165.43-.086 1.056-.2 1.83-.332 1.55-.26 3.693-.612 6.084-.85 2.392-.233 4.563-.306 6.132-.354a75.324 75.324 0 011.861-.032c.439 0 .683.01.684.032zm13.731-7.606c.003.019-.159.068-.462.116a6.409 6.409 0 01-1.296.058c-1.091-.044-2.635-.412-4.016-1.401-1.381-.991-2.223-2.334-2.612-3.351a6.413 6.413 0 01-.359-1.244c-.05-.301-.056-.47-.036-.474.055-.011.158.657.598 1.632a8.048 8.048 0 002.591 3.183 8.077 8.077 0 003.851 1.435c1.066.106 1.734-.01 1.741.046zM81.79 140.909l41.128-.132-2.249-27.077c-.25-6.196-.212-6.935-.366-12.655 0 0 5.84 7.042 10.431 11.981 2.775 2.984 7.173 3.818 10.862 2.078l24.03-16.724-4.5-11.482-21.837 13.334c-1.001-.62-9.503-12.717-15.379-18.624a20.812 20.812 0 00-14.167-6.113c-4.039-.117-8.914.07-13.266.531a13.862 13.862 0 00-12.352 12.62c-.426 5.064-.084 10.941-.084 20.93l-2.252 31.333z" fill="#424342"/><path d="M83.723 91.385s.006.109.006.316c0 .243-.003.543-.005.907-.011.787-.01 1.926-.002 3.333.015 2.815.13 6.702.251 10.996.121 4.296.145 8.189.037 11.003a71.83 71.83 0 01-.179 3.331l-.074.903c-.018.207-.034.314-.034.314s0-.109.01-.316l.05-.905c.051-.785.1-1.923.138-3.329.086-2.814.049-6.703-.073-10.998-.122-4.293-.222-8.182-.215-10.998a116.493 116.493 0 01.071-4.242c.009-.207.02-.315.02-.315zm54.664 12.723c-.017-.003.017-.218.087-.564.069-.346.173-.822.296-1.346.123-.525.241-.999.332-1.339.092-.34.157-.549.173-.544.017.005-.018.221-.087.567-.069.346-.173.821-.296 1.344-.122.523-.24.995-.331 1.335-.092.341-.157.55-.174.547zm2.188.337c-.034.007-.283-.959-.558-2.158-.274-1.199-.469-2.178-.435-2.186.034-.007.283.958.557 2.158.275 1.2.469 2.178.436 2.186zm-19.26-2.384s-.08-.068-.225-.205l-.627-.609a80.816 80.816 0 01-2.258-2.288c-.928-.99-2.011-2.196-3.067-3.65-1.053-1.453-2.078-3.166-2.79-5.119-.722-1.947-1.03-3.942-.92-5.74.082-1.792.424-3.41 1.034-4.633a6.813 6.813 0 012.021-2.48c.308-.224.554-.387.732-.48.173-.1.267-.147.267-.147.013.02-.371.202-.969.666a6.885 6.885 0 00-1.971 2.479c-.593 1.214-.923 2.818-.999 4.6-.103 1.784.206 3.759.922 5.693.707 1.938 1.723 3.643 2.767 5.093 1.046 1.453 2.12 2.662 3.038 3.658.923.992 1.696 1.773 2.227 2.314l.611.625c.139.143.207.223.207.223z" fill="#292A29"/><path d="M94.583 90.92c-.067.054-.699-.629-1.41-1.525-.713-.895-1.235-1.665-1.167-1.718.068-.053.7.63 1.412 1.525.71.895 1.233 1.665 1.165 1.718zm9.35 10.583c.061.061-.811 1.028-1.948 2.16-1.138 1.131-2.109 2-2.17 1.938-.06-.061.811-1.027 1.949-2.16 1.137-1.131 2.108-1.999 2.169-1.938zm9.042 15.187c-.089.026-.418-.899-1.029-1.932-.603-1.037-1.25-1.777-1.183-1.841.054-.059.827.607 1.453 1.684.633 1.071.837 2.071.759 2.089zm-23.447-1.72c-.074.032-.665-1.272-.965-2.999-.308-1.727-.197-3.153-.117-3.148.093.001.123 1.402.425 3.094.293 1.692.744 3.021.657 3.053zm12.447 6.687c-.073.032-.554-1.069-.68-2.528-.136-1.46.141-2.628.219-2.61.092.013-.04 1.168.092 2.581.122 1.414.457 2.528.369 2.557zm-4.919 9.718c-.046.073-1.311-.634-2.825-1.578-1.515-.944-2.706-1.769-2.66-1.842.046-.073 1.31.633 2.826 1.578 1.514.944 2.704 1.769 2.659 1.842zm19.359-2.875c.039.084-1.355.774-2.971 1.796-1.619 1.015-2.844 1.972-2.903 1.901-.054-.059 1.096-1.136 2.737-2.165 1.637-1.035 3.106-1.606 3.137-1.532zm-24.354 10.983c-.016.085-1.373-.114-3.03-.444-1.657-.33-2.985-.665-2.968-.75.016-.085 1.373.114 3.03.444 1.656.33 2.986.665 2.968.75zm12.986-2.108c-.061.053-.805-.724-1.43-1.882-.631-1.155-.877-2.2-.798-2.221.086-.028.459.949 1.073 2.073.608 1.127 1.226 1.972 1.155 2.03zm14.61 1.014c.066.056-.353.664-.936 1.36-.582.697-1.108 1.216-1.175 1.16-.066-.055.353-.663.935-1.36.583-.696 1.11-1.215 1.176-1.16zM92.932 97.2c.048.073-.488.514-1.198.986-.71.473-1.324.798-1.372.726-.047-.071.489-.512 1.199-.985.709-.473 1.323-.798 1.37-.726zm10.135-11.295c-.08.027-.614-1.339-1.082-3.082-.469-1.744-.691-3.193-.609-3.21.087-.017.444 1.395.912 3.129.464 1.733.863 3.135.779 3.163zm9.737 10.285c-.037.082-.914-.254-2.04-.464-1.126-.219-2.064-.23-2.069-.32-.008-.08.958-.213 2.127.014 1.17.22 2.02.697 1.982.77zm6.692-8.737c.014.078-1.022.274-2.292.075-1.271-.192-2.201-.688-2.164-.759.036-.086.988.267 2.212.45 1.222.192 2.236.142 2.244.234zm6.848 9.745c-.081 0-.132-1.493.166-3.304.291-1.813.811-3.214.888-3.188.088.027-.293 1.45-.579 3.238-.294 1.786-.383 3.256-.475 3.254zm8.043 11.474c-.062.06-1.019-.823-2.136-1.974-1.118-1.15-1.974-2.132-1.912-2.192.062-.06 1.018.824 2.137 1.975 1.118 1.15 1.973 2.131 1.911 2.191zm6.69-.881c.072.048-.41.924-1.079 1.959-.669 1.035-1.27 1.836-1.342 1.789-.073-.047.41-.924 1.079-1.959.668-1.034 1.269-1.835 1.342-1.789zm7.765-3.775c-.078.038-.658-.995-1.295-2.305-.639-1.312-1.093-2.404-1.015-2.442.078-.038.658.994 1.296 2.305.637 1.311 1.092 2.405 1.014 2.442zm10.575-4.364c-.015.085-1.25-.063-2.759-.33-1.509-.268-2.72-.554-2.705-.639.015-.084 1.25.064 2.76.332 1.508.267 2.72.553 2.704.637zm-83.972 11.22c-.077-.036.422-1.259 1.116-2.729.695-1.472 1.32-2.634 1.399-2.598.078.038-.421 1.26-1.115 2.731-.695 1.47-1.321 2.633-1.4 2.596zm5.598-9.862c-.064.058-.879-.742-1.82-1.785-.94-1.045-1.65-1.937-1.586-1.995.064-.058.879.742 1.82 1.786.94 1.043 1.65 1.937 1.586 1.994zm-.463 15.84c.054.066-.362.502-.93.973-.569.472-1.074.8-1.13.734-.055-.066.36-.502.93-.974.568-.471 1.074-.8 1.13-.733zm1.895-26.32c.068.054-.184.48-.563.952-.378.472-.74.811-.807.758-.068-.054.184-.48.563-.953.379-.472.74-.81.807-.757z" fill="#fff"/><path d="M120.847 115.847l-.178-2.148a505.883 505.883 0 01-.122-3.238l.103.01.197 5.376z" fill="#BA2C42"/><path d="M120.65 110.471l-.103-.01a344.031 344.031 0 01-.126-4.581l.061.009.168 4.582zm-.216-5.877a.639.639 0 01-.042-.01l-.04-1.691.02.002.062 1.699z" fill="#0F191D"/><path d="M120.481 105.889l-.061-.009-.029-1.296a.541.541 0 00.043.01l.047 1.295zm-.11-2.995l-.02-.001c-.013-.545-.028-1.141-.046-1.803v.001l.066 1.803z" fill="#fff"/><path d="M120.907 117.539c-2.513-7.879-4.46-16.145-6.962-24.032.383.639.786 1.24 1.193 1.801 1.057 1.455 2.14 2.661 3.068 3.65a76.729 76.729 0 002.097 2.133c.018.662.033 1.257.046 1.802.016.622.028 1.177.04 1.691l.029 1.296c.032 1.464.063 2.728.127 4.581.031.907.07 1.956.122 3.239l.178 2.147.062 1.692z" fill="#20353D"/><path d="M120.305 101.091l-.001-.001a78.01 78.01 0 01-2.096-2.132c-.928-.989-2.011-2.195-3.068-3.65a24.818 24.818 0 01-1.193-1.801l-.08-.253c1.939 3.02 4.081 5.623 6.436 7.791l.002.046z" fill="#0F191D"/><path d="M72.54 103.673a1.533 1.533 0 01.077-.196l.245-.552c.213-.479.535-1.166.942-2.011a112.229 112.229 0 013.407-6.487 112.211 112.211 0 013.827-6.25c.517-.783.943-1.411 1.245-1.84l.35-.493c.08-.112.124-.17.128-.167a1.3 1.3 0 01-.108.18l-.33.507-1.211 1.86a136.5 136.5 0 00-3.793 6.265 135.79 135.79 0 00-3.436 6.464l-.977 1.993-.266.542a1.27 1.27 0 01-.1.185z" fill="#292A29"/><path d="M76.593 96.047c.006.02-.254.104-.656.276a8.636 8.636 0 00-1.492.824 8.632 8.632 0 00-1.293 1.109c-.301.316-.47.53-.487.517-.007-.005.028-.064.098-.165.07-.103.18-.244.324-.412a7.008 7.008 0 012.817-1.955c.208-.076.378-.13.499-.159.12-.03.187-.043.19-.035z" fill="#292A29"/><path d="M77.153 83.757c.07.05-.748 1.297-1.827 2.785-1.078 1.488-2.01 2.652-2.08 2.602-.07-.05.748-1.297 1.827-2.785 1.078-1.488 2.01-2.653 2.08-2.602z" fill="#fff"/><path d="M81.492 74.01c.576.182 1.19-.218 1.526-.72.336-.5.491-1.1.79-1.624.892-1.567 2.923-2.248 3.739-3.856.114-.224.184-.536-.012-.695-.181-.147-.448-.047-.657.057l-5.351 2.672" fill="#F8A58D"/><path d="M81.528 69.844c-.01-.02.185-.143.548-.348.364-.204.895-.49 1.554-.836l2.324-1.202.674-.342c.222-.093.47-.312.872-.21.198.062.328.283.326.462.007.18-.043.334-.107.477-.137.264-.29.51-.482.737-.763.909-1.722 1.46-2.426 2.117-.358.323-.66.664-.873 1.026-.213.361-.354.744-.52 1.084-.303.702-.84 1.153-1.268 1.252-.437.11-.67-.044-.657-.051.005-.035.24.063.616-.075.378-.134.824-.543 1.09-1.226.147-.333.273-.724.493-1.124.22-.4.539-.773.905-1.116.724-.694 1.673-1.26 2.376-2.103.176-.207.32-.44.439-.664.108-.223.105-.454-.026-.482-.138-.053-.384.07-.612.186l-.68.333-2.356 1.136c-.673.32-1.22.572-1.602.74-.381.168-.598.25-.608.23z" fill="#F68260"/><path d="M211.164 234.441v5.21h38.019v-5.21h-38.019z" fill="#292A29"/><path d="M211.231 239.586h37.889v-5.081h-37.889v5.081zm38.019.13h-38.148v-5.341h38.148v5.341z" fill="#292A29"/><path d="M214.688 237.916l5.472 26.932h20.248l5.29-25.197-31.01-1.735z" fill="#292A29"/><path d="M214.688 262.301l2.919 4.002h24.611l3.48-4.002h-31.01z" fill="#424342"/><path d="M228.743 238.703c-.075.001-.171-12.476-.214-27.863-.043-15.393-.018-27.867.057-27.867.074 0 .171 12.473.214 27.866.044 15.388.018 27.864-.057 27.864zm8.469-31.222c.009.004-.028.104-.102.29l-.339.807-.248.582-.253.708c-.093.256-.191.527-.293.813-.102.288-.182.602-.282.926-.415 1.293-.745 2.879-1.063 4.643a56.458 56.458 0 00-.589 5.808c-.185 4.143.05 7.9.301 10.606.122 1.354.245 2.449.335 3.204l.097.871c.018.2.024.305.014.307-.009.001-.032-.102-.068-.299l-.147-.865a61.804 61.804 0 01-.422-3.199c-.3-2.707-.566-6.475-.38-10.639a52.86 52.86 0 01.612-5.835c.334-1.773.686-3.364 1.127-4.658.106-.325.192-.638.301-.926l.314-.81.276-.704c.094-.212.19-.402.271-.575l.387-.788c.091-.179.142-.271.151-.267z" fill="#292A29"/><path d="M236.241 197.39c.009.003-.033.145-.121.411l-.395 1.161-.291.835-.307 1.008c-.221.722-.479 1.542-.708 2.465l-.382 1.443-.356 1.577c-.266 1.087-.457 2.266-.702 3.498a102.97 102.97 0 00-1.043 8.107c-.24 2.892-.345 5.655-.381 8.169-.008 2.514.024 4.779.127 6.679.034.95.095 1.808.144 2.562.044.755.091 1.404.139 1.934l.094 1.222c.018.279.023.426.014.428-.01.001-.033-.145-.069-.423l-.144-1.218a46.824 46.824 0 01-.185-1.932c-.063-.753-.138-1.612-.184-2.564-.128-1.901-.18-4.17-.186-6.69.023-2.52.12-5.29.361-8.19a97.134 97.134 0 011.067-8.127c.252-1.235.453-2.417.729-3.504l.373-1.579.399-1.442c.242-.923.513-1.742.75-2.461l.328-1.003.313-.83.444-1.144c.105-.261.164-.395.172-.392zm-9.903 43.52a.567.567 0 01-.022-.145 95.823 95.823 0 00-.036-.43l-.112-1.651-.38-6.078c-.331-5.13-.808-12.218-1.674-20.012a248.179 248.179 0 00-1.488-10.955c-.283-1.675-.54-3.269-.832-4.751a136.209 136.209 0 00-.821-4.122c-.25-1.261-.528-2.389-.752-3.386a74.995 74.995 0 00-.612-2.546l-.394-1.608-.097-.419a.616.616 0 01-.023-.147c.004 0 .021.047.051.139l.121.413.444 1.595c.195.694.423 1.544.657 2.538.239.994.531 2.121.792 3.38.278 1.256.577 2.634.855 4.121.301 1.482.568 3.077.858 4.753a230.09 230.09 0 011.511 10.965c.866 7.802 1.313 14.897 1.595 20.031.139 2.567.237 4.646.295 6.083l.061 1.655.009.43a.689.689 0 01-.006.147z" fill="#292A29"/><path d="M228.435 188.971c-.165-1.767-1.956-3.101-3.735-3.119-1.78-.018-3.438 1.046-4.527 2.451-1.088 1.404-1.688 3.119-2.179 4.825-1.199 4.164-1.854 8.539-1.342 12.842.513 4.302 2.263 8.538 5.358 11.577.503.494 1.155.989 1.845.842.378-.081.687-.343.974-.601 6.079-5.478 9.59-13.683 9.349-21.852-.048-1.637-.263-3.339-1.172-4.702-.908-1.362-3.025-2.81-4.571-2.263zm-13.291-14.158l-2.506 4.528c-.059.106-.136.224-.257.234-.131.011-.23-.113-.302-.224l-6.626-10.144 1.527-.863 8.164 6.469z" fill="#FFD000"/><path d="M228.587 182.973l-22.604-13.305c-.231-.136-.481-.296-.55-.554-.09-.333.161-.656.402-.904 3.109-3.198 7.624-5.053 12.079-4.733 4.455.32 8.74 2.886 10.921 6.775 2.181 3.888 2.253 9.03-.248 12.721z" fill="#FFD000"/><path d="M209.242 165.421c0-.01.102-.022.296-.037.195-.01.483-.045.854-.041.743-.018 1.823.03 3.137.248 1.313.215 2.855.637 4.467 1.353a18.523 18.523 0 014.794 3.104 18.473 18.473 0 013.574 4.45 18.334 18.334 0 011.795 4.299c.348 1.282.504 2.349.561 3.088.04.368.024.463.033.657.005.195-.164.492-.174.493-.024.001.125-.408.036-1.139a19.185 19.185 0 00-.641-3.047c-.714-2.511-2.373-5.897-5.366-8.601-2.995-2.7-6.537-4.01-9.113-4.468a19.18 19.18 0 00-3.103-.332c-.738-.016-1.149-.003-1.15-.027z" fill="#292A29"/><path d="M225.528 173.789c.013.034-.422.235-1.143.518-.72.283-1.726.645-2.851 1.002-1.127.357-2.158.64-2.91.824-.752.183-1.224.269-1.233.234-.009-.037.444-.188 1.181-.418l2.879-.898 2.87-.924c.735-.236 1.194-.374 1.207-.338zm-3.562-9.538c.073-.006.233 1.119.268 2.516.036 1.398-.067 2.529-.14 2.526-.076-.003-.095-1.131-.132-2.519-.033-1.388-.072-2.515.004-2.523zm-16.177 5.165c-.011-.035.615-.261 1.642-.577a70.197 70.197 0 014.051-1.099 69.809 69.809 0 014.109-.862c1.059-.186 1.719-.268 1.725-.232.008.037-.64.187-1.687.419-1.047.233-2.493.556-4.083.938-1.59.382-3.024.752-4.063 1.02-1.038.268-1.683.43-1.694.393z" fill="#292A29"/><path d="M219.054 185.135c-1.944-1.47-3.999-1.76-6.437-1.663-2.438.096-4.811.837-7.045 1.813-3.812 1.666-7.395 4.12-9.672 7.593-2.278 3.474-3.069 8.074-1.365 11.86.17.377.391.771.772.934.402.171.861.038 1.276-.097 4.334-1.411 8.701-2.835 12.687-5.044 3.985-2.209 7.614-5.28 9.753-9.297.513-.964.942-1.998 1.026-3.085.084-1.089-.217-2.245-.995-3.014z" fill="#FFD000"/><path d="M219.095 184.679c.003.009-.105.053-.311.127l-.909.311c-.2.067-.419.141-.657.219-.239.086-.493.192-.769.299-.549.222-1.185.442-1.856.767-.339.155-.693.315-1.062.482-.37.171-.737.379-1.126.577-.787.386-1.581.877-2.428 1.376a41.968 41.968 0 00-5.132 3.797 41.964 41.964 0 00-4.431 4.596c-.604.774-1.195 1.498-1.677 2.226-.247.36-.501.698-.717 1.041l-.616.99c-.408.623-.709 1.224-.999 1.739-.141.259-.279.497-.394.722-.11.225-.21.433-.301.623l-.426.859c-.1.195-.157.296-.166.293-.008-.005.032-.112.116-.316l.38-.881.281-.635c.109-.23.241-.472.376-.735.279-.523.569-1.135.969-1.767l.604-1.004c.213-.348.464-.691.708-1.056.478-.738 1.066-1.472 1.668-2.256a40.46 40.46 0 014.446-4.642 40.448 40.448 0 015.18-3.806c.856-.496 1.66-.984 2.455-1.363.394-.194.767-.4 1.14-.566l1.076-.469c.679-.315 1.323-.525 1.88-.734.279-.1.537-.2.779-.279l.667-.197.925-.263c.213-.058.325-.084.327-.075zm-15.194 8.204c.021.071-2.096.752-4.728 1.52-2.634.768-4.785 1.332-4.806 1.261-.021-.072 2.096-.752 4.729-1.52s4.784-1.333 4.805-1.261z" fill="#292A29"/><path d="M203.709 203.292c-.037.001-.079-.561-.104-1.47a66.414 66.414 0 01.01-3.551c.039-1.387.113-2.641.189-3.547.076-.906.15-1.464.186-1.462.038.003.032.565.005 1.473l-.109 3.544-.09 3.543c-.024.908-.049 1.469-.087 1.47zm8.941-4.543c-.074.005-.312-2.547-.531-5.701-.218-3.153-.335-5.714-.26-5.718.074-.006.312 2.546.531 5.7.218 3.153.335 5.714.26 5.719z" fill="#292A29"/><path d="M201.523 187.082c.002-.037.581-.051 1.517-.046a150.9 150.9 0 013.648.081c1.425.047 2.714.105 3.647.161.933.054 1.51.107 1.51.145-.001.037-.579.052-1.514.045-.935-.006-2.226-.034-3.652-.081a149.555 149.555 0 01-3.648-.159c-.933-.056-1.509-.109-1.508-.146zm21.455 31.058c-.009 0-.02-.103-.032-.302l-.04-.867a50.946 50.946 0 01-.013-3.193 66.75 66.75 0 01.279-4.73c.176-1.775.431-3.722.796-5.75.374-2.027.823-3.94 1.286-5.666a66.138 66.138 0 011.411-4.533 51.244 51.244 0 011.14-2.992l.344-.801c.082-.181.128-.276.137-.272.009.004-.021.104-.086.292l-.296.818a81.946 81.946 0 00-1.058 3.014 78.626 78.626 0 00-1.351 4.536 82.13 82.13 0 00-1.261 5.651 81.42 81.42 0 00-.813 5.727 76.778 76.778 0 00-.336 4.712 80.46 80.46 0 00-.074 3.186l-.01.867c-.006.199-.013.303-.023.303z" fill="#292A29"/><path d="M224.171 203.377c.026.026-.316.405-.901.986a51.98 51.98 0 01-2.362 2.192 52.542 52.542 0 01-2.488 2.05c-.655.502-1.076.791-1.099.762-.024-.03.356-.371.978-.91l2.43-2.105 2.41-2.128c.617-.544 1.006-.875 1.032-.847zm7.156 5.749c-.033.02-.391-.493-.961-1.327l-2.234-3.251-2.28-3.22c-.586-.823-.943-1.337-.913-1.36.029-.022.44.451 1.067 1.245a69.963 69.963 0 012.349 3.18 69.912 69.912 0 012.172 3.302c.529.862.83 1.412.8 1.431zm-3.751-18.08c.04.062-2.336 1.658-5.308 3.564-2.972 1.906-5.414 3.401-5.455 3.337-.04-.062 2.336-1.658 5.309-3.564 2.971-1.906 5.413-3.4 5.454-3.337zm6.699 7.215c-.052.054-1.662-1.431-3.595-3.314-1.933-1.884-3.458-3.453-3.405-3.507.052-.053 1.662 1.43 3.595 3.314 1.933 1.884 3.457 3.453 3.405 3.507z" fill="#292A29"/><path d="M235.961 198.116l2.041-.169a10.108 10.108 0 004.119-1.257c.626-.352 1.255-.695 1.921-.963 2.522-1.009 5.337-.829 8.052-.965a33.4 33.4 0 0012.807-3.267c.231-.111.435-.281.558-.505.42-.762-.359-1.44-1.028-1.851-3.438-2.113-6.937-4.253-10.835-5.302-3.898-1.049-8.322-.871-11.648 1.412-3.905 2.681-5.327 8.185-5.987 12.867z" fill="#FFD000"/><path d="M265.509 190.739c-.005.009-.124-.047-.347-.16l-.967-.505c-.838-.441-2.046-1.09-3.571-1.819-1.527-.722-3.377-1.537-5.529-2.126-2.144-.595-4.616-.905-7.166-.579-2.539.333-4.877 1.319-6.532 2.798-1.666 1.474-2.683 3.254-3.401 4.766-.717 1.526-1.159 2.823-1.48 3.711l-.363 1.026c-.086.234-.135.356-.144.353-.008-.002.023-.13.091-.369l.315-1.043c.292-.9.707-2.21 1.406-3.758.703-1.534 1.715-3.353 3.411-4.873 1.686-1.525 4.078-2.54 6.662-2.879 2.593-.332 5.106-.006 7.268.607 2.171.608 4.024 1.447 5.545 2.194a66.828 66.828 0 013.539 1.899l.943.549c.214.129.324.2.32.208z" fill="#292A29"/><path d="M260.612 193.366c-.042.061-2.71-1.661-5.959-3.846-3.251-2.186-5.851-4.008-5.809-4.07.042-.062 2.71 1.66 5.96 3.846 3.25 2.185 5.85 4.007 5.808 4.07zm-2.852-8.057c.013.06-.85.261-1.942.349-1.093.091-1.983.035-1.982-.025.001-.065.88-.11 1.959-.2 1.078-.087 1.952-.186 1.965-.124zm-11.675-1.518c.064.03-.328.641-.876 1.364-.547.724-1.043 1.287-1.108 1.257-.065-.029.327-.64.875-1.364.548-.724 1.044-1.287 1.109-1.257zm2.384 11.142c-.018.031-.513-.228-1.283-.694a43.964 43.964 0 01-2.926-1.957 82.719 82.719 0 01-2.8-2.127c-.704-.558-1.13-.917-1.108-.948.023-.028.489.275 1.223.795l2.844 2.062c1.109.803 2.128 1.508 2.87 2.014.742.506 1.201.822 1.18.855z" fill="#292A29"/><path d="M238.966 206.762c-1.946-.512-4.266 1.376-4.666 3.343-.402 1.968.338 3.98 1.203 5.792 1.918 4.013 4.564 7.734 8.048 10.504 3.485 2.77 7.849 4.541 12.305 4.518-.823-3.812.218-7.793-.241-11.666a15.29 15.29 0 00-4.405-9.003 15.356 15.356 0 00-9.069-4.303c-1.242-.134-2.68-.329-3.175.815z" fill="#FFD000"/><path d="M255.86 230.919c-.004.008-.099-.036-.277-.128a5.062 5.062 0 01-.728-.488c-.61-.463-1.31-1.354-1.921-2.563-.31-.601-.657-1.253-.996-1.976l-1.046-2.308c-.372-.81-.78-1.649-1.287-2.468a19.238 19.238 0 00-1.771-2.402c-1.332-1.561-2.762-2.912-4.001-4.202-1.245-1.286-2.294-2.523-3.05-3.651a13.413 13.413 0 01-1.491-2.84 9.013 9.013 0 01-.26-.833c-.048-.193-.071-.296-.061-.298.025-.007.136.397.419 1.092.292.692.774 1.673 1.551 2.77.769 1.103 1.821 2.316 3.072 3.586 1.244 1.277 2.681 2.624 4.028 4.201.672.788 1.28 1.602 1.79 2.439.513.835.921 1.687 1.288 2.503l1.023 2.317c.327.719.664 1.378.962 1.982.586 1.212 1.241 2.091 1.82 2.57.568.49.953.671.936.697z" fill="#292A29"/><path d="M245.799 227.751c-.036-.006.026-.507.178-1.306.153-.8.403-1.897.74-3.092.338-1.196.699-2.263.987-3.024.288-.761.498-1.22.532-1.208.036.014-.11.495-.35 1.27-.241.775-.572 1.844-.909 3.035-.335 1.19-.613 2.274-.812 3.061-.2.786-.328 1.272-.366 1.264zm9.693-9.356c-.012.037-.532-.095-1.37-.314-.839-.218-1.997-.517-3.285-.807a102.293 102.293 0 00-3.315-.676c-.852-.16-1.379-.264-1.374-.302.005-.035.543.001 1.405.113a39.104 39.104 0 016.622 1.488c.828.267 1.329.464 1.317.498zm-16.921 2.719c-.035-.007.039-.586.21-1.513a52.599 52.599 0 011.864-7.12c.305-.892.523-1.434.557-1.422.037.012-.117.574-.374 1.479a164.41 164.41 0 00-.977 3.539c-.363 1.387-.664 2.65-.882 3.564-.218.915-.36 1.48-.398 1.473zm12.454-10.872c-.007.074-2.437-.123-5.425-.439-2.989-.316-5.405-.632-5.397-.706.007-.074 2.436.122 5.426.438 2.988.315 5.405.632 5.396.707z" fill="#292A29"/><path d="M249.246 239.629c0 .075-8.539.135-19.072.135-10.535 0-19.072-.06-19.072-.135 0-.075 8.537-.135 19.072-.135 10.533 0 19.072.06 19.072.135zm-5.943 10.962c0 .075-5.755.135-12.851.135-7.098 0-12.85-.06-12.85-.135 0-.074 5.752-.135 12.85-.135 7.096 0 12.851.061 12.851.135zm-.221 1.568c0 .075-5.654.135-12.627.135-6.975 0-12.627-.06-12.627-.135 0-.074 5.652-.135 12.627-.135 6.973 0 12.627.061 12.627.135zm.447-2.859c0 .074-5.951.136-13.291.136-7.343 0-13.293-.062-13.293-.136 0-.075 5.95-.135 13.293-.135 7.34 0 13.291.06 13.291.135z" fill="#424342"/><path d="M240.984 18.43c0 .087-4.032.134-9.004.108-4.974-.026-9.004-.117-9.003-.204 0-.086 4.031-.134 9.005-.107 4.971.025 9.003.117 9.002.203z" fill="#292A29"/><path d="M232.069 27.363c-.086 0-.197-4.02-.247-8.979-.051-4.961-.022-8.982.065-8.984.086 0 .197 4.02.247 8.981.05 4.96.021 8.982-.065 8.982zm18.413 125.169c-.039.076-2.513-1.106-5.526-2.642-3.014-1.535-5.424-2.843-5.385-2.919.039-.077 2.514 1.106 5.526 2.641 3.013 1.536 5.425 2.843 5.385 2.92z" fill="#292A29"/><path d="M242.324 155.236c-.077-.037 1.07-2.524 2.562-5.553 1.493-3.03 2.766-5.454 2.843-5.416.078.038-1.069 2.523-2.561 5.554-1.494 3.028-2.766 5.453-2.844 5.415zM34.863 110.342c.032.08-2.843 1.298-6.42 2.72-3.579 1.423-6.504 2.511-6.537 2.431-.031-.08 2.843-1.298 6.421-2.72 3.577-1.423 6.504-2.511 6.536-2.431zm-6.629-3.895c-.026.011-.102-.175-.32-.449a2.257 2.257 0 00-1.204-.78 2.159 2.159 0 00-1.982.488c-.598.52-.9 1.496-.55 2.353.337.864 1.23 1.365 2.023 1.332a2.16 2.16 0 001.775-1.006c.328-.521.367-1.05.337-1.392-.032-.348-.105-.536-.079-.546.013-.006.127.167.2.53.07.355.067.931-.269 1.522a2.361 2.361 0 01-1.956 1.179c-.9.057-1.935-.509-2.32-1.503-.405-.986-.045-2.107.647-2.683a2.368 2.368 0 012.233-.487 2.26 2.26 0 011.245.921c.198.313.234.517.22.521zm4.501 11.27c-.026.012-.103-.175-.32-.449a2.257 2.257 0 00-1.205-.78 2.16 2.16 0 00-1.982.489c-.598.519-.9 1.495-.549 2.352.336.864 1.23 1.365 2.022 1.332a2.158 2.158 0 001.774-1.005 2.248 2.248 0 00.338-1.393c-.032-.348-.105-.536-.078-.546.012-.006.126.167.198.53.07.355.068.931-.268 1.522a2.362 2.362 0 01-1.956 1.179c-.9.057-1.935-.509-2.32-1.503-.406-.986-.044-2.107.648-2.683.689-.605 1.598-.692 2.232-.486.652.198 1.05.615 1.245.92.197.313.234.517.22.521zm35.715-69.66s.068.161.182.473l.499 1.384 1.878 5.317.04.111-.119-.015c-2.128-.29-4.74-.643-7.736-1.05l.075-.02c-2.362 1.851-5.518 3.45-9.256 4.03a19.05 19.05 0 01-2.877.247c-.492.013-.989-.038-1.49-.054l-.757-.037c-.252-.022-.503-.071-.757-.106-2.035-.237-4.097-.87-6.069-1.824a20.553 20.553 0 01-5.508-3.892 20.24 20.24 0 01-4.045-5.83c-2.041-4.407-2.466-9.804-.812-14.758 1.43-4.424 4.479-8.098 8.11-10.503 1.817-1.222 3.833-2.045 5.857-2.596l.761-.195.38-.096.387-.059 1.534-.232c.512-.043 1.024-.056 1.532-.085.507-.044 1.012-.014 1.513.016.5.04 1.004.02 1.492.11l1.46.223c.483.079.948.232 1.417.342l.698.18c.228.074.45.162.674.242 1.815.584 3.431 1.518 4.91 2.504 2.907 2.07 5.099 4.691 6.43 7.41a20.026 20.026 0 012.11 7.821c.188 2.4-.144 4.471-.55 6.103a19.27 19.27 0 01-1.322 3.648c-.194.399-.351.699-.464.893-.111.197-.177.298-.177.298s.044-.104.147-.308c.105-.205.252-.508.438-.91.362-.805.865-2.017 1.26-3.65.384-1.627.697-3.685.494-6.062a19.94 19.94 0 00-2.133-7.733c-1.329-2.683-3.506-5.264-6.381-7.298-1.463-.969-3.06-1.886-4.853-2.456-.22-.079-.44-.166-.665-.238l-.689-.175c-.463-.109-.92-.258-1.397-.335l-1.44-.217c-.482-.088-.978-.066-1.471-.105-.495-.029-.992-.058-1.493-.012-.5.029-1.004.043-1.51.085l-1.51.232-.381.058-.374.096-.75.193c-1.993.546-3.978 1.358-5.766 2.564-3.573 2.373-6.573 5.99-7.98 10.345-1.63 4.877-1.214 10.192.791 14.533a19.978 19.978 0 003.977 5.75 20.297 20.297 0 005.423 3.846c1.942.945 3.974 1.576 5.982 1.815.25.035.497.084.746.107l.746.038c.495.017.985.07 1.471.058a19.002 19.002 0 002.843-.232c3.694-.56 6.822-2.126 9.171-3.945l.034-.026.041.006c2.994.427 5.603.8 7.73 1.102l-.078.096-1.818-5.363-.461-1.388a10.725 10.725 0 01-.144-.471z" fill="#292A29"/><path d="M51.9 33.736c.27.13.456.405.457.723v3.99a.8.8 0 01-1.022.771c-.635-.178-1.349-.07-1.958.3-.561.34-.95.858-1.068 1.423-.117.563.032 1.199.409 1.744.403.583 1.019.99 1.65 1.09 1.29.205 2.73-.724 3.147-2.03a.804.804 0 011.53.487c-.654 2.051-2.866 3.454-4.93 3.126-1.07-.17-2.062-.812-2.72-1.763-.625-.904-.865-1.99-.659-2.98.208-.999.866-1.898 1.807-2.467a4.217 4.217 0 012.207-.616v-3.075a.802.802 0 011.15-.723zm-1.103-1.678a.657.657 0 111.313-.031.657.657 0 01-1.313.031z" fill="#292A29"/></g><defs><clipPath id="clip0_1301_35465"><path fill="#fff" d="M0 0h267v267H0z"/></clipPath></defs></svg>