<svg width="256" height="51" fill="none" xmlns="http://www.w3.org/2000/svg"><g clip-path="url(#clip0_1601_7818)"><path d="M245.475 42.943a11.024 11.024 0 01-7.784-2.656 9.359 9.359 0 01-2.204-3.304 9.42 9.42 0 01-.643-3.931V17.938a9.435 9.435 0 01.644-3.93 9.362 9.362 0 012.203-3.304 11.064 11.064 0 017.784-2.647c7.078 0 10.523 3.647 10.523 11.15v1.615h-5.536v-1.575a7.239 7.239 0 00-1.208-4.57 4.693 4.693 0 00-1.744-1.21 4.66 4.66 0 00-2.094-.316 4.909 4.909 0 00-2.007.296 4.95 4.95 0 00-1.723 1.082 5.503 5.503 0 00-1.315 3.964v14.222a5.38 5.38 0 001.315 3.895 4.979 4.979 0 001.726 1.07 4.94 4.94 0 002.004.288c3.357 0 5.046-1.983 5.046-5.838v-1.883h5.536v1.883c0 3.608-.893 6.363-2.65 8.167-1.757 1.803-4.408 2.646-7.873 2.646zm-119.671-2.656a9.359 9.359 0 002.204-3.304 9.42 9.42 0 00.643-3.931V17.938a9.435 9.435 0 00-.644-3.93 9.362 9.362 0 00-2.203-3.304 11.064 11.064 0 00-7.784-2.657c-3.396 0-6.027.932-7.853 2.756-1.826 1.823-2.7 4.49-2.7 7.928v2.091h5.429v-2.041a5.984 5.984 0 011.335-4.163 4.906 4.906 0 011.752-1.148 4.866 4.866 0 012.066-.309 5.09 5.09 0 012.034.298 5.129 5.129 0 011.756 1.08 5.372 5.372 0 011.364 3.964v4.628h-7.205v4.906h7.205v4.678a5.337 5.337 0 01-1.364 3.885 5.14 5.14 0 01-3.79 1.378 4.866 4.866 0 01-2.071-.327 4.903 4.903 0 01-1.747-1.17 6.063 6.063 0 01-1.335-4.182v-2.042h-5.429V32.3c0 7.215 3.446 10.733 10.524 10.733a11.005 11.005 0 007.813-2.745zm78.649 0a9.359 9.359 0 002.204-3.304 9.436 9.436 0 00.642-3.931V17.938a9.434 9.434 0 00-.643-3.93 9.376 9.376 0 00-2.203-3.304 11.066 11.066 0 00-7.785-2.647c-3.396 0-6.027.922-7.853 2.746-1.826 1.823-2.699 4.49-2.699 7.928v2.091h5.428v-2.051a5.99 5.99 0 011.325-4.153 4.906 4.906 0 011.756-1.155 4.867 4.867 0 012.073-.311c.689-.041 1.38.06 2.029.297.65.237 1.245.604 1.75 1.08a5.298 5.298 0 011.087 1.84c.235.682.329 1.404.278 2.124v4.629h-7.196v4.905h7.196v4.688a5.281 5.281 0 01-1.365 3.875 5.136 5.136 0 01-1.751 1.077 5.096 5.096 0 01-2.028.3 4.867 4.867 0 01-2.077-.324 4.91 4.91 0 01-1.752-1.172 6.064 6.064 0 01-1.325-4.182v-2.042h-5.399v2.042c0 7.225 3.446 10.733 10.523 10.733a11.029 11.029 0 007.785-2.735zm-23.049 2.17V8.533H160.25v33.924h5.575v-28.81h10.092v28.81h5.487zm-26.426 0V8.533h-20.241v26.56c0 1.804-1.188 2.557-3.2 2.557v4.807c3.573 0 8.697-.654 8.697-6.937V13.716h9.218v28.81l5.526-.069zm-50.681-9.603v.931a8.206 8.206 0 01-2.503 6.363 10.166 10.166 0 01-7.048 2.31H83.172V8.532h10.994a10.252 10.252 0 017.029 2.24 7.86 7.86 0 011.927 2.832 7.92 7.92 0 01.546 3.392v.931a7.326 7.326 0 01-1.181 4.183 7.218 7.218 0 01-3.334 2.755v.684a7.118 7.118 0 013.838 2.743 7.234 7.234 0 011.306 4.56zm-15.589-9.99h4.781c3.102 0 4.682-1.467 4.682-4.35v-.833a3.929 3.929 0 00-1.197-3.122 5.322 5.322 0 00-3.534-.991h-4.732v9.296zM98.8 32.269a4.37 4.37 0 00-.275-1.784 4.336 4.336 0 00-.972-1.516 4.936 4.936 0 00-3.485-1.16h-5.36v9.643h5.301c3.18 0 4.79-1.466 4.79-4.35v-.833zM71.746 42.457v-28.87h7.264V8.534H58.945v5.055h7.264v28.87h5.537zM232.734 9.584v-1.05h-5.498l-6.223 14.508h-3.387V8.533h-5.536v33.924h5.536V27.948h3.406l6.361 14.51h5.586v-1.061l-7.274-15.956 7.029-15.857z" fill="#292A29"/><path d="M49.61 14.073a20.343 20.343 0 00-4.908-8.186A19.85 19.85 0 0030.611 0 19.85 19.85 0 0016.52 5.887L5.82 16.659A20.221 20.221 0 00-.016 30.89a20.221 20.221 0 005.84 14.229 19.835 19.835 0 0014.095 5.891 19.836 19.836 0 0014.093-5.896l10.66-10.773a20.128 20.128 0 005.283-9.435c.87-3.574.752-7.322-.345-10.832zm-11.642-1.408a10.28 10.28 0 00-3.663-2.395 10.199 10.199 0 00-4.317-.647 7.775 7.775 0 011.462-2.15 8.152 8.152 0 012.66-1.801 8.09 8.09 0 013.142-.628 8.19 8.19 0 014.59 1.389 8.307 8.307 0 013.05 3.73 8.398 8.398 0 01.48 4.813 8.35 8.35 0 01-2.25 4.27 8.19 8.19 0 01-2.13 1.516 10.601 10.601 0 00-.432-3.805 10.344 10.344 0 00-2.592-4.292zm.697 8.92a8.26 8.26 0 01-2.748 0l-.295-.06c-.206 0-.402-.089-.608-.148l-.442-.139-.491-.198c-.177-.07-.344-.159-.52-.248l-.403-.208c-.196-.119-.383-.248-.57-.377l-.303-.218a9.154 9.154 0 01-.815-.713 7.994 7.994 0 01-.707-.823l-.187-.267c-.137-.209-.284-.417-.412-.635l-.167-.337a7.026 7.026 0 01-.294-.614l-.147-.406a11.19 11.19 0 01-.305-1.06 4.212 4.212 0 01-.078-.467c-.02-.158-.06-.416-.079-.634a1.844 1.844 0 000-.228 8.804 8.804 0 01.118-1.823 8.112 8.112 0 013.885.265 8.174 8.174 0 013.324 2.048 8.28 8.28 0 012.01 3.366 8.342 8.342 0 01.244 3.924h-.01zm4.457 11.13a17.63 17.63 0 01-7.957 4.598c-3.007.8-6.17.784-9.168-.046a17.633 17.633 0 01-7.911-4.678 17.883 17.883 0 01-4.524-8.05 18.004 18.004 0 01.08-9.257 17.875 17.875 0 014.664-7.969 17.626 17.626 0 017.992-4.536 17.507 17.507 0 019.167.117h.098a10.331 10.331 0 00-5.683 2.913l-6.666 6.76a10.57 10.57 0 00-2.306 3.427 10.651 10.651 0 00-.036 8.126 10.574 10.574 0 002.276 3.449 10.459 10.459 0 003.414 2.3 10.377 10.377 0 008.049-.032 10.461 10.461 0 003.397-2.325l6.694-6.74a10.54 10.54 0 002.886-5.659 18 18 0 01.153 9.418 17.882 17.882 0 01-4.62 8.184z" fill="#FFD000"/></g><defs><clipPath id="clip0_1601_7818"><path fill="#fff" d="M0 0h256v51H0z"/></clipPath></defs></svg>