<svg width="199" height="66" fill="none" xmlns="http://www.w3.org/2000/svg"><path d="M52.955 19.62a21.04 21.04 0 00-5.231-8.505C43.738 7.199 38.337 5 32.706 5c-5.63 0-11.032 2.2-15.017 6.115L6.285 22.309C2.302 26.23.065 31.549.066 37.095c.001 5.545 2.24 10.863 6.225 14.784C10.275 55.799 15.678 58 21.312 58c5.634-.001 11.036-2.205 15.02-6.127l11.36-11.193a20.782 20.782 0 005.63-9.804 20.548 20.548 0 00-.367-11.255zm-12.408-1.46a10.983 10.983 0 00-3.904-2.49 11.125 11.125 0 00-4.601-.672 8.073 8.073 0 011.559-2.234 8.703 8.703 0 012.835-1.871 8.813 8.813 0 013.348-.652 8.89 8.89 0 014.89 1.442 8.683 8.683 0 013.252 3.876c.67 1.58.848 3.321.512 5.001a8.609 8.609 0 01-2.398 4.437 8.727 8.727 0 01-2.27 1.576 10.752 10.752 0 00-.46-3.954 10.701 10.701 0 00-2.763-4.46zm.743 9.268c-.97.16-1.96.16-2.93 0l-.313-.062c-.22 0-.429-.093-.649-.155l-.47-.144-.524-.206c-.188-.072-.366-.165-.554-.257l-.429-.216c-.21-.124-.408-.258-.607-.392l-.324-.226a9.685 9.685 0 01-.868-.742 8.378 8.378 0 01-.754-.855l-.198-.278c-.147-.216-.304-.432-.44-.659l-.178-.35a7.216 7.216 0 01-.313-.638l-.157-.422a11.384 11.384 0 01-.325-1.102 4.267 4.267 0 01-.083-.484c-.021-.165-.063-.433-.084-.66a1.871 1.871 0 000-.236 8.925 8.925 0 01.125-1.895 8.858 8.858 0 014.14.276 8.75 8.75 0 013.543 2.128c.99.98 1.725 2.18 2.143 3.498a8.459 8.459 0 01.26 4.076h-.011zm4.75 11.564a18.907 18.907 0 01-8.48 4.778 19.12 19.12 0 01-9.77-.048 18.898 18.898 0 01-8.432-4.86 18.465 18.465 0 01-4.822-8.366 18.256 18.256 0 01.086-9.617 18.477 18.477 0 014.97-8.28 18.911 18.911 0 018.518-4.714 19.12 19.12 0 019.77.121h.104a11.11 11.11 0 00-6.057 3.028l-7.104 7.023a10.971 10.971 0 00-2.457 3.561 10.83 10.83 0 00-.038 8.444 10.967 10.967 0 002.425 3.583 11.164 11.164 0 003.638 2.39A11.306 11.306 0 0036.97 36a11.163 11.163 0 003.62-2.416l7.135-7.003a10.857 10.857 0 003.076-5.88c.944 3.189 1 6.568.162 9.786a18.467 18.467 0 01-4.922 8.503z" fill="#FFD000"/><path d="M189.848 28.629a7.588 7.588 0 01-5.291-1.771 6.197 6.197 0 01-1.934-4.823V11.959a6.18 6.18 0 01.437-2.62 6.253 6.253 0 011.497-2.203 7.616 7.616 0 015.291-1.764c4.811 0 7.153 2.431 7.153 7.433v1.077h-3.763v-1.05a4.756 4.756 0 00-.821-3.047 3.223 3.223 0 00-2.609-1.017 3.398 3.398 0 00-2.535.918 3.623 3.623 0 00-.894 2.643v9.481a3.532 3.532 0 00.894 2.597 3.4 3.4 0 002.535.905c2.282 0 3.43-1.322 3.43-3.892v-1.255h3.763v1.255c0 2.405-.607 4.242-1.802 5.445-1.194 1.202-2.995 1.764-5.351 1.764zm-81.338-1.771a6.24 6.24 0 001.498-2.203 6.182 6.182 0 00.437-2.62V11.959a6.197 6.197 0 00-.438-2.62 6.24 6.24 0 00-1.497-2.203 7.614 7.614 0 00-5.291-1.77c-2.309 0-4.097.62-5.338 1.836-1.24 1.216-1.835 2.993-1.835 5.286v1.394h3.69V12.52a3.94 3.94 0 01.907-2.775 3.368 3.368 0 012.596-.971 3.52 3.52 0 012.575.918 3.542 3.542 0 01.928 2.643v3.085h-4.898v3.27h4.898v3.12a3.506 3.506 0 01-.928 2.59 3.535 3.535 0 01-2.575.918 3.366 3.366 0 01-2.596-.998 3.993 3.993 0 01-.907-2.788v-1.361h-3.69v1.36c0 4.81 2.342 7.156 7.153 7.156a7.573 7.573 0 005.311-1.83zm53.456 0a6.24 6.24 0 001.498-2.203 6.182 6.182 0 00.437-2.62V11.959a6.227 6.227 0 00-1.935-4.823 7.614 7.614 0 00-5.291-1.764c-2.308 0-4.097.614-5.338 1.83-1.241 1.216-1.834 2.993-1.834 5.286v1.394h3.689v-1.368a3.936 3.936 0 01.901-2.768 3.367 3.367 0 012.602-.978 3.504 3.504 0 012.569.918 3.513 3.513 0 01.927 2.643v3.085h-4.89v3.271h4.89v3.125a3.475 3.475 0 01-.927 2.584 3.504 3.504 0 01-2.569.918 3.361 3.361 0 01-2.602-.998 3.993 3.993 0 01-.901-2.788v-1.361h-3.669v1.361c0 4.817 2.342 7.155 7.152 7.155a7.586 7.586 0 005.291-1.823zM146.3 28.305V5.689h-14.378v22.616h3.79V9.098h6.858v19.207h3.73zm-17.961 0V5.689h-13.758v17.707c0 1.202-.807 1.704-2.175 1.704v3.205c2.429 0 5.912-.436 5.912-4.625V9.144h6.265v19.207l3.756-.046zm-34.448-6.402v.62a5.384 5.384 0 01-.379 2.307 5.43 5.43 0 01-1.322 1.936 6.997 6.997 0 01-4.79 1.539h-7.867V5.689h7.473a7.06 7.06 0 014.777 1.493 5.24 5.24 0 011.31 1.888c.29.718.417 1.49.371 2.261v.621a4.815 4.815 0 01-.803 2.789 4.887 4.887 0 01-2.266 1.836v.456c1.054.3 1.974.944 2.609 1.83.635.884.948 1.956.887 3.04zm-10.595-6.66h3.25c2.108 0 3.182-.978 3.182-2.9v-.556a2.574 2.574 0 00-.814-2.081 3.67 3.67 0 00-2.402-.66h-3.216v6.197zm6.859 6.27a2.861 2.861 0 00-.847-2.2 3.397 3.397 0 00-2.37-.773h-3.642v6.428h3.603c2.162 0 3.256-.977 3.256-2.9v-.555zm-18.388 6.792V9.059h4.937v-3.37H63.066v3.37h4.938v19.246h3.763zM181.188 6.389v-.7h-3.736l-4.23 9.673h-2.302V5.689h-3.763v22.616h3.763v-9.673h2.315l4.324 9.673h3.796v-.707l-4.944-10.637 4.777-10.572z" fill="#292A29"/><path d="M67 38h132" stroke="#292A29"/><path d="M71.805 53.907c.345.16.61.39.796.69.186.301.28.655.28 1.062v.492c0 .45-.111.853-.333 1.207a2.155 2.155 0 01-.916.81c-.389.186-.84.279-1.353.279-.859 0-1.518-.226-1.978-.677-.451-.451-.677-1.106-.677-1.965v-.464h1.234v.464c0 .523.115.907.345 1.155.24.24.602.359 1.089.359.407 0 .734-.12.982-.359s.372-.553.372-.942v-.345c0-.38-.11-.673-.332-.876-.221-.204-.54-.306-.956-.306h-.783v-1.115h.823c.345 0 .62-.106.823-.318.204-.213.305-.5.305-.863v-.332c0-.407-.115-.725-.345-.956-.23-.238-.54-.358-.929-.358-.442 0-.779.133-1.009.398-.23.257-.345.633-.345 1.128v.452h-1.234v-.452c0-.849.22-1.504.663-1.964.443-.46 1.08-.69 1.912-.69.752 0 1.358.212 1.818.637.47.425.704.982.704 1.672v.505c0 .363-.084.69-.252.982a1.95 1.95 0 01-.704.69zm7.63 4.195v.186h-1.247l-.478-1.938h-2.469l-.478 1.938h-1.247v-.186l2.243-8.522h1.447l2.23 8.522zm-2.004-2.854l-.955-3.903-.956 3.903h1.911zm7.036-1.394c.38.168.672.42.876.757.212.327.318.725.318 1.194v.266c0 .69-.216 1.234-.65 1.633-.425.389-1.013.584-1.765.584h-2.668V49.58H83.1c.76 0 1.354.19 1.778.57.425.373.637.899.637 1.58v.266c0 .442-.093.823-.278 1.141-.177.31-.434.549-.77.717zm-2.655-3.159v2.628h1.168c.425 0 .748-.102.97-.305.23-.212.344-.518.344-.916v-.239c0-.779-.442-1.168-1.327-1.168h-1.155zm2.628 5.004c0-.407-.115-.721-.345-.942-.23-.221-.553-.332-.969-.332h-1.314v2.748H83.1c.442 0 .774-.102.995-.306.23-.212.345-.522.345-.929V55.7zm5.156 2.748c-.806 0-1.443-.221-1.912-.664-.469-.451-.703-1.066-.703-1.845V51.93c0-.77.234-1.38.703-1.831.47-.452 1.106-.677 1.912-.677.805 0 1.442.225 1.911.677.47.451.704 1.062.704 1.831v4.01c0 .769-.235 1.38-.704 1.83-.469.452-1.106.678-1.911.678zm0-1.128c.442 0 .783-.129 1.022-.385.248-.257.372-.615.372-1.075v-3.837c0-.469-.124-.831-.372-1.088-.24-.257-.58-.385-1.022-.385-.443 0-.788.128-1.036.385-.239.257-.358.62-.358 1.088v3.837c0 .46.12.818.358 1.075.248.256.593.385 1.036.385zm10-.16v2.894h-1.221v-1.765h-4.301v1.765H92.84v-2.894h.743c.345-.699.526-1.623.544-2.774l.066-4.805h4.58v7.58h.823zm-4.327-2.681c-.01 1.07-.177 1.965-.505 2.681h2.788v-6.45h-2.217l-.066 3.769zm13.648-4.898v8.708h-1.235v-7.58h-2.628v7.58h-1.234V49.58h5.097zm4.193 8.867c-.805 0-1.442-.221-1.911-.664-.469-.451-.704-1.066-.704-1.845V51.93c0-.77.235-1.38.704-1.831.469-.452 1.106-.677 1.911-.677.805 0 1.442.225 1.911.677.469.451.704 1.062.704 1.831v4.01c0 .769-.235 1.38-.704 1.83-.469.452-1.106.678-1.911.678zm0-1.128c.442 0 .783-.129 1.022-.385.248-.257.372-.615.372-1.075v-3.837c0-.469-.124-.831-.372-1.088-.239-.257-.58-.385-1.022-.385-.442 0-.788.128-1.035.385-.239.257-.359.62-.359 1.088v3.837c0 .46.12.818.359 1.075.247.256.593.385 1.035.385zm9.317.969h-1.234v-7.58h-2.177l-.08 5.15c-.009.824-.181 1.434-.517 1.832-.328.399-.823.598-1.487.598h-.491v-1.129h.332c.336 0 .584-.115.743-.345.168-.23.257-.588.265-1.075l.08-5.03h-.027V49.58h4.593v8.708zm2.796-8.708v6.133l2.642-6.133h1.248v8.708h-1.208v-6.146l-2.615 6.146h-1.275V49.58h1.208zm12.237 8.708h-1.194v-6.345l-1.752 6.345h-.863l-1.752-6.305v6.305h-1.195V49.58h1.593l1.779 6.265 1.778-6.265h1.606v8.708zm6.105-8.708v1.128h-3.278v2.668h3.079v1.115h-3.079v2.668h3.278v1.129h-4.513V49.58h4.513zm3.872 0c.805 0 1.421.208 1.845.624.434.407.651 1 .651 1.779v.265c0 .788-.213 1.385-.637 1.792-.425.407-1.045.61-1.859.61h-1.46v3.638h-1.234V49.58h2.694zm-.093 3.956c.912 0 1.368-.43 1.368-1.288v-.265c0-.85-.456-1.275-1.368-1.275h-1.367v2.828h1.367zm5.037-3.956v3.796h2.561V49.58h1.235v8.708h-1.235V54.49h-2.561v3.797h-1.235V49.58h1.235zm6.65 0v3.465h1.434c.814 0 1.433.203 1.858.61.425.407.637 1.009.637 1.805v.412c0 .787-.212 1.39-.637 1.805-.425.407-1.044.61-1.858.61h-2.655V49.58h1.221zm6 0v8.708h-1.221V49.58h1.221zm-4.659 7.593c.902 0 1.354-.438 1.354-1.315v-.411c0-.858-.452-1.288-1.354-1.288h-1.341v3.014h1.341zm11.613.929v.186h-1.234l-1.593-3.385-1.593 3.385h-1.234v-.186l2.031-4.208-2.005-4.128v-.186h1.235l1.566 3.305 1.54-3.305h1.247v.186l-1.977 4.128 2.017 4.208zm2.932-7.394V49.58h5.097v1.128h-1.938v7.58h-1.221v-7.58h-1.938zm8.725-1.128c.805 0 1.42.208 1.845.624.434.407.65 1 .65 1.779v.265c0 .788-.212 1.385-.637 1.792-.425.407-1.044.61-1.858.61h-1.46v3.638h-1.235V49.58h2.695zm-.093 3.956c.911 0 1.367-.43 1.367-1.288v-.265c0-.85-.456-1.275-1.367-1.275h-1.367v2.828h1.367zm8.772-3.956v.186l-2.322 7.101c-.169.505-.399.867-.691 1.089-.283.221-.677.332-1.181.332h-.916v-1.129h.836c.23 0 .403-.048.518-.146.124-.106.23-.292.319-.557v-.014l-2.284-6.676v-.186h1.222l1.685 5.243 1.633-5.243h1.181zm5.522 0v1.128h-3.425v2.496h1.461c.823 0 1.442.199 1.858.597.425.398.637.978.637 1.739v.411c0 .761-.212 1.341-.637 1.74-.416.398-1.035.597-1.858.597h-2.695V49.58h4.659zm-2.057 7.593c.442 0 .778-.098 1.008-.292.239-.195.359-.505.359-.93v-.411c0-.39-.106-.69-.319-.903-.212-.212-.562-.318-1.048-.318h-1.368v2.854h1.368z" fill="#292A29"/></svg>